<?xml version="1.0" standalone="no"?>
<!DOCTYPE svg PUBLIC "-//W3C//DTD SVG 1.1//EN" "http://www.w3.org/Graphics/SVG/1.1/DTD/svg11.dtd">
<svg width="475mm" height="89mm" viewBox="-25 -57 475 89" xmlns="http://www.w3.org/2000/svg" version="1.1">
<title>OpenSCAD Model</title>
<path d="
M 450,-56.25 L 0,-56.25 L 0,-0 L 450,-0 z
M 266.398,-46.4653 L 268.294,-45.9573 L 270.126,-45.254 L 271.875,-44.363 L 273.521,-43.2941 L 275.046,-42.059
 L 276.434,-40.6712 L 277.669,-39.146 L 278.738,-37.5 L 279.629,-35.7513 L 280.332,-33.9191 L 280.84,-32.0233
 L 281.147,-30.0849 L 281.25,-28.125 L 281.147,-26.1651 L 280.84,-24.2267 L 280.332,-22.3309 L 279.629,-20.4987
 L 278.738,-18.75 L 277.669,-17.104 L 276.434,-15.5788 L 275.046,-14.191 L 273.521,-12.9559 L 271.875,-11.887
 L 270.126,-10.996 L 268.294,-10.2927 L 266.398,-9.78473 L 264.46,-9.47771 L 262.5,-9.375 L 260.54,-9.47771
 L 258.602,-9.78473 L 256.706,-10.2927 L 254.874,-10.996 L 253.125,-11.887 L 251.479,-12.9559 L 249.954,-14.191
 L 248.566,-15.5788 L 247.331,-17.104 L 246.262,-18.75 L 245.371,-20.4987 L 244.668,-22.3309 L 244.16,-24.2267
 L 243.853,-26.1651 L 243.75,-28.125 L 243.853,-30.0849 L 244.16,-32.0233 L 244.668,-33.9191 L 245.371,-35.7513
 L 246.262,-37.5 L 247.331,-39.146 L 248.566,-40.6712 L 249.954,-42.059 L 251.479,-43.2941 L 253.125,-44.363
 L 254.874,-45.254 L 256.706,-45.9573 L 258.602,-46.4653 L 260.54,-46.7723 L 262.5,-46.875 L 264.46,-46.7723
 z
M 262.552,-27.6277 L 262.604,-27.6359 L 262.655,-27.6495 L 262.703,-27.6682 L 262.75,-27.692 L 262.794,-27.7205
 L 262.835,-27.7534 L 262.872,-27.7904 L 262.905,-27.8311 L 262.933,-27.875 L 262.957,-27.9216 L 262.976,-27.9705
 L 262.989,-28.021 L 262.997,-28.0727 L 263,-28.125 L 262.997,-28.1773 L 262.989,-28.2289 L 262.976,-28.2795
 L 262.957,-28.3284 L 262.933,-28.375 L 262.905,-28.4189 L 262.872,-28.4596 L 262.835,-28.4966 L 262.794,-28.5295
 L 262.75,-28.558 L 262.703,-28.5818 L 262.655,-28.6005 L 262.604,-28.6141 L 262.552,-28.6223 L 262.5,-28.625
 L 262.448,-28.6223 L 262.396,-28.6141 L 262.345,-28.6005 L 262.297,-28.5818 L 262.25,-28.558 L 262.206,-28.5295
 L 262.165,-28.4966 L 262.128,-28.4596 L 262.095,-28.4189 L 262.067,-28.375 L 262.043,-28.3284 L 262.024,-28.2795
 L 262.011,-28.2289 L 262.003,-28.1773 L 262,-28.125 L 262.003,-28.0727 L 262.011,-28.021 L 262.024,-27.9705
 L 262.043,-27.9216 L 262.067,-27.875 L 262.095,-27.8311 L 262.128,-27.7904 L 262.165,-27.7534 L 262.206,-27.7205
 L 262.25,-27.692 L 262.297,-27.6682 L 262.345,-27.6495 L 262.396,-27.6359 L 262.448,-27.6277 L 262.5,-27.625
 z
M 410.54,-9.47771 L 408.602,-9.78473 L 406.706,-10.2927 L 404.874,-10.996 L 403.125,-11.887 L 401.479,-12.9559
 L 399.954,-14.191 L 398.566,-15.5788 L 397.331,-17.104 L 396.262,-18.75 L 395.371,-20.4987 L 394.668,-22.3309
 L 394.16,-24.2267 L 393.853,-26.1651 L 393.75,-28.125 L 393.853,-30.0849 L 394.16,-32.0233 L 394.668,-33.9191
 L 395.371,-35.7513 L 396.262,-37.5 L 397.331,-39.146 L 398.566,-40.6712 L 399.954,-42.059 L 401.479,-43.2941
 L 403.125,-44.363 L 404.874,-45.254 L 406.706,-45.9573 L 408.602,-46.4653 L 410.54,-46.7723 L 412.5,-46.875
 L 414.46,-46.7723 L 416.398,-46.4653 L 418.294,-45.9573 L 420.126,-45.254 L 421.875,-44.363 L 423.521,-43.2941
 L 425.046,-42.059 L 426.434,-40.6712 L 427.669,-39.146 L 428.738,-37.5 L 429.629,-35.7513 L 430.332,-33.9191
 L 430.84,-32.0233 L 431.147,-30.0849 L 431.25,-28.125 L 431.147,-26.1651 L 430.84,-24.2267 L 430.332,-22.3309
 L 429.629,-20.4987 L 428.738,-18.75 L 427.669,-17.104 L 426.434,-15.5788 L 425.046,-14.191 L 423.521,-12.9559
 L 421.875,-11.887 L 420.126,-10.996 L 418.294,-10.2927 L 416.398,-9.78473 L 414.46,-9.47771 L 412.5,-9.375
 z
M 412.552,-27.6277 L 412.604,-27.6359 L 412.655,-27.6495 L 412.703,-27.6682 L 412.75,-27.692 L 412.794,-27.7205
 L 412.835,-27.7534 L 412.872,-27.7904 L 412.905,-27.8311 L 412.933,-27.875 L 412.957,-27.9216 L 412.976,-27.9705
 L 412.989,-28.021 L 412.997,-28.0727 L 413,-28.125 L 412.997,-28.1773 L 412.989,-28.2289 L 412.976,-28.2795
 L 412.957,-28.3284 L 412.933,-28.375 L 412.905,-28.4189 L 412.872,-28.4596 L 412.835,-28.4966 L 412.794,-28.5295
 L 412.75,-28.558 L 412.703,-28.5818 L 412.655,-28.6005 L 412.604,-28.6141 L 412.552,-28.6223 L 412.5,-28.625
 L 412.448,-28.6223 L 412.396,-28.6141 L 412.345,-28.6005 L 412.297,-28.5818 L 412.25,-28.558 L 412.206,-28.5295
 L 412.165,-28.4966 L 412.128,-28.4596 L 412.095,-28.4189 L 412.067,-28.375 L 412.043,-28.3284 L 412.024,-28.2795
 L 412.011,-28.2289 L 412.003,-28.1773 L 412,-28.125 L 412.003,-28.0727 L 412.011,-28.021 L 412.024,-27.9705
 L 412.043,-27.9216 L 412.067,-27.875 L 412.095,-27.8311 L 412.128,-27.7904 L 412.165,-27.7534 L 412.206,-27.7205
 L 412.25,-27.692 L 412.297,-27.6682 L 412.345,-27.6495 L 412.396,-27.6359 L 412.448,-27.6277 L 412.5,-27.625
 z
M 110.54,-9.47771 L 108.602,-9.78473 L 106.706,-10.2927 L 104.874,-10.996 L 103.125,-11.887 L 101.479,-12.9559
 L 99.9538,-14.191 L 98.566,-15.5788 L 97.3309,-17.104 L 96.262,-18.75 L 95.371,-20.4987 L 94.6677,-22.3309
 L 94.1597,-24.2267 L 93.8527,-26.1651 L 93.75,-28.125 L 93.8527,-30.0849 L 94.1597,-32.0233 L 94.6677,-33.9191
 L 95.371,-35.7513 L 96.262,-37.5 L 97.3309,-39.146 L 98.566,-40.6712 L 99.9538,-42.059 L 101.479,-43.2941
 L 103.125,-44.363 L 104.874,-45.254 L 106.706,-45.9573 L 108.602,-46.4653 L 110.54,-46.7723 L 112.5,-46.875
 L 114.46,-46.7723 L 116.398,-46.4653 L 118.294,-45.9573 L 120.126,-45.254 L 121.875,-44.363 L 123.521,-43.2941
 L 125.046,-42.059 L 126.434,-40.6712 L 127.669,-39.146 L 128.738,-37.5 L 129.629,-35.7513 L 130.332,-33.9191
 L 130.84,-32.0233 L 131.147,-30.0849 L 131.25,-28.125 L 131.147,-26.1651 L 130.84,-24.2267 L 130.332,-22.3309
 L 129.629,-20.4987 L 128.738,-18.75 L 127.669,-17.104 L 126.434,-15.5788 L 125.046,-14.191 L 123.521,-12.9559
 L 121.875,-11.887 L 120.126,-10.996 L 118.294,-10.2927 L 116.398,-9.78473 L 114.46,-9.47771 L 112.5,-9.375
 z
M 112.552,-27.6277 L 112.604,-27.6359 L 112.655,-27.6495 L 112.703,-27.6682 L 112.75,-27.692 L 112.794,-27.7205
 L 112.835,-27.7534 L 112.872,-27.7904 L 112.905,-27.8311 L 112.933,-27.875 L 112.957,-27.9216 L 112.976,-27.9705
 L 112.989,-28.021 L 112.997,-28.0727 L 113,-28.125 L 112.997,-28.1773 L 112.989,-28.2289 L 112.976,-28.2795
 L 112.957,-28.3284 L 112.933,-28.375 L 112.905,-28.4189 L 112.872,-28.4596 L 112.835,-28.4966 L 112.794,-28.5295
 L 112.75,-28.558 L 112.703,-28.5818 L 112.655,-28.6005 L 112.604,-28.6141 L 112.552,-28.6223 L 112.5,-28.625
 L 112.448,-28.6223 L 112.396,-28.6141 L 112.345,-28.6005 L 112.297,-28.5818 L 112.25,-28.558 L 112.206,-28.5295
 L 112.165,-28.4966 L 112.128,-28.4596 L 112.095,-28.4189 L 112.067,-28.375 L 112.043,-28.3284 L 112.024,-28.2795
 L 112.011,-28.2289 L 112.003,-28.1773 L 112,-28.125 L 112.003,-28.0727 L 112.011,-28.021 L 112.024,-27.9705
 L 112.043,-27.9216 L 112.067,-27.875 L 112.095,-27.8311 L 112.128,-27.7904 L 112.165,-27.7534 L 112.206,-27.7205
 L 112.25,-27.692 L 112.297,-27.6682 L 112.345,-27.6495 L 112.396,-27.6359 L 112.448,-27.6277 L 112.5,-27.625
 z
M 185.54,-9.47771 L 183.602,-9.78473 L 181.706,-10.2927 L 179.874,-10.996 L 178.125,-11.887 L 176.479,-12.9559
 L 174.954,-14.191 L 173.566,-15.5788 L 172.331,-17.104 L 171.262,-18.75 L 170.371,-20.4987 L 169.668,-22.3309
 L 169.16,-24.2267 L 168.853,-26.1651 L 168.75,-28.125 L 168.853,-30.0849 L 169.16,-32.0233 L 169.668,-33.9191
 L 170.371,-35.7513 L 171.262,-37.5 L 172.331,-39.146 L 173.566,-40.6712 L 174.954,-42.059 L 176.479,-43.2941
 L 178.125,-44.363 L 179.874,-45.254 L 181.706,-45.9573 L 183.602,-46.4653 L 185.54,-46.7723 L 187.5,-46.875
 L 189.46,-46.7723 L 191.398,-46.4653 L 193.294,-45.9573 L 195.126,-45.254 L 196.875,-44.363 L 198.521,-43.2941
 L 200.046,-42.059 L 201.434,-40.6712 L 202.669,-39.146 L 203.738,-37.5 L 204.629,-35.7513 L 205.332,-33.9191
 L 205.84,-32.0233 L 206.147,-30.0849 L 206.25,-28.125 L 206.147,-26.1651 L 205.84,-24.2267 L 205.332,-22.3309
 L 204.629,-20.4987 L 203.738,-18.75 L 202.669,-17.104 L 201.434,-15.5788 L 200.046,-14.191 L 198.521,-12.9559
 L 196.875,-11.887 L 195.126,-10.996 L 193.294,-10.2927 L 191.398,-9.78473 L 189.46,-9.47771 L 187.5,-9.375
 z
M 187.552,-27.6277 L 187.604,-27.6359 L 187.655,-27.6495 L 187.703,-27.6682 L 187.75,-27.692 L 187.794,-27.7205
 L 187.835,-27.7534 L 187.872,-27.7904 L 187.905,-27.8311 L 187.933,-27.875 L 187.957,-27.9216 L 187.976,-27.9705
 L 187.989,-28.021 L 187.997,-28.0727 L 188,-28.125 L 187.997,-28.1773 L 187.989,-28.2289 L 187.976,-28.2795
 L 187.957,-28.3284 L 187.933,-28.375 L 187.905,-28.4189 L 187.872,-28.4596 L 187.835,-28.4966 L 187.794,-28.5295
 L 187.75,-28.558 L 187.703,-28.5818 L 187.655,-28.6005 L 187.604,-28.6141 L 187.552,-28.6223 L 187.5,-28.625
 L 187.448,-28.6223 L 187.396,-28.6141 L 187.345,-28.6005 L 187.297,-28.5818 L 187.25,-28.558 L 187.206,-28.5295
 L 187.165,-28.4966 L 187.128,-28.4596 L 187.095,-28.4189 L 187.067,-28.375 L 187.043,-28.3284 L 187.024,-28.2795
 L 187.011,-28.2289 L 187.003,-28.1773 L 187,-28.125 L 187.003,-28.0727 L 187.011,-28.021 L 187.024,-27.9705
 L 187.043,-27.9216 L 187.067,-27.875 L 187.095,-27.8311 L 187.128,-27.7904 L 187.165,-27.7534 L 187.206,-27.7205
 L 187.25,-27.692 L 187.297,-27.6682 L 187.345,-27.6495 L 187.396,-27.6359 L 187.448,-27.6277 L 187.5,-27.625
 z
M 35.5401,-9.47771 L 33.6017,-9.78473 L 31.7059,-10.2927 L 29.8737,-10.996 L 28.125,-11.887 L 26.479,-12.9559
 L 24.9538,-14.191 L 23.566,-15.5788 L 22.3309,-17.104 L 21.262,-18.75 L 20.371,-20.4987 L 19.6677,-22.3309
 L 19.1597,-24.2267 L 18.8527,-26.1651 L 18.75,-28.125 L 18.8527,-30.0849 L 19.1597,-32.0233 L 19.6677,-33.9191
 L 20.371,-35.7513 L 21.262,-37.5 L 22.3309,-39.146 L 23.566,-40.6712 L 24.9538,-42.059 L 26.479,-43.2941
 L 28.125,-44.363 L 29.8737,-45.254 L 31.7059,-45.9573 L 33.6017,-46.4653 L 35.5401,-46.7723 L 37.5,-46.875
 L 39.4599,-46.7723 L 41.3983,-46.4653 L 43.2941,-45.9573 L 45.1263,-45.254 L 46.875,-44.363 L 48.521,-43.2941
 L 50.0462,-42.059 L 51.434,-40.6712 L 52.6691,-39.146 L 53.738,-37.5 L 54.629,-35.7513 L 55.3323,-33.9191
 L 55.8403,-32.0233 L 56.1473,-30.0849 L 56.25,-28.125 L 56.1473,-26.1651 L 55.8403,-24.2267 L 55.3323,-22.3309
 L 54.629,-20.4987 L 53.738,-18.75 L 52.6691,-17.104 L 51.434,-15.5788 L 50.0462,-14.191 L 48.521,-12.9559
 L 46.875,-11.887 L 45.1263,-10.996 L 43.2941,-10.2927 L 41.3983,-9.78473 L 39.4599,-9.47771 L 37.5,-9.375
 z
M 37.5523,-27.6277 L 37.6039,-27.6359 L 37.6545,-27.6495 L 37.7034,-27.6682 L 37.75,-27.692 L 37.7939,-27.7205
 L 37.8346,-27.7534 L 37.8716,-27.7904 L 37.9045,-27.8311 L 37.933,-27.875 L 37.9568,-27.9216 L 37.9755,-27.9705
 L 37.9891,-28.021 L 37.9973,-28.0727 L 38,-28.125 L 37.9973,-28.1773 L 37.9891,-28.2289 L 37.9755,-28.2795
 L 37.9568,-28.3284 L 37.933,-28.375 L 37.9045,-28.4189 L 37.8716,-28.4596 L 37.8346,-28.4966 L 37.7939,-28.5295
 L 37.75,-28.558 L 37.7034,-28.5818 L 37.6545,-28.6005 L 37.6039,-28.6141 L 37.5523,-28.6223 L 37.5,-28.625
 L 37.4477,-28.6223 L 37.396,-28.6141 L 37.3455,-28.6005 L 37.2966,-28.5818 L 37.25,-28.558 L 37.2061,-28.5295
 L 37.1654,-28.4966 L 37.1284,-28.4596 L 37.0955,-28.4189 L 37.067,-28.375 L 37.0432,-28.3284 L 37.0245,-28.2795
 L 37.0109,-28.2289 L 37.0027,-28.1773 L 37,-28.125 L 37.0027,-28.0727 L 37.0109,-28.021 L 37.0245,-27.9705
 L 37.0432,-27.9216 L 37.067,-27.875 L 37.0955,-27.8311 L 37.1284,-27.7904 L 37.1654,-27.7534 L 37.2061,-27.7205
 L 37.25,-27.692 L 37.2966,-27.6682 L 37.3455,-27.6495 L 37.396,-27.6359 L 37.4477,-27.6277 L 37.5,-27.625
 z
M 335.54,-9.47771 L 333.602,-9.78473 L 331.706,-10.2927 L 329.874,-10.996 L 328.125,-11.887 L 326.479,-12.9559
 L 324.954,-14.191 L 323.566,-15.5788 L 322.331,-17.104 L 321.262,-18.75 L 320.371,-20.4987 L 319.668,-22.3309
 L 319.16,-24.2267 L 318.853,-26.1651 L 318.75,-28.125 L 318.853,-30.0849 L 319.16,-32.0233 L 319.668,-33.9191
 L 320.371,-35.7513 L 321.262,-37.5 L 322.331,-39.146 L 323.566,-40.6712 L 324.954,-42.059 L 326.479,-43.2941
 L 328.125,-44.363 L 329.874,-45.254 L 331.706,-45.9573 L 333.602,-46.4653 L 335.54,-46.7723 L 337.5,-46.875
 L 339.46,-46.7723 L 341.398,-46.4653 L 343.294,-45.9573 L 345.126,-45.254 L 346.875,-44.363 L 348.521,-43.2941
 L 350.046,-42.059 L 351.434,-40.6712 L 352.669,-39.146 L 353.738,-37.5 L 354.629,-35.7513 L 355.332,-33.9191
 L 355.84,-32.0233 L 356.147,-30.0849 L 356.25,-28.125 L 356.147,-26.1651 L 355.84,-24.2267 L 355.332,-22.3309
 L 354.629,-20.4987 L 353.738,-18.75 L 352.669,-17.104 L 351.434,-15.5788 L 350.046,-14.191 L 348.521,-12.9559
 L 346.875,-11.887 L 345.126,-10.996 L 343.294,-10.2927 L 341.398,-9.78473 L 339.46,-9.47771 L 337.5,-9.375
 z
M 337.552,-27.6277 L 337.604,-27.6359 L 337.655,-27.6495 L 337.703,-27.6682 L 337.75,-27.692 L 337.794,-27.7205
 L 337.835,-27.7534 L 337.872,-27.7904 L 337.905,-27.8311 L 337.933,-27.875 L 337.957,-27.9216 L 337.976,-27.9705
 L 337.989,-28.021 L 337.997,-28.0727 L 338,-28.125 L 337.997,-28.1773 L 337.989,-28.2289 L 337.976,-28.2795
 L 337.957,-28.3284 L 337.933,-28.375 L 337.905,-28.4189 L 337.872,-28.4596 L 337.835,-28.4966 L 337.794,-28.5295
 L 337.75,-28.558 L 337.703,-28.5818 L 337.655,-28.6005 L 337.604,-28.6141 L 337.552,-28.6223 L 337.5,-28.625
 L 337.448,-28.6223 L 337.396,-28.6141 L 337.345,-28.6005 L 337.297,-28.5818 L 337.25,-28.558 L 337.206,-28.5295
 L 337.165,-28.4966 L 337.128,-28.4596 L 337.095,-28.4189 L 337.067,-28.375 L 337.043,-28.3284 L 337.024,-28.2795
 L 337.011,-28.2289 L 337.003,-28.1773 L 337,-28.125 L 337.003,-28.0727 L 337.011,-28.021 L 337.024,-27.9705
 L 337.043,-27.9216 L 337.067,-27.875 L 337.095,-27.8311 L 337.128,-27.7904 L 337.165,-27.7534 L 337.206,-27.7205
 L 337.25,-27.692 L 337.297,-27.6682 L 337.345,-27.6495 L 337.396,-27.6359 L 337.448,-27.6277 L 337.5,-27.625
 z
M -21.1956,-49.4664 L -20.9029,-49.5038 L -20.6251,-49.5661 L -20.3621,-49.6533 L -20.114,-49.7655 L -19.8808,-49.9025
 L -19.6624,-50.0645 L -19.459,-50.2514 L -19.2752,-50.4591 L -19.1159,-50.6839 L -18.9811,-50.9257 L -18.8708,-51.1846
 L -18.785,-51.4606 L -18.7238,-51.7536 L -18.687,-52.0637 L -18.6748,-52.3909 L -18.6838,-52.6659 L -18.711,-52.9293
 L -18.7564,-53.1813 L -18.8199,-53.4218 L -18.9015,-53.6507 L -19.0013,-53.8682 L -19.1192,-54.0741 L -19.2553,-54.2686
 L -16.3736,-54.0944 L -16.3736,-49.9831 L -15.3857,-49.9831 L -15.3857,-55.1527 L -20.2755,-55.4563 L -20.2755,-54.3199
 L -20.19,-54.2184 L -20.1109,-54.1168 L -20.0383,-54.0152 L -19.9722,-53.9136 L -19.9125,-53.812 L -19.8592,-53.7104
 L -19.8124,-53.6088 L -19.7721,-53.5072 L -19.7373,-53.4044 L -19.7071,-53.2996 L -19.6816,-53.1927 L -19.6607,-53.0839
 L -19.6445,-52.9731 L -19.6329,-52.8604 L -19.6259,-52.7456 L -19.6236,-52.6288 L -19.6318,-52.4088 L -19.6565,-52.2004
 L -19.6976,-52.0036 L -19.7552,-51.8184 L -19.8292,-51.6448 L -19.9196,-51.4828 L -20.0265,-51.3324 L -20.1499,-51.1936
 L -20.2865,-51.0687 L -20.4334,-50.9604 L -20.5905,-50.8689 L -20.7578,-50.7939 L -20.9353,-50.7356 L -21.1229,-50.694
 L -21.3208,-50.669 L -21.5289,-50.6607 L -21.7679,-50.6689 L -21.9937,-50.6937 L -22.2063,-50.7351 L -22.4059,-50.793
 L -22.5923,-50.8674 L -22.7655,-50.9583 L -22.9256,-51.0658 L -23.0725,-51.1898 L -23.2041,-51.3285 L -23.3182,-51.4799
 L -23.4147,-51.644 L -23.4937,-51.8208 L -23.5551,-52.0104 L -23.599,-52.2126 L -23.6253,-52.4277 L -23.634,-52.6554
 L -23.613,-53.0181 L -23.5497,-53.3446 L -23.4443,-53.6351 L -23.2967,-53.8896 L -23.1069,-54.1079 L -22.875,-54.2901
 L -22.6008,-54.4363 L -22.2845,-54.5465 L -22.4197,-55.7209 L -22.6751,-55.6603 L -22.9149,-55.5817 L -23.1393,-55.4853
 L -23.3481,-55.3709 L -23.5414,-55.2385 L -23.7191,-55.0883 L -23.8813,-54.9201 L -24.0281,-54.7339 L -24.1581,-54.5309
 L -24.2708,-54.3126 L -24.3661,-54.079 L -24.4442,-53.8301 L -24.5049,-53.5658 L -24.5482,-53.2862 L -24.5742,-52.9913
 L -24.5829,-52.6811 L -24.57,-52.3122 L -24.5315,-51.964 L -24.4673,-51.6365 L -24.3773,-51.3297 L -24.2617,-51.0436
 L -24.1204,-50.7782 L -23.9533,-50.5335 L -23.7606,-50.3095 L -23.5453,-50.109 L -23.3108,-49.9352 L -23.0573,-49.7881
 L -22.7847,-49.6678 L -22.4929,-49.5742 L -22.1821,-49.5074 L -21.8522,-49.4673 L -21.5032,-49.4539 z
M -21.1429,-42.3125 L -20.8349,-42.3472 L -20.5438,-42.405 L -20.2698,-42.4859 L -20.0128,-42.5898 L -19.7728,-42.7169
 L -19.5498,-42.8671 L -19.3438,-43.0405 L -19.1584,-43.2332 L -18.9978,-43.4422 L -18.8619,-43.6675 L -18.7507,-43.9091
 L -18.6642,-44.1669 L -18.6024,-44.441 L -18.5653,-44.7314 L -18.5529,-45.0381 L -18.5578,-45.2208 L -18.5722,-45.3983
 L -18.5962,-45.5707 L -18.6298,-45.7378 L -18.673,-45.8997 L -18.7258,-46.0564 L -18.7883,-46.2079 L -18.8603,-46.3543
 L -18.9413,-46.4939 L -19.0311,-46.6255 L -19.1297,-46.749 L -19.237,-46.8644 L -19.3531,-46.9717 L -19.4779,-47.0709
 L -19.6116,-47.162 L -19.754,-47.2451 L -19.328,-47.2365 L -18.9279,-47.211 L -18.5538,-47.1684 L -18.2056,-47.1087
 L -17.8833,-47.032 L -17.587,-46.9383 L -17.3166,-46.8275 L -17.0721,-46.6997 L -16.8548,-46.5564 L -16.6665,-46.399
 L -16.5072,-46.2276 L -16.3769,-46.0421 L -16.2755,-45.8426 L -16.2031,-45.6291 L -16.1596,-45.4015 L -16.1451,-45.1599
 L -16.1625,-44.8838 L -16.2145,-44.6331 L -16.3012,-44.4078 L -16.4226,-44.2079 L -16.5786,-44.0335 L -16.7693,-43.8845
 L -16.9947,-43.761 L -17.2548,-43.6629 L -17.055,-42.5532 L -16.6209,-42.7109 L -16.2447,-42.9162 L -15.9264,-43.1692
 L -15.666,-43.4697 L -15.4634,-43.8177 L -15.3187,-44.2134 L -15.2319,-44.6567 L -15.203,-45.1475 L -15.2228,-45.5268
 L -15.2822,-45.8837 L -15.3814,-46.2182 L -15.5201,-46.5303 L -15.6985,-46.8201 L -15.9165,-47.0876 L -16.1742,-47.3326
 L -16.4716,-47.5553 L -16.8057,-47.7534 L -17.1741,-47.925 L -17.5769,-48.0703 L -18.014,-48.1891 L -18.4855,-48.2816
 L -18.9914,-48.3476 L -19.5316,-48.3872 L -20.1061,-48.4004 L -20.6366,-48.3877 L -21.1345,-48.3496 L -21.5998,-48.2861
 L -22.0326,-48.1972 L -22.4328,-48.0829 L -22.8004,-47.9433 L -23.1355,-47.7782 L -23.438,-47.5877 L -23.7063,-47.373
 L -23.9389,-47.1357 L -24.1357,-46.8758 L -24.2967,-46.5934 L -24.4219,-46.2884 L -24.5113,-45.9608 L -24.565,-45.6106
 L -24.5829,-45.2379 L -24.5698,-44.9034 L -24.5307,-44.5875 L -24.4654,-44.2902 L -24.374,-44.0114 L -24.2565,-43.7513
 L -24.1129,-43.5097 L -23.9431,-43.2867 L -23.7473,-43.0823 L -23.5289,-42.8992 L -23.2915,-42.7405 L -23.0351,-42.6062
 L -22.7597,-42.4963 L -22.4653,-42.4109 L -22.1518,-42.3498 L -21.8194,-42.3132 L -21.468,-42.301 z
M -21.7609,-43.4895 L -21.9892,-43.5119 L -22.2041,-43.5492 L -22.4059,-43.6015 L -22.5943,-43.6687 L -22.7695,-43.7508
 L -22.9315,-43.8478 L -23.0802,-43.9598 L -23.2131,-44.0849 L -23.3283,-44.2212 L -23.4258,-44.3688 L -23.5056,-44.5277
 L -23.5676,-44.6979 L -23.6119,-44.8793 L -23.6385,-45.072 L -23.6474,-45.276 L -23.6368,-45.4748 L -23.6052,-45.6645
 L -23.5525,-45.8449 L -23.4787,-46.0162 L -23.3838,-46.1782 L -23.2678,-46.3311 L -23.1308,-46.4748 L -22.9726,-46.6093
 L -22.7979,-46.7311 L -22.6113,-46.8367 L -22.4128,-46.926 L -22.2022,-46.999 L -21.9797,-47.0559 L -21.7453,-47.0965
 L -21.4989,-47.1208 L -21.2405,-47.129 L -21.037,-47.1211 L -20.8447,-47.0977 L -20.6637,-47.0587 L -20.4939,-47.004
 L -20.3354,-46.9338 L -20.1881,-46.8479 L -20.052,-46.7464 L -19.9272,-46.6293 L -19.8154,-46.4993 L -19.7186,-46.3595
 L -19.6366,-46.2098 L -19.5696,-46.0504 L -19.5175,-45.8813 L -19.4802,-45.7023 L -19.4578,-45.5135 L -19.4504,-45.315
 L -19.4588,-45.1047 L -19.4841,-44.9063 L -19.5262,-44.7198 L -19.5851,-44.5453 L -19.6608,-44.3827 L -19.7534,-44.232
 L -19.8628,-44.0933 L -19.9891,-43.9664 L -20.1306,-43.8529 L -20.2863,-43.7545 L -20.4563,-43.6713 L -20.6405,-43.6031
 L -20.8389,-43.5502 L -21.0515,-43.5123 L -21.2783,-43.4896 L -21.5194,-43.482 z
M -23.0602,-40.686 L -24.4611,-40.686 L -24.4611,-39.4278 L -23.0602,-39.4278 z
M -23.4732,-36.3638 L -23.3594,-36.3116 L -23.2444,-36.2518 L -23.1284,-36.1844 L -23.0112,-36.1092 L -22.8928,-36.0264
 L -22.7734,-35.9359 L -22.6528,-35.8377 L -22.531,-35.7319 L -22.4069,-35.6172 L -22.279,-35.4931 L -22.1473,-35.3595
 L -22.0119,-35.2165 L -21.8727,-35.064 L -21.7298,-34.9021 L -21.5832,-34.7307 L -21.4328,-34.5498 L -21.1667,-34.2263
 L -20.9187,-33.9301 L -20.6886,-33.661 L -20.4765,-33.4192 L -20.2825,-33.2047 L -20.1064,-33.0174 L -19.9483,-32.8573
 L -19.8082,-32.7245 L -19.6769,-32.6087 L -19.5456,-32.5004 L -19.4144,-32.3994 L -19.2831,-32.3057 L -19.1519,-32.2195
 L -19.0208,-32.1406 L -18.8896,-32.0691 L -18.7585,-32.005 L -18.6273,-31.9481 L -18.4959,-31.8988 L -18.3643,-31.8571
 L -18.2325,-31.823 L -18.1004,-31.7964 L -17.9682,-31.7775 L -17.8357,-31.7661 L -17.7031,-31.7623 L -17.4121,-31.7739
 L -17.1382,-31.8085 L -16.8814,-31.8663 L -16.6417,-31.9472 L -16.4191,-32.0512 L -16.2136,-32.1783 L -16.0252,-32.3285
 L -15.8539,-32.5018 L -15.7014,-32.6963 L -15.5691,-32.9108 L -15.4572,-33.1451 L -15.3657,-33.3992 L -15.2945,-33.6733
 L -15.2437,-33.9672 L -15.2131,-34.2809 L -15.203,-34.6145 L -15.213,-34.9205 L -15.2433,-35.2123 L -15.2937,-35.4898
 L -15.3643,-35.753 L -15.455,-36.002 L -15.5659,-36.2368 L -15.697,-36.4573 L -15.8482,-36.6636 L -16.0165,-36.8523
 L -16.1987,-37.0202 L -16.3948,-37.1672 L -16.6048,-37.2934 L -16.8288,-37.3987 L -17.0666,-37.4832 L -17.3184,-37.5468
 L -17.5841,-37.5896 L -17.6936,-36.4028 L -17.5164,-36.3757 L -17.3495,-36.3361 L -17.1927,-36.2842 L -17.0462,-36.2198
 L -16.9098,-36.1431 L -16.7837,-36.0539 L -16.6677,-35.9524 L -16.562,-35.8384 L -16.4674,-35.714 L -16.3855,-35.5814
 L -16.3161,-35.4406 L -16.2593,-35.2917 L -16.2152,-35.1346 L -16.1837,-34.9694 L -16.1648,-34.7961 L -16.1585,-34.6145
 L -16.165,-34.4246 L -16.1844,-34.2453 L -16.2169,-34.0767 L -16.2624,-33.9189 L -16.3209,-33.7717 L -16.3924,-33.6353
 L -16.4769,-33.5095 L -16.5744,-33.3945 L -16.6834,-33.2916 L -16.8029,-33.2025 L -16.9331,-33.1271 L -17.0738,-33.0654
 L -17.225,-33.0174 L -17.3868,-32.9832 L -17.5592,-32.9626 L -17.7421,-32.9557 L -17.8795,-32.9597 L -18.0132,-32.9717
 L -18.1433,-32.9916 L -18.2698,-33.0195 L -18.3927,-33.0554 L -18.5119,-33.0992 L -18.6275,-33.151 L -18.7395,-33.2108
 L -18.8488,-33.277 L -18.9569,-33.3482 L -19.0639,-33.4243 L -19.1696,-33.5054 L -19.2742,-33.5913 L -19.3776,-33.6823
 L -19.4798,-33.7781 L -19.5808,-33.8789 L -19.6812,-33.9837 L -19.7816,-34.0916 L -19.882,-34.2027 L -19.9824,-34.3169
 L -20.0828,-34.4342 L -20.1832,-34.5547 L -20.2836,-34.6782 L -20.384,-34.8049 L -20.4855,-34.9333 L -20.589,-35.062
 L -20.6947,-35.1911 L -20.8025,-35.3205 L -20.9124,-35.4502 L -21.0244,-35.5802 L -21.1386,-35.7106 L -21.2548,-35.8413
 L -21.3738,-35.9712 L -21.4963,-36.0996 L -21.6222,-36.2265 L -21.7516,-36.3519 L -21.8844,-36.4758 L -22.0207,-36.5983
 L -22.1604,-36.7192 L -22.3036,-36.8387 L -22.4512,-36.9549 L -22.6045,-37.0666 L -22.7633,-37.1738 L -22.9277,-37.2765
 L -23.0976,-37.3746 L -23.2731,-37.4682 L -23.4541,-37.5573 L -23.6407,-37.6419 L -24.4611,-37.6419 L -24.4611,-31.6205
 L -23.4732,-31.6205 z
M -21.1956,-24.3439 L -20.9029,-24.3813 L -20.6251,-24.4436 L -20.3621,-24.5309 L -20.114,-24.643 L -19.8808,-24.7801
 L -19.6624,-24.9421 L -19.459,-25.129 L -19.2752,-25.3367 L -19.1159,-25.5614 L -18.9811,-25.8032 L -18.8708,-26.0621
 L -18.785,-26.3381 L -18.7238,-26.6311 L -18.687,-26.9412 L -18.6748,-27.2684 L -18.6838,-27.5434 L -18.711,-27.8069
 L -18.7564,-28.0589 L -18.8199,-28.2993 L -18.9015,-28.5283 L -19.0013,-28.7457 L -19.1192,-28.9517 L -19.2553,-29.1461
 L -16.3736,-28.972 L -16.3736,-24.8606 L -15.3857,-24.8606 L -15.3857,-30.0302 L -20.2755,-30.3338 L -20.2755,-29.1975
 L -20.19,-29.0959 L -20.1109,-28.9943 L -20.0383,-28.8927 L -19.9722,-28.7911 L -19.9125,-28.6895 L -19.8592,-28.588
 L -19.8124,-28.4864 L -19.7721,-28.3848 L -19.7373,-28.2819 L -19.7071,-28.1771 L -19.6816,-28.0703 L -19.6607,-27.9615
 L -19.6445,-27.8507 L -19.6329,-27.7379 L -19.6259,-27.6231 L -19.6236,-27.5063 L -19.6318,-27.2863 L -19.6565,-27.078
 L -19.6976,-26.8812 L -19.7552,-26.696 L -19.8292,-26.5224 L -19.9196,-26.3604 L -20.0265,-26.21 L -20.1499,-26.0712
 L -20.2865,-25.9463 L -20.4334,-25.838 L -20.5905,-25.7464 L -20.7578,-25.6715 L -20.9353,-25.6132 L -21.1229,-25.5715
 L -21.3208,-25.5466 L -21.5289,-25.5382 L -21.7679,-25.5465 L -21.9937,-25.5713 L -22.2063,-25.6126 L -22.4059,-25.6705
 L -22.5923,-25.7449 L -22.7655,-25.8359 L -22.9256,-25.9433 L -23.0725,-26.0674 L -23.2041,-26.206 L -23.3182,-26.3574
 L -23.4147,-26.5215 L -23.4937,-26.6983 L -23.5551,-26.8879 L -23.599,-27.0902 L -23.6253,-27.3052 L -23.634,-27.533
 L -23.613,-27.8956 L -23.5497,-28.2222 L -23.4443,-28.5127 L -23.2967,-28.7671 L -23.1069,-28.9854 L -22.875,-29.1677
 L -22.6008,-29.3139 L -22.2845,-29.424 L -22.4197,-30.5984 L -22.6751,-30.5378 L -22.9149,-30.4593 L -23.1393,-30.3628
 L -23.3481,-30.2484 L -23.5414,-30.1161 L -23.7191,-29.9658 L -23.8813,-29.7976 L -24.0281,-29.6115 L -24.1581,-29.4085
 L -24.2708,-29.1902 L -24.3661,-28.9566 L -24.4442,-28.7076 L -24.5049,-28.4434 L -24.5482,-28.1638 L -24.5742,-27.8689
 L -24.5829,-27.5587 L -24.57,-27.1898 L -24.5315,-26.8416 L -24.4673,-26.5141 L -24.3773,-26.2073 L -24.2617,-25.9212
 L -24.1204,-25.6558 L -23.9533,-25.4111 L -23.7606,-25.1871 L -23.5453,-24.9865 L -23.3108,-24.8127 L -23.0573,-24.6657
 L -22.7847,-24.5454 L -22.4929,-24.4518 L -22.1821,-24.3849 L -21.8522,-24.3448 L -21.5032,-24.3315 z
M -19.4819,-10.2315 L -19.1882,-10.254 L -18.9176,-10.2915 L -18.67,-10.3441 L -18.4455,-10.4117 L -18.2441,-10.4943
 L -18.0658,-10.5919 L -17.9105,-10.7045 L -17.7756,-10.8337 L -17.6586,-10.981 L -17.5597,-11.1462 L -17.4787,-11.3296
 L -17.4157,-11.531 L -17.3708,-11.7504 L -17.3438,-11.9879 L -17.3348,-12.2435 L -17.3396,-12.4225 L -17.3542,-12.5949
 L -17.3784,-12.7604 L -17.4123,-12.9191 L -17.456,-13.0711 L -17.5093,-13.2163 L -17.5723,-13.3547 L -17.645,-13.4864
 L -17.7288,-13.6122 L -17.8248,-13.7334 L -17.9333,-13.8498 L -18.054,-13.9615 L -18.1871,-14.0685 L -18.3326,-14.1707
 L -18.4904,-14.2682 L -18.6605,-14.361 L -18.6605,-14.38 L -18.4934,-14.4296 L -18.338,-14.488 L -18.1943,-14.5551
 L -18.0623,-14.631 L -17.9421,-14.7157 L -17.8336,-14.8092 L -17.7368,-14.9114 L -17.6517,-15.0224 L -17.5774,-15.1428
 L -17.513,-15.2735 L -17.4586,-15.4147 L -17.414,-15.5663 L -17.3793,-15.7283 L -17.3546,-15.9007 L -17.3397,-16.0835
 L -17.3348,-16.2767 L -17.3393,-16.4478 L -17.353,-16.6122 L -17.3757,-16.77 L -17.4076,-16.921 L -17.4485,-17.0655
 L -17.4986,-17.2032 L -17.5577,-17.3343 L -17.626,-17.4588 L -17.7059,-17.5779 L -17.7999,-17.6936 L -17.908,-17.806
 L -18.0302,-17.9149 L -18.1666,-18.0203 L -18.3171,-18.1224 L -18.4817,-18.221 L -18.6605,-18.3162 L -18.6605,-18.3353
 L -18.5371,-18.3385 L -18.424,-18.3417 L -18.3212,-18.3447 L -18.2287,-18.3476 L -18.1463,-18.3504 L -18.0743,-18.3531
 L -18.0125,-18.3557 L -17.961,-18.3581 L -17.8278,-18.3649 L -17.7457,-18.3689 L -17.5985,-18.3759 L -17.5677,-18.3776
 L -17.5405,-18.3793 L -17.5168,-18.381 L -17.4965,-18.3826 L -17.4797,-18.3843 L -17.4664,-18.386 L -17.4566,-18.3876
 L -17.4566,-19.4849 L -17.5395,-19.4758 L -17.6521,-19.4679 L -17.7944,-19.4612 L -17.9664,-19.4557 L -18.1682,-19.4514
 L -18.3997,-19.4483 L -18.6608,-19.4465 L -18.9517,-19.4459 L -24.4611,-19.4459 L -24.4611,-18.2905 L -20.4059,-18.2905
 L -20.1543,-18.2838 L -19.9173,-18.2635 L -19.6949,-18.2298 L -19.487,-18.1825 L -19.2938,-18.1218 L -19.115,-18.0475
 L -18.9509,-17.9597 L -18.8013,-17.8585 L -18.668,-17.7454 L -18.5524,-17.6227 L -18.4545,-17.4903 L -18.3745,-17.3484
 L -18.3123,-17.1967 L -18.2678,-17.0355 L -18.2411,-16.8646 L -18.2322,-16.6841 L -18.2383,-16.5102 L -18.2565,-16.3503
 L -18.2868,-16.2044 L -18.3293,-16.0724 L -18.3839,-15.9543 L -18.4506,-15.8502 L -18.5295,-15.7601 L -18.6205,-15.6838
 L -18.7274,-15.6187 L -18.8539,-15.5623 L -18.9999,-15.5145 L -19.1656,-15.4754 L -19.3509,-15.445 L -19.5557,-15.4233
 L -19.7802,-15.4103 L -20.0243,-15.4059 L -24.4611,-15.4059 L -24.4611,-14.2572 L -20.4059,-14.2572 L -20.1528,-14.2506
 L -19.9146,-14.2308 L -19.6914,-14.1978 L -19.483,-14.1516 L -19.2895,-14.0922 L -19.1109,-14.0195 L -18.9473,-13.9337
 L -18.7985,-13.8347 L -18.6658,-13.7238 L -18.5507,-13.6022 L -18.4534,-13.4701 L -18.3738,-13.3274 L -18.3118,-13.1741
 L -18.2676,-13.0103 L -18.2411,-12.8358 L -18.2322,-12.6508 L -18.2383,-12.4769 L -18.2565,-12.317 L -18.2868,-12.1711
 L -18.3293,-12.0391 L -18.3839,-11.921 L -18.4506,-11.8169 L -18.5295,-11.7267 L -18.6205,-11.6505 L -18.7274,-11.5854
 L -18.8539,-11.529 L -18.9999,-11.4812 L -19.1656,-11.4421 L -19.3509,-11.4117 L -19.5557,-11.39 L -19.7802,-11.377
 L -20.0243,-11.3726 L -24.4611,-11.3726 L -24.4611,-10.2239 L -19.7987,-10.2239 z
M -19.4819,0.521622 L -19.1882,0.499084 L -18.9176,0.461533 L -18.67,0.408981 L -18.4455,0.3414 L -18.2441,0.258789
 L -18.0658,0.161163 L -17.9105,0.0485229 L -17.7756,-0.0806427 L -17.6586,-0.227875 L -17.5597,-0.393158 L -17.4787,-0.576492
 L -17.4157,-0.777878 L -17.3708,-0.997314 L -17.3438,-1.2348 L -17.3348,-1.49036 L -17.3396,-1.66946 L -17.3542,-1.84178
 L -17.3784,-2.00731 L -17.4123,-2.16606 L -17.456,-2.31804 L -17.5093,-2.46324 L -17.5723,-2.60164 L -17.645,-2.73328
 L -17.7288,-2.85916 L -17.8248,-2.98032 L -17.9333,-3.09671 L -18.054,-3.20842 L -18.1871,-3.31537 L -18.3326,-3.4176
 L -18.4904,-3.51512 L -18.6605,-3.60788 L -18.6605,-3.62692 L -18.4934,-3.67651 L -18.338,-3.73488 L -18.1943,-3.80203
 L -18.0623,-3.87793 L -17.9421,-3.96262 L -17.8336,-4.05609 L -17.7368,-4.15833 L -17.6517,-4.26932 L -17.5774,-4.38968
 L -17.513,-4.52045 L -17.4586,-4.66162 L -17.414,-4.81322 L -17.3793,-4.9752 L -17.3546,-5.14763 L -17.3397,-5.33044
 L -17.3348,-5.52365 L -17.3393,-5.69473 L -17.353,-5.85913 L -17.3757,-6.01688 L -17.4076,-6.16795 L -17.4485,-6.31238
 L -17.4986,-6.45015 L -17.5577,-6.58124 L -17.626,-6.70567 L -17.7059,-6.82481 L -17.7999,-6.94055 L -17.908,-7.05289
 L -18.0302,-7.16177 L -18.1666,-7.26726 L -18.3171,-7.36929 L -18.4817,-7.46793 L -18.6605,-7.56316 L -18.6605,-7.58218
 L -18.5371,-7.58546 L -18.424,-7.58861 L -18.3212,-7.59164 L -18.2287,-7.59456 L -18.1463,-7.59735 L -18.0743,-7.60004
 L -18.0125,-7.6026 L -17.961,-7.60503 L -17.8278,-7.61177 L -17.7457,-7.61581 L -17.5985,-7.62286 L -17.5677,-7.62454
 L -17.5405,-7.62621 L -17.5168,-7.62787 L -17.4965,-7.62953 L -17.4797,-7.6312 L -17.4664,-7.63287 L -17.4566,-7.63452
 L -17.4566,-8.73184 L -17.5395,-8.7227 L -17.6521,-8.71477 L -17.7944,-8.70807 L -17.9664,-8.70258 L -18.1682,-8.6983
 L -18.3997,-8.69525 L -18.6608,-8.69342 L -18.9517,-8.69281 L -24.4611,-8.69281 L -24.4611,-7.53746 L -20.4059,-7.53746
 L -20.1543,-7.53072 L -19.9173,-7.51045 L -19.6949,-7.4767 L -19.487,-7.42943 L -19.2938,-7.36868 L -19.115,-7.29442
 L -18.9509,-7.20665 L -18.8013,-7.10538 L -18.668,-6.99231 L -18.5524,-6.8696 L -18.4545,-6.73726 L -18.3745,-6.59528
 L -18.3123,-6.44365 L -18.2678,-6.28241 L -18.2411,-6.11151 L -18.2322,-5.93098 L -18.2383,-5.75714 L -18.2565,-5.59724
 L -18.2868,-5.45129 L -18.3293,-5.31929 L -18.3839,-5.20123 L -18.4506,-5.09712 L -18.5295,-5.00697 L -18.6205,-4.93076
 L -18.7274,-4.86562 L -18.8539,-4.80917 L -18.9999,-4.76141 L -19.1656,-4.72234 L -19.3509,-4.69194 L -19.5557,-4.67023
 L -19.7802,-4.6572 L -20.0243,-4.65286 L -24.4611,-4.65286 L -24.4611,-3.50415 L -20.4059,-3.50415 L -20.1528,-3.49754
 L -19.9146,-3.47774 L -19.6914,-3.44473 L -19.483,-3.39853 L -19.2895,-3.3391 L -19.1109,-3.26646 L -18.9473,-3.18063
 L -18.7985,-3.0816 L -18.6658,-2.97067 L -18.5507,-2.84915 L -18.4534,-2.71704 L -18.3738,-2.57434 L -18.3118,-2.42107
 L -18.2676,-2.2572 L -18.2411,-2.08273 L -18.2322,-1.89769 L -18.2383,-1.72385 L -18.2565,-1.56395 L -18.2868,-1.41798
 L -18.3293,-1.28598 L -18.3839,-1.16792 L -18.4506,-1.06381 L -18.5295,-0.973663 L -18.6205,-0.897446 L -18.7274,-0.832321
 L -18.8539,-0.775879 L -18.9999,-0.728119 L -19.1656,-0.689041 L -19.3509,-0.658646 L -19.5557,-0.636917 L -19.7802,-0.623886
 L -20.0243,-0.619553 L -24.4611,-0.619553 L -24.4611,0.529144 L -19.7987,0.529144 z
M 214.027,31.2329 L 214.904,31.0941 L 215.722,30.8628 L 216.481,30.539 L 217.181,30.1227 L 217.822,29.6138
 L 218.405,29.0125 L 218.928,28.3186 L 219.392,27.5363 L 219.793,26.6711 L 220.133,25.7228 L 220.411,24.6915
 L 220.627,23.5773 L 220.782,22.38 L 220.874,21.0998 L 220.905,19.7365 L 220.876,18.3515 L 220.787,17.054
 L 220.64,15.8441 L 220.434,14.7217 L 220.17,13.6868 L 219.846,12.7395 L 219.463,11.8798 L 219.022,11.1076
 L 218.519,10.4247 L 217.952,9.83279 L 217.32,9.332 L 216.623,8.92224 L 215.861,8.60355 L 215.035,8.37592
 L 214.143,8.23932 L 213.187,8.19379 L 212.205,8.23885 L 211.291,8.37398 L 210.445,8.59926 L 209.667,8.91463
 L 208.957,9.3201 L 208.316,9.81567 L 207.743,10.4014 L 207.238,11.0771 L 206.797,11.8427 L 206.415,12.6987
 L 206.092,13.6453 L 205.827,14.6824 L 205.622,15.8102 L 205.475,17.0284 L 205.387,18.3372 L 205.357,19.7365
 L 205.387,21.1072 L 205.478,22.3933 L 205.63,23.595 L 205.841,24.7121 L 206.114,25.7446 L 206.447,26.6926
 L 206.84,27.556 L 207.294,28.3349 L 207.809,29.025 L 208.383,29.623 L 209.017,30.1291 L 209.712,30.5431
 L 210.467,30.8652 L 211.282,31.0952 L 212.156,31.2332 L 213.091,31.2792 z
M 212.51,28.9093 L 211.939,28.8056 L 211.411,28.6327 L 210.926,28.3906 L 210.484,28.0793 L 210.084,27.6989
 L 209.728,27.2493 L 209.414,26.7305 L 209.141,26.1365 L 208.904,25.4625 L 208.703,24.7083 L 208.539,23.8741
 L 208.412,22.9598 L 208.32,21.9654 L 208.266,20.891 L 208.248,19.7365 L 208.266,18.549 L 208.319,17.4481
 L 208.409,16.4339 L 208.535,15.5064 L 208.697,14.6655 L 208.894,13.9113 L 209.128,13.2437 L 209.398,12.6628
 L 209.709,12.1589 L 210.067,11.7221 L 210.471,11.3526 L 210.921,11.0502 L 211.418,10.815 L 211.962,10.647
 L 212.551,10.5462 L 213.187,10.5126 L 213.808,10.5467 L 214.383,10.6491 L 214.912,10.8196 L 215.396,11.0584
 L 215.835,11.3654 L 216.228,11.7406 L 216.576,12.184 L 216.879,12.6956 L 217.141,13.2832 L 217.369,13.9543
 L 217.561,14.709 L 217.719,15.5474 L 217.841,16.4693 L 217.928,17.4748 L 217.981,18.5638 L 217.998,19.7365
 L 217.98,20.8692 L 217.925,21.9264 L 217.833,22.9079 L 217.704,23.8138 L 217.539,24.6441 L 217.337,25.3988
 L 217.098,26.0778 L 216.823,26.6813 L 216.508,27.2116 L 216.151,27.6712 L 215.752,28.0601 L 215.311,28.3783
 L 214.828,28.6257 L 214.302,28.8025 L 213.734,28.9086 L 213.124,28.944 z
M 182.743,25.8896 L 185.888,25.8896 L 185.888,23.634 L 182.743,23.634 L 182.743,8.64349 L 179.74,8.64349
 L 169.497,23.6738 L 169.497,25.8896 L 180.042,25.8896 L 180.042,30.9794 L 182.743,30.9794 z
M 172.132,23.634 L 172.385,23.3178 L 173.245,22.149 L 178.979,13.7473 L 179.033,13.6654 L 179.095,13.5697
 L 179.162,13.4602 L 179.236,13.3368 L 179.317,13.1996 L 179.404,13.0486 L 179.497,12.8837 L 179.597,12.705
 L 179.694,12.5295 L 179.779,12.3743 L 179.853,12.2394 L 179.914,12.1247 L 179.964,12.0303 L 180.002,11.9562
 L 180.028,11.9024 L 180.042,11.8688 L 180.042,23.634 z
M 196.109,31.2475 L 196.966,31.1527 L 197.772,30.9946 L 198.527,30.7732 L 199.231,30.4887 L 199.885,30.1409
 L 200.487,29.7298 L 201.038,29.2555 L 201.532,28.7254 L 201.959,28.1484 L 202.321,27.5245 L 202.617,26.8535
 L 202.848,26.1355 L 203.012,25.3705 L 203.111,24.5585 L 203.144,23.6996 L 203.113,22.9426 L 203.021,22.2222
 L 202.868,21.5384 L 202.653,20.8912 L 202.377,20.2806 L 202.04,19.7066 L 201.641,19.1693 L 201.181,18.6684
 L 200.67,18.2161 L 200.117,17.8241 L 199.522,17.4923 L 198.884,17.2209 L 198.205,17.0098 L 197.484,16.859
 L 196.721,16.7685 L 195.916,16.7384 L 195.239,16.7607 L 194.59,16.8277 L 193.97,16.9393 L 193.378,17.0956
 L 192.815,17.2965 L 192.28,17.5421 L 191.773,17.8323 L 191.294,18.1672 L 191.723,11.0748 L 201.842,11.0748
 L 201.842,8.64349 L 189.118,8.64349 L 188.371,20.6781 L 191.168,20.6781 L 191.418,20.4676 L 191.668,20.273
 L 191.918,20.0943 L 192.168,19.9315 L 192.418,19.7845 L 192.668,19.6535 L 192.918,19.5383 L 193.168,19.4391
 L 193.421,19.3534 L 193.679,19.2792 L 193.942,19.2164 L 194.21,19.165 L 194.482,19.125 L 194.76,19.0965
 L 195.043,19.0794 L 195.33,19.0736 L 195.871,19.0939 L 196.384,19.1546 L 196.869,19.2558 L 197.324,19.3974
 L 197.752,19.5796 L 198.15,19.8022 L 198.521,20.0653 L 198.862,20.3689 L 199.17,20.7053 L 199.436,21.0667
 L 199.661,21.4533 L 199.846,21.865 L 199.989,22.3018 L 200.092,22.7637 L 200.153,23.2507 L 200.174,23.7628
 L 200.153,24.351 L 200.092,24.9067 L 199.991,25.4301 L 199.848,25.9212 L 199.665,26.3799 L 199.441,26.8063
 L 199.177,27.2003 L 198.872,27.562 L 198.53,27.8859 L 198.158,28.1666 L 197.754,28.4041 L 197.319,28.5984
 L 196.852,28.7496 L 196.354,28.8576 L 195.825,28.9224 L 195.264,28.944 L 194.372,28.8921 L 193.568,28.7364
 L 192.853,28.4769 L 192.227,28.1136 L 191.69,27.6465 L 191.241,27.0757 L 190.881,26.401 L 190.61,25.6226
 L 187.72,25.9552 L 187.869,26.5837 L 188.062,27.1741 L 188.3,27.7262 L 188.581,28.2401 L 188.907,28.7158
 L 189.277,29.1533 L 189.691,29.5526 L 190.149,29.9137 L 190.648,30.2337 L 191.186,30.511 L 191.761,30.7458
 L 192.373,30.9378 L 193.024,31.0871 L 193.712,31.1938 L 194.438,31.2578 L 195.201,31.2792 z
M 262.144,20.999 L 262.161,20.3798 L 262.211,19.7965 L 262.294,19.2491 L 262.41,18.7375 L 262.559,18.2618
 L 262.742,17.822 L 262.958,17.418 L 263.207,17.0499 L 263.486,16.7216 L 263.788,16.4371 L 264.113,16.1964
 L 264.463,15.9994 L 264.836,15.8462 L 265.233,15.7368 L 265.654,15.6711 L 266.098,15.6492 L 266.526,15.6642
 L 266.919,15.709 L 267.278,15.7836 L 267.603,15.8882 L 267.894,16.0225 L 268.15,16.1868 L 268.372,16.3809
 L 268.56,16.6049 L 268.72,16.8679 L 268.859,17.1792 L 268.976,17.5387 L 269.072,17.9464 L 269.147,18.4024
 L 269.201,18.9066 L 269.233,19.4591 L 269.243,20.0597 L 269.243,30.9794 L 272.071,30.9794 L 272.071,20.999
 L 272.087,20.3761 L 272.136,19.7899 L 272.217,19.2404 L 272.331,18.7276 L 272.477,18.2514 L 272.656,17.8119
 L 272.867,17.409 L 273.111,17.0429 L 273.384,16.7162 L 273.683,16.4332 L 274.008,16.1936 L 274.359,15.9977
 L 274.736,15.8452 L 275.14,15.7363 L 275.569,15.671 L 276.024,15.6492 L 276.452,15.6642 L 276.846,15.709
 L 277.205,15.7836 L 277.53,15.8882 L 277.82,16.0225 L 278.077,16.1868 L 278.298,16.3809 L 278.486,16.6049
 L 278.646,16.8679 L 278.785,17.1792 L 278.903,17.5387 L 278.999,17.9464 L 279.074,18.4024 L 279.127,18.9066
 L 279.159,19.4591 L 279.17,20.0597 L 279.17,30.9794 L 281.997,30.9794 L 281.997,19.5046 L 281.979,18.7249
 L 281.923,18.002 L 281.831,17.336 L 281.701,16.7267 L 281.535,16.1742 L 281.332,15.6785 L 281.092,15.2396
 L 280.814,14.8575 L 280.496,14.5254 L 280.134,14.2376 L 279.727,13.994 L 279.276,13.7947 L 278.78,13.6398
 L 278.24,13.5291 L 277.656,13.4626 L 277.027,13.4405 L 276.586,13.4524 L 276.162,13.4882 L 275.755,13.5479
 L 275.364,13.6314 L 274.99,13.7388 L 274.632,13.87 L 274.292,14.0251 L 273.968,14.2041 L 273.658,14.4102
 L 273.36,14.6466 L 273.073,14.9134 L 272.798,15.2107 L 272.535,15.5383 L 272.284,15.8962 L 272.044,16.2845
 L 271.815,16.7033 L 271.768,16.7033 L 271.646,16.292 L 271.503,15.9095 L 271.337,15.5559 L 271.151,15.2311
 L 270.942,14.9352 L 270.712,14.6681 L 270.461,14.4299 L 270.187,14.2204 L 269.891,14.0377 L 269.569,13.8792
 L 269.222,13.7452 L 268.849,13.6355 L 268.45,13.5502 L 268.026,13.4892 L 267.576,13.4527 L 267.1,13.4405
 L 266.679,13.4517 L 266.275,13.4853 L 265.886,13.5413 L 265.515,13.6196 L 265.159,13.7205 L 264.82,13.8436
 L 264.497,13.9892 L 264.191,14.1572 L 263.898,14.3538 L 263.613,14.5851 L 263.337,14.8512 L 263.069,15.1521
 L 262.809,15.4877 L 262.558,15.8581 L 262.315,16.2633 L 262.081,16.7033 L 262.034,16.7033 L 262.026,16.3997
 L 262.018,16.1214 L 262.011,15.8683 L 262.004,15.6405 L 261.997,15.4379 L 261.99,15.2606 L 261.984,15.1085
 L 261.978,14.9817 L 261.961,14.654 L 261.951,14.4519 L 261.942,14.2631 L 261.938,14.1736 L 261.934,14.0895
 L 261.93,14.0139 L 261.926,13.9469 L 261.922,13.8884 L 261.917,13.8386 L 261.913,13.7972 L 261.909,13.7645
 L 261.905,13.7403 L 259.204,13.7403 L 259.227,13.9443 L 259.246,14.2215 L 259.263,14.5718 L 259.277,14.9951
 L 259.287,15.4917 L 259.295,16.0614 L 259.299,16.7041 L 259.301,17.42 L 259.301,30.9794 L 262.144,30.9794
 z
M 235.679,20.999 L 235.696,20.3798 L 235.746,19.7965 L 235.829,19.2491 L 235.945,18.7375 L 236.095,18.2618
 L 236.277,17.822 L 236.493,17.418 L 236.743,17.0499 L 237.021,16.7216 L 237.323,16.4371 L 237.649,16.1964
 L 237.998,15.9994 L 238.371,15.8462 L 238.768,15.7368 L 239.189,15.6711 L 239.633,15.6492 L 240.061,15.6642
 L 240.454,15.709 L 240.813,15.7836 L 241.138,15.8882 L 241.429,16.0225 L 241.685,16.1868 L 241.907,16.3809
 L 242.095,16.6049 L 242.255,16.8679 L 242.394,17.1792 L 242.511,17.5387 L 242.608,17.9464 L 242.682,18.4024
 L 242.736,18.9066 L 242.768,19.4591 L 242.779,20.0597 L 242.779,30.9794 L 245.606,30.9794 L 245.606,20.999
 L 245.622,20.3761 L 245.671,19.7899 L 245.752,19.2404 L 245.866,18.7276 L 246.012,18.2514 L 246.191,17.8119
 L 246.402,17.409 L 246.646,17.0429 L 246.919,16.7162 L 247.218,16.4332 L 247.543,16.1936 L 247.894,15.9977
 L 248.271,15.8452 L 248.675,15.7363 L 249.104,15.671 L 249.559,15.6492 L 249.987,15.6642 L 250.381,15.709
 L 250.74,15.7836 L 251.065,15.8882 L 251.355,16.0225 L 251.612,16.1868 L 251.834,16.3809 L 252.021,16.6049
 L 252.181,16.8679 L 252.32,17.1792 L 252.438,17.5387 L 252.534,17.9464 L 252.609,18.4024 L 252.662,18.9066
 L 252.694,19.4591 L 252.705,20.0597 L 252.705,30.9794 L 255.532,30.9794 L 255.532,19.5046 L 255.514,18.7249
 L 255.458,18.002 L 255.366,17.336 L 255.237,16.7267 L 255.07,16.1742 L 254.867,15.6785 L 254.627,15.2396
 L 254.349,14.8575 L 254.031,14.5254 L 253.669,14.2376 L 253.262,13.994 L 252.811,13.7947 L 252.315,13.6398
 L 251.775,13.5291 L 251.191,13.4626 L 250.562,13.4405 L 250.121,13.4524 L 249.697,13.4882 L 249.29,13.5479
 L 248.899,13.6314 L 248.525,13.7388 L 248.168,13.87 L 247.827,14.0251 L 247.503,14.2041 L 247.193,14.4102
 L 246.895,14.6466 L 246.608,14.9134 L 246.334,15.2107 L 246.07,15.5383 L 245.819,15.8962 L 245.579,16.2845
 L 245.35,16.7033 L 245.304,16.7033 L 245.181,16.292 L 245.038,15.9095 L 244.873,15.5559 L 244.686,15.2311
 L 244.477,14.9352 L 244.247,14.6681 L 243.996,14.4299 L 243.722,14.2204 L 243.426,14.0377 L 243.104,13.8792
 L 242.757,13.7452 L 242.384,13.6355 L 241.985,13.5502 L 241.561,13.4892 L 241.111,13.4527 L 240.635,13.4405
 L 240.214,13.4517 L 239.81,13.4853 L 239.422,13.5413 L 239.05,13.6196 L 238.694,13.7205 L 238.355,13.8436
 L 238.033,13.9892 L 237.726,14.1572 L 237.433,14.3538 L 237.148,14.5851 L 236.872,14.8512 L 236.604,15.1521
 L 236.344,15.4877 L 236.093,15.8581 L 235.85,16.2633 L 235.616,16.7033 L 235.569,16.7033 L 235.561,16.3997
 L 235.553,16.1214 L 235.546,15.8683 L 235.539,15.6405 L 235.532,15.4379 L 235.525,15.2606 L 235.519,15.1085
 L 235.513,14.9817 L 235.496,14.654 L 235.486,14.4519 L 235.477,14.2631 L 235.473,14.1736 L 235.469,14.0895
 L 235.465,14.0139 L 235.461,13.9469 L 235.457,13.8884 L 235.453,13.8386 L 235.448,13.7972 L 235.444,13.7645
 L 235.44,13.7403 L 232.74,13.7403 L 232.762,13.9443 L 232.782,14.2215 L 232.798,14.5718 L 232.812,14.9951
 L 232.822,15.4917 L 232.83,16.0614 L 232.834,16.7041 L 232.836,17.42 L 232.836,30.9794 L 235.679,30.9794
 z
" stroke="black" fill="lightgray" stroke-width="0.5"/>
</svg>
