<?xml version="1.0" standalone="no"?>
<!DOCTYPE svg PUBLIC "-//W3C//DTD SVG 1.1//EN" "http://www.w3.org/Graphics/SVG/1.1/DTD/svg11.dtd">
<svg width="325mm" height="85mm" viewBox="-25 -57 325 85" xmlns="http://www.w3.org/2000/svg" version="1.1">
<title>OpenSCAD Model</title>
<path d="
M 300,-56.25 L 0,-56.25 L 0,-0 L 300,-0 z
M 260.54,-9.47771 L 258.602,-9.78473 L 256.706,-10.2927 L 254.874,-10.996 L 253.125,-11.887 L 251.479,-12.9559
 L 249.954,-14.191 L 248.566,-15.5788 L 247.331,-17.104 L 246.262,-18.75 L 245.371,-20.4987 L 244.668,-22.3309
 L 244.16,-24.2267 L 243.853,-26.1651 L 243.75,-28.125 L 243.853,-30.0849 L 244.16,-32.0233 L 244.668,-33.9191
 L 245.371,-35.7513 L 246.262,-37.5 L 247.331,-39.146 L 248.566,-40.6712 L 249.954,-42.059 L 251.479,-43.2941
 L 253.125,-44.363 L 254.874,-45.254 L 256.706,-45.9573 L 258.602,-46.4653 L 260.54,-46.7723 L 262.5,-46.875
 L 264.46,-46.7723 L 266.398,-46.4653 L 268.294,-45.9573 L 270.126,-45.254 L 271.875,-44.363 L 273.521,-43.2941
 L 275.046,-42.059 L 276.434,-40.6712 L 277.669,-39.146 L 278.738,-37.5 L 279.629,-35.7513 L 280.332,-33.9191
 L 280.84,-32.0233 L 281.147,-30.0849 L 281.25,-28.125 L 281.147,-26.1651 L 280.84,-24.2267 L 280.332,-22.3309
 L 279.629,-20.4987 L 278.738,-18.75 L 277.669,-17.104 L 276.434,-15.5788 L 275.046,-14.191 L 273.521,-12.9559
 L 271.875,-11.887 L 270.126,-10.996 L 268.294,-10.2927 L 266.398,-9.78473 L 264.46,-9.47771 L 262.5,-9.375
 z
M 262.552,-27.6277 L 262.604,-27.6359 L 262.655,-27.6495 L 262.703,-27.6682 L 262.75,-27.692 L 262.794,-27.7205
 L 262.835,-27.7534 L 262.872,-27.7904 L 262.905,-27.8311 L 262.933,-27.875 L 262.957,-27.9216 L 262.976,-27.9705
 L 262.989,-28.021 L 262.997,-28.0727 L 263,-28.125 L 262.997,-28.1773 L 262.989,-28.2289 L 262.976,-28.2795
 L 262.957,-28.3284 L 262.933,-28.375 L 262.905,-28.4189 L 262.872,-28.4596 L 262.835,-28.4966 L 262.794,-28.5295
 L 262.75,-28.558 L 262.703,-28.5818 L 262.655,-28.6005 L 262.604,-28.6141 L 262.552,-28.6223 L 262.5,-28.625
 L 262.448,-28.6223 L 262.396,-28.6141 L 262.345,-28.6005 L 262.297,-28.5818 L 262.25,-28.558 L 262.206,-28.5295
 L 262.165,-28.4966 L 262.128,-28.4596 L 262.095,-28.4189 L 262.067,-28.375 L 262.043,-28.3284 L 262.024,-28.2795
 L 262.011,-28.2289 L 262.003,-28.1773 L 262,-28.125 L 262.003,-28.0727 L 262.011,-28.021 L 262.024,-27.9705
 L 262.043,-27.9216 L 262.067,-27.875 L 262.095,-27.8311 L 262.128,-27.7904 L 262.165,-27.7534 L 262.206,-27.7205
 L 262.25,-27.692 L 262.297,-27.6682 L 262.345,-27.6495 L 262.396,-27.6359 L 262.448,-27.6277 L 262.5,-27.625
 z
M 185.54,-9.47771 L 183.602,-9.78473 L 181.706,-10.2927 L 179.874,-10.996 L 178.125,-11.887 L 176.479,-12.9559
 L 174.954,-14.191 L 173.566,-15.5788 L 172.331,-17.104 L 171.262,-18.75 L 170.371,-20.4987 L 169.668,-22.3309
 L 169.16,-24.2267 L 168.853,-26.1651 L 168.75,-28.125 L 168.853,-30.0849 L 169.16,-32.0233 L 169.668,-33.9191
 L 170.371,-35.7513 L 171.262,-37.5 L 172.331,-39.146 L 173.566,-40.6712 L 174.954,-42.059 L 176.479,-43.2941
 L 178.125,-44.363 L 179.874,-45.254 L 181.706,-45.9573 L 183.602,-46.4653 L 185.54,-46.7723 L 187.5,-46.875
 L 189.46,-46.7723 L 191.398,-46.4653 L 193.294,-45.9573 L 195.126,-45.254 L 196.875,-44.363 L 198.521,-43.2941
 L 200.046,-42.059 L 201.434,-40.6712 L 202.669,-39.146 L 203.738,-37.5 L 204.629,-35.7513 L 205.332,-33.9191
 L 205.84,-32.0233 L 206.147,-30.0849 L 206.25,-28.125 L 206.147,-26.1651 L 205.84,-24.2267 L 205.332,-22.3309
 L 204.629,-20.4987 L 203.738,-18.75 L 202.669,-17.104 L 201.434,-15.5788 L 200.046,-14.191 L 198.521,-12.9559
 L 196.875,-11.887 L 195.126,-10.996 L 193.294,-10.2927 L 191.398,-9.78473 L 189.46,-9.47771 L 187.5,-9.375
 z
M 187.552,-27.6277 L 187.604,-27.6359 L 187.655,-27.6495 L 187.703,-27.6682 L 187.75,-27.692 L 187.794,-27.7205
 L 187.835,-27.7534 L 187.872,-27.7904 L 187.905,-27.8311 L 187.933,-27.875 L 187.957,-27.9216 L 187.976,-27.9705
 L 187.989,-28.021 L 187.997,-28.0727 L 188,-28.125 L 187.997,-28.1773 L 187.989,-28.2289 L 187.976,-28.2795
 L 187.957,-28.3284 L 187.933,-28.375 L 187.905,-28.4189 L 187.872,-28.4596 L 187.835,-28.4966 L 187.794,-28.5295
 L 187.75,-28.558 L 187.703,-28.5818 L 187.655,-28.6005 L 187.604,-28.6141 L 187.552,-28.6223 L 187.5,-28.625
 L 187.448,-28.6223 L 187.396,-28.6141 L 187.345,-28.6005 L 187.297,-28.5818 L 187.25,-28.558 L 187.206,-28.5295
 L 187.165,-28.4966 L 187.128,-28.4596 L 187.095,-28.4189 L 187.067,-28.375 L 187.043,-28.3284 L 187.024,-28.2795
 L 187.011,-28.2289 L 187.003,-28.1773 L 187,-28.125 L 187.003,-28.0727 L 187.011,-28.021 L 187.024,-27.9705
 L 187.043,-27.9216 L 187.067,-27.875 L 187.095,-27.8311 L 187.128,-27.7904 L 187.165,-27.7534 L 187.206,-27.7205
 L 187.25,-27.692 L 187.297,-27.6682 L 187.345,-27.6495 L 187.396,-27.6359 L 187.448,-27.6277 L 187.5,-27.625
 z
M 110.54,-9.47771 L 108.602,-9.78473 L 106.706,-10.2927 L 104.874,-10.996 L 103.125,-11.887 L 101.479,-12.9559
 L 99.9538,-14.191 L 98.566,-15.5788 L 97.3309,-17.104 L 96.262,-18.75 L 95.371,-20.4987 L 94.6677,-22.3309
 L 94.1597,-24.2267 L 93.8527,-26.1651 L 93.75,-28.125 L 93.8527,-30.0849 L 94.1597,-32.0233 L 94.6677,-33.9191
 L 95.371,-35.7513 L 96.262,-37.5 L 97.3309,-39.146 L 98.566,-40.6712 L 99.9538,-42.059 L 101.479,-43.2941
 L 103.125,-44.363 L 104.874,-45.254 L 106.706,-45.9573 L 108.602,-46.4653 L 110.54,-46.7723 L 112.5,-46.875
 L 114.46,-46.7723 L 116.398,-46.4653 L 118.294,-45.9573 L 120.126,-45.254 L 121.875,-44.363 L 123.521,-43.2941
 L 125.046,-42.059 L 126.434,-40.6712 L 127.669,-39.146 L 128.738,-37.5 L 129.629,-35.7513 L 130.332,-33.9191
 L 130.84,-32.0233 L 131.147,-30.0849 L 131.25,-28.125 L 131.147,-26.1651 L 130.84,-24.2267 L 130.332,-22.3309
 L 129.629,-20.4987 L 128.738,-18.75 L 127.669,-17.104 L 126.434,-15.5788 L 125.046,-14.191 L 123.521,-12.9559
 L 121.875,-11.887 L 120.126,-10.996 L 118.294,-10.2927 L 116.398,-9.78473 L 114.46,-9.47771 L 112.5,-9.375
 z
M 112.552,-27.6277 L 112.604,-27.6359 L 112.655,-27.6495 L 112.703,-27.6682 L 112.75,-27.692 L 112.794,-27.7205
 L 112.835,-27.7534 L 112.872,-27.7904 L 112.905,-27.8311 L 112.933,-27.875 L 112.957,-27.9216 L 112.976,-27.9705
 L 112.989,-28.021 L 112.997,-28.0727 L 113,-28.125 L 112.997,-28.1773 L 112.989,-28.2289 L 112.976,-28.2795
 L 112.957,-28.3284 L 112.933,-28.375 L 112.905,-28.4189 L 112.872,-28.4596 L 112.835,-28.4966 L 112.794,-28.5295
 L 112.75,-28.558 L 112.703,-28.5818 L 112.655,-28.6005 L 112.604,-28.6141 L 112.552,-28.6223 L 112.5,-28.625
 L 112.448,-28.6223 L 112.396,-28.6141 L 112.345,-28.6005 L 112.297,-28.5818 L 112.25,-28.558 L 112.206,-28.5295
 L 112.165,-28.4966 L 112.128,-28.4596 L 112.095,-28.4189 L 112.067,-28.375 L 112.043,-28.3284 L 112.024,-28.2795
 L 112.011,-28.2289 L 112.003,-28.1773 L 112,-28.125 L 112.003,-28.0727 L 112.011,-28.021 L 112.024,-27.9705
 L 112.043,-27.9216 L 112.067,-27.875 L 112.095,-27.8311 L 112.128,-27.7904 L 112.165,-27.7534 L 112.206,-27.7205
 L 112.25,-27.692 L 112.297,-27.6682 L 112.345,-27.6495 L 112.396,-27.6359 L 112.448,-27.6277 L 112.5,-27.625
 z
M 35.5401,-9.47771 L 33.6017,-9.78473 L 31.7059,-10.2927 L 29.8737,-10.996 L 28.125,-11.887 L 26.479,-12.9559
 L 24.9538,-14.191 L 23.566,-15.5788 L 22.3309,-17.104 L 21.262,-18.75 L 20.371,-20.4987 L 19.6677,-22.3309
 L 19.1597,-24.2267 L 18.8527,-26.1651 L 18.75,-28.125 L 18.8527,-30.0849 L 19.1597,-32.0233 L 19.6677,-33.9191
 L 20.371,-35.7513 L 21.262,-37.5 L 22.3309,-39.146 L 23.566,-40.6712 L 24.9538,-42.059 L 26.479,-43.2941
 L 28.125,-44.363 L 29.8737,-45.254 L 31.7059,-45.9573 L 33.6017,-46.4653 L 35.5401,-46.7723 L 37.5,-46.875
 L 39.4599,-46.7723 L 41.3983,-46.4653 L 43.2941,-45.9573 L 45.1263,-45.254 L 46.875,-44.363 L 48.521,-43.2941
 L 50.0462,-42.059 L 51.434,-40.6712 L 52.6691,-39.146 L 53.738,-37.5 L 54.629,-35.7513 L 55.3323,-33.9191
 L 55.8403,-32.0233 L 56.1473,-30.0849 L 56.25,-28.125 L 56.1473,-26.1651 L 55.8403,-24.2267 L 55.3323,-22.3309
 L 54.629,-20.4987 L 53.738,-18.75 L 52.6691,-17.104 L 51.434,-15.5788 L 50.0462,-14.191 L 48.521,-12.9559
 L 46.875,-11.887 L 45.1263,-10.996 L 43.2941,-10.2927 L 41.3983,-9.78473 L 39.4599,-9.47771 L 37.5,-9.375
 z
M 37.5523,-27.6277 L 37.6039,-27.6359 L 37.6545,-27.6495 L 37.7034,-27.6682 L 37.75,-27.692 L 37.7939,-27.7205
 L 37.8346,-27.7534 L 37.8716,-27.7904 L 37.9045,-27.8311 L 37.933,-27.875 L 37.9568,-27.9216 L 37.9755,-27.9705
 L 37.9891,-28.021 L 37.9973,-28.0727 L 38,-28.125 L 37.9973,-28.1773 L 37.9891,-28.2289 L 37.9755,-28.2795
 L 37.9568,-28.3284 L 37.933,-28.375 L 37.9045,-28.4189 L 37.8716,-28.4596 L 37.8346,-28.4966 L 37.7939,-28.5295
 L 37.75,-28.558 L 37.7034,-28.5818 L 37.6545,-28.6005 L 37.6039,-28.6141 L 37.5523,-28.6223 L 37.5,-28.625
 L 37.4477,-28.6223 L 37.396,-28.6141 L 37.3455,-28.6005 L 37.2966,-28.5818 L 37.25,-28.558 L 37.2061,-28.5295
 L 37.1654,-28.4966 L 37.1284,-28.4596 L 37.0955,-28.4189 L 37.067,-28.375 L 37.0432,-28.3284 L 37.0245,-28.2795
 L 37.0109,-28.2289 L 37.0027,-28.1773 L 37,-28.125 L 37.0027,-28.0727 L 37.0109,-28.021 L 37.0245,-27.9705
 L 37.0432,-27.9216 L 37.067,-27.875 L 37.0955,-27.8311 L 37.1284,-27.7904 L 37.1654,-27.7534 L 37.2061,-27.7205
 L 37.25,-27.692 L 37.2966,-27.6682 L 37.3455,-27.6495 L 37.396,-27.6359 L 37.4477,-27.6277 L 37.5,-27.625
 z
M -21.1956,-49.4664 L -20.9029,-49.5038 L -20.6251,-49.5661 L -20.3621,-49.6533 L -20.114,-49.7655 L -19.8808,-49.9025
 L -19.6624,-50.0645 L -19.459,-50.2514 L -19.2752,-50.4591 L -19.1159,-50.6839 L -18.9811,-50.9257 L -18.8708,-51.1846
 L -18.785,-51.4606 L -18.7238,-51.7536 L -18.687,-52.0637 L -18.6748,-52.3909 L -18.6838,-52.6659 L -18.711,-52.9293
 L -18.7564,-53.1813 L -18.8199,-53.4218 L -18.9015,-53.6507 L -19.0013,-53.8682 L -19.1192,-54.0741 L -19.2553,-54.2686
 L -16.3736,-54.0944 L -16.3736,-49.9831 L -15.3857,-49.9831 L -15.3857,-55.1527 L -20.2755,-55.4563 L -20.2755,-54.3199
 L -20.19,-54.2184 L -20.1109,-54.1168 L -20.0383,-54.0152 L -19.9722,-53.9136 L -19.9125,-53.812 L -19.8592,-53.7104
 L -19.8124,-53.6088 L -19.7721,-53.5072 L -19.7373,-53.4044 L -19.7071,-53.2996 L -19.6816,-53.1927 L -19.6607,-53.0839
 L -19.6445,-52.9731 L -19.6329,-52.8604 L -19.6259,-52.7456 L -19.6236,-52.6288 L -19.6318,-52.4088 L -19.6565,-52.2004
 L -19.6976,-52.0036 L -19.7552,-51.8184 L -19.8292,-51.6448 L -19.9196,-51.4828 L -20.0265,-51.3324 L -20.1499,-51.1936
 L -20.2865,-51.0687 L -20.4334,-50.9604 L -20.5905,-50.8689 L -20.7578,-50.7939 L -20.9353,-50.7356 L -21.1229,-50.694
 L -21.3208,-50.669 L -21.5289,-50.6607 L -21.7679,-50.6689 L -21.9937,-50.6937 L -22.2063,-50.7351 L -22.4059,-50.793
 L -22.5923,-50.8674 L -22.7655,-50.9583 L -22.9256,-51.0658 L -23.0725,-51.1898 L -23.2041,-51.3285 L -23.3182,-51.4799
 L -23.4147,-51.644 L -23.4937,-51.8208 L -23.5551,-52.0104 L -23.599,-52.2126 L -23.6253,-52.4277 L -23.634,-52.6554
 L -23.613,-53.0181 L -23.5497,-53.3446 L -23.4443,-53.6351 L -23.2967,-53.8896 L -23.1069,-54.1079 L -22.875,-54.2901
 L -22.6008,-54.4363 L -22.2845,-54.5465 L -22.4197,-55.7209 L -22.6751,-55.6603 L -22.9149,-55.5817 L -23.1393,-55.4853
 L -23.3481,-55.3709 L -23.5414,-55.2385 L -23.7191,-55.0883 L -23.8813,-54.9201 L -24.0281,-54.7339 L -24.1581,-54.5309
 L -24.2708,-54.3126 L -24.3661,-54.079 L -24.4442,-53.8301 L -24.5049,-53.5658 L -24.5482,-53.2862 L -24.5742,-52.9913
 L -24.5829,-52.6811 L -24.57,-52.3122 L -24.5315,-51.964 L -24.4673,-51.6365 L -24.3773,-51.3297 L -24.2617,-51.0436
 L -24.1204,-50.7782 L -23.9533,-50.5335 L -23.7606,-50.3095 L -23.5453,-50.109 L -23.3108,-49.9352 L -23.0573,-49.7881
 L -22.7847,-49.6678 L -22.4929,-49.5742 L -22.1821,-49.5074 L -21.8522,-49.4673 L -21.5032,-49.4539 z
M -21.1429,-42.3125 L -20.8349,-42.3472 L -20.5438,-42.405 L -20.2698,-42.4859 L -20.0128,-42.5898 L -19.7728,-42.7169
 L -19.5498,-42.8671 L -19.3438,-43.0405 L -19.1584,-43.2332 L -18.9978,-43.4422 L -18.8619,-43.6675 L -18.7507,-43.9091
 L -18.6642,-44.1669 L -18.6024,-44.441 L -18.5653,-44.7314 L -18.5529,-45.0381 L -18.5578,-45.2208 L -18.5722,-45.3983
 L -18.5962,-45.5707 L -18.6298,-45.7378 L -18.673,-45.8997 L -18.7258,-46.0564 L -18.7883,-46.2079 L -18.8603,-46.3543
 L -18.9413,-46.4939 L -19.0311,-46.6255 L -19.1297,-46.749 L -19.237,-46.8644 L -19.3531,-46.9717 L -19.4779,-47.0709
 L -19.6116,-47.162 L -19.754,-47.2451 L -19.328,-47.2365 L -18.9279,-47.211 L -18.5538,-47.1684 L -18.2056,-47.1087
 L -17.8833,-47.032 L -17.587,-46.9383 L -17.3166,-46.8275 L -17.0721,-46.6997 L -16.8548,-46.5564 L -16.6665,-46.399
 L -16.5072,-46.2276 L -16.3769,-46.0421 L -16.2755,-45.8426 L -16.2031,-45.6291 L -16.1596,-45.4015 L -16.1451,-45.1599
 L -16.1625,-44.8838 L -16.2145,-44.6331 L -16.3012,-44.4078 L -16.4226,-44.2079 L -16.5786,-44.0335 L -16.7693,-43.8845
 L -16.9947,-43.761 L -17.2548,-43.6629 L -17.055,-42.5532 L -16.6209,-42.7109 L -16.2447,-42.9162 L -15.9264,-43.1692
 L -15.666,-43.4697 L -15.4634,-43.8177 L -15.3187,-44.2134 L -15.2319,-44.6567 L -15.203,-45.1475 L -15.2228,-45.5268
 L -15.2822,-45.8837 L -15.3814,-46.2182 L -15.5201,-46.5303 L -15.6985,-46.8201 L -15.9165,-47.0876 L -16.1742,-47.3326
 L -16.4716,-47.5553 L -16.8057,-47.7534 L -17.1741,-47.925 L -17.5769,-48.0703 L -18.014,-48.1891 L -18.4855,-48.2816
 L -18.9914,-48.3476 L -19.5316,-48.3872 L -20.1061,-48.4004 L -20.6366,-48.3877 L -21.1345,-48.3496 L -21.5998,-48.2861
 L -22.0326,-48.1972 L -22.4328,-48.0829 L -22.8004,-47.9433 L -23.1355,-47.7782 L -23.438,-47.5877 L -23.7063,-47.373
 L -23.9389,-47.1357 L -24.1357,-46.8758 L -24.2967,-46.5934 L -24.4219,-46.2884 L -24.5113,-45.9608 L -24.565,-45.6106
 L -24.5829,-45.2379 L -24.5698,-44.9034 L -24.5307,-44.5875 L -24.4654,-44.2902 L -24.374,-44.0114 L -24.2565,-43.7513
 L -24.1129,-43.5097 L -23.9431,-43.2867 L -23.7473,-43.0823 L -23.5289,-42.8992 L -23.2915,-42.7405 L -23.0351,-42.6062
 L -22.7597,-42.4963 L -22.4653,-42.4109 L -22.1518,-42.3498 L -21.8194,-42.3132 L -21.468,-42.301 z
M -21.7609,-43.4895 L -21.9892,-43.5119 L -22.2041,-43.5492 L -22.4059,-43.6015 L -22.5943,-43.6687 L -22.7695,-43.7508
 L -22.9315,-43.8478 L -23.0802,-43.9598 L -23.2131,-44.0849 L -23.3283,-44.2212 L -23.4258,-44.3688 L -23.5056,-44.5277
 L -23.5676,-44.6979 L -23.6119,-44.8793 L -23.6385,-45.072 L -23.6474,-45.276 L -23.6368,-45.4748 L -23.6052,-45.6645
 L -23.5525,-45.8449 L -23.4787,-46.0162 L -23.3838,-46.1782 L -23.2678,-46.3311 L -23.1308,-46.4748 L -22.9726,-46.6093
 L -22.7979,-46.7311 L -22.6113,-46.8367 L -22.4128,-46.926 L -22.2022,-46.999 L -21.9797,-47.0559 L -21.7453,-47.0965
 L -21.4989,-47.1208 L -21.2405,-47.129 L -21.037,-47.1211 L -20.8447,-47.0977 L -20.6637,-47.0587 L -20.4939,-47.004
 L -20.3354,-46.9338 L -20.1881,-46.8479 L -20.052,-46.7464 L -19.9272,-46.6293 L -19.8154,-46.4993 L -19.7186,-46.3595
 L -19.6366,-46.2098 L -19.5696,-46.0504 L -19.5175,-45.8813 L -19.4802,-45.7023 L -19.4578,-45.5135 L -19.4504,-45.315
 L -19.4588,-45.1047 L -19.4841,-44.9063 L -19.5262,-44.7198 L -19.5851,-44.5453 L -19.6608,-44.3827 L -19.7534,-44.232
 L -19.8628,-44.0933 L -19.9891,-43.9664 L -20.1306,-43.8529 L -20.2863,-43.7545 L -20.4563,-43.6713 L -20.6405,-43.6031
 L -20.8389,-43.5502 L -21.0515,-43.5123 L -21.2783,-43.4896 L -21.5194,-43.482 z
M -23.0602,-40.686 L -24.4611,-40.686 L -24.4611,-39.4278 L -23.0602,-39.4278 z
M -23.4732,-36.3638 L -23.3594,-36.3116 L -23.2444,-36.2518 L -23.1284,-36.1844 L -23.0112,-36.1092 L -22.8928,-36.0264
 L -22.7734,-35.9359 L -22.6528,-35.8377 L -22.531,-35.7319 L -22.4069,-35.6172 L -22.279,-35.4931 L -22.1473,-35.3595
 L -22.0119,-35.2165 L -21.8727,-35.064 L -21.7298,-34.9021 L -21.5832,-34.7307 L -21.4328,-34.5498 L -21.1667,-34.2263
 L -20.9187,-33.9301 L -20.6886,-33.661 L -20.4765,-33.4192 L -20.2825,-33.2047 L -20.1064,-33.0174 L -19.9483,-32.8573
 L -19.8082,-32.7245 L -19.6769,-32.6087 L -19.5456,-32.5004 L -19.4144,-32.3994 L -19.2831,-32.3057 L -19.1519,-32.2195
 L -19.0208,-32.1406 L -18.8896,-32.0691 L -18.7585,-32.005 L -18.6273,-31.9481 L -18.4959,-31.8988 L -18.3643,-31.8571
 L -18.2325,-31.823 L -18.1004,-31.7964 L -17.9682,-31.7775 L -17.8357,-31.7661 L -17.7031,-31.7623 L -17.4121,-31.7739
 L -17.1382,-31.8085 L -16.8814,-31.8663 L -16.6417,-31.9472 L -16.4191,-32.0512 L -16.2136,-32.1783 L -16.0252,-32.3285
 L -15.8539,-32.5018 L -15.7014,-32.6963 L -15.5691,-32.9108 L -15.4572,-33.1451 L -15.3657,-33.3992 L -15.2945,-33.6733
 L -15.2437,-33.9672 L -15.2131,-34.2809 L -15.203,-34.6145 L -15.213,-34.9205 L -15.2433,-35.2123 L -15.2937,-35.4898
 L -15.3643,-35.753 L -15.455,-36.002 L -15.5659,-36.2368 L -15.697,-36.4573 L -15.8482,-36.6636 L -16.0165,-36.8523
 L -16.1987,-37.0202 L -16.3948,-37.1672 L -16.6048,-37.2934 L -16.8288,-37.3987 L -17.0666,-37.4832 L -17.3184,-37.5468
 L -17.5841,-37.5896 L -17.6936,-36.4028 L -17.5164,-36.3757 L -17.3495,-36.3361 L -17.1927,-36.2842 L -17.0462,-36.2198
 L -16.9098,-36.1431 L -16.7837,-36.0539 L -16.6677,-35.9524 L -16.562,-35.8384 L -16.4674,-35.714 L -16.3855,-35.5814
 L -16.3161,-35.4406 L -16.2593,-35.2917 L -16.2152,-35.1346 L -16.1837,-34.9694 L -16.1648,-34.7961 L -16.1585,-34.6145
 L -16.165,-34.4246 L -16.1844,-34.2453 L -16.2169,-34.0767 L -16.2624,-33.9189 L -16.3209,-33.7717 L -16.3924,-33.6353
 L -16.4769,-33.5095 L -16.5744,-33.3945 L -16.6834,-33.2916 L -16.8029,-33.2025 L -16.9331,-33.1271 L -17.0738,-33.0654
 L -17.225,-33.0174 L -17.3868,-32.9832 L -17.5592,-32.9626 L -17.7421,-32.9557 L -17.8795,-32.9597 L -18.0132,-32.9717
 L -18.1433,-32.9916 L -18.2698,-33.0195 L -18.3927,-33.0554 L -18.5119,-33.0992 L -18.6275,-33.151 L -18.7395,-33.2108
 L -18.8488,-33.277 L -18.9569,-33.3482 L -19.0639,-33.4243 L -19.1696,-33.5054 L -19.2742,-33.5913 L -19.3776,-33.6823
 L -19.4798,-33.7781 L -19.5808,-33.8789 L -19.6812,-33.9837 L -19.7816,-34.0916 L -19.882,-34.2027 L -19.9824,-34.3169
 L -20.0828,-34.4342 L -20.1832,-34.5547 L -20.2836,-34.6782 L -20.384,-34.8049 L -20.4855,-34.9333 L -20.589,-35.062
 L -20.6947,-35.1911 L -20.8025,-35.3205 L -20.9124,-35.4502 L -21.0244,-35.5802 L -21.1386,-35.7106 L -21.2548,-35.8413
 L -21.3738,-35.9712 L -21.4963,-36.0996 L -21.6222,-36.2265 L -21.7516,-36.3519 L -21.8844,-36.4758 L -22.0207,-36.5983
 L -22.1604,-36.7192 L -22.3036,-36.8387 L -22.4512,-36.9549 L -22.6045,-37.0666 L -22.7633,-37.1738 L -22.9277,-37.2765
 L -23.0976,-37.3746 L -23.2731,-37.4682 L -23.4541,-37.5573 L -23.6407,-37.6419 L -24.4611,-37.6419 L -24.4611,-31.6205
 L -23.4732,-31.6205 z
M -21.1956,-24.3439 L -20.9029,-24.3813 L -20.6251,-24.4436 L -20.3621,-24.5309 L -20.114,-24.643 L -19.8808,-24.7801
 L -19.6624,-24.9421 L -19.459,-25.129 L -19.2752,-25.3367 L -19.1159,-25.5614 L -18.9811,-25.8032 L -18.8708,-26.0621
 L -18.785,-26.3381 L -18.7238,-26.6311 L -18.687,-26.9412 L -18.6748,-27.2684 L -18.6838,-27.5434 L -18.711,-27.8069
 L -18.7564,-28.0589 L -18.8199,-28.2993 L -18.9015,-28.5283 L -19.0013,-28.7457 L -19.1192,-28.9517 L -19.2553,-29.1461
 L -16.3736,-28.972 L -16.3736,-24.8606 L -15.3857,-24.8606 L -15.3857,-30.0302 L -20.2755,-30.3338 L -20.2755,-29.1975
 L -20.19,-29.0959 L -20.1109,-28.9943 L -20.0383,-28.8927 L -19.9722,-28.7911 L -19.9125,-28.6895 L -19.8592,-28.588
 L -19.8124,-28.4864 L -19.7721,-28.3848 L -19.7373,-28.2819 L -19.7071,-28.1771 L -19.6816,-28.0703 L -19.6607,-27.9615
 L -19.6445,-27.8507 L -19.6329,-27.7379 L -19.6259,-27.6231 L -19.6236,-27.5063 L -19.6318,-27.2863 L -19.6565,-27.078
 L -19.6976,-26.8812 L -19.7552,-26.696 L -19.8292,-26.5224 L -19.9196,-26.3604 L -20.0265,-26.21 L -20.1499,-26.0712
 L -20.2865,-25.9463 L -20.4334,-25.838 L -20.5905,-25.7464 L -20.7578,-25.6715 L -20.9353,-25.6132 L -21.1229,-25.5715
 L -21.3208,-25.5466 L -21.5289,-25.5382 L -21.7679,-25.5465 L -21.9937,-25.5713 L -22.2063,-25.6126 L -22.4059,-25.6705
 L -22.5923,-25.7449 L -22.7655,-25.8359 L -22.9256,-25.9433 L -23.0725,-26.0674 L -23.2041,-26.206 L -23.3182,-26.3574
 L -23.4147,-26.5215 L -23.4937,-26.6983 L -23.5551,-26.8879 L -23.599,-27.0902 L -23.6253,-27.3052 L -23.634,-27.533
 L -23.613,-27.8956 L -23.5497,-28.2222 L -23.4443,-28.5127 L -23.2967,-28.7671 L -23.1069,-28.9854 L -22.875,-29.1677
 L -22.6008,-29.3139 L -22.2845,-29.424 L -22.4197,-30.5984 L -22.6751,-30.5378 L -22.9149,-30.4593 L -23.1393,-30.3628
 L -23.3481,-30.2484 L -23.5414,-30.1161 L -23.7191,-29.9658 L -23.8813,-29.7976 L -24.0281,-29.6115 L -24.1581,-29.4085
 L -24.2708,-29.1902 L -24.3661,-28.9566 L -24.4442,-28.7076 L -24.5049,-28.4434 L -24.5482,-28.1638 L -24.5742,-27.8689
 L -24.5829,-27.5587 L -24.57,-27.1898 L -24.5315,-26.8416 L -24.4673,-26.5141 L -24.3773,-26.2073 L -24.2617,-25.9212
 L -24.1204,-25.6558 L -23.9533,-25.4111 L -23.7606,-25.1871 L -23.5453,-24.9865 L -23.3108,-24.8127 L -23.0573,-24.6657
 L -22.7847,-24.5454 L -22.4929,-24.4518 L -22.1821,-24.3849 L -21.8522,-24.3448 L -21.5032,-24.3315 z
M -19.4819,-10.2315 L -19.1882,-10.254 L -18.9176,-10.2915 L -18.67,-10.3441 L -18.4455,-10.4117 L -18.2441,-10.4943
 L -18.0658,-10.5919 L -17.9105,-10.7045 L -17.7756,-10.8337 L -17.6586,-10.981 L -17.5597,-11.1462 L -17.4787,-11.3296
 L -17.4157,-11.531 L -17.3708,-11.7504 L -17.3438,-11.9879 L -17.3348,-12.2435 L -17.3396,-12.4225 L -17.3542,-12.5949
 L -17.3784,-12.7604 L -17.4123,-12.9191 L -17.456,-13.0711 L -17.5093,-13.2163 L -17.5723,-13.3547 L -17.645,-13.4864
 L -17.7288,-13.6122 L -17.8248,-13.7334 L -17.9333,-13.8498 L -18.054,-13.9615 L -18.1871,-14.0685 L -18.3326,-14.1707
 L -18.4904,-14.2682 L -18.6605,-14.361 L -18.6605,-14.38 L -18.4934,-14.4296 L -18.338,-14.488 L -18.1943,-14.5551
 L -18.0623,-14.631 L -17.9421,-14.7157 L -17.8336,-14.8092 L -17.7368,-14.9114 L -17.6517,-15.0224 L -17.5774,-15.1428
 L -17.513,-15.2735 L -17.4586,-15.4147 L -17.414,-15.5663 L -17.3793,-15.7283 L -17.3546,-15.9007 L -17.3397,-16.0835
 L -17.3348,-16.2767 L -17.3393,-16.4478 L -17.353,-16.6122 L -17.3757,-16.77 L -17.4076,-16.921 L -17.4485,-17.0655
 L -17.4986,-17.2032 L -17.5577,-17.3343 L -17.626,-17.4588 L -17.7059,-17.5779 L -17.7999,-17.6936 L -17.908,-17.806
 L -18.0302,-17.9149 L -18.1666,-18.0203 L -18.3171,-18.1224 L -18.4817,-18.221 L -18.6605,-18.3162 L -18.6605,-18.3353
 L -18.5371,-18.3385 L -18.424,-18.3417 L -18.3212,-18.3447 L -18.2287,-18.3476 L -18.1463,-18.3504 L -18.0743,-18.3531
 L -18.0125,-18.3557 L -17.961,-18.3581 L -17.8278,-18.3649 L -17.7457,-18.3689 L -17.5985,-18.3759 L -17.5677,-18.3776
 L -17.5405,-18.3793 L -17.5168,-18.381 L -17.4965,-18.3826 L -17.4797,-18.3843 L -17.4664,-18.386 L -17.4566,-18.3876
 L -17.4566,-19.4849 L -17.5395,-19.4758 L -17.6521,-19.4679 L -17.7944,-19.4612 L -17.9664,-19.4557 L -18.1682,-19.4514
 L -18.3997,-19.4483 L -18.6608,-19.4465 L -18.9517,-19.4459 L -24.4611,-19.4459 L -24.4611,-18.2905 L -20.4059,-18.2905
 L -20.1543,-18.2838 L -19.9173,-18.2635 L -19.6949,-18.2298 L -19.487,-18.1825 L -19.2938,-18.1218 L -19.115,-18.0475
 L -18.9509,-17.9597 L -18.8013,-17.8585 L -18.668,-17.7454 L -18.5524,-17.6227 L -18.4545,-17.4903 L -18.3745,-17.3484
 L -18.3123,-17.1967 L -18.2678,-17.0355 L -18.2411,-16.8646 L -18.2322,-16.6841 L -18.2383,-16.5102 L -18.2565,-16.3503
 L -18.2868,-16.2044 L -18.3293,-16.0724 L -18.3839,-15.9543 L -18.4506,-15.8502 L -18.5295,-15.7601 L -18.6205,-15.6838
 L -18.7274,-15.6187 L -18.8539,-15.5623 L -18.9999,-15.5145 L -19.1656,-15.4754 L -19.3509,-15.445 L -19.5557,-15.4233
 L -19.7802,-15.4103 L -20.0243,-15.4059 L -24.4611,-15.4059 L -24.4611,-14.2572 L -20.4059,-14.2572 L -20.1528,-14.2506
 L -19.9146,-14.2308 L -19.6914,-14.1978 L -19.483,-14.1516 L -19.2895,-14.0922 L -19.1109,-14.0195 L -18.9473,-13.9337
 L -18.7985,-13.8347 L -18.6658,-13.7238 L -18.5507,-13.6022 L -18.4534,-13.4701 L -18.3738,-13.3274 L -18.3118,-13.1741
 L -18.2676,-13.0103 L -18.2411,-12.8358 L -18.2322,-12.6508 L -18.2383,-12.4769 L -18.2565,-12.317 L -18.2868,-12.1711
 L -18.3293,-12.0391 L -18.3839,-11.921 L -18.4506,-11.8169 L -18.5295,-11.7267 L -18.6205,-11.6505 L -18.7274,-11.5854
 L -18.8539,-11.529 L -18.9999,-11.4812 L -19.1656,-11.4421 L -19.3509,-11.4117 L -19.5557,-11.39 L -19.7802,-11.377
 L -20.0243,-11.3726 L -24.4611,-11.3726 L -24.4611,-10.2239 L -19.7987,-10.2239 z
M -19.4819,0.521622 L -19.1882,0.499084 L -18.9176,0.461533 L -18.67,0.408981 L -18.4455,0.3414 L -18.2441,0.258789
 L -18.0658,0.161163 L -17.9105,0.0485229 L -17.7756,-0.0806427 L -17.6586,-0.227875 L -17.5597,-0.393158 L -17.4787,-0.576492
 L -17.4157,-0.777878 L -17.3708,-0.997314 L -17.3438,-1.2348 L -17.3348,-1.49036 L -17.3396,-1.66946 L -17.3542,-1.84178
 L -17.3784,-2.00731 L -17.4123,-2.16606 L -17.456,-2.31804 L -17.5093,-2.46324 L -17.5723,-2.60164 L -17.645,-2.73328
 L -17.7288,-2.85916 L -17.8248,-2.98032 L -17.9333,-3.09671 L -18.054,-3.20842 L -18.1871,-3.31537 L -18.3326,-3.4176
 L -18.4904,-3.51512 L -18.6605,-3.60788 L -18.6605,-3.62692 L -18.4934,-3.67651 L -18.338,-3.73488 L -18.1943,-3.80203
 L -18.0623,-3.87793 L -17.9421,-3.96262 L -17.8336,-4.05609 L -17.7368,-4.15833 L -17.6517,-4.26932 L -17.5774,-4.38968
 L -17.513,-4.52045 L -17.4586,-4.66162 L -17.414,-4.81322 L -17.3793,-4.9752 L -17.3546,-5.14763 L -17.3397,-5.33044
 L -17.3348,-5.52365 L -17.3393,-5.69473 L -17.353,-5.85913 L -17.3757,-6.01688 L -17.4076,-6.16795 L -17.4485,-6.31238
 L -17.4986,-6.45015 L -17.5577,-6.58124 L -17.626,-6.70567 L -17.7059,-6.82481 L -17.7999,-6.94055 L -17.908,-7.05289
 L -18.0302,-7.16177 L -18.1666,-7.26726 L -18.3171,-7.36929 L -18.4817,-7.46793 L -18.6605,-7.56316 L -18.6605,-7.58218
 L -18.5371,-7.58546 L -18.424,-7.58861 L -18.3212,-7.59164 L -18.2287,-7.59456 L -18.1463,-7.59735 L -18.0743,-7.60004
 L -18.0125,-7.6026 L -17.961,-7.60503 L -17.8278,-7.61177 L -17.7457,-7.61581 L -17.5985,-7.62286 L -17.5677,-7.62454
 L -17.5405,-7.62621 L -17.5168,-7.62787 L -17.4965,-7.62953 L -17.4797,-7.6312 L -17.4664,-7.63287 L -17.4566,-7.63452
 L -17.4566,-8.73184 L -17.5395,-8.7227 L -17.6521,-8.71477 L -17.7944,-8.70807 L -17.9664,-8.70258 L -18.1682,-8.6983
 L -18.3997,-8.69525 L -18.6608,-8.69342 L -18.9517,-8.69281 L -24.4611,-8.69281 L -24.4611,-7.53746 L -20.4059,-7.53746
 L -20.1543,-7.53072 L -19.9173,-7.51045 L -19.6949,-7.4767 L -19.487,-7.42943 L -19.2938,-7.36868 L -19.115,-7.29442
 L -18.9509,-7.20665 L -18.8013,-7.10538 L -18.668,-6.99231 L -18.5524,-6.8696 L -18.4545,-6.73726 L -18.3745,-6.59528
 L -18.3123,-6.44365 L -18.2678,-6.28241 L -18.2411,-6.11151 L -18.2322,-5.93098 L -18.2383,-5.75714 L -18.2565,-5.59724
 L -18.2868,-5.45129 L -18.3293,-5.31929 L -18.3839,-5.20123 L -18.4506,-5.09712 L -18.5295,-5.00697 L -18.6205,-4.93076
 L -18.7274,-4.86562 L -18.8539,-4.80917 L -18.9999,-4.76141 L -19.1656,-4.72234 L -19.3509,-4.69194 L -19.5557,-4.67023
 L -19.7802,-4.6572 L -20.0243,-4.65286 L -24.4611,-4.65286 L -24.4611,-3.50415 L -20.4059,-3.50415 L -20.1528,-3.49754
 L -19.9146,-3.47774 L -19.6914,-3.44473 L -19.483,-3.39853 L -19.2895,-3.3391 L -19.1109,-3.26646 L -18.9473,-3.18063
 L -18.7985,-3.0816 L -18.6658,-2.97067 L -18.5507,-2.84915 L -18.4534,-2.71704 L -18.3738,-2.57434 L -18.3118,-2.42107
 L -18.2676,-2.2572 L -18.2411,-2.08273 L -18.2322,-1.89769 L -18.2383,-1.72385 L -18.2565,-1.56395 L -18.2868,-1.41798
 L -18.3293,-1.28598 L -18.3839,-1.16792 L -18.4506,-1.06381 L -18.5295,-0.973663 L -18.6205,-0.897446 L -18.7274,-0.832321
 L -18.8539,-0.775879 L -18.9999,-0.728119 L -19.1656,-0.689041 L -19.3509,-0.658646 L -19.5557,-0.636917 L -19.7802,-0.623886
 L -20.0243,-0.619553 L -24.4611,-0.619553 L -24.4611,0.529144 L -19.7987,0.529144 z
M 130.987,27.5215 L 131.574,27.4286 L 132.122,27.2737 L 132.63,27.0569 L 133.099,26.7781 L 133.528,26.4374
 L 133.918,26.0347 L 134.269,25.5701 L 134.579,25.0463 L 134.848,24.4669 L 135.076,23.8319 L 135.262,23.1414
 L 135.406,22.3953 L 135.51,21.5936 L 135.572,20.7364 L 135.593,19.8236 L 135.573,18.8961 L 135.514,18.0274
 L 135.415,17.2172 L 135.277,16.4657 L 135.1,15.7727 L 134.883,15.1384 L 134.627,14.5627 L 134.332,14.0457
 L 133.995,13.5884 L 133.615,13.1921 L 133.192,12.8568 L 132.725,12.5824 L 132.215,12.369 L 131.662,12.2166
 L 131.065,12.1251 L 130.425,12.0946 L 129.767,12.1248 L 129.155,12.2153 L 128.588,12.3661 L 128.068,12.5773
 L 127.592,12.8488 L 127.163,13.1806 L 126.779,13.5728 L 126.441,14.0253 L 126.146,14.5379 L 125.89,15.1111
 L 125.674,15.7449 L 125.497,16.4394 L 125.359,17.1945 L 125.261,18.0102 L 125.201,18.8866 L 125.182,19.8236
 L 125.202,20.7414 L 125.263,21.6026 L 125.364,22.4072 L 125.506,23.1552 L 125.688,23.8465 L 125.911,24.4813
 L 126.175,25.0595 L 126.479,25.581 L 126.823,26.0431 L 127.208,26.4435 L 127.633,26.7824 L 128.098,27.0596
 L 128.603,27.2753 L 129.149,27.4292 L 129.734,27.5217 L 130.361,27.5525 z
M 129.971,25.9657 L 129.589,25.8962 L 129.236,25.7804 L 128.911,25.6183 L 128.614,25.4099 L 128.347,25.1551
 L 128.108,24.8541 L 127.898,24.5067 L 127.715,24.109 L 127.556,23.6576 L 127.422,23.1526 L 127.312,22.5941
 L 127.227,21.9819 L 127.166,21.316 L 127.129,20.5966 L 127.117,19.8236 L 127.129,19.0284 L 127.165,18.2913
 L 127.225,17.6122 L 127.31,16.9911 L 127.418,16.428 L 127.55,15.923 L 127.707,15.476 L 127.887,15.0871
 L 128.096,14.7496 L 128.335,14.4572 L 128.606,14.2097 L 128.907,14.0072 L 129.24,13.8498 L 129.604,13.7373
 L 129.999,13.6698 L 130.425,13.6473 L 130.84,13.6702 L 131.225,13.7387 L 131.58,13.8529 L 131.904,14.0128
 L 132.198,14.2183 L 132.461,14.4695 L 132.694,14.7664 L 132.897,15.109 L 133.072,15.5025 L 133.225,15.9518
 L 133.353,16.4572 L 133.459,17.0185 L 133.541,17.6358 L 133.599,18.3091 L 133.635,19.0384 L 133.646,19.8236
 L 133.634,20.582 L 133.597,21.2899 L 133.536,21.9471 L 133.449,22.5537 L 133.339,23.1096 L 133.203,23.615
 L 133.044,24.0697 L 132.859,24.4738 L 132.648,24.8289 L 132.41,25.1366 L 132.142,25.397 L 131.847,25.61
 L 131.523,25.7758 L 131.171,25.8941 L 130.791,25.9651 L 130.383,25.9888 z
M 142.817,27.5215 L 143.404,27.4286 L 143.952,27.2737 L 144.46,27.0569 L 144.929,26.7781 L 145.358,26.4374
 L 145.748,26.0347 L 146.099,25.5701 L 146.409,25.0463 L 146.678,24.4669 L 146.906,23.8319 L 147.092,23.1414
 L 147.237,22.3953 L 147.34,21.5936 L 147.402,20.7364 L 147.423,19.8236 L 147.403,18.8961 L 147.344,18.0274
 L 147.245,17.2172 L 147.108,16.4657 L 146.93,15.7727 L 146.714,15.1384 L 146.457,14.5627 L 146.162,14.0457
 L 145.825,13.5884 L 145.445,13.1921 L 145.022,12.8568 L 144.555,12.5824 L 144.045,12.369 L 143.492,12.2166
 L 142.895,12.1251 L 142.255,12.0946 L 141.597,12.1248 L 140.985,12.2153 L 140.419,12.3661 L 139.898,12.5773
 L 139.423,12.8488 L 138.993,13.1806 L 138.609,13.5728 L 138.271,14.0253 L 137.976,14.5379 L 137.72,15.1111
 L 137.504,15.7449 L 137.327,16.4394 L 137.189,17.1945 L 137.091,18.0102 L 137.032,18.8866 L 137.012,19.8236
 L 137.032,20.7414 L 137.093,21.6026 L 137.194,22.4072 L 137.336,23.1552 L 137.519,23.8465 L 137.742,24.4813
 L 138.005,25.0595 L 138.309,25.581 L 138.653,26.0431 L 139.038,26.4435 L 139.463,26.7824 L 139.928,27.0596
 L 140.433,27.2753 L 140.979,27.4292 L 141.565,27.5217 L 142.191,27.5525 z
M 141.802,25.9657 L 141.419,25.8962 L 141.066,25.7804 L 140.741,25.6183 L 140.445,25.4099 L 140.177,25.1551
 L 139.938,24.8541 L 139.728,24.5067 L 139.545,24.109 L 139.387,23.6576 L 139.252,23.1526 L 139.143,22.5941
 L 139.057,21.9819 L 138.996,21.316 L 138.96,20.5966 L 138.947,19.8236 L 138.959,19.0284 L 138.995,18.2913
 L 139.056,17.6122 L 139.14,16.9911 L 139.248,16.428 L 139.38,15.923 L 139.537,15.476 L 139.717,15.0871
 L 139.926,14.7496 L 140.165,14.4572 L 140.436,14.2097 L 140.738,14.0072 L 141.07,13.8498 L 141.434,13.7373
 L 141.829,13.6698 L 142.255,13.6473 L 142.67,13.6702 L 143.055,13.7387 L 143.41,13.8529 L 143.734,14.0128
 L 144.028,14.2183 L 144.291,14.4695 L 144.524,14.7664 L 144.727,15.109 L 144.902,15.5025 L 145.055,15.9518
 L 145.184,16.4572 L 145.289,17.0185 L 145.371,17.6358 L 145.43,18.3091 L 145.465,19.0384 L 145.476,19.8236
 L 145.464,20.582 L 145.427,21.2899 L 145.366,21.9471 L 145.28,22.5537 L 145.169,23.1096 L 145.034,23.615
 L 144.874,24.0697 L 144.689,24.4738 L 144.479,24.8289 L 144.24,25.1366 L 143.973,25.397 L 143.677,25.61
 L 143.353,25.7758 L 143.001,25.8941 L 142.621,25.9651 L 142.213,25.9888 z
M 119.167,27.5346 L 119.726,27.4808 L 120.249,27.3913 L 120.737,27.2658 L 121.191,27.1046 L 121.608,26.9076
 L 121.991,26.6747 L 122.338,26.406 L 122.648,26.1043 L 122.915,25.7731 L 123.142,25.4124 L 123.328,25.0223
 L 123.472,24.6027 L 123.575,24.1537 L 123.637,23.6752 L 123.657,23.1673 L 123.643,22.8131 L 123.599,22.4744
 L 123.526,22.1511 L 123.423,21.8432 L 123.292,21.5508 L 123.131,21.2738 L 122.941,21.0123 L 122.721,20.7661
 L 122.475,20.5394 L 122.206,20.3368 L 121.914,20.1583 L 121.599,20.0039 L 121.26,19.8737 L 120.898,19.7675
 L 120.513,19.6854 L 120.105,19.6275 L 120.105,19.5852 L 120.476,19.4966 L 120.825,19.39 L 121.151,19.2654
 L 121.454,19.1229 L 121.734,18.9624 L 121.992,18.7838 L 122.227,18.5873 L 122.439,18.3728 L 122.627,18.1406
 L 122.79,17.8916 L 122.928,17.6259 L 123.041,17.3436 L 123.129,17.0445 L 123.192,16.7287 L 123.229,16.3961
 L 123.242,16.0469 L 123.222,15.5936 L 123.164,15.1659 L 123.066,14.7639 L 122.929,14.3876 L 122.753,14.037
 L 122.539,13.712 L 122.285,13.4127 L 121.992,13.1392 L 121.664,12.8944 L 121.305,12.6822 L 120.914,12.5027
 L 120.492,12.3558 L 120.038,12.2415 L 119.553,12.1599 L 119.036,12.1109 L 118.488,12.0946 L 117.984,12.1107
 L 117.503,12.1591 L 117.046,12.2397 L 116.612,12.3526 L 116.202,12.4977 L 115.815,12.6751 L 115.451,12.8847
 L 115.111,13.1266 L 114.8,13.3969 L 114.524,13.6924 L 114.281,14.0132 L 114.073,14.3593 L 113.9,14.7308
 L 113.761,15.1275 L 113.656,15.5495 L 113.585,15.9967 L 115.51,16.1457 L 115.552,15.8592 L 115.614,15.5893
 L 115.697,15.3359 L 115.8,15.0992 L 115.924,14.8791 L 116.068,14.6757 L 116.233,14.4888 L 116.418,14.3186
 L 116.621,14.1664 L 116.839,14.0345 L 117.073,13.9229 L 117.321,13.8316 L 117.585,13.7606 L 117.863,13.7099
 L 118.157,13.6794 L 118.466,13.6693 L 118.804,13.6801 L 119.12,13.7126 L 119.415,13.7668 L 119.689,13.8426
 L 119.941,13.9401 L 120.171,14.0592 L 120.38,14.2 L 120.568,14.3625 L 120.733,14.5433 L 120.877,14.7398
 L 120.999,14.952 L 121.098,15.18 L 121.176,15.4237 L 121.231,15.6832 L 121.264,15.9583 L 121.275,16.2492
 L 121.261,16.5426 L 121.221,16.8195 L 121.153,17.0801 L 121.058,17.3244 L 120.936,17.5522 L 120.787,17.7637
 L 120.611,17.9588 L 120.408,18.1376 L 120.18,18.2975 L 119.93,18.4361 L 119.658,18.5533 L 119.364,18.6493
 L 119.048,18.7239 L 118.71,18.7772 L 118.35,18.8091 L 117.967,18.8198 L 116.924,18.8198 L 116.924,20.4791
 L 118.01,20.4791 L 118.44,20.49 L 118.845,20.5225 L 119.224,20.5768 L 119.576,20.6528 L 119.903,20.7505
 L 120.203,20.8699 L 120.478,21.0111 L 120.726,21.1739 L 120.947,21.3557 L 121.138,21.5546 L 121.3,21.7706
 L 121.432,22.0036 L 121.535,22.2536 L 121.608,22.5207 L 121.652,22.8049 L 121.667,23.1062 L 121.654,23.4501
 L 121.616,23.7722 L 121.551,24.0725 L 121.461,24.351 L 121.345,24.6077 L 121.203,24.8426 L 121.036,25.0557
 L 120.842,25.247 L 120.627,25.4161 L 120.392,25.5626 L 120.137,25.6866 L 119.863,25.7881 L 119.57,25.867
 L 119.257,25.9233 L 118.924,25.9572 L 118.573,25.9684 L 117.891,25.9268 L 117.288,25.8022 L 116.762,25.5944
 L 116.315,25.3034 L 115.946,24.9294 L 115.655,24.4722 L 115.442,23.9319 L 115.307,23.3085 L 113.33,23.4888
 L 113.411,23.9761 L 113.526,24.4327 L 113.676,24.8585 L 113.86,25.2536 L 114.079,25.618 L 114.332,25.9516
 L 114.619,26.2546 L 114.94,26.5268 L 115.294,26.7672 L 115.676,26.9755 L 116.087,27.1518 L 116.527,27.2961
 L 116.995,27.4082 L 117.492,27.4884 L 118.018,27.5364 L 118.573,27.5525 z
M 157.315,20.6689 L 157.326,20.2543 L 157.36,19.8638 L 157.415,19.4972 L 157.493,19.1547 L 157.594,18.8361
 L 157.716,18.5416 L 157.861,18.2711 L 158.027,18.0246 L 158.214,17.8048 L 158.416,17.6143 L 158.634,17.4531
 L 158.868,17.3212 L 159.118,17.2187 L 159.384,17.1454 L 159.665,17.1014 L 159.963,17.0867 L 160.249,17.0968
 L 160.513,17.1268 L 160.753,17.1768 L 160.971,17.2467 L 161.165,17.3367 L 161.337,17.4467 L 161.486,17.5767
 L 161.611,17.7267 L 161.718,17.9028 L 161.811,18.1112 L 161.89,18.3519 L 161.955,18.6249 L 162.005,18.9303
 L 162.04,19.2679 L 162.062,19.6378 L 162.069,20.04 L 162.069,27.3517 L 163.962,27.3517 L 163.962,20.6689
 L 163.973,20.2518 L 164.006,19.8593 L 164.06,19.4914 L 164.136,19.148 L 164.234,18.8291 L 164.354,18.5349
 L 164.495,18.2651 L 164.658,18.0199 L 164.841,17.8012 L 165.042,17.6117 L 165.259,17.4513 L 165.494,17.3201
 L 165.747,17.218 L 166.017,17.1451 L 166.305,17.1013 L 166.61,17.0867 L 166.896,17.0968 L 167.16,17.1268
 L 167.4,17.1768 L 167.618,17.2467 L 167.812,17.3367 L 167.984,17.4467 L 168.132,17.5767 L 168.258,17.7267
 L 168.365,17.9028 L 168.458,18.1112 L 168.537,18.3519 L 168.601,18.6249 L 168.651,18.9303 L 168.687,19.2679
 L 168.709,19.6378 L 168.716,20.04 L 168.716,27.3517 L 170.609,27.3517 L 170.609,19.6683 L 170.596,19.1462
 L 170.559,18.6622 L 170.497,18.2162 L 170.411,17.8082 L 170.299,17.4383 L 170.163,17.1064 L 170.002,16.8125
 L 169.817,16.5566 L 169.604,16.3342 L 169.361,16.1415 L 169.089,15.9784 L 168.787,15.845 L 168.455,15.7412
 L 168.093,15.6671 L 167.702,15.6226 L 167.281,15.6078 L 166.986,15.6158 L 166.702,15.6397 L 166.429,15.6797
 L 166.167,15.7356 L 165.917,15.8075 L 165.678,15.8954 L 165.449,15.9992 L 165.232,16.1191 L 165.025,16.2571
 L 164.825,16.4154 L 164.634,16.5941 L 164.449,16.7931 L 164.273,17.0124 L 164.105,17.2521 L 163.944,17.5121
 L 163.791,17.7925 L 163.76,17.7925 L 163.678,17.5171 L 163.582,17.261 L 163.471,17.0243 L 163.346,16.8068
 L 163.207,16.6086 L 163.053,16.4298 L 162.884,16.2703 L 162.701,16.13 L 162.503,16.0077 L 162.287,15.9016
 L 162.055,15.8118 L 161.805,15.7384 L 161.538,15.6812 L 161.254,15.6404 L 160.952,15.6159 L 160.634,15.6078
 L 160.352,15.6153 L 160.081,15.6378 L 159.821,15.6753 L 159.572,15.7278 L 159.334,15.7953 L 159.107,15.8777
 L 158.891,15.9752 L 158.686,16.0877 L 158.49,16.2193 L 158.299,16.3742 L 158.114,16.5524 L 157.934,16.7539
 L 157.761,16.9786 L 157.592,17.2266 L 157.43,17.4979 L 157.273,17.7925 L 157.242,17.7925 L 157.236,17.5892
 L 157.231,17.4029 L 157.226,17.2334 L 157.221,17.0809 L 157.217,16.9452 L 157.212,16.8265 L 157.208,16.7247
 L 157.204,16.6398 L 157.193,16.4203 L 157.186,16.285 L 157.18,16.1586 L 157.177,16.0987 L 157.175,16.0424
 L 157.172,15.9917 L 157.169,15.9469 L 157.166,15.9077 L 157.164,15.8743 L 157.161,15.8467 L 157.158,15.8247
 L 157.155,15.8085 L 155.347,15.8085 L 155.362,15.9451 L 155.375,16.1307 L 155.386,16.3653 L 155.395,16.6488
 L 155.402,16.9813 L 155.407,17.3627 L 155.41,17.7931 L 155.411,18.2725 L 155.411,27.3517 L 157.315,27.3517
 z
M 175.036,20.6689 L 175.047,20.2543 L 175.081,19.8638 L 175.136,19.4972 L 175.214,19.1547 L 175.314,18.8361
 L 175.437,18.5416 L 175.581,18.2711 L 175.748,18.0246 L 175.935,17.8048 L 176.137,17.6143 L 176.355,17.4531
 L 176.589,17.3212 L 176.839,17.2187 L 177.104,17.1454 L 177.386,17.1014 L 177.684,17.0867 L 177.97,17.0968
 L 178.234,17.1268 L 178.474,17.1768 L 178.692,17.2467 L 178.886,17.3367 L 179.058,17.4467 L 179.206,17.5767
 L 179.332,17.7267 L 179.439,17.9028 L 179.532,18.1112 L 179.611,18.3519 L 179.675,18.6249 L 179.725,18.9303
 L 179.761,19.2679 L 179.783,19.6378 L 179.79,20.04 L 179.79,27.3517 L 181.683,27.3517 L 181.683,20.6689
 L 181.694,20.2518 L 181.726,19.8593 L 181.781,19.4914 L 181.857,19.148 L 181.955,18.8291 L 182.075,18.5349
 L 182.216,18.2651 L 182.379,18.0199 L 182.562,17.8012 L 182.762,17.6117 L 182.98,17.4513 L 183.215,17.3201
 L 183.468,17.218 L 183.738,17.1451 L 184.025,17.1013 L 184.33,17.0867 L 184.617,17.0968 L 184.88,17.1268
 L 185.121,17.1768 L 185.338,17.2467 L 185.533,17.3367 L 185.704,17.4467 L 185.853,17.5767 L 185.979,17.7267
 L 186.086,17.9028 L 186.179,18.1112 L 186.258,18.3519 L 186.322,18.6249 L 186.372,18.9303 L 186.408,19.2679
 L 186.429,19.6378 L 186.437,20.04 L 186.437,27.3517 L 188.33,27.3517 L 188.33,19.6683 L 188.317,19.1462
 L 188.28,18.6622 L 188.218,18.2162 L 188.132,17.8082 L 188.02,17.4383 L 187.884,17.1064 L 187.723,16.8125
 L 187.538,16.5566 L 187.325,16.3342 L 187.082,16.1415 L 186.81,15.9784 L 186.508,15.845 L 186.176,15.7412
 L 185.814,15.6671 L 185.423,15.6226 L 185.002,15.6078 L 184.706,15.6158 L 184.422,15.6397 L 184.15,15.6797
 L 183.888,15.7356 L 183.638,15.8075 L 183.398,15.8954 L 183.17,15.9992 L 182.953,16.1191 L 182.746,16.2571
 L 182.546,16.4154 L 182.354,16.5941 L 182.17,16.7931 L 181.994,17.0124 L 181.826,17.2521 L 181.665,17.5121
 L 181.512,17.7925 L 181.481,17.7925 L 181.399,17.5171 L 181.303,17.261 L 181.192,17.0243 L 181.067,16.8068
 L 180.927,16.6086 L 180.773,16.4298 L 180.605,16.2703 L 180.422,16.13 L 180.224,16.0077 L 180.008,15.9016
 L 179.775,15.8118 L 179.526,15.7384 L 179.259,15.6812 L 178.974,15.6404 L 178.673,15.6159 L 178.355,15.6078
 L 178.073,15.6153 L 177.802,15.6378 L 177.542,15.6753 L 177.293,15.7278 L 177.055,15.7953 L 176.828,15.8777
 L 176.612,15.9752 L 176.407,16.0877 L 176.211,16.2193 L 176.02,16.3742 L 175.835,16.5524 L 175.655,16.7539
 L 175.481,16.9786 L 175.313,17.2266 L 175.151,17.4979 L 174.994,17.7925 L 174.962,17.7925 L 174.957,17.5892
 L 174.952,17.4029 L 174.947,17.2334 L 174.942,17.0809 L 174.937,16.9452 L 174.933,16.8265 L 174.929,16.7247
 L 174.925,16.6398 L 174.914,16.4203 L 174.907,16.285 L 174.901,16.1586 L 174.898,16.0987 L 174.895,16.0424
 L 174.893,15.9917 L 174.89,15.9469 L 174.887,15.9077 L 174.884,15.8743 L 174.882,15.8467 L 174.879,15.8247
 L 174.876,15.8085 L 173.068,15.8085 L 173.083,15.9451 L 173.096,16.1307 L 173.107,16.3653 L 173.116,16.6488
 L 173.123,16.9813 L 173.128,17.3627 L 173.131,17.7931 L 173.132,18.2725 L 173.132,27.3517 L 175.036,27.3517
 z
" stroke="black" fill="lightgray" stroke-width="0.5"/>
</svg>
