  0
SECTION
  2
BLOCKS
  0
ENDSEC
  0
SECTION
  2
ENTITIES
  0
LINE
  8
0
 10
450
 20
56.25
 11
0
 21
56.25
  0
LINE
  8
0
 10
0
 20
56.25
 11
0
 21
0
  0
LINE
  8
0
 10
0
 20
0
 11
450
 21
0
  0
LINE
  8
0
 10
450
 20
0
 11
450
 21
56.25
  0
LINE
  8
0
 10
266.398
 20
46.4653
 11
268.294
 21
45.9573
  0
LINE
  8
0
 10
268.294
 20
45.9573
 11
270.126
 21
45.254
  0
LINE
  8
0
 10
270.126
 20
45.254
 11
271.875
 21
44.363
  0
LINE
  8
0
 10
271.875
 20
44.363
 11
273.521
 21
43.2941
  0
LINE
  8
0
 10
273.521
 20
43.2941
 11
275.046
 21
42.059
  0
LINE
  8
0
 10
275.046
 20
42.059
 11
276.434
 21
40.6712
  0
LINE
  8
0
 10
276.434
 20
40.6712
 11
277.669
 21
39.146
  0
LINE
  8
0
 10
277.669
 20
39.146
 11
278.738
 21
37.5
  0
LINE
  8
0
 10
278.738
 20
37.5
 11
279.629
 21
35.7513
  0
LINE
  8
0
 10
279.629
 20
35.7513
 11
280.332
 21
33.9191
  0
LINE
  8
0
 10
280.332
 20
33.9191
 11
280.84
 21
32.0233
  0
LINE
  8
0
 10
280.84
 20
32.0233
 11
281.147
 21
30.0849
  0
LINE
  8
0
 10
281.147
 20
30.0849
 11
281.25
 21
28.125
  0
LINE
  8
0
 10
281.25
 20
28.125
 11
281.147
 21
26.1651
  0
LINE
  8
0
 10
281.147
 20
26.1651
 11
280.84
 21
24.2267
  0
LINE
  8
0
 10
280.84
 20
24.2267
 11
280.332
 21
22.3309
  0
LINE
  8
0
 10
280.332
 20
22.3309
 11
279.629
 21
20.4987
  0
LINE
  8
0
 10
279.629
 20
20.4987
 11
278.738
 21
18.75
  0
LINE
  8
0
 10
278.738
 20
18.75
 11
277.669
 21
17.104
  0
LINE
  8
0
 10
277.669
 20
17.104
 11
276.434
 21
15.5788
  0
LINE
  8
0
 10
276.434
 20
15.5788
 11
275.046
 21
14.191
  0
LINE
  8
0
 10
275.046
 20
14.191
 11
273.521
 21
12.9559
  0
LINE
  8
0
 10
273.521
 20
12.9559
 11
271.875
 21
11.887
  0
LINE
  8
0
 10
271.875
 20
11.887
 11
270.126
 21
10.996
  0
LINE
  8
0
 10
270.126
 20
10.996
 11
268.294
 21
10.2927
  0
LINE
  8
0
 10
268.294
 20
10.2927
 11
266.398
 21
9.78473
  0
LINE
  8
0
 10
266.398
 20
9.78473
 11
264.46
 21
9.47771
  0
LINE
  8
0
 10
264.46
 20
9.47771
 11
262.5
 21
9.375
  0
LINE
  8
0
 10
262.5
 20
9.375
 11
260.54
 21
9.47771
  0
LINE
  8
0
 10
260.54
 20
9.47771
 11
258.602
 21
9.78473
  0
LINE
  8
0
 10
258.602
 20
9.78473
 11
256.706
 21
10.2927
  0
LINE
  8
0
 10
256.706
 20
10.2927
 11
254.874
 21
10.996
  0
LINE
  8
0
 10
254.874
 20
10.996
 11
253.125
 21
11.887
  0
LINE
  8
0
 10
253.125
 20
11.887
 11
251.479
 21
12.9559
  0
LINE
  8
0
 10
251.479
 20
12.9559
 11
249.954
 21
14.191
  0
LINE
  8
0
 10
249.954
 20
14.191
 11
248.566
 21
15.5788
  0
LINE
  8
0
 10
248.566
 20
15.5788
 11
247.331
 21
17.104
  0
LINE
  8
0
 10
247.331
 20
17.104
 11
246.262
 21
18.75
  0
LINE
  8
0
 10
246.262
 20
18.75
 11
245.371
 21
20.4987
  0
LINE
  8
0
 10
245.371
 20
20.4987
 11
244.668
 21
22.3309
  0
LINE
  8
0
 10
244.668
 20
22.3309
 11
244.16
 21
24.2267
  0
LINE
  8
0
 10
244.16
 20
24.2267
 11
243.853
 21
26.1651
  0
LINE
  8
0
 10
243.853
 20
26.1651
 11
243.75
 21
28.125
  0
LINE
  8
0
 10
243.75
 20
28.125
 11
243.853
 21
30.0849
  0
LINE
  8
0
 10
243.853
 20
30.0849
 11
244.16
 21
32.0233
  0
LINE
  8
0
 10
244.16
 20
32.0233
 11
244.668
 21
33.9191
  0
LINE
  8
0
 10
244.668
 20
33.9191
 11
245.371
 21
35.7513
  0
LINE
  8
0
 10
245.371
 20
35.7513
 11
246.262
 21
37.5
  0
LINE
  8
0
 10
246.262
 20
37.5
 11
247.331
 21
39.146
  0
LINE
  8
0
 10
247.331
 20
39.146
 11
248.566
 21
40.6712
  0
LINE
  8
0
 10
248.566
 20
40.6712
 11
249.954
 21
42.059
  0
LINE
  8
0
 10
249.954
 20
42.059
 11
251.479
 21
43.2941
  0
LINE
  8
0
 10
251.479
 20
43.2941
 11
253.125
 21
44.363
  0
LINE
  8
0
 10
253.125
 20
44.363
 11
254.874
 21
45.254
  0
LINE
  8
0
 10
254.874
 20
45.254
 11
256.706
 21
45.9573
  0
LINE
  8
0
 10
256.706
 20
45.9573
 11
258.602
 21
46.4653
  0
LINE
  8
0
 10
258.602
 20
46.4653
 11
260.54
 21
46.7723
  0
LINE
  8
0
 10
260.54
 20
46.7723
 11
262.5
 21
46.875
  0
LINE
  8
0
 10
262.5
 20
46.875
 11
264.46
 21
46.7723
  0
LINE
  8
0
 10
264.46
 20
46.7723
 11
266.398
 21
46.4653
  0
LINE
  8
0
 10
262.552
 20
27.6277
 11
262.604
 21
27.6359
  0
LINE
  8
0
 10
262.604
 20
27.6359
 11
262.655
 21
27.6495
  0
LINE
  8
0
 10
262.655
 20
27.6495
 11
262.703
 21
27.6682
  0
LINE
  8
0
 10
262.703
 20
27.6682
 11
262.75
 21
27.692
  0
LINE
  8
0
 10
262.75
 20
27.692
 11
262.794
 21
27.7205
  0
LINE
  8
0
 10
262.794
 20
27.7205
 11
262.835
 21
27.7534
  0
LINE
  8
0
 10
262.835
 20
27.7534
 11
262.872
 21
27.7904
  0
LINE
  8
0
 10
262.872
 20
27.7904
 11
262.905
 21
27.8311
  0
LINE
  8
0
 10
262.905
 20
27.8311
 11
262.933
 21
27.875
  0
LINE
  8
0
 10
262.933
 20
27.875
 11
262.957
 21
27.9216
  0
LINE
  8
0
 10
262.957
 20
27.9216
 11
262.976
 21
27.9705
  0
LINE
  8
0
 10
262.976
 20
27.9705
 11
262.989
 21
28.021
  0
LINE
  8
0
 10
262.989
 20
28.021
 11
262.997
 21
28.0727
  0
LINE
  8
0
 10
262.997
 20
28.0727
 11
263
 21
28.125
  0
LINE
  8
0
 10
263
 20
28.125
 11
262.997
 21
28.1773
  0
LINE
  8
0
 10
262.997
 20
28.1773
 11
262.989
 21
28.2289
  0
LINE
  8
0
 10
262.989
 20
28.2289
 11
262.976
 21
28.2795
  0
LINE
  8
0
 10
262.976
 20
28.2795
 11
262.957
 21
28.3284
  0
LINE
  8
0
 10
262.957
 20
28.3284
 11
262.933
 21
28.375
  0
LINE
  8
0
 10
262.933
 20
28.375
 11
262.905
 21
28.4189
  0
LINE
  8
0
 10
262.905
 20
28.4189
 11
262.872
 21
28.4596
  0
LINE
  8
0
 10
262.872
 20
28.4596
 11
262.835
 21
28.4966
  0
LINE
  8
0
 10
262.835
 20
28.4966
 11
262.794
 21
28.5295
  0
LINE
  8
0
 10
262.794
 20
28.5295
 11
262.75
 21
28.558
  0
LINE
  8
0
 10
262.75
 20
28.558
 11
262.703
 21
28.5818
  0
LINE
  8
0
 10
262.703
 20
28.5818
 11
262.655
 21
28.6005
  0
LINE
  8
0
 10
262.655
 20
28.6005
 11
262.604
 21
28.6141
  0
LINE
  8
0
 10
262.604
 20
28.6141
 11
262.552
 21
28.6223
  0
LINE
  8
0
 10
262.552
 20
28.6223
 11
262.5
 21
28.625
  0
LINE
  8
0
 10
262.5
 20
28.625
 11
262.448
 21
28.6223
  0
LINE
  8
0
 10
262.448
 20
28.6223
 11
262.396
 21
28.6141
  0
LINE
  8
0
 10
262.396
 20
28.6141
 11
262.345
 21
28.6005
  0
LINE
  8
0
 10
262.345
 20
28.6005
 11
262.297
 21
28.5818
  0
LINE
  8
0
 10
262.297
 20
28.5818
 11
262.25
 21
28.558
  0
LINE
  8
0
 10
262.25
 20
28.558
 11
262.206
 21
28.5295
  0
LINE
  8
0
 10
262.206
 20
28.5295
 11
262.165
 21
28.4966
  0
LINE
  8
0
 10
262.165
 20
28.4966
 11
262.128
 21
28.4596
  0
LINE
  8
0
 10
262.128
 20
28.4596
 11
262.095
 21
28.4189
  0
LINE
  8
0
 10
262.095
 20
28.4189
 11
262.067
 21
28.375
  0
LINE
  8
0
 10
262.067
 20
28.375
 11
262.043
 21
28.3284
  0
LINE
  8
0
 10
262.043
 20
28.3284
 11
262.024
 21
28.2795
  0
LINE
  8
0
 10
262.024
 20
28.2795
 11
262.011
 21
28.2289
  0
LINE
  8
0
 10
262.011
 20
28.2289
 11
262.003
 21
28.1773
  0
LINE
  8
0
 10
262.003
 20
28.1773
 11
262
 21
28.125
  0
LINE
  8
0
 10
262
 20
28.125
 11
262.003
 21
28.0727
  0
LINE
  8
0
 10
262.003
 20
28.0727
 11
262.011
 21
28.021
  0
LINE
  8
0
 10
262.011
 20
28.021
 11
262.024
 21
27.9705
  0
LINE
  8
0
 10
262.024
 20
27.9705
 11
262.043
 21
27.9216
  0
LINE
  8
0
 10
262.043
 20
27.9216
 11
262.067
 21
27.875
  0
LINE
  8
0
 10
262.067
 20
27.875
 11
262.095
 21
27.8311
  0
LINE
  8
0
 10
262.095
 20
27.8311
 11
262.128
 21
27.7904
  0
LINE
  8
0
 10
262.128
 20
27.7904
 11
262.165
 21
27.7534
  0
LINE
  8
0
 10
262.165
 20
27.7534
 11
262.206
 21
27.7205
  0
LINE
  8
0
 10
262.206
 20
27.7205
 11
262.25
 21
27.692
  0
LINE
  8
0
 10
262.25
 20
27.692
 11
262.297
 21
27.6682
  0
LINE
  8
0
 10
262.297
 20
27.6682
 11
262.345
 21
27.6495
  0
LINE
  8
0
 10
262.345
 20
27.6495
 11
262.396
 21
27.6359
  0
LINE
  8
0
 10
262.396
 20
27.6359
 11
262.448
 21
27.6277
  0
LINE
  8
0
 10
262.448
 20
27.6277
 11
262.5
 21
27.625
  0
LINE
  8
0
 10
262.5
 20
27.625
 11
262.552
 21
27.6277
  0
LINE
  8
0
 10
410.54
 20
9.47771
 11
408.602
 21
9.78473
  0
LINE
  8
0
 10
408.602
 20
9.78473
 11
406.706
 21
10.2927
  0
LINE
  8
0
 10
406.706
 20
10.2927
 11
404.874
 21
10.996
  0
LINE
  8
0
 10
404.874
 20
10.996
 11
403.125
 21
11.887
  0
LINE
  8
0
 10
403.125
 20
11.887
 11
401.479
 21
12.9559
  0
LINE
  8
0
 10
401.479
 20
12.9559
 11
399.954
 21
14.191
  0
LINE
  8
0
 10
399.954
 20
14.191
 11
398.566
 21
15.5788
  0
LINE
  8
0
 10
398.566
 20
15.5788
 11
397.331
 21
17.104
  0
LINE
  8
0
 10
397.331
 20
17.104
 11
396.262
 21
18.75
  0
LINE
  8
0
 10
396.262
 20
18.75
 11
395.371
 21
20.4987
  0
LINE
  8
0
 10
395.371
 20
20.4987
 11
394.668
 21
22.3309
  0
LINE
  8
0
 10
394.668
 20
22.3309
 11
394.16
 21
24.2267
  0
LINE
  8
0
 10
394.16
 20
24.2267
 11
393.853
 21
26.1651
  0
LINE
  8
0
 10
393.853
 20
26.1651
 11
393.75
 21
28.125
  0
LINE
  8
0
 10
393.75
 20
28.125
 11
393.853
 21
30.0849
  0
LINE
  8
0
 10
393.853
 20
30.0849
 11
394.16
 21
32.0233
  0
LINE
  8
0
 10
394.16
 20
32.0233
 11
394.668
 21
33.9191
  0
LINE
  8
0
 10
394.668
 20
33.9191
 11
395.371
 21
35.7513
  0
LINE
  8
0
 10
395.371
 20
35.7513
 11
396.262
 21
37.5
  0
LINE
  8
0
 10
396.262
 20
37.5
 11
397.331
 21
39.146
  0
LINE
  8
0
 10
397.331
 20
39.146
 11
398.566
 21
40.6712
  0
LINE
  8
0
 10
398.566
 20
40.6712
 11
399.954
 21
42.059
  0
LINE
  8
0
 10
399.954
 20
42.059
 11
401.479
 21
43.2941
  0
LINE
  8
0
 10
401.479
 20
43.2941
 11
403.125
 21
44.363
  0
LINE
  8
0
 10
403.125
 20
44.363
 11
404.874
 21
45.254
  0
LINE
  8
0
 10
404.874
 20
45.254
 11
406.706
 21
45.9573
  0
LINE
  8
0
 10
406.706
 20
45.9573
 11
408.602
 21
46.4653
  0
LINE
  8
0
 10
408.602
 20
46.4653
 11
410.54
 21
46.7723
  0
LINE
  8
0
 10
410.54
 20
46.7723
 11
412.5
 21
46.875
  0
LINE
  8
0
 10
412.5
 20
46.875
 11
414.46
 21
46.7723
  0
LINE
  8
0
 10
414.46
 20
46.7723
 11
416.398
 21
46.4653
  0
LINE
  8
0
 10
416.398
 20
46.4653
 11
418.294
 21
45.9573
  0
LINE
  8
0
 10
418.294
 20
45.9573
 11
420.126
 21
45.254
  0
LINE
  8
0
 10
420.126
 20
45.254
 11
421.875
 21
44.363
  0
LINE
  8
0
 10
421.875
 20
44.363
 11
423.521
 21
43.2941
  0
LINE
  8
0
 10
423.521
 20
43.2941
 11
425.046
 21
42.059
  0
LINE
  8
0
 10
425.046
 20
42.059
 11
426.434
 21
40.6712
  0
LINE
  8
0
 10
426.434
 20
40.6712
 11
427.669
 21
39.146
  0
LINE
  8
0
 10
427.669
 20
39.146
 11
428.738
 21
37.5
  0
LINE
  8
0
 10
428.738
 20
37.5
 11
429.629
 21
35.7513
  0
LINE
  8
0
 10
429.629
 20
35.7513
 11
430.332
 21
33.9191
  0
LINE
  8
0
 10
430.332
 20
33.9191
 11
430.84
 21
32.0233
  0
LINE
  8
0
 10
430.84
 20
32.0233
 11
431.147
 21
30.0849
  0
LINE
  8
0
 10
431.147
 20
30.0849
 11
431.25
 21
28.125
  0
LINE
  8
0
 10
431.25
 20
28.125
 11
431.147
 21
26.1651
  0
LINE
  8
0
 10
431.147
 20
26.1651
 11
430.84
 21
24.2267
  0
LINE
  8
0
 10
430.84
 20
24.2267
 11
430.332
 21
22.3309
  0
LINE
  8
0
 10
430.332
 20
22.3309
 11
429.629
 21
20.4987
  0
LINE
  8
0
 10
429.629
 20
20.4987
 11
428.738
 21
18.75
  0
LINE
  8
0
 10
428.738
 20
18.75
 11
427.669
 21
17.104
  0
LINE
  8
0
 10
427.669
 20
17.104
 11
426.434
 21
15.5788
  0
LINE
  8
0
 10
426.434
 20
15.5788
 11
425.046
 21
14.191
  0
LINE
  8
0
 10
425.046
 20
14.191
 11
423.521
 21
12.9559
  0
LINE
  8
0
 10
423.521
 20
12.9559
 11
421.875
 21
11.887
  0
LINE
  8
0
 10
421.875
 20
11.887
 11
420.126
 21
10.996
  0
LINE
  8
0
 10
420.126
 20
10.996
 11
418.294
 21
10.2927
  0
LINE
  8
0
 10
418.294
 20
10.2927
 11
416.398
 21
9.78473
  0
LINE
  8
0
 10
416.398
 20
9.78473
 11
414.46
 21
9.47771
  0
LINE
  8
0
 10
414.46
 20
9.47771
 11
412.5
 21
9.375
  0
LINE
  8
0
 10
412.5
 20
9.375
 11
410.54
 21
9.47771
  0
LINE
  8
0
 10
412.552
 20
27.6277
 11
412.604
 21
27.6359
  0
LINE
  8
0
 10
412.604
 20
27.6359
 11
412.655
 21
27.6495
  0
LINE
  8
0
 10
412.655
 20
27.6495
 11
412.703
 21
27.6682
  0
LINE
  8
0
 10
412.703
 20
27.6682
 11
412.75
 21
27.692
  0
LINE
  8
0
 10
412.75
 20
27.692
 11
412.794
 21
27.7205
  0
LINE
  8
0
 10
412.794
 20
27.7205
 11
412.835
 21
27.7534
  0
LINE
  8
0
 10
412.835
 20
27.7534
 11
412.872
 21
27.7904
  0
LINE
  8
0
 10
412.872
 20
27.7904
 11
412.905
 21
27.8311
  0
LINE
  8
0
 10
412.905
 20
27.8311
 11
412.933
 21
27.875
  0
LINE
  8
0
 10
412.933
 20
27.875
 11
412.957
 21
27.9216
  0
LINE
  8
0
 10
412.957
 20
27.9216
 11
412.976
 21
27.9705
  0
LINE
  8
0
 10
412.976
 20
27.9705
 11
412.989
 21
28.021
  0
LINE
  8
0
 10
412.989
 20
28.021
 11
412.997
 21
28.0727
  0
LINE
  8
0
 10
412.997
 20
28.0727
 11
413
 21
28.125
  0
LINE
  8
0
 10
413
 20
28.125
 11
412.997
 21
28.1773
  0
LINE
  8
0
 10
412.997
 20
28.1773
 11
412.989
 21
28.2289
  0
LINE
  8
0
 10
412.989
 20
28.2289
 11
412.976
 21
28.2795
  0
LINE
  8
0
 10
412.976
 20
28.2795
 11
412.957
 21
28.3284
  0
LINE
  8
0
 10
412.957
 20
28.3284
 11
412.933
 21
28.375
  0
LINE
  8
0
 10
412.933
 20
28.375
 11
412.905
 21
28.4189
  0
LINE
  8
0
 10
412.905
 20
28.4189
 11
412.872
 21
28.4596
  0
LINE
  8
0
 10
412.872
 20
28.4596
 11
412.835
 21
28.4966
  0
LINE
  8
0
 10
412.835
 20
28.4966
 11
412.794
 21
28.5295
  0
LINE
  8
0
 10
412.794
 20
28.5295
 11
412.75
 21
28.558
  0
LINE
  8
0
 10
412.75
 20
28.558
 11
412.703
 21
28.5818
  0
LINE
  8
0
 10
412.703
 20
28.5818
 11
412.655
 21
28.6005
  0
LINE
  8
0
 10
412.655
 20
28.6005
 11
412.604
 21
28.6141
  0
LINE
  8
0
 10
412.604
 20
28.6141
 11
412.552
 21
28.6223
  0
LINE
  8
0
 10
412.552
 20
28.6223
 11
412.5
 21
28.625
  0
LINE
  8
0
 10
412.5
 20
28.625
 11
412.448
 21
28.6223
  0
LINE
  8
0
 10
412.448
 20
28.6223
 11
412.396
 21
28.6141
  0
LINE
  8
0
 10
412.396
 20
28.6141
 11
412.345
 21
28.6005
  0
LINE
  8
0
 10
412.345
 20
28.6005
 11
412.297
 21
28.5818
  0
LINE
  8
0
 10
412.297
 20
28.5818
 11
412.25
 21
28.558
  0
LINE
  8
0
 10
412.25
 20
28.558
 11
412.206
 21
28.5295
  0
LINE
  8
0
 10
412.206
 20
28.5295
 11
412.165
 21
28.4966
  0
LINE
  8
0
 10
412.165
 20
28.4966
 11
412.128
 21
28.4596
  0
LINE
  8
0
 10
412.128
 20
28.4596
 11
412.095
 21
28.4189
  0
LINE
  8
0
 10
412.095
 20
28.4189
 11
412.067
 21
28.375
  0
LINE
  8
0
 10
412.067
 20
28.375
 11
412.043
 21
28.3284
  0
LINE
  8
0
 10
412.043
 20
28.3284
 11
412.024
 21
28.2795
  0
LINE
  8
0
 10
412.024
 20
28.2795
 11
412.011
 21
28.2289
  0
LINE
  8
0
 10
412.011
 20
28.2289
 11
412.003
 21
28.1773
  0
LINE
  8
0
 10
412.003
 20
28.1773
 11
412
 21
28.125
  0
LINE
  8
0
 10
412
 20
28.125
 11
412.003
 21
28.0727
  0
LINE
  8
0
 10
412.003
 20
28.0727
 11
412.011
 21
28.021
  0
LINE
  8
0
 10
412.011
 20
28.021
 11
412.024
 21
27.9705
  0
LINE
  8
0
 10
412.024
 20
27.9705
 11
412.043
 21
27.9216
  0
LINE
  8
0
 10
412.043
 20
27.9216
 11
412.067
 21
27.875
  0
LINE
  8
0
 10
412.067
 20
27.875
 11
412.095
 21
27.8311
  0
LINE
  8
0
 10
412.095
 20
27.8311
 11
412.128
 21
27.7904
  0
LINE
  8
0
 10
412.128
 20
27.7904
 11
412.165
 21
27.7534
  0
LINE
  8
0
 10
412.165
 20
27.7534
 11
412.206
 21
27.7205
  0
LINE
  8
0
 10
412.206
 20
27.7205
 11
412.25
 21
27.692
  0
LINE
  8
0
 10
412.25
 20
27.692
 11
412.297
 21
27.6682
  0
LINE
  8
0
 10
412.297
 20
27.6682
 11
412.345
 21
27.6495
  0
LINE
  8
0
 10
412.345
 20
27.6495
 11
412.396
 21
27.6359
  0
LINE
  8
0
 10
412.396
 20
27.6359
 11
412.448
 21
27.6277
  0
LINE
  8
0
 10
412.448
 20
27.6277
 11
412.5
 21
27.625
  0
LINE
  8
0
 10
412.5
 20
27.625
 11
412.552
 21
27.6277
  0
LINE
  8
0
 10
110.54
 20
9.47771
 11
108.602
 21
9.78473
  0
LINE
  8
0
 10
108.602
 20
9.78473
 11
106.706
 21
10.2927
  0
LINE
  8
0
 10
106.706
 20
10.2927
 11
104.874
 21
10.996
  0
LINE
  8
0
 10
104.874
 20
10.996
 11
103.125
 21
11.887
  0
LINE
  8
0
 10
103.125
 20
11.887
 11
101.479
 21
12.9559
  0
LINE
  8
0
 10
101.479
 20
12.9559
 11
99.9538
 21
14.191
  0
LINE
  8
0
 10
99.9538
 20
14.191
 11
98.566
 21
15.5788
  0
LINE
  8
0
 10
98.566
 20
15.5788
 11
97.3309
 21
17.104
  0
LINE
  8
0
 10
97.3309
 20
17.104
 11
96.262
 21
18.75
  0
LINE
  8
0
 10
96.262
 20
18.75
 11
95.371
 21
20.4987
  0
LINE
  8
0
 10
95.371
 20
20.4987
 11
94.6677
 21
22.3309
  0
LINE
  8
0
 10
94.6677
 20
22.3309
 11
94.1597
 21
24.2267
  0
LINE
  8
0
 10
94.1597
 20
24.2267
 11
93.8527
 21
26.1651
  0
LINE
  8
0
 10
93.8527
 20
26.1651
 11
93.75
 21
28.125
  0
LINE
  8
0
 10
93.75
 20
28.125
 11
93.8527
 21
30.0849
  0
LINE
  8
0
 10
93.8527
 20
30.0849
 11
94.1597
 21
32.0233
  0
LINE
  8
0
 10
94.1597
 20
32.0233
 11
94.6677
 21
33.9191
  0
LINE
  8
0
 10
94.6677
 20
33.9191
 11
95.371
 21
35.7513
  0
LINE
  8
0
 10
95.371
 20
35.7513
 11
96.262
 21
37.5
  0
LINE
  8
0
 10
96.262
 20
37.5
 11
97.3309
 21
39.146
  0
LINE
  8
0
 10
97.3309
 20
39.146
 11
98.566
 21
40.6712
  0
LINE
  8
0
 10
98.566
 20
40.6712
 11
99.9538
 21
42.059
  0
LINE
  8
0
 10
99.9538
 20
42.059
 11
101.479
 21
43.2941
  0
LINE
  8
0
 10
101.479
 20
43.2941
 11
103.125
 21
44.363
  0
LINE
  8
0
 10
103.125
 20
44.363
 11
104.874
 21
45.254
  0
LINE
  8
0
 10
104.874
 20
45.254
 11
106.706
 21
45.9573
  0
LINE
  8
0
 10
106.706
 20
45.9573
 11
108.602
 21
46.4653
  0
LINE
  8
0
 10
108.602
 20
46.4653
 11
110.54
 21
46.7723
  0
LINE
  8
0
 10
110.54
 20
46.7723
 11
112.5
 21
46.875
  0
LINE
  8
0
 10
112.5
 20
46.875
 11
114.46
 21
46.7723
  0
LINE
  8
0
 10
114.46
 20
46.7723
 11
116.398
 21
46.4653
  0
LINE
  8
0
 10
116.398
 20
46.4653
 11
118.294
 21
45.9573
  0
LINE
  8
0
 10
118.294
 20
45.9573
 11
120.126
 21
45.254
  0
LINE
  8
0
 10
120.126
 20
45.254
 11
121.875
 21
44.363
  0
LINE
  8
0
 10
121.875
 20
44.363
 11
123.521
 21
43.2941
  0
LINE
  8
0
 10
123.521
 20
43.2941
 11
125.046
 21
42.059
  0
LINE
  8
0
 10
125.046
 20
42.059
 11
126.434
 21
40.6712
  0
LINE
  8
0
 10
126.434
 20
40.6712
 11
127.669
 21
39.146
  0
LINE
  8
0
 10
127.669
 20
39.146
 11
128.738
 21
37.5
  0
LINE
  8
0
 10
128.738
 20
37.5
 11
129.629
 21
35.7513
  0
LINE
  8
0
 10
129.629
 20
35.7513
 11
130.332
 21
33.9191
  0
LINE
  8
0
 10
130.332
 20
33.9191
 11
130.84
 21
32.0233
  0
LINE
  8
0
 10
130.84
 20
32.0233
 11
131.147
 21
30.0849
  0
LINE
  8
0
 10
131.147
 20
30.0849
 11
131.25
 21
28.125
  0
LINE
  8
0
 10
131.25
 20
28.125
 11
131.147
 21
26.1651
  0
LINE
  8
0
 10
131.147
 20
26.1651
 11
130.84
 21
24.2267
  0
LINE
  8
0
 10
130.84
 20
24.2267
 11
130.332
 21
22.3309
  0
LINE
  8
0
 10
130.332
 20
22.3309
 11
129.629
 21
20.4987
  0
LINE
  8
0
 10
129.629
 20
20.4987
 11
128.738
 21
18.75
  0
LINE
  8
0
 10
128.738
 20
18.75
 11
127.669
 21
17.104
  0
LINE
  8
0
 10
127.669
 20
17.104
 11
126.434
 21
15.5788
  0
LINE
  8
0
 10
126.434
 20
15.5788
 11
125.046
 21
14.191
  0
LINE
  8
0
 10
125.046
 20
14.191
 11
123.521
 21
12.9559
  0
LINE
  8
0
 10
123.521
 20
12.9559
 11
121.875
 21
11.887
  0
LINE
  8
0
 10
121.875
 20
11.887
 11
120.126
 21
10.996
  0
LINE
  8
0
 10
120.126
 20
10.996
 11
118.294
 21
10.2927
  0
LINE
  8
0
 10
118.294
 20
10.2927
 11
116.398
 21
9.78473
  0
LINE
  8
0
 10
116.398
 20
9.78473
 11
114.46
 21
9.47771
  0
LINE
  8
0
 10
114.46
 20
9.47771
 11
112.5
 21
9.375
  0
LINE
  8
0
 10
112.5
 20
9.375
 11
110.54
 21
9.47771
  0
LINE
  8
0
 10
112.552
 20
27.6277
 11
112.604
 21
27.6359
  0
LINE
  8
0
 10
112.604
 20
27.6359
 11
112.655
 21
27.6495
  0
LINE
  8
0
 10
112.655
 20
27.6495
 11
112.703
 21
27.6682
  0
LINE
  8
0
 10
112.703
 20
27.6682
 11
112.75
 21
27.692
  0
LINE
  8
0
 10
112.75
 20
27.692
 11
112.794
 21
27.7205
  0
LINE
  8
0
 10
112.794
 20
27.7205
 11
112.835
 21
27.7534
  0
LINE
  8
0
 10
112.835
 20
27.7534
 11
112.872
 21
27.7904
  0
LINE
  8
0
 10
112.872
 20
27.7904
 11
112.905
 21
27.8311
  0
LINE
  8
0
 10
112.905
 20
27.8311
 11
112.933
 21
27.875
  0
LINE
  8
0
 10
112.933
 20
27.875
 11
112.957
 21
27.9216
  0
LINE
  8
0
 10
112.957
 20
27.9216
 11
112.976
 21
27.9705
  0
LINE
  8
0
 10
112.976
 20
27.9705
 11
112.989
 21
28.021
  0
LINE
  8
0
 10
112.989
 20
28.021
 11
112.997
 21
28.0727
  0
LINE
  8
0
 10
112.997
 20
28.0727
 11
113
 21
28.125
  0
LINE
  8
0
 10
113
 20
28.125
 11
112.997
 21
28.1773
  0
LINE
  8
0
 10
112.997
 20
28.1773
 11
112.989
 21
28.2289
  0
LINE
  8
0
 10
112.989
 20
28.2289
 11
112.976
 21
28.2795
  0
LINE
  8
0
 10
112.976
 20
28.2795
 11
112.957
 21
28.3284
  0
LINE
  8
0
 10
112.957
 20
28.3284
 11
112.933
 21
28.375
  0
LINE
  8
0
 10
112.933
 20
28.375
 11
112.905
 21
28.4189
  0
LINE
  8
0
 10
112.905
 20
28.4189
 11
112.872
 21
28.4596
  0
LINE
  8
0
 10
112.872
 20
28.4596
 11
112.835
 21
28.4966
  0
LINE
  8
0
 10
112.835
 20
28.4966
 11
112.794
 21
28.5295
  0
LINE
  8
0
 10
112.794
 20
28.5295
 11
112.75
 21
28.558
  0
LINE
  8
0
 10
112.75
 20
28.558
 11
112.703
 21
28.5818
  0
LINE
  8
0
 10
112.703
 20
28.5818
 11
112.655
 21
28.6005
  0
LINE
  8
0
 10
112.655
 20
28.6005
 11
112.604
 21
28.6141
  0
LINE
  8
0
 10
112.604
 20
28.6141
 11
112.552
 21
28.6223
  0
LINE
  8
0
 10
112.552
 20
28.6223
 11
112.5
 21
28.625
  0
LINE
  8
0
 10
112.5
 20
28.625
 11
112.448
 21
28.6223
  0
LINE
  8
0
 10
112.448
 20
28.6223
 11
112.396
 21
28.6141
  0
LINE
  8
0
 10
112.396
 20
28.6141
 11
112.345
 21
28.6005
  0
LINE
  8
0
 10
112.345
 20
28.6005
 11
112.297
 21
28.5818
  0
LINE
  8
0
 10
112.297
 20
28.5818
 11
112.25
 21
28.558
  0
LINE
  8
0
 10
112.25
 20
28.558
 11
112.206
 21
28.5295
  0
LINE
  8
0
 10
112.206
 20
28.5295
 11
112.165
 21
28.4966
  0
LINE
  8
0
 10
112.165
 20
28.4966
 11
112.128
 21
28.4596
  0
LINE
  8
0
 10
112.128
 20
28.4596
 11
112.095
 21
28.4189
  0
LINE
  8
0
 10
112.095
 20
28.4189
 11
112.067
 21
28.375
  0
LINE
  8
0
 10
112.067
 20
28.375
 11
112.043
 21
28.3284
  0
LINE
  8
0
 10
112.043
 20
28.3284
 11
112.024
 21
28.2795
  0
LINE
  8
0
 10
112.024
 20
28.2795
 11
112.011
 21
28.2289
  0
LINE
  8
0
 10
112.011
 20
28.2289
 11
112.003
 21
28.1773
  0
LINE
  8
0
 10
112.003
 20
28.1773
 11
112
 21
28.125
  0
LINE
  8
0
 10
112
 20
28.125
 11
112.003
 21
28.0727
  0
LINE
  8
0
 10
112.003
 20
28.0727
 11
112.011
 21
28.021
  0
LINE
  8
0
 10
112.011
 20
28.021
 11
112.024
 21
27.9705
  0
LINE
  8
0
 10
112.024
 20
27.9705
 11
112.043
 21
27.9216
  0
LINE
  8
0
 10
112.043
 20
27.9216
 11
112.067
 21
27.875
  0
LINE
  8
0
 10
112.067
 20
27.875
 11
112.095
 21
27.8311
  0
LINE
  8
0
 10
112.095
 20
27.8311
 11
112.128
 21
27.7904
  0
LINE
  8
0
 10
112.128
 20
27.7904
 11
112.165
 21
27.7534
  0
LINE
  8
0
 10
112.165
 20
27.7534
 11
112.206
 21
27.7205
  0
LINE
  8
0
 10
112.206
 20
27.7205
 11
112.25
 21
27.692
  0
LINE
  8
0
 10
112.25
 20
27.692
 11
112.297
 21
27.6682
  0
LINE
  8
0
 10
112.297
 20
27.6682
 11
112.345
 21
27.6495
  0
LINE
  8
0
 10
112.345
 20
27.6495
 11
112.396
 21
27.6359
  0
LINE
  8
0
 10
112.396
 20
27.6359
 11
112.448
 21
27.6277
  0
LINE
  8
0
 10
112.448
 20
27.6277
 11
112.5
 21
27.625
  0
LINE
  8
0
 10
112.5
 20
27.625
 11
112.552
 21
27.6277
  0
LINE
  8
0
 10
185.54
 20
9.47771
 11
183.602
 21
9.78473
  0
LINE
  8
0
 10
183.602
 20
9.78473
 11
181.706
 21
10.2927
  0
LINE
  8
0
 10
181.706
 20
10.2927
 11
179.874
 21
10.996
  0
LINE
  8
0
 10
179.874
 20
10.996
 11
178.125
 21
11.887
  0
LINE
  8
0
 10
178.125
 20
11.887
 11
176.479
 21
12.9559
  0
LINE
  8
0
 10
176.479
 20
12.9559
 11
174.954
 21
14.191
  0
LINE
  8
0
 10
174.954
 20
14.191
 11
173.566
 21
15.5788
  0
LINE
  8
0
 10
173.566
 20
15.5788
 11
172.331
 21
17.104
  0
LINE
  8
0
 10
172.331
 20
17.104
 11
171.262
 21
18.75
  0
LINE
  8
0
 10
171.262
 20
18.75
 11
170.371
 21
20.4987
  0
LINE
  8
0
 10
170.371
 20
20.4987
 11
169.668
 21
22.3309
  0
LINE
  8
0
 10
169.668
 20
22.3309
 11
169.16
 21
24.2267
  0
LINE
  8
0
 10
169.16
 20
24.2267
 11
168.853
 21
26.1651
  0
LINE
  8
0
 10
168.853
 20
26.1651
 11
168.75
 21
28.125
  0
LINE
  8
0
 10
168.75
 20
28.125
 11
168.853
 21
30.0849
  0
LINE
  8
0
 10
168.853
 20
30.0849
 11
169.16
 21
32.0233
  0
LINE
  8
0
 10
169.16
 20
32.0233
 11
169.668
 21
33.9191
  0
LINE
  8
0
 10
169.668
 20
33.9191
 11
170.371
 21
35.7513
  0
LINE
  8
0
 10
170.371
 20
35.7513
 11
171.262
 21
37.5
  0
LINE
  8
0
 10
171.262
 20
37.5
 11
172.331
 21
39.146
  0
LINE
  8
0
 10
172.331
 20
39.146
 11
173.566
 21
40.6712
  0
LINE
  8
0
 10
173.566
 20
40.6712
 11
174.954
 21
42.059
  0
LINE
  8
0
 10
174.954
 20
42.059
 11
176.479
 21
43.2941
  0
LINE
  8
0
 10
176.479
 20
43.2941
 11
178.125
 21
44.363
  0
LINE
  8
0
 10
178.125
 20
44.363
 11
179.874
 21
45.254
  0
LINE
  8
0
 10
179.874
 20
45.254
 11
181.706
 21
45.9573
  0
LINE
  8
0
 10
181.706
 20
45.9573
 11
183.602
 21
46.4653
  0
LINE
  8
0
 10
183.602
 20
46.4653
 11
185.54
 21
46.7723
  0
LINE
  8
0
 10
185.54
 20
46.7723
 11
187.5
 21
46.875
  0
LINE
  8
0
 10
187.5
 20
46.875
 11
189.46
 21
46.7723
  0
LINE
  8
0
 10
189.46
 20
46.7723
 11
191.398
 21
46.4653
  0
LINE
  8
0
 10
191.398
 20
46.4653
 11
193.294
 21
45.9573
  0
LINE
  8
0
 10
193.294
 20
45.9573
 11
195.126
 21
45.254
  0
LINE
  8
0
 10
195.126
 20
45.254
 11
196.875
 21
44.363
  0
LINE
  8
0
 10
196.875
 20
44.363
 11
198.521
 21
43.2941
  0
LINE
  8
0
 10
198.521
 20
43.2941
 11
200.046
 21
42.059
  0
LINE
  8
0
 10
200.046
 20
42.059
 11
201.434
 21
40.6712
  0
LINE
  8
0
 10
201.434
 20
40.6712
 11
202.669
 21
39.146
  0
LINE
  8
0
 10
202.669
 20
39.146
 11
203.738
 21
37.5
  0
LINE
  8
0
 10
203.738
 20
37.5
 11
204.629
 21
35.7513
  0
LINE
  8
0
 10
204.629
 20
35.7513
 11
205.332
 21
33.9191
  0
LINE
  8
0
 10
205.332
 20
33.9191
 11
205.84
 21
32.0233
  0
LINE
  8
0
 10
205.84
 20
32.0233
 11
206.147
 21
30.0849
  0
LINE
  8
0
 10
206.147
 20
30.0849
 11
206.25
 21
28.125
  0
LINE
  8
0
 10
206.25
 20
28.125
 11
206.147
 21
26.1651
  0
LINE
  8
0
 10
206.147
 20
26.1651
 11
205.84
 21
24.2267
  0
LINE
  8
0
 10
205.84
 20
24.2267
 11
205.332
 21
22.3309
  0
LINE
  8
0
 10
205.332
 20
22.3309
 11
204.629
 21
20.4987
  0
LINE
  8
0
 10
204.629
 20
20.4987
 11
203.738
 21
18.75
  0
LINE
  8
0
 10
203.738
 20
18.75
 11
202.669
 21
17.104
  0
LINE
  8
0
 10
202.669
 20
17.104
 11
201.434
 21
15.5788
  0
LINE
  8
0
 10
201.434
 20
15.5788
 11
200.046
 21
14.191
  0
LINE
  8
0
 10
200.046
 20
14.191
 11
198.521
 21
12.9559
  0
LINE
  8
0
 10
198.521
 20
12.9559
 11
196.875
 21
11.887
  0
LINE
  8
0
 10
196.875
 20
11.887
 11
195.126
 21
10.996
  0
LINE
  8
0
 10
195.126
 20
10.996
 11
193.294
 21
10.2927
  0
LINE
  8
0
 10
193.294
 20
10.2927
 11
191.398
 21
9.78473
  0
LINE
  8
0
 10
191.398
 20
9.78473
 11
189.46
 21
9.47771
  0
LINE
  8
0
 10
189.46
 20
9.47771
 11
187.5
 21
9.375
  0
LINE
  8
0
 10
187.5
 20
9.375
 11
185.54
 21
9.47771
  0
LINE
  8
0
 10
187.552
 20
27.6277
 11
187.604
 21
27.6359
  0
LINE
  8
0
 10
187.604
 20
27.6359
 11
187.655
 21
27.6495
  0
LINE
  8
0
 10
187.655
 20
27.6495
 11
187.703
 21
27.6682
  0
LINE
  8
0
 10
187.703
 20
27.6682
 11
187.75
 21
27.692
  0
LINE
  8
0
 10
187.75
 20
27.692
 11
187.794
 21
27.7205
  0
LINE
  8
0
 10
187.794
 20
27.7205
 11
187.835
 21
27.7534
  0
LINE
  8
0
 10
187.835
 20
27.7534
 11
187.872
 21
27.7904
  0
LINE
  8
0
 10
187.872
 20
27.7904
 11
187.905
 21
27.8311
  0
LINE
  8
0
 10
187.905
 20
27.8311
 11
187.933
 21
27.875
  0
LINE
  8
0
 10
187.933
 20
27.875
 11
187.957
 21
27.9216
  0
LINE
  8
0
 10
187.957
 20
27.9216
 11
187.976
 21
27.9705
  0
LINE
  8
0
 10
187.976
 20
27.9705
 11
187.989
 21
28.021
  0
LINE
  8
0
 10
187.989
 20
28.021
 11
187.997
 21
28.0727
  0
LINE
  8
0
 10
187.997
 20
28.0727
 11
188
 21
28.125
  0
LINE
  8
0
 10
188
 20
28.125
 11
187.997
 21
28.1773
  0
LINE
  8
0
 10
187.997
 20
28.1773
 11
187.989
 21
28.2289
  0
LINE
  8
0
 10
187.989
 20
28.2289
 11
187.976
 21
28.2795
  0
LINE
  8
0
 10
187.976
 20
28.2795
 11
187.957
 21
28.3284
  0
LINE
  8
0
 10
187.957
 20
28.3284
 11
187.933
 21
28.375
  0
LINE
  8
0
 10
187.933
 20
28.375
 11
187.905
 21
28.4189
  0
LINE
  8
0
 10
187.905
 20
28.4189
 11
187.872
 21
28.4596
  0
LINE
  8
0
 10
187.872
 20
28.4596
 11
187.835
 21
28.4966
  0
LINE
  8
0
 10
187.835
 20
28.4966
 11
187.794
 21
28.5295
  0
LINE
  8
0
 10
187.794
 20
28.5295
 11
187.75
 21
28.558
  0
LINE
  8
0
 10
187.75
 20
28.558
 11
187.703
 21
28.5818
  0
LINE
  8
0
 10
187.703
 20
28.5818
 11
187.655
 21
28.6005
  0
LINE
  8
0
 10
187.655
 20
28.6005
 11
187.604
 21
28.6141
  0
LINE
  8
0
 10
187.604
 20
28.6141
 11
187.552
 21
28.6223
  0
LINE
  8
0
 10
187.552
 20
28.6223
 11
187.5
 21
28.625
  0
LINE
  8
0
 10
187.5
 20
28.625
 11
187.448
 21
28.6223
  0
LINE
  8
0
 10
187.448
 20
28.6223
 11
187.396
 21
28.6141
  0
LINE
  8
0
 10
187.396
 20
28.6141
 11
187.345
 21
28.6005
  0
LINE
  8
0
 10
187.345
 20
28.6005
 11
187.297
 21
28.5818
  0
LINE
  8
0
 10
187.297
 20
28.5818
 11
187.25
 21
28.558
  0
LINE
  8
0
 10
187.25
 20
28.558
 11
187.206
 21
28.5295
  0
LINE
  8
0
 10
187.206
 20
28.5295
 11
187.165
 21
28.4966
  0
LINE
  8
0
 10
187.165
 20
28.4966
 11
187.128
 21
28.4596
  0
LINE
  8
0
 10
187.128
 20
28.4596
 11
187.095
 21
28.4189
  0
LINE
  8
0
 10
187.095
 20
28.4189
 11
187.067
 21
28.375
  0
LINE
  8
0
 10
187.067
 20
28.375
 11
187.043
 21
28.3284
  0
LINE
  8
0
 10
187.043
 20
28.3284
 11
187.024
 21
28.2795
  0
LINE
  8
0
 10
187.024
 20
28.2795
 11
187.011
 21
28.2289
  0
LINE
  8
0
 10
187.011
 20
28.2289
 11
187.003
 21
28.1773
  0
LINE
  8
0
 10
187.003
 20
28.1773
 11
187
 21
28.125
  0
LINE
  8
0
 10
187
 20
28.125
 11
187.003
 21
28.0727
  0
LINE
  8
0
 10
187.003
 20
28.0727
 11
187.011
 21
28.021
  0
LINE
  8
0
 10
187.011
 20
28.021
 11
187.024
 21
27.9705
  0
LINE
  8
0
 10
187.024
 20
27.9705
 11
187.043
 21
27.9216
  0
LINE
  8
0
 10
187.043
 20
27.9216
 11
187.067
 21
27.875
  0
LINE
  8
0
 10
187.067
 20
27.875
 11
187.095
 21
27.8311
  0
LINE
  8
0
 10
187.095
 20
27.8311
 11
187.128
 21
27.7904
  0
LINE
  8
0
 10
187.128
 20
27.7904
 11
187.165
 21
27.7534
  0
LINE
  8
0
 10
187.165
 20
27.7534
 11
187.206
 21
27.7205
  0
LINE
  8
0
 10
187.206
 20
27.7205
 11
187.25
 21
27.692
  0
LINE
  8
0
 10
187.25
 20
27.692
 11
187.297
 21
27.6682
  0
LINE
  8
0
 10
187.297
 20
27.6682
 11
187.345
 21
27.6495
  0
LINE
  8
0
 10
187.345
 20
27.6495
 11
187.396
 21
27.6359
  0
LINE
  8
0
 10
187.396
 20
27.6359
 11
187.448
 21
27.6277
  0
LINE
  8
0
 10
187.448
 20
27.6277
 11
187.5
 21
27.625
  0
LINE
  8
0
 10
187.5
 20
27.625
 11
187.552
 21
27.6277
  0
LINE
  8
0
 10
35.5401
 20
9.47771
 11
33.6017
 21
9.78473
  0
LINE
  8
0
 10
33.6017
 20
9.78473
 11
31.7059
 21
10.2927
  0
LINE
  8
0
 10
31.7059
 20
10.2927
 11
29.8737
 21
10.996
  0
LINE
  8
0
 10
29.8737
 20
10.996
 11
28.125
 21
11.887
  0
LINE
  8
0
 10
28.125
 20
11.887
 11
26.479
 21
12.9559
  0
LINE
  8
0
 10
26.479
 20
12.9559
 11
24.9538
 21
14.191
  0
LINE
  8
0
 10
24.9538
 20
14.191
 11
23.566
 21
15.5788
  0
LINE
  8
0
 10
23.566
 20
15.5788
 11
22.3309
 21
17.104
  0
LINE
  8
0
 10
22.3309
 20
17.104
 11
21.262
 21
18.75
  0
LINE
  8
0
 10
21.262
 20
18.75
 11
20.371
 21
20.4987
  0
LINE
  8
0
 10
20.371
 20
20.4987
 11
19.6677
 21
22.3309
  0
LINE
  8
0
 10
19.6677
 20
22.3309
 11
19.1597
 21
24.2267
  0
LINE
  8
0
 10
19.1597
 20
24.2267
 11
18.8527
 21
26.1651
  0
LINE
  8
0
 10
18.8527
 20
26.1651
 11
18.75
 21
28.125
  0
LINE
  8
0
 10
18.75
 20
28.125
 11
18.8527
 21
30.0849
  0
LINE
  8
0
 10
18.8527
 20
30.0849
 11
19.1597
 21
32.0233
  0
LINE
  8
0
 10
19.1597
 20
32.0233
 11
19.6677
 21
33.9191
  0
LINE
  8
0
 10
19.6677
 20
33.9191
 11
20.371
 21
35.7513
  0
LINE
  8
0
 10
20.371
 20
35.7513
 11
21.262
 21
37.5
  0
LINE
  8
0
 10
21.262
 20
37.5
 11
22.3309
 21
39.146
  0
LINE
  8
0
 10
22.3309
 20
39.146
 11
23.566
 21
40.6712
  0
LINE
  8
0
 10
23.566
 20
40.6712
 11
24.9538
 21
42.059
  0
LINE
  8
0
 10
24.9538
 20
42.059
 11
26.479
 21
43.2941
  0
LINE
  8
0
 10
26.479
 20
43.2941
 11
28.125
 21
44.363
  0
LINE
  8
0
 10
28.125
 20
44.363
 11
29.8737
 21
45.254
  0
LINE
  8
0
 10
29.8737
 20
45.254
 11
31.7059
 21
45.9573
  0
LINE
  8
0
 10
31.7059
 20
45.9573
 11
33.6017
 21
46.4653
  0
LINE
  8
0
 10
33.6017
 20
46.4653
 11
35.5401
 21
46.7723
  0
LINE
  8
0
 10
35.5401
 20
46.7723
 11
37.5
 21
46.875
  0
LINE
  8
0
 10
37.5
 20
46.875
 11
39.4599
 21
46.7723
  0
LINE
  8
0
 10
39.4599
 20
46.7723
 11
41.3983
 21
46.4653
  0
LINE
  8
0
 10
41.3983
 20
46.4653
 11
43.2941
 21
45.9573
  0
LINE
  8
0
 10
43.2941
 20
45.9573
 11
45.1263
 21
45.254
  0
LINE
  8
0
 10
45.1263
 20
45.254
 11
46.875
 21
44.363
  0
LINE
  8
0
 10
46.875
 20
44.363
 11
48.521
 21
43.2941
  0
LINE
  8
0
 10
48.521
 20
43.2941
 11
50.0462
 21
42.059
  0
LINE
  8
0
 10
50.0462
 20
42.059
 11
51.434
 21
40.6712
  0
LINE
  8
0
 10
51.434
 20
40.6712
 11
52.6691
 21
39.146
  0
LINE
  8
0
 10
52.6691
 20
39.146
 11
53.738
 21
37.5
  0
LINE
  8
0
 10
53.738
 20
37.5
 11
54.629
 21
35.7513
  0
LINE
  8
0
 10
54.629
 20
35.7513
 11
55.3323
 21
33.9191
  0
LINE
  8
0
 10
55.3323
 20
33.9191
 11
55.8403
 21
32.0233
  0
LINE
  8
0
 10
55.8403
 20
32.0233
 11
56.1473
 21
30.0849
  0
LINE
  8
0
 10
56.1473
 20
30.0849
 11
56.25
 21
28.125
  0
LINE
  8
0
 10
56.25
 20
28.125
 11
56.1473
 21
26.1651
  0
LINE
  8
0
 10
56.1473
 20
26.1651
 11
55.8403
 21
24.2267
  0
LINE
  8
0
 10
55.8403
 20
24.2267
 11
55.3323
 21
22.3309
  0
LINE
  8
0
 10
55.3323
 20
22.3309
 11
54.629
 21
20.4987
  0
LINE
  8
0
 10
54.629
 20
20.4987
 11
53.738
 21
18.75
  0
LINE
  8
0
 10
53.738
 20
18.75
 11
52.6691
 21
17.104
  0
LINE
  8
0
 10
52.6691
 20
17.104
 11
51.434
 21
15.5788
  0
LINE
  8
0
 10
51.434
 20
15.5788
 11
50.0462
 21
14.191
  0
LINE
  8
0
 10
50.0462
 20
14.191
 11
48.521
 21
12.9559
  0
LINE
  8
0
 10
48.521
 20
12.9559
 11
46.875
 21
11.887
  0
LINE
  8
0
 10
46.875
 20
11.887
 11
45.1263
 21
10.996
  0
LINE
  8
0
 10
45.1263
 20
10.996
 11
43.2941
 21
10.2927
  0
LINE
  8
0
 10
43.2941
 20
10.2927
 11
41.3983
 21
9.78473
  0
LINE
  8
0
 10
41.3983
 20
9.78473
 11
39.4599
 21
9.47771
  0
LINE
  8
0
 10
39.4599
 20
9.47771
 11
37.5
 21
9.375
  0
LINE
  8
0
 10
37.5
 20
9.375
 11
35.5401
 21
9.47771
  0
LINE
  8
0
 10
37.5523
 20
27.6277
 11
37.6039
 21
27.6359
  0
LINE
  8
0
 10
37.6039
 20
27.6359
 11
37.6545
 21
27.6495
  0
LINE
  8
0
 10
37.6545
 20
27.6495
 11
37.7034
 21
27.6682
  0
LINE
  8
0
 10
37.7034
 20
27.6682
 11
37.75
 21
27.692
  0
LINE
  8
0
 10
37.75
 20
27.692
 11
37.7939
 21
27.7205
  0
LINE
  8
0
 10
37.7939
 20
27.7205
 11
37.8346
 21
27.7534
  0
LINE
  8
0
 10
37.8346
 20
27.7534
 11
37.8716
 21
27.7904
  0
LINE
  8
0
 10
37.8716
 20
27.7904
 11
37.9045
 21
27.8311
  0
LINE
  8
0
 10
37.9045
 20
27.8311
 11
37.933
 21
27.875
  0
LINE
  8
0
 10
37.933
 20
27.875
 11
37.9568
 21
27.9216
  0
LINE
  8
0
 10
37.9568
 20
27.9216
 11
37.9755
 21
27.9705
  0
LINE
  8
0
 10
37.9755
 20
27.9705
 11
37.9891
 21
28.021
  0
LINE
  8
0
 10
37.9891
 20
28.021
 11
37.9973
 21
28.0727
  0
LINE
  8
0
 10
37.9973
 20
28.0727
 11
38
 21
28.125
  0
LINE
  8
0
 10
38
 20
28.125
 11
37.9973
 21
28.1773
  0
LINE
  8
0
 10
37.9973
 20
28.1773
 11
37.9891
 21
28.2289
  0
LINE
  8
0
 10
37.9891
 20
28.2289
 11
37.9755
 21
28.2795
  0
LINE
  8
0
 10
37.9755
 20
28.2795
 11
37.9568
 21
28.3284
  0
LINE
  8
0
 10
37.9568
 20
28.3284
 11
37.933
 21
28.375
  0
LINE
  8
0
 10
37.933
 20
28.375
 11
37.9045
 21
28.4189
  0
LINE
  8
0
 10
37.9045
 20
28.4189
 11
37.8716
 21
28.4596
  0
LINE
  8
0
 10
37.8716
 20
28.4596
 11
37.8346
 21
28.4966
  0
LINE
  8
0
 10
37.8346
 20
28.4966
 11
37.7939
 21
28.5295
  0
LINE
  8
0
 10
37.7939
 20
28.5295
 11
37.75
 21
28.558
  0
LINE
  8
0
 10
37.75
 20
28.558
 11
37.7034
 21
28.5818
  0
LINE
  8
0
 10
37.7034
 20
28.5818
 11
37.6545
 21
28.6005
  0
LINE
  8
0
 10
37.6545
 20
28.6005
 11
37.6039
 21
28.6141
  0
LINE
  8
0
 10
37.6039
 20
28.6141
 11
37.5523
 21
28.6223
  0
LINE
  8
0
 10
37.5523
 20
28.6223
 11
37.5
 21
28.625
  0
LINE
  8
0
 10
37.5
 20
28.625
 11
37.4477
 21
28.6223
  0
LINE
  8
0
 10
37.4477
 20
28.6223
 11
37.396
 21
28.6141
  0
LINE
  8
0
 10
37.396
 20
28.6141
 11
37.3455
 21
28.6005
  0
LINE
  8
0
 10
37.3455
 20
28.6005
 11
37.2966
 21
28.5818
  0
LINE
  8
0
 10
37.2966
 20
28.5818
 11
37.25
 21
28.558
  0
LINE
  8
0
 10
37.25
 20
28.558
 11
37.2061
 21
28.5295
  0
LINE
  8
0
 10
37.2061
 20
28.5295
 11
37.1654
 21
28.4966
  0
LINE
  8
0
 10
37.1654
 20
28.4966
 11
37.1284
 21
28.4596
  0
LINE
  8
0
 10
37.1284
 20
28.4596
 11
37.0955
 21
28.4189
  0
LINE
  8
0
 10
37.0955
 20
28.4189
 11
37.067
 21
28.375
  0
LINE
  8
0
 10
37.067
 20
28.375
 11
37.0432
 21
28.3284
  0
LINE
  8
0
 10
37.0432
 20
28.3284
 11
37.0245
 21
28.2795
  0
LINE
  8
0
 10
37.0245
 20
28.2795
 11
37.0109
 21
28.2289
  0
LINE
  8
0
 10
37.0109
 20
28.2289
 11
37.0027
 21
28.1773
  0
LINE
  8
0
 10
37.0027
 20
28.1773
 11
37
 21
28.125
  0
LINE
  8
0
 10
37
 20
28.125
 11
37.0027
 21
28.0727
  0
LINE
  8
0
 10
37.0027
 20
28.0727
 11
37.0109
 21
28.021
  0
LINE
  8
0
 10
37.0109
 20
28.021
 11
37.0245
 21
27.9705
  0
LINE
  8
0
 10
37.0245
 20
27.9705
 11
37.0432
 21
27.9216
  0
LINE
  8
0
 10
37.0432
 20
27.9216
 11
37.067
 21
27.875
  0
LINE
  8
0
 10
37.067
 20
27.875
 11
37.0955
 21
27.8311
  0
LINE
  8
0
 10
37.0955
 20
27.8311
 11
37.1284
 21
27.7904
  0
LINE
  8
0
 10
37.1284
 20
27.7904
 11
37.1654
 21
27.7534
  0
LINE
  8
0
 10
37.1654
 20
27.7534
 11
37.2061
 21
27.7205
  0
LINE
  8
0
 10
37.2061
 20
27.7205
 11
37.25
 21
27.692
  0
LINE
  8
0
 10
37.25
 20
27.692
 11
37.2966
 21
27.6682
  0
LINE
  8
0
 10
37.2966
 20
27.6682
 11
37.3455
 21
27.6495
  0
LINE
  8
0
 10
37.3455
 20
27.6495
 11
37.396
 21
27.6359
  0
LINE
  8
0
 10
37.396
 20
27.6359
 11
37.4477
 21
27.6277
  0
LINE
  8
0
 10
37.4477
 20
27.6277
 11
37.5
 21
27.625
  0
LINE
  8
0
 10
37.5
 20
27.625
 11
37.5523
 21
27.6277
  0
LINE
  8
0
 10
335.54
 20
9.47771
 11
333.602
 21
9.78473
  0
LINE
  8
0
 10
333.602
 20
9.78473
 11
331.706
 21
10.2927
  0
LINE
  8
0
 10
331.706
 20
10.2927
 11
329.874
 21
10.996
  0
LINE
  8
0
 10
329.874
 20
10.996
 11
328.125
 21
11.887
  0
LINE
  8
0
 10
328.125
 20
11.887
 11
326.479
 21
12.9559
  0
LINE
  8
0
 10
326.479
 20
12.9559
 11
324.954
 21
14.191
  0
LINE
  8
0
 10
324.954
 20
14.191
 11
323.566
 21
15.5788
  0
LINE
  8
0
 10
323.566
 20
15.5788
 11
322.331
 21
17.104
  0
LINE
  8
0
 10
322.331
 20
17.104
 11
321.262
 21
18.75
  0
LINE
  8
0
 10
321.262
 20
18.75
 11
320.371
 21
20.4987
  0
LINE
  8
0
 10
320.371
 20
20.4987
 11
319.668
 21
22.3309
  0
LINE
  8
0
 10
319.668
 20
22.3309
 11
319.16
 21
24.2267
  0
LINE
  8
0
 10
319.16
 20
24.2267
 11
318.853
 21
26.1651
  0
LINE
  8
0
 10
318.853
 20
26.1651
 11
318.75
 21
28.125
  0
LINE
  8
0
 10
318.75
 20
28.125
 11
318.853
 21
30.0849
  0
LINE
  8
0
 10
318.853
 20
30.0849
 11
319.16
 21
32.0233
  0
LINE
  8
0
 10
319.16
 20
32.0233
 11
319.668
 21
33.9191
  0
LINE
  8
0
 10
319.668
 20
33.9191
 11
320.371
 21
35.7513
  0
LINE
  8
0
 10
320.371
 20
35.7513
 11
321.262
 21
37.5
  0
LINE
  8
0
 10
321.262
 20
37.5
 11
322.331
 21
39.146
  0
LINE
  8
0
 10
322.331
 20
39.146
 11
323.566
 21
40.6712
  0
LINE
  8
0
 10
323.566
 20
40.6712
 11
324.954
 21
42.059
  0
LINE
  8
0
 10
324.954
 20
42.059
 11
326.479
 21
43.2941
  0
LINE
  8
0
 10
326.479
 20
43.2941
 11
328.125
 21
44.363
  0
LINE
  8
0
 10
328.125
 20
44.363
 11
329.874
 21
45.254
  0
LINE
  8
0
 10
329.874
 20
45.254
 11
331.706
 21
45.9573
  0
LINE
  8
0
 10
331.706
 20
45.9573
 11
333.602
 21
46.4653
  0
LINE
  8
0
 10
333.602
 20
46.4653
 11
335.54
 21
46.7723
  0
LINE
  8
0
 10
335.54
 20
46.7723
 11
337.5
 21
46.875
  0
LINE
  8
0
 10
337.5
 20
46.875
 11
339.46
 21
46.7723
  0
LINE
  8
0
 10
339.46
 20
46.7723
 11
341.398
 21
46.4653
  0
LINE
  8
0
 10
341.398
 20
46.4653
 11
343.294
 21
45.9573
  0
LINE
  8
0
 10
343.294
 20
45.9573
 11
345.126
 21
45.254
  0
LINE
  8
0
 10
345.126
 20
45.254
 11
346.875
 21
44.363
  0
LINE
  8
0
 10
346.875
 20
44.363
 11
348.521
 21
43.2941
  0
LINE
  8
0
 10
348.521
 20
43.2941
 11
350.046
 21
42.059
  0
LINE
  8
0
 10
350.046
 20
42.059
 11
351.434
 21
40.6712
  0
LINE
  8
0
 10
351.434
 20
40.6712
 11
352.669
 21
39.146
  0
LINE
  8
0
 10
352.669
 20
39.146
 11
353.738
 21
37.5
  0
LINE
  8
0
 10
353.738
 20
37.5
 11
354.629
 21
35.7513
  0
LINE
  8
0
 10
354.629
 20
35.7513
 11
355.332
 21
33.9191
  0
LINE
  8
0
 10
355.332
 20
33.9191
 11
355.84
 21
32.0233
  0
LINE
  8
0
 10
355.84
 20
32.0233
 11
356.147
 21
30.0849
  0
LINE
  8
0
 10
356.147
 20
30.0849
 11
356.25
 21
28.125
  0
LINE
  8
0
 10
356.25
 20
28.125
 11
356.147
 21
26.1651
  0
LINE
  8
0
 10
356.147
 20
26.1651
 11
355.84
 21
24.2267
  0
LINE
  8
0
 10
355.84
 20
24.2267
 11
355.332
 21
22.3309
  0
LINE
  8
0
 10
355.332
 20
22.3309
 11
354.629
 21
20.4987
  0
LINE
  8
0
 10
354.629
 20
20.4987
 11
353.738
 21
18.75
  0
LINE
  8
0
 10
353.738
 20
18.75
 11
352.669
 21
17.104
  0
LINE
  8
0
 10
352.669
 20
17.104
 11
351.434
 21
15.5788
  0
LINE
  8
0
 10
351.434
 20
15.5788
 11
350.046
 21
14.191
  0
LINE
  8
0
 10
350.046
 20
14.191
 11
348.521
 21
12.9559
  0
LINE
  8
0
 10
348.521
 20
12.9559
 11
346.875
 21
11.887
  0
LINE
  8
0
 10
346.875
 20
11.887
 11
345.126
 21
10.996
  0
LINE
  8
0
 10
345.126
 20
10.996
 11
343.294
 21
10.2927
  0
LINE
  8
0
 10
343.294
 20
10.2927
 11
341.398
 21
9.78473
  0
LINE
  8
0
 10
341.398
 20
9.78473
 11
339.46
 21
9.47771
  0
LINE
  8
0
 10
339.46
 20
9.47771
 11
337.5
 21
9.375
  0
LINE
  8
0
 10
337.5
 20
9.375
 11
335.54
 21
9.47771
  0
LINE
  8
0
 10
337.552
 20
27.6277
 11
337.604
 21
27.6359
  0
LINE
  8
0
 10
337.604
 20
27.6359
 11
337.655
 21
27.6495
  0
LINE
  8
0
 10
337.655
 20
27.6495
 11
337.703
 21
27.6682
  0
LINE
  8
0
 10
337.703
 20
27.6682
 11
337.75
 21
27.692
  0
LINE
  8
0
 10
337.75
 20
27.692
 11
337.794
 21
27.7205
  0
LINE
  8
0
 10
337.794
 20
27.7205
 11
337.835
 21
27.7534
  0
LINE
  8
0
 10
337.835
 20
27.7534
 11
337.872
 21
27.7904
  0
LINE
  8
0
 10
337.872
 20
27.7904
 11
337.905
 21
27.8311
  0
LINE
  8
0
 10
337.905
 20
27.8311
 11
337.933
 21
27.875
  0
LINE
  8
0
 10
337.933
 20
27.875
 11
337.957
 21
27.9216
  0
LINE
  8
0
 10
337.957
 20
27.9216
 11
337.976
 21
27.9705
  0
LINE
  8
0
 10
337.976
 20
27.9705
 11
337.989
 21
28.021
  0
LINE
  8
0
 10
337.989
 20
28.021
 11
337.997
 21
28.0727
  0
LINE
  8
0
 10
337.997
 20
28.0727
 11
338
 21
28.125
  0
LINE
  8
0
 10
338
 20
28.125
 11
337.997
 21
28.1773
  0
LINE
  8
0
 10
337.997
 20
28.1773
 11
337.989
 21
28.2289
  0
LINE
  8
0
 10
337.989
 20
28.2289
 11
337.976
 21
28.2795
  0
LINE
  8
0
 10
337.976
 20
28.2795
 11
337.957
 21
28.3284
  0
LINE
  8
0
 10
337.957
 20
28.3284
 11
337.933
 21
28.375
  0
LINE
  8
0
 10
337.933
 20
28.375
 11
337.905
 21
28.4189
  0
LINE
  8
0
 10
337.905
 20
28.4189
 11
337.872
 21
28.4596
  0
LINE
  8
0
 10
337.872
 20
28.4596
 11
337.835
 21
28.4966
  0
LINE
  8
0
 10
337.835
 20
28.4966
 11
337.794
 21
28.5295
  0
LINE
  8
0
 10
337.794
 20
28.5295
 11
337.75
 21
28.558
  0
LINE
  8
0
 10
337.75
 20
28.558
 11
337.703
 21
28.5818
  0
LINE
  8
0
 10
337.703
 20
28.5818
 11
337.655
 21
28.6005
  0
LINE
  8
0
 10
337.655
 20
28.6005
 11
337.604
 21
28.6141
  0
LINE
  8
0
 10
337.604
 20
28.6141
 11
337.552
 21
28.6223
  0
LINE
  8
0
 10
337.552
 20
28.6223
 11
337.5
 21
28.625
  0
LINE
  8
0
 10
337.5
 20
28.625
 11
337.448
 21
28.6223
  0
LINE
  8
0
 10
337.448
 20
28.6223
 11
337.396
 21
28.6141
  0
LINE
  8
0
 10
337.396
 20
28.6141
 11
337.345
 21
28.6005
  0
LINE
  8
0
 10
337.345
 20
28.6005
 11
337.297
 21
28.5818
  0
LINE
  8
0
 10
337.297
 20
28.5818
 11
337.25
 21
28.558
  0
LINE
  8
0
 10
337.25
 20
28.558
 11
337.206
 21
28.5295
  0
LINE
  8
0
 10
337.206
 20
28.5295
 11
337.165
 21
28.4966
  0
LINE
  8
0
 10
337.165
 20
28.4966
 11
337.128
 21
28.4596
  0
LINE
  8
0
 10
337.128
 20
28.4596
 11
337.095
 21
28.4189
  0
LINE
  8
0
 10
337.095
 20
28.4189
 11
337.067
 21
28.375
  0
LINE
  8
0
 10
337.067
 20
28.375
 11
337.043
 21
28.3284
  0
LINE
  8
0
 10
337.043
 20
28.3284
 11
337.024
 21
28.2795
  0
LINE
  8
0
 10
337.024
 20
28.2795
 11
337.011
 21
28.2289
  0
LINE
  8
0
 10
337.011
 20
28.2289
 11
337.003
 21
28.1773
  0
LINE
  8
0
 10
337.003
 20
28.1773
 11
337
 21
28.125
  0
LINE
  8
0
 10
337
 20
28.125
 11
337.003
 21
28.0727
  0
LINE
  8
0
 10
337.003
 20
28.0727
 11
337.011
 21
28.021
  0
LINE
  8
0
 10
337.011
 20
28.021
 11
337.024
 21
27.9705
  0
LINE
  8
0
 10
337.024
 20
27.9705
 11
337.043
 21
27.9216
  0
LINE
  8
0
 10
337.043
 20
27.9216
 11
337.067
 21
27.875
  0
LINE
  8
0
 10
337.067
 20
27.875
 11
337.095
 21
27.8311
  0
LINE
  8
0
 10
337.095
 20
27.8311
 11
337.128
 21
27.7904
  0
LINE
  8
0
 10
337.128
 20
27.7904
 11
337.165
 21
27.7534
  0
LINE
  8
0
 10
337.165
 20
27.7534
 11
337.206
 21
27.7205
  0
LINE
  8
0
 10
337.206
 20
27.7205
 11
337.25
 21
27.692
  0
LINE
  8
0
 10
337.25
 20
27.692
 11
337.297
 21
27.6682
  0
LINE
  8
0
 10
337.297
 20
27.6682
 11
337.345
 21
27.6495
  0
LINE
  8
0
 10
337.345
 20
27.6495
 11
337.396
 21
27.6359
  0
LINE
  8
0
 10
337.396
 20
27.6359
 11
337.448
 21
27.6277
  0
LINE
  8
0
 10
337.448
 20
27.6277
 11
337.5
 21
27.625
  0
LINE
  8
0
 10
337.5
 20
27.625
 11
337.552
 21
27.6277
  0
LINE
  8
0
 10
-21.1956
 20
49.4664
 11
-20.9029
 21
49.5038
  0
LINE
  8
0
 10
-20.9029
 20
49.5038
 11
-20.6251
 21
49.5661
  0
LINE
  8
0
 10
-20.6251
 20
49.5661
 11
-20.3621
 21
49.6533
  0
LINE
  8
0
 10
-20.3621
 20
49.6533
 11
-20.114
 21
49.7655
  0
LINE
  8
0
 10
-20.114
 20
49.7655
 11
-19.8808
 21
49.9025
  0
LINE
  8
0
 10
-19.8808
 20
49.9025
 11
-19.6624
 21
50.0645
  0
LINE
  8
0
 10
-19.6624
 20
50.0645
 11
-19.459
 21
50.2514
  0
LINE
  8
0
 10
-19.459
 20
50.2514
 11
-19.2752
 21
50.4591
  0
LINE
  8
0
 10
-19.2752
 20
50.4591
 11
-19.1159
 21
50.6839
  0
LINE
  8
0
 10
-19.1159
 20
50.6839
 11
-18.9811
 21
50.9257
  0
LINE
  8
0
 10
-18.9811
 20
50.9257
 11
-18.8708
 21
51.1846
  0
LINE
  8
0
 10
-18.8708
 20
51.1846
 11
-18.785
 21
51.4606
  0
LINE
  8
0
 10
-18.785
 20
51.4606
 11
-18.7238
 21
51.7536
  0
LINE
  8
0
 10
-18.7238
 20
51.7536
 11
-18.687
 21
52.0637
  0
LINE
  8
0
 10
-18.687
 20
52.0637
 11
-18.6748
 21
52.3909
  0
LINE
  8
0
 10
-18.6748
 20
52.3909
 11
-18.6838
 21
52.6659
  0
LINE
  8
0
 10
-18.6838
 20
52.6659
 11
-18.711
 21
52.9293
  0
LINE
  8
0
 10
-18.711
 20
52.9293
 11
-18.7564
 21
53.1813
  0
LINE
  8
0
 10
-18.7564
 20
53.1813
 11
-18.8199
 21
53.4218
  0
LINE
  8
0
 10
-18.8199
 20
53.4218
 11
-18.9015
 21
53.6507
  0
LINE
  8
0
 10
-18.9015
 20
53.6507
 11
-19.0013
 21
53.8682
  0
LINE
  8
0
 10
-19.0013
 20
53.8682
 11
-19.1192
 21
54.0741
  0
LINE
  8
0
 10
-19.1192
 20
54.0741
 11
-19.2553
 21
54.2686
  0
LINE
  8
0
 10
-19.2553
 20
54.2686
 11
-16.3736
 21
54.0944
  0
LINE
  8
0
 10
-16.3736
 20
54.0944
 11
-16.3736
 21
49.9831
  0
LINE
  8
0
 10
-16.3736
 20
49.9831
 11
-15.3857
 21
49.9831
  0
LINE
  8
0
 10
-15.3857
 20
49.9831
 11
-15.3857
 21
55.1527
  0
LINE
  8
0
 10
-15.3857
 20
55.1527
 11
-20.2755
 21
55.4563
  0
LINE
  8
0
 10
-20.2755
 20
55.4563
 11
-20.2755
 21
54.3199
  0
LINE
  8
0
 10
-20.2755
 20
54.3199
 11
-20.19
 21
54.2184
  0
LINE
  8
0
 10
-20.19
 20
54.2184
 11
-20.1109
 21
54.1168
  0
LINE
  8
0
 10
-20.1109
 20
54.1168
 11
-20.0383
 21
54.0152
  0
LINE
  8
0
 10
-20.0383
 20
54.0152
 11
-19.9722
 21
53.9136
  0
LINE
  8
0
 10
-19.9722
 20
53.9136
 11
-19.9125
 21
53.812
  0
LINE
  8
0
 10
-19.9125
 20
53.812
 11
-19.8592
 21
53.7104
  0
LINE
  8
0
 10
-19.8592
 20
53.7104
 11
-19.8124
 21
53.6088
  0
LINE
  8
0
 10
-19.8124
 20
53.6088
 11
-19.7721
 21
53.5072
  0
LINE
  8
0
 10
-19.7721
 20
53.5072
 11
-19.7373
 21
53.4044
  0
LINE
  8
0
 10
-19.7373
 20
53.4044
 11
-19.7071
 21
53.2996
  0
LINE
  8
0
 10
-19.7071
 20
53.2996
 11
-19.6816
 21
53.1927
  0
LINE
  8
0
 10
-19.6816
 20
53.1927
 11
-19.6607
 21
53.0839
  0
LINE
  8
0
 10
-19.6607
 20
53.0839
 11
-19.6445
 21
52.9731
  0
LINE
  8
0
 10
-19.6445
 20
52.9731
 11
-19.6329
 21
52.8604
  0
LINE
  8
0
 10
-19.6329
 20
52.8604
 11
-19.6259
 21
52.7456
  0
LINE
  8
0
 10
-19.6259
 20
52.7456
 11
-19.6236
 21
52.6288
  0
LINE
  8
0
 10
-19.6236
 20
52.6288
 11
-19.6318
 21
52.4088
  0
LINE
  8
0
 10
-19.6318
 20
52.4088
 11
-19.6565
 21
52.2004
  0
LINE
  8
0
 10
-19.6565
 20
52.2004
 11
-19.6976
 21
52.0036
  0
LINE
  8
0
 10
-19.6976
 20
52.0036
 11
-19.7552
 21
51.8184
  0
LINE
  8
0
 10
-19.7552
 20
51.8184
 11
-19.8292
 21
51.6448
  0
LINE
  8
0
 10
-19.8292
 20
51.6448
 11
-19.9196
 21
51.4828
  0
LINE
  8
0
 10
-19.9196
 20
51.4828
 11
-20.0265
 21
51.3324
  0
LINE
  8
0
 10
-20.0265
 20
51.3324
 11
-20.1499
 21
51.1936
  0
LINE
  8
0
 10
-20.1499
 20
51.1936
 11
-20.2865
 21
51.0687
  0
LINE
  8
0
 10
-20.2865
 20
51.0687
 11
-20.4334
 21
50.9604
  0
LINE
  8
0
 10
-20.4334
 20
50.9604
 11
-20.5905
 21
50.8689
  0
LINE
  8
0
 10
-20.5905
 20
50.8689
 11
-20.7578
 21
50.7939
  0
LINE
  8
0
 10
-20.7578
 20
50.7939
 11
-20.9353
 21
50.7356
  0
LINE
  8
0
 10
-20.9353
 20
50.7356
 11
-21.1229
 21
50.694
  0
LINE
  8
0
 10
-21.1229
 20
50.694
 11
-21.3208
 21
50.669
  0
LINE
  8
0
 10
-21.3208
 20
50.669
 11
-21.5289
 21
50.6607
  0
LINE
  8
0
 10
-21.5289
 20
50.6607
 11
-21.7679
 21
50.6689
  0
LINE
  8
0
 10
-21.7679
 20
50.6689
 11
-21.9937
 21
50.6937
  0
LINE
  8
0
 10
-21.9937
 20
50.6937
 11
-22.2063
 21
50.7351
  0
LINE
  8
0
 10
-22.2063
 20
50.7351
 11
-22.4059
 21
50.793
  0
LINE
  8
0
 10
-22.4059
 20
50.793
 11
-22.5923
 21
50.8674
  0
LINE
  8
0
 10
-22.5923
 20
50.8674
 11
-22.7655
 21
50.9583
  0
LINE
  8
0
 10
-22.7655
 20
50.9583
 11
-22.9256
 21
51.0658
  0
LINE
  8
0
 10
-22.9256
 20
51.0658
 11
-23.0725
 21
51.1898
  0
LINE
  8
0
 10
-23.0725
 20
51.1898
 11
-23.2041
 21
51.3285
  0
LINE
  8
0
 10
-23.2041
 20
51.3285
 11
-23.3182
 21
51.4799
  0
LINE
  8
0
 10
-23.3182
 20
51.4799
 11
-23.4147
 21
51.644
  0
LINE
  8
0
 10
-23.4147
 20
51.644
 11
-23.4937
 21
51.8208
  0
LINE
  8
0
 10
-23.4937
 20
51.8208
 11
-23.5551
 21
52.0104
  0
LINE
  8
0
 10
-23.5551
 20
52.0104
 11
-23.599
 21
52.2126
  0
LINE
  8
0
 10
-23.599
 20
52.2126
 11
-23.6253
 21
52.4277
  0
LINE
  8
0
 10
-23.6253
 20
52.4277
 11
-23.634
 21
52.6554
  0
LINE
  8
0
 10
-23.634
 20
52.6554
 11
-23.613
 21
53.0181
  0
LINE
  8
0
 10
-23.613
 20
53.0181
 11
-23.5497
 21
53.3446
  0
LINE
  8
0
 10
-23.5497
 20
53.3446
 11
-23.4443
 21
53.6351
  0
LINE
  8
0
 10
-23.4443
 20
53.6351
 11
-23.2967
 21
53.8896
  0
LINE
  8
0
 10
-23.2967
 20
53.8896
 11
-23.1069
 21
54.1079
  0
LINE
  8
0
 10
-23.1069
 20
54.1079
 11
-22.875
 21
54.2901
  0
LINE
  8
0
 10
-22.875
 20
54.2901
 11
-22.6008
 21
54.4363
  0
LINE
  8
0
 10
-22.6008
 20
54.4363
 11
-22.2845
 21
54.5465
  0
LINE
  8
0
 10
-22.2845
 20
54.5465
 11
-22.4197
 21
55.7209
  0
LINE
  8
0
 10
-22.4197
 20
55.7209
 11
-22.6751
 21
55.6603
  0
LINE
  8
0
 10
-22.6751
 20
55.6603
 11
-22.9149
 21
55.5817
  0
LINE
  8
0
 10
-22.9149
 20
55.5817
 11
-23.1393
 21
55.4853
  0
LINE
  8
0
 10
-23.1393
 20
55.4853
 11
-23.3481
 21
55.3709
  0
LINE
  8
0
 10
-23.3481
 20
55.3709
 11
-23.5414
 21
55.2385
  0
LINE
  8
0
 10
-23.5414
 20
55.2385
 11
-23.7191
 21
55.0883
  0
LINE
  8
0
 10
-23.7191
 20
55.0883
 11
-23.8813
 21
54.9201
  0
LINE
  8
0
 10
-23.8813
 20
54.9201
 11
-24.0281
 21
54.7339
  0
LINE
  8
0
 10
-24.0281
 20
54.7339
 11
-24.1581
 21
54.5309
  0
LINE
  8
0
 10
-24.1581
 20
54.5309
 11
-24.2708
 21
54.3126
  0
LINE
  8
0
 10
-24.2708
 20
54.3126
 11
-24.3661
 21
54.079
  0
LINE
  8
0
 10
-24.3661
 20
54.079
 11
-24.4442
 21
53.8301
  0
LINE
  8
0
 10
-24.4442
 20
53.8301
 11
-24.5049
 21
53.5658
  0
LINE
  8
0
 10
-24.5049
 20
53.5658
 11
-24.5482
 21
53.2862
  0
LINE
  8
0
 10
-24.5482
 20
53.2862
 11
-24.5742
 21
52.9913
  0
LINE
  8
0
 10
-24.5742
 20
52.9913
 11
-24.5829
 21
52.6811
  0
LINE
  8
0
 10
-24.5829
 20
52.6811
 11
-24.57
 21
52.3122
  0
LINE
  8
0
 10
-24.57
 20
52.3122
 11
-24.5315
 21
51.964
  0
LINE
  8
0
 10
-24.5315
 20
51.964
 11
-24.4673
 21
51.6365
  0
LINE
  8
0
 10
-24.4673
 20
51.6365
 11
-24.3773
 21
51.3297
  0
LINE
  8
0
 10
-24.3773
 20
51.3297
 11
-24.2617
 21
51.0436
  0
LINE
  8
0
 10
-24.2617
 20
51.0436
 11
-24.1204
 21
50.7782
  0
LINE
  8
0
 10
-24.1204
 20
50.7782
 11
-23.9533
 21
50.5335
  0
LINE
  8
0
 10
-23.9533
 20
50.5335
 11
-23.7606
 21
50.3095
  0
LINE
  8
0
 10
-23.7606
 20
50.3095
 11
-23.5453
 21
50.109
  0
LINE
  8
0
 10
-23.5453
 20
50.109
 11
-23.3108
 21
49.9352
  0
LINE
  8
0
 10
-23.3108
 20
49.9352
 11
-23.0573
 21
49.7881
  0
LINE
  8
0
 10
-23.0573
 20
49.7881
 11
-22.7847
 21
49.6678
  0
LINE
  8
0
 10
-22.7847
 20
49.6678
 11
-22.4929
 21
49.5742
  0
LINE
  8
0
 10
-22.4929
 20
49.5742
 11
-22.1821
 21
49.5074
  0
LINE
  8
0
 10
-22.1821
 20
49.5074
 11
-21.8522
 21
49.4673
  0
LINE
  8
0
 10
-21.8522
 20
49.4673
 11
-21.5032
 21
49.4539
  0
LINE
  8
0
 10
-21.5032
 20
49.4539
 11
-21.1956
 21
49.4664
  0
LINE
  8
0
 10
-21.1429
 20
42.3125
 11
-20.8349
 21
42.3472
  0
LINE
  8
0
 10
-20.8349
 20
42.3472
 11
-20.5438
 21
42.405
  0
LINE
  8
0
 10
-20.5438
 20
42.405
 11
-20.2698
 21
42.4859
  0
LINE
  8
0
 10
-20.2698
 20
42.4859
 11
-20.0128
 21
42.5898
  0
LINE
  8
0
 10
-20.0128
 20
42.5898
 11
-19.7728
 21
42.7169
  0
LINE
  8
0
 10
-19.7728
 20
42.7169
 11
-19.5498
 21
42.8671
  0
LINE
  8
0
 10
-19.5498
 20
42.8671
 11
-19.3438
 21
43.0405
  0
LINE
  8
0
 10
-19.3438
 20
43.0405
 11
-19.1584
 21
43.2332
  0
LINE
  8
0
 10
-19.1584
 20
43.2332
 11
-18.9978
 21
43.4422
  0
LINE
  8
0
 10
-18.9978
 20
43.4422
 11
-18.8619
 21
43.6675
  0
LINE
  8
0
 10
-18.8619
 20
43.6675
 11
-18.7507
 21
43.9091
  0
LINE
  8
0
 10
-18.7507
 20
43.9091
 11
-18.6642
 21
44.1669
  0
LINE
  8
0
 10
-18.6642
 20
44.1669
 11
-18.6024
 21
44.441
  0
LINE
  8
0
 10
-18.6024
 20
44.441
 11
-18.5653
 21
44.7314
  0
LINE
  8
0
 10
-18.5653
 20
44.7314
 11
-18.5529
 21
45.0381
  0
LINE
  8
0
 10
-18.5529
 20
45.0381
 11
-18.5578
 21
45.2208
  0
LINE
  8
0
 10
-18.5578
 20
45.2208
 11
-18.5722
 21
45.3983
  0
LINE
  8
0
 10
-18.5722
 20
45.3983
 11
-18.5962
 21
45.5707
  0
LINE
  8
0
 10
-18.5962
 20
45.5707
 11
-18.6298
 21
45.7378
  0
LINE
  8
0
 10
-18.6298
 20
45.7378
 11
-18.673
 21
45.8997
  0
LINE
  8
0
 10
-18.673
 20
45.8997
 11
-18.7258
 21
46.0564
  0
LINE
  8
0
 10
-18.7258
 20
46.0564
 11
-18.7883
 21
46.2079
  0
LINE
  8
0
 10
-18.7883
 20
46.2079
 11
-18.8603
 21
46.3543
  0
LINE
  8
0
 10
-18.8603
 20
46.3543
 11
-18.9413
 21
46.4939
  0
LINE
  8
0
 10
-18.9413
 20
46.4939
 11
-19.0311
 21
46.6255
  0
LINE
  8
0
 10
-19.0311
 20
46.6255
 11
-19.1297
 21
46.749
  0
LINE
  8
0
 10
-19.1297
 20
46.749
 11
-19.237
 21
46.8644
  0
LINE
  8
0
 10
-19.237
 20
46.8644
 11
-19.3531
 21
46.9717
  0
LINE
  8
0
 10
-19.3531
 20
46.9717
 11
-19.4779
 21
47.0709
  0
LINE
  8
0
 10
-19.4779
 20
47.0709
 11
-19.6116
 21
47.162
  0
LINE
  8
0
 10
-19.6116
 20
47.162
 11
-19.754
 21
47.2451
  0
LINE
  8
0
 10
-19.754
 20
47.2451
 11
-19.328
 21
47.2365
  0
LINE
  8
0
 10
-19.328
 20
47.2365
 11
-18.9279
 21
47.211
  0
LINE
  8
0
 10
-18.9279
 20
47.211
 11
-18.5538
 21
47.1684
  0
LINE
  8
0
 10
-18.5538
 20
47.1684
 11
-18.2056
 21
47.1087
  0
LINE
  8
0
 10
-18.2056
 20
47.1087
 11
-17.8833
 21
47.032
  0
LINE
  8
0
 10
-17.8833
 20
47.032
 11
-17.587
 21
46.9383
  0
LINE
  8
0
 10
-17.587
 20
46.9383
 11
-17.3166
 21
46.8275
  0
LINE
  8
0
 10
-17.3166
 20
46.8275
 11
-17.0721
 21
46.6997
  0
LINE
  8
0
 10
-17.0721
 20
46.6997
 11
-16.8548
 21
46.5564
  0
LINE
  8
0
 10
-16.8548
 20
46.5564
 11
-16.6665
 21
46.399
  0
LINE
  8
0
 10
-16.6665
 20
46.399
 11
-16.5072
 21
46.2276
  0
LINE
  8
0
 10
-16.5072
 20
46.2276
 11
-16.3769
 21
46.0421
  0
LINE
  8
0
 10
-16.3769
 20
46.0421
 11
-16.2755
 21
45.8426
  0
LINE
  8
0
 10
-16.2755
 20
45.8426
 11
-16.2031
 21
45.6291
  0
LINE
  8
0
 10
-16.2031
 20
45.6291
 11
-16.1596
 21
45.4015
  0
LINE
  8
0
 10
-16.1596
 20
45.4015
 11
-16.1451
 21
45.1599
  0
LINE
  8
0
 10
-16.1451
 20
45.1599
 11
-16.1625
 21
44.8838
  0
LINE
  8
0
 10
-16.1625
 20
44.8838
 11
-16.2145
 21
44.6331
  0
LINE
  8
0
 10
-16.2145
 20
44.6331
 11
-16.3012
 21
44.4078
  0
LINE
  8
0
 10
-16.3012
 20
44.4078
 11
-16.4226
 21
44.2079
  0
LINE
  8
0
 10
-16.4226
 20
44.2079
 11
-16.5786
 21
44.0335
  0
LINE
  8
0
 10
-16.5786
 20
44.0335
 11
-16.7693
 21
43.8845
  0
LINE
  8
0
 10
-16.7693
 20
43.8845
 11
-16.9947
 21
43.761
  0
LINE
  8
0
 10
-16.9947
 20
43.761
 11
-17.2548
 21
43.6629
  0
LINE
  8
0
 10
-17.2548
 20
43.6629
 11
-17.055
 21
42.5532
  0
LINE
  8
0
 10
-17.055
 20
42.5532
 11
-16.6209
 21
42.7109
  0
LINE
  8
0
 10
-16.6209
 20
42.7109
 11
-16.2447
 21
42.9162
  0
LINE
  8
0
 10
-16.2447
 20
42.9162
 11
-15.9264
 21
43.1692
  0
LINE
  8
0
 10
-15.9264
 20
43.1692
 11
-15.666
 21
43.4697
  0
LINE
  8
0
 10
-15.666
 20
43.4697
 11
-15.4634
 21
43.8177
  0
LINE
  8
0
 10
-15.4634
 20
43.8177
 11
-15.3187
 21
44.2134
  0
LINE
  8
0
 10
-15.3187
 20
44.2134
 11
-15.2319
 21
44.6567
  0
LINE
  8
0
 10
-15.2319
 20
44.6567
 11
-15.203
 21
45.1475
  0
LINE
  8
0
 10
-15.203
 20
45.1475
 11
-15.2228
 21
45.5268
  0
LINE
  8
0
 10
-15.2228
 20
45.5268
 11
-15.2822
 21
45.8837
  0
LINE
  8
0
 10
-15.2822
 20
45.8837
 11
-15.3814
 21
46.2182
  0
LINE
  8
0
 10
-15.3814
 20
46.2182
 11
-15.5201
 21
46.5303
  0
LINE
  8
0
 10
-15.5201
 20
46.5303
 11
-15.6985
 21
46.8201
  0
LINE
  8
0
 10
-15.6985
 20
46.8201
 11
-15.9165
 21
47.0876
  0
LINE
  8
0
 10
-15.9165
 20
47.0876
 11
-16.1742
 21
47.3326
  0
LINE
  8
0
 10
-16.1742
 20
47.3326
 11
-16.4716
 21
47.5553
  0
LINE
  8
0
 10
-16.4716
 20
47.5553
 11
-16.8057
 21
47.7534
  0
LINE
  8
0
 10
-16.8057
 20
47.7534
 11
-17.1741
 21
47.925
  0
LINE
  8
0
 10
-17.1741
 20
47.925
 11
-17.5769
 21
48.0703
  0
LINE
  8
0
 10
-17.5769
 20
48.0703
 11
-18.014
 21
48.1891
  0
LINE
  8
0
 10
-18.014
 20
48.1891
 11
-18.4855
 21
48.2816
  0
LINE
  8
0
 10
-18.4855
 20
48.2816
 11
-18.9914
 21
48.3476
  0
LINE
  8
0
 10
-18.9914
 20
48.3476
 11
-19.5316
 21
48.3872
  0
LINE
  8
0
 10
-19.5316
 20
48.3872
 11
-20.1061
 21
48.4004
  0
LINE
  8
0
 10
-20.1061
 20
48.4004
 11
-20.6366
 21
48.3877
  0
LINE
  8
0
 10
-20.6366
 20
48.3877
 11
-21.1345
 21
48.3496
  0
LINE
  8
0
 10
-21.1345
 20
48.3496
 11
-21.5998
 21
48.2861
  0
LINE
  8
0
 10
-21.5998
 20
48.2861
 11
-22.0326
 21
48.1972
  0
LINE
  8
0
 10
-22.0326
 20
48.1972
 11
-22.4328
 21
48.0829
  0
LINE
  8
0
 10
-22.4328
 20
48.0829
 11
-22.8004
 21
47.9433
  0
LINE
  8
0
 10
-22.8004
 20
47.9433
 11
-23.1355
 21
47.7782
  0
LINE
  8
0
 10
-23.1355
 20
47.7782
 11
-23.438
 21
47.5877
  0
LINE
  8
0
 10
-23.438
 20
47.5877
 11
-23.7063
 21
47.373
  0
LINE
  8
0
 10
-23.7063
 20
47.373
 11
-23.9389
 21
47.1357
  0
LINE
  8
0
 10
-23.9389
 20
47.1357
 11
-24.1357
 21
46.8758
  0
LINE
  8
0
 10
-24.1357
 20
46.8758
 11
-24.2967
 21
46.5934
  0
LINE
  8
0
 10
-24.2967
 20
46.5934
 11
-24.4219
 21
46.2884
  0
LINE
  8
0
 10
-24.4219
 20
46.2884
 11
-24.5113
 21
45.9608
  0
LINE
  8
0
 10
-24.5113
 20
45.9608
 11
-24.565
 21
45.6106
  0
LINE
  8
0
 10
-24.565
 20
45.6106
 11
-24.5829
 21
45.2379
  0
LINE
  8
0
 10
-24.5829
 20
45.2379
 11
-24.5698
 21
44.9034
  0
LINE
  8
0
 10
-24.5698
 20
44.9034
 11
-24.5307
 21
44.5875
  0
LINE
  8
0
 10
-24.5307
 20
44.5875
 11
-24.4654
 21
44.2902
  0
LINE
  8
0
 10
-24.4654
 20
44.2902
 11
-24.374
 21
44.0114
  0
LINE
  8
0
 10
-24.374
 20
44.0114
 11
-24.2565
 21
43.7513
  0
LINE
  8
0
 10
-24.2565
 20
43.7513
 11
-24.1129
 21
43.5097
  0
LINE
  8
0
 10
-24.1129
 20
43.5097
 11
-23.9431
 21
43.2867
  0
LINE
  8
0
 10
-23.9431
 20
43.2867
 11
-23.7473
 21
43.0823
  0
LINE
  8
0
 10
-23.7473
 20
43.0823
 11
-23.5289
 21
42.8992
  0
LINE
  8
0
 10
-23.5289
 20
42.8992
 11
-23.2915
 21
42.7405
  0
LINE
  8
0
 10
-23.2915
 20
42.7405
 11
-23.0351
 21
42.6062
  0
LINE
  8
0
 10
-23.0351
 20
42.6062
 11
-22.7597
 21
42.4963
  0
LINE
  8
0
 10
-22.7597
 20
42.4963
 11
-22.4653
 21
42.4109
  0
LINE
  8
0
 10
-22.4653
 20
42.4109
 11
-22.1518
 21
42.3498
  0
LINE
  8
0
 10
-22.1518
 20
42.3498
 11
-21.8194
 21
42.3132
  0
LINE
  8
0
 10
-21.8194
 20
42.3132
 11
-21.468
 21
42.301
  0
LINE
  8
0
 10
-21.468
 20
42.301
 11
-21.1429
 21
42.3125
  0
LINE
  8
0
 10
-21.7609
 20
43.4895
 11
-21.9892
 21
43.5119
  0
LINE
  8
0
 10
-21.9892
 20
43.5119
 11
-22.2041
 21
43.5492
  0
LINE
  8
0
 10
-22.2041
 20
43.5492
 11
-22.4059
 21
43.6015
  0
LINE
  8
0
 10
-22.4059
 20
43.6015
 11
-22.5943
 21
43.6687
  0
LINE
  8
0
 10
-22.5943
 20
43.6687
 11
-22.7695
 21
43.7508
  0
LINE
  8
0
 10
-22.7695
 20
43.7508
 11
-22.9315
 21
43.8478
  0
LINE
  8
0
 10
-22.9315
 20
43.8478
 11
-23.0802
 21
43.9598
  0
LINE
  8
0
 10
-23.0802
 20
43.9598
 11
-23.2131
 21
44.0849
  0
LINE
  8
0
 10
-23.2131
 20
44.0849
 11
-23.3283
 21
44.2212
  0
LINE
  8
0
 10
-23.3283
 20
44.2212
 11
-23.4258
 21
44.3688
  0
LINE
  8
0
 10
-23.4258
 20
44.3688
 11
-23.5056
 21
44.5277
  0
LINE
  8
0
 10
-23.5056
 20
44.5277
 11
-23.5676
 21
44.6979
  0
LINE
  8
0
 10
-23.5676
 20
44.6979
 11
-23.6119
 21
44.8793
  0
LINE
  8
0
 10
-23.6119
 20
44.8793
 11
-23.6385
 21
45.072
  0
LINE
  8
0
 10
-23.6385
 20
45.072
 11
-23.6474
 21
45.276
  0
LINE
  8
0
 10
-23.6474
 20
45.276
 11
-23.6368
 21
45.4748
  0
LINE
  8
0
 10
-23.6368
 20
45.4748
 11
-23.6052
 21
45.6645
  0
LINE
  8
0
 10
-23.6052
 20
45.6645
 11
-23.5525
 21
45.8449
  0
LINE
  8
0
 10
-23.5525
 20
45.8449
 11
-23.4787
 21
46.0162
  0
LINE
  8
0
 10
-23.4787
 20
46.0162
 11
-23.3838
 21
46.1782
  0
LINE
  8
0
 10
-23.3838
 20
46.1782
 11
-23.2678
 21
46.3311
  0
LINE
  8
0
 10
-23.2678
 20
46.3311
 11
-23.1308
 21
46.4748
  0
LINE
  8
0
 10
-23.1308
 20
46.4748
 11
-22.9726
 21
46.6093
  0
LINE
  8
0
 10
-22.9726
 20
46.6093
 11
-22.7979
 21
46.7311
  0
LINE
  8
0
 10
-22.7979
 20
46.7311
 11
-22.6113
 21
46.8367
  0
LINE
  8
0
 10
-22.6113
 20
46.8367
 11
-22.4128
 21
46.926
  0
LINE
  8
0
 10
-22.4128
 20
46.926
 11
-22.2022
 21
46.999
  0
LINE
  8
0
 10
-22.2022
 20
46.999
 11
-21.9797
 21
47.0559
  0
LINE
  8
0
 10
-21.9797
 20
47.0559
 11
-21.7453
 21
47.0965
  0
LINE
  8
0
 10
-21.7453
 20
47.0965
 11
-21.4989
 21
47.1208
  0
LINE
  8
0
 10
-21.4989
 20
47.1208
 11
-21.2405
 21
47.129
  0
LINE
  8
0
 10
-21.2405
 20
47.129
 11
-21.037
 21
47.1211
  0
LINE
  8
0
 10
-21.037
 20
47.1211
 11
-20.8447
 21
47.0977
  0
LINE
  8
0
 10
-20.8447
 20
47.0977
 11
-20.6637
 21
47.0587
  0
LINE
  8
0
 10
-20.6637
 20
47.0587
 11
-20.4939
 21
47.004
  0
LINE
  8
0
 10
-20.4939
 20
47.004
 11
-20.3354
 21
46.9338
  0
LINE
  8
0
 10
-20.3354
 20
46.9338
 11
-20.1881
 21
46.8479
  0
LINE
  8
0
 10
-20.1881
 20
46.8479
 11
-20.052
 21
46.7464
  0
LINE
  8
0
 10
-20.052
 20
46.7464
 11
-19.9272
 21
46.6293
  0
LINE
  8
0
 10
-19.9272
 20
46.6293
 11
-19.8154
 21
46.4993
  0
LINE
  8
0
 10
-19.8154
 20
46.4993
 11
-19.7186
 21
46.3595
  0
LINE
  8
0
 10
-19.7186
 20
46.3595
 11
-19.6366
 21
46.2098
  0
LINE
  8
0
 10
-19.6366
 20
46.2098
 11
-19.5696
 21
46.0504
  0
LINE
  8
0
 10
-19.5696
 20
46.0504
 11
-19.5175
 21
45.8813
  0
LINE
  8
0
 10
-19.5175
 20
45.8813
 11
-19.4802
 21
45.7023
  0
LINE
  8
0
 10
-19.4802
 20
45.7023
 11
-19.4578
 21
45.5135
  0
LINE
  8
0
 10
-19.4578
 20
45.5135
 11
-19.4504
 21
45.315
  0
LINE
  8
0
 10
-19.4504
 20
45.315
 11
-19.4588
 21
45.1047
  0
LINE
  8
0
 10
-19.4588
 20
45.1047
 11
-19.4841
 21
44.9063
  0
LINE
  8
0
 10
-19.4841
 20
44.9063
 11
-19.5262
 21
44.7198
  0
LINE
  8
0
 10
-19.5262
 20
44.7198
 11
-19.5851
 21
44.5453
  0
LINE
  8
0
 10
-19.5851
 20
44.5453
 11
-19.6608
 21
44.3827
  0
LINE
  8
0
 10
-19.6608
 20
44.3827
 11
-19.7534
 21
44.232
  0
LINE
  8
0
 10
-19.7534
 20
44.232
 11
-19.8628
 21
44.0933
  0
LINE
  8
0
 10
-19.8628
 20
44.0933
 11
-19.9891
 21
43.9664
  0
LINE
  8
0
 10
-19.9891
 20
43.9664
 11
-20.1306
 21
43.8529
  0
LINE
  8
0
 10
-20.1306
 20
43.8529
 11
-20.2863
 21
43.7545
  0
LINE
  8
0
 10
-20.2863
 20
43.7545
 11
-20.4563
 21
43.6713
  0
LINE
  8
0
 10
-20.4563
 20
43.6713
 11
-20.6405
 21
43.6031
  0
LINE
  8
0
 10
-20.6405
 20
43.6031
 11
-20.8389
 21
43.5502
  0
LINE
  8
0
 10
-20.8389
 20
43.5502
 11
-21.0515
 21
43.5123
  0
LINE
  8
0
 10
-21.0515
 20
43.5123
 11
-21.2783
 21
43.4896
  0
LINE
  8
0
 10
-21.2783
 20
43.4896
 11
-21.5194
 21
43.482
  0
LINE
  8
0
 10
-21.5194
 20
43.482
 11
-21.7609
 21
43.4895
  0
LINE
  8
0
 10
-23.0602
 20
40.686
 11
-24.4611
 21
40.686
  0
LINE
  8
0
 10
-24.4611
 20
40.686
 11
-24.4611
 21
39.4278
  0
LINE
  8
0
 10
-24.4611
 20
39.4278
 11
-23.0602
 21
39.4278
  0
LINE
  8
0
 10
-23.0602
 20
39.4278
 11
-23.0602
 21
40.686
  0
LINE
  8
0
 10
-23.4732
 20
36.3638
 11
-23.3594
 21
36.3116
  0
LINE
  8
0
 10
-23.3594
 20
36.3116
 11
-23.2444
 21
36.2518
  0
LINE
  8
0
 10
-23.2444
 20
36.2518
 11
-23.1284
 21
36.1844
  0
LINE
  8
0
 10
-23.1284
 20
36.1844
 11
-23.0112
 21
36.1092
  0
LINE
  8
0
 10
-23.0112
 20
36.1092
 11
-22.8928
 21
36.0264
  0
LINE
  8
0
 10
-22.8928
 20
36.0264
 11
-22.7734
 21
35.9359
  0
LINE
  8
0
 10
-22.7734
 20
35.9359
 11
-22.6528
 21
35.8377
  0
LINE
  8
0
 10
-22.6528
 20
35.8377
 11
-22.531
 21
35.7319
  0
LINE
  8
0
 10
-22.531
 20
35.7319
 11
-22.4069
 21
35.6172
  0
LINE
  8
0
 10
-22.4069
 20
35.6172
 11
-22.279
 21
35.4931
  0
LINE
  8
0
 10
-22.279
 20
35.4931
 11
-22.1473
 21
35.3595
  0
LINE
  8
0
 10
-22.1473
 20
35.3595
 11
-22.0119
 21
35.2165
  0
LINE
  8
0
 10
-22.0119
 20
35.2165
 11
-21.8727
 21
35.064
  0
LINE
  8
0
 10
-21.8727
 20
35.064
 11
-21.7298
 21
34.9021
  0
LINE
  8
0
 10
-21.7298
 20
34.9021
 11
-21.5832
 21
34.7307
  0
LINE
  8
0
 10
-21.5832
 20
34.7307
 11
-21.4328
 21
34.5498
  0
LINE
  8
0
 10
-21.4328
 20
34.5498
 11
-21.1667
 21
34.2263
  0
LINE
  8
0
 10
-21.1667
 20
34.2263
 11
-20.9187
 21
33.9301
  0
LINE
  8
0
 10
-20.9187
 20
33.9301
 11
-20.6886
 21
33.661
  0
LINE
  8
0
 10
-20.6886
 20
33.661
 11
-20.4765
 21
33.4192
  0
LINE
  8
0
 10
-20.4765
 20
33.4192
 11
-20.2825
 21
33.2047
  0
LINE
  8
0
 10
-20.2825
 20
33.2047
 11
-20.1064
 21
33.0174
  0
LINE
  8
0
 10
-20.1064
 20
33.0174
 11
-19.9483
 21
32.8573
  0
LINE
  8
0
 10
-19.9483
 20
32.8573
 11
-19.8082
 21
32.7245
  0
LINE
  8
0
 10
-19.8082
 20
32.7245
 11
-19.6769
 21
32.6087
  0
LINE
  8
0
 10
-19.6769
 20
32.6087
 11
-19.5456
 21
32.5004
  0
LINE
  8
0
 10
-19.5456
 20
32.5004
 11
-19.4144
 21
32.3994
  0
LINE
  8
0
 10
-19.4144
 20
32.3994
 11
-19.2831
 21
32.3057
  0
LINE
  8
0
 10
-19.2831
 20
32.3057
 11
-19.1519
 21
32.2195
  0
LINE
  8
0
 10
-19.1519
 20
32.2195
 11
-19.0208
 21
32.1406
  0
LINE
  8
0
 10
-19.0208
 20
32.1406
 11
-18.8896
 21
32.0691
  0
LINE
  8
0
 10
-18.8896
 20
32.0691
 11
-18.7585
 21
32.005
  0
LINE
  8
0
 10
-18.7585
 20
32.005
 11
-18.6273
 21
31.9481
  0
LINE
  8
0
 10
-18.6273
 20
31.9481
 11
-18.4959
 21
31.8988
  0
LINE
  8
0
 10
-18.4959
 20
31.8988
 11
-18.3643
 21
31.8571
  0
LINE
  8
0
 10
-18.3643
 20
31.8571
 11
-18.2325
 21
31.823
  0
LINE
  8
0
 10
-18.2325
 20
31.823
 11
-18.1004
 21
31.7964
  0
LINE
  8
0
 10
-18.1004
 20
31.7964
 11
-17.9682
 21
31.7775
  0
LINE
  8
0
 10
-17.9682
 20
31.7775
 11
-17.8357
 21
31.7661
  0
LINE
  8
0
 10
-17.8357
 20
31.7661
 11
-17.7031
 21
31.7623
  0
LINE
  8
0
 10
-17.7031
 20
31.7623
 11
-17.4121
 21
31.7739
  0
LINE
  8
0
 10
-17.4121
 20
31.7739
 11
-17.1382
 21
31.8085
  0
LINE
  8
0
 10
-17.1382
 20
31.8085
 11
-16.8814
 21
31.8663
  0
LINE
  8
0
 10
-16.8814
 20
31.8663
 11
-16.6417
 21
31.9472
  0
LINE
  8
0
 10
-16.6417
 20
31.9472
 11
-16.4191
 21
32.0512
  0
LINE
  8
0
 10
-16.4191
 20
32.0512
 11
-16.2136
 21
32.1783
  0
LINE
  8
0
 10
-16.2136
 20
32.1783
 11
-16.0252
 21
32.3285
  0
LINE
  8
0
 10
-16.0252
 20
32.3285
 11
-15.8539
 21
32.5018
  0
LINE
  8
0
 10
-15.8539
 20
32.5018
 11
-15.7014
 21
32.6963
  0
LINE
  8
0
 10
-15.7014
 20
32.6963
 11
-15.5691
 21
32.9108
  0
LINE
  8
0
 10
-15.5691
 20
32.9108
 11
-15.4572
 21
33.1451
  0
LINE
  8
0
 10
-15.4572
 20
33.1451
 11
-15.3657
 21
33.3992
  0
LINE
  8
0
 10
-15.3657
 20
33.3992
 11
-15.2945
 21
33.6733
  0
LINE
  8
0
 10
-15.2945
 20
33.6733
 11
-15.2437
 21
33.9672
  0
LINE
  8
0
 10
-15.2437
 20
33.9672
 11
-15.2131
 21
34.2809
  0
LINE
  8
0
 10
-15.2131
 20
34.2809
 11
-15.203
 21
34.6145
  0
LINE
  8
0
 10
-15.203
 20
34.6145
 11
-15.213
 21
34.9205
  0
LINE
  8
0
 10
-15.213
 20
34.9205
 11
-15.2433
 21
35.2123
  0
LINE
  8
0
 10
-15.2433
 20
35.2123
 11
-15.2937
 21
35.4898
  0
LINE
  8
0
 10
-15.2937
 20
35.4898
 11
-15.3643
 21
35.753
  0
LINE
  8
0
 10
-15.3643
 20
35.753
 11
-15.455
 21
36.002
  0
LINE
  8
0
 10
-15.455
 20
36.002
 11
-15.5659
 21
36.2368
  0
LINE
  8
0
 10
-15.5659
 20
36.2368
 11
-15.697
 21
36.4573
  0
LINE
  8
0
 10
-15.697
 20
36.4573
 11
-15.8482
 21
36.6636
  0
LINE
  8
0
 10
-15.8482
 20
36.6636
 11
-16.0165
 21
36.8523
  0
LINE
  8
0
 10
-16.0165
 20
36.8523
 11
-16.1987
 21
37.0202
  0
LINE
  8
0
 10
-16.1987
 20
37.0202
 11
-16.3948
 21
37.1672
  0
LINE
  8
0
 10
-16.3948
 20
37.1672
 11
-16.6048
 21
37.2934
  0
LINE
  8
0
 10
-16.6048
 20
37.2934
 11
-16.8288
 21
37.3987
  0
LINE
  8
0
 10
-16.8288
 20
37.3987
 11
-17.0666
 21
37.4832
  0
LINE
  8
0
 10
-17.0666
 20
37.4832
 11
-17.3184
 21
37.5468
  0
LINE
  8
0
 10
-17.3184
 20
37.5468
 11
-17.5841
 21
37.5896
  0
LINE
  8
0
 10
-17.5841
 20
37.5896
 11
-17.6936
 21
36.4028
  0
LINE
  8
0
 10
-17.6936
 20
36.4028
 11
-17.5164
 21
36.3757
  0
LINE
  8
0
 10
-17.5164
 20
36.3757
 11
-17.3495
 21
36.3361
  0
LINE
  8
0
 10
-17.3495
 20
36.3361
 11
-17.1927
 21
36.2842
  0
LINE
  8
0
 10
-17.1927
 20
36.2842
 11
-17.0462
 21
36.2198
  0
LINE
  8
0
 10
-17.0462
 20
36.2198
 11
-16.9098
 21
36.1431
  0
LINE
  8
0
 10
-16.9098
 20
36.1431
 11
-16.7837
 21
36.0539
  0
LINE
  8
0
 10
-16.7837
 20
36.0539
 11
-16.6677
 21
35.9524
  0
LINE
  8
0
 10
-16.6677
 20
35.9524
 11
-16.562
 21
35.8384
  0
LINE
  8
0
 10
-16.562
 20
35.8384
 11
-16.4674
 21
35.714
  0
LINE
  8
0
 10
-16.4674
 20
35.714
 11
-16.3855
 21
35.5814
  0
LINE
  8
0
 10
-16.3855
 20
35.5814
 11
-16.3161
 21
35.4406
  0
LINE
  8
0
 10
-16.3161
 20
35.4406
 11
-16.2593
 21
35.2917
  0
LINE
  8
0
 10
-16.2593
 20
35.2917
 11
-16.2152
 21
35.1346
  0
LINE
  8
0
 10
-16.2152
 20
35.1346
 11
-16.1837
 21
34.9694
  0
LINE
  8
0
 10
-16.1837
 20
34.9694
 11
-16.1648
 21
34.7961
  0
LINE
  8
0
 10
-16.1648
 20
34.7961
 11
-16.1585
 21
34.6145
  0
LINE
  8
0
 10
-16.1585
 20
34.6145
 11
-16.165
 21
34.4246
  0
LINE
  8
0
 10
-16.165
 20
34.4246
 11
-16.1844
 21
34.2453
  0
LINE
  8
0
 10
-16.1844
 20
34.2453
 11
-16.2169
 21
34.0767
  0
LINE
  8
0
 10
-16.2169
 20
34.0767
 11
-16.2624
 21
33.9189
  0
LINE
  8
0
 10
-16.2624
 20
33.9189
 11
-16.3209
 21
33.7717
  0
LINE
  8
0
 10
-16.3209
 20
33.7717
 11
-16.3924
 21
33.6353
  0
LINE
  8
0
 10
-16.3924
 20
33.6353
 11
-16.4769
 21
33.5095
  0
LINE
  8
0
 10
-16.4769
 20
33.5095
 11
-16.5744
 21
33.3945
  0
LINE
  8
0
 10
-16.5744
 20
33.3945
 11
-16.6834
 21
33.2916
  0
LINE
  8
0
 10
-16.6834
 20
33.2916
 11
-16.8029
 21
33.2025
  0
LINE
  8
0
 10
-16.8029
 20
33.2025
 11
-16.9331
 21
33.1271
  0
LINE
  8
0
 10
-16.9331
 20
33.1271
 11
-17.0738
 21
33.0654
  0
LINE
  8
0
 10
-17.0738
 20
33.0654
 11
-17.225
 21
33.0174
  0
LINE
  8
0
 10
-17.225
 20
33.0174
 11
-17.3868
 21
32.9832
  0
LINE
  8
0
 10
-17.3868
 20
32.9832
 11
-17.5592
 21
32.9626
  0
LINE
  8
0
 10
-17.5592
 20
32.9626
 11
-17.7421
 21
32.9557
  0
LINE
  8
0
 10
-17.7421
 20
32.9557
 11
-17.8795
 21
32.9597
  0
LINE
  8
0
 10
-17.8795
 20
32.9597
 11
-18.0132
 21
32.9717
  0
LINE
  8
0
 10
-18.0132
 20
32.9717
 11
-18.1433
 21
32.9916
  0
LINE
  8
0
 10
-18.1433
 20
32.9916
 11
-18.2698
 21
33.0195
  0
LINE
  8
0
 10
-18.2698
 20
33.0195
 11
-18.3927
 21
33.0554
  0
LINE
  8
0
 10
-18.3927
 20
33.0554
 11
-18.5119
 21
33.0992
  0
LINE
  8
0
 10
-18.5119
 20
33.0992
 11
-18.6275
 21
33.151
  0
LINE
  8
0
 10
-18.6275
 20
33.151
 11
-18.7395
 21
33.2108
  0
LINE
  8
0
 10
-18.7395
 20
33.2108
 11
-18.8488
 21
33.277
  0
LINE
  8
0
 10
-18.8488
 20
33.277
 11
-18.9569
 21
33.3482
  0
LINE
  8
0
 10
-18.9569
 20
33.3482
 11
-19.0639
 21
33.4243
  0
LINE
  8
0
 10
-19.0639
 20
33.4243
 11
-19.1696
 21
33.5054
  0
LINE
  8
0
 10
-19.1696
 20
33.5054
 11
-19.2742
 21
33.5913
  0
LINE
  8
0
 10
-19.2742
 20
33.5913
 11
-19.3776
 21
33.6823
  0
LINE
  8
0
 10
-19.3776
 20
33.6823
 11
-19.4798
 21
33.7781
  0
LINE
  8
0
 10
-19.4798
 20
33.7781
 11
-19.5808
 21
33.8789
  0
LINE
  8
0
 10
-19.5808
 20
33.8789
 11
-19.6812
 21
33.9837
  0
LINE
  8
0
 10
-19.6812
 20
33.9837
 11
-19.7816
 21
34.0916
  0
LINE
  8
0
 10
-19.7816
 20
34.0916
 11
-19.882
 21
34.2027
  0
LINE
  8
0
 10
-19.882
 20
34.2027
 11
-19.9824
 21
34.3169
  0
LINE
  8
0
 10
-19.9824
 20
34.3169
 11
-20.0828
 21
34.4342
  0
LINE
  8
0
 10
-20.0828
 20
34.4342
 11
-20.1832
 21
34.5547
  0
LINE
  8
0
 10
-20.1832
 20
34.5547
 11
-20.2836
 21
34.6782
  0
LINE
  8
0
 10
-20.2836
 20
34.6782
 11
-20.384
 21
34.8049
  0
LINE
  8
0
 10
-20.384
 20
34.8049
 11
-20.4855
 21
34.9333
  0
LINE
  8
0
 10
-20.4855
 20
34.9333
 11
-20.589
 21
35.062
  0
LINE
  8
0
 10
-20.589
 20
35.062
 11
-20.6947
 21
35.1911
  0
LINE
  8
0
 10
-20.6947
 20
35.1911
 11
-20.8025
 21
35.3205
  0
LINE
  8
0
 10
-20.8025
 20
35.3205
 11
-20.9124
 21
35.4502
  0
LINE
  8
0
 10
-20.9124
 20
35.4502
 11
-21.0244
 21
35.5802
  0
LINE
  8
0
 10
-21.0244
 20
35.5802
 11
-21.1386
 21
35.7106
  0
LINE
  8
0
 10
-21.1386
 20
35.7106
 11
-21.2548
 21
35.8413
  0
LINE
  8
0
 10
-21.2548
 20
35.8413
 11
-21.3738
 21
35.9712
  0
LINE
  8
0
 10
-21.3738
 20
35.9712
 11
-21.4963
 21
36.0996
  0
LINE
  8
0
 10
-21.4963
 20
36.0996
 11
-21.6222
 21
36.2265
  0
LINE
  8
0
 10
-21.6222
 20
36.2265
 11
-21.7516
 21
36.3519
  0
LINE
  8
0
 10
-21.7516
 20
36.3519
 11
-21.8844
 21
36.4758
  0
LINE
  8
0
 10
-21.8844
 20
36.4758
 11
-22.0207
 21
36.5983
  0
LINE
  8
0
 10
-22.0207
 20
36.5983
 11
-22.1604
 21
36.7192
  0
LINE
  8
0
 10
-22.1604
 20
36.7192
 11
-22.3036
 21
36.8387
  0
LINE
  8
0
 10
-22.3036
 20
36.8387
 11
-22.4512
 21
36.9549
  0
LINE
  8
0
 10
-22.4512
 20
36.9549
 11
-22.6045
 21
37.0666
  0
LINE
  8
0
 10
-22.6045
 20
37.0666
 11
-22.7633
 21
37.1738
  0
LINE
  8
0
 10
-22.7633
 20
37.1738
 11
-22.9277
 21
37.2765
  0
LINE
  8
0
 10
-22.9277
 20
37.2765
 11
-23.0976
 21
37.3746
  0
LINE
  8
0
 10
-23.0976
 20
37.3746
 11
-23.2731
 21
37.4682
  0
LINE
  8
0
 10
-23.2731
 20
37.4682
 11
-23.4541
 21
37.5573
  0
LINE
  8
0
 10
-23.4541
 20
37.5573
 11
-23.6407
 21
37.6419
  0
LINE
  8
0
 10
-23.6407
 20
37.6419
 11
-24.4611
 21
37.6419
  0
LINE
  8
0
 10
-24.4611
 20
37.6419
 11
-24.4611
 21
31.6205
  0
LINE
  8
0
 10
-24.4611
 20
31.6205
 11
-23.4732
 21
31.6205
  0
LINE
  8
0
 10
-23.4732
 20
31.6205
 11
-23.4732
 21
36.3638
  0
LINE
  8
0
 10
-21.1956
 20
24.3439
 11
-20.9029
 21
24.3813
  0
LINE
  8
0
 10
-20.9029
 20
24.3813
 11
-20.6251
 21
24.4436
  0
LINE
  8
0
 10
-20.6251
 20
24.4436
 11
-20.3621
 21
24.5309
  0
LINE
  8
0
 10
-20.3621
 20
24.5309
 11
-20.114
 21
24.643
  0
LINE
  8
0
 10
-20.114
 20
24.643
 11
-19.8808
 21
24.7801
  0
LINE
  8
0
 10
-19.8808
 20
24.7801
 11
-19.6624
 21
24.9421
  0
LINE
  8
0
 10
-19.6624
 20
24.9421
 11
-19.459
 21
25.129
  0
LINE
  8
0
 10
-19.459
 20
25.129
 11
-19.2752
 21
25.3367
  0
LINE
  8
0
 10
-19.2752
 20
25.3367
 11
-19.1159
 21
25.5614
  0
LINE
  8
0
 10
-19.1159
 20
25.5614
 11
-18.9811
 21
25.8032
  0
LINE
  8
0
 10
-18.9811
 20
25.8032
 11
-18.8708
 21
26.0621
  0
LINE
  8
0
 10
-18.8708
 20
26.0621
 11
-18.785
 21
26.3381
  0
LINE
  8
0
 10
-18.785
 20
26.3381
 11
-18.7238
 21
26.6311
  0
LINE
  8
0
 10
-18.7238
 20
26.6311
 11
-18.687
 21
26.9412
  0
LINE
  8
0
 10
-18.687
 20
26.9412
 11
-18.6748
 21
27.2684
  0
LINE
  8
0
 10
-18.6748
 20
27.2684
 11
-18.6838
 21
27.5434
  0
LINE
  8
0
 10
-18.6838
 20
27.5434
 11
-18.711
 21
27.8069
  0
LINE
  8
0
 10
-18.711
 20
27.8069
 11
-18.7564
 21
28.0589
  0
LINE
  8
0
 10
-18.7564
 20
28.0589
 11
-18.8199
 21
28.2993
  0
LINE
  8
0
 10
-18.8199
 20
28.2993
 11
-18.9015
 21
28.5283
  0
LINE
  8
0
 10
-18.9015
 20
28.5283
 11
-19.0013
 21
28.7457
  0
LINE
  8
0
 10
-19.0013
 20
28.7457
 11
-19.1192
 21
28.9517
  0
LINE
  8
0
 10
-19.1192
 20
28.9517
 11
-19.2553
 21
29.1461
  0
LINE
  8
0
 10
-19.2553
 20
29.1461
 11
-16.3736
 21
28.972
  0
LINE
  8
0
 10
-16.3736
 20
28.972
 11
-16.3736
 21
24.8606
  0
LINE
  8
0
 10
-16.3736
 20
24.8606
 11
-15.3857
 21
24.8606
  0
LINE
  8
0
 10
-15.3857
 20
24.8606
 11
-15.3857
 21
30.0302
  0
LINE
  8
0
 10
-15.3857
 20
30.0302
 11
-20.2755
 21
30.3338
  0
LINE
  8
0
 10
-20.2755
 20
30.3338
 11
-20.2755
 21
29.1975
  0
LINE
  8
0
 10
-20.2755
 20
29.1975
 11
-20.19
 21
29.0959
  0
LINE
  8
0
 10
-20.19
 20
29.0959
 11
-20.1109
 21
28.9943
  0
LINE
  8
0
 10
-20.1109
 20
28.9943
 11
-20.0383
 21
28.8927
  0
LINE
  8
0
 10
-20.0383
 20
28.8927
 11
-19.9722
 21
28.7911
  0
LINE
  8
0
 10
-19.9722
 20
28.7911
 11
-19.9125
 21
28.6895
  0
LINE
  8
0
 10
-19.9125
 20
28.6895
 11
-19.8592
 21
28.588
  0
LINE
  8
0
 10
-19.8592
 20
28.588
 11
-19.8124
 21
28.4864
  0
LINE
  8
0
 10
-19.8124
 20
28.4864
 11
-19.7721
 21
28.3848
  0
LINE
  8
0
 10
-19.7721
 20
28.3848
 11
-19.7373
 21
28.2819
  0
LINE
  8
0
 10
-19.7373
 20
28.2819
 11
-19.7071
 21
28.1771
  0
LINE
  8
0
 10
-19.7071
 20
28.1771
 11
-19.6816
 21
28.0703
  0
LINE
  8
0
 10
-19.6816
 20
28.0703
 11
-19.6607
 21
27.9615
  0
LINE
  8
0
 10
-19.6607
 20
27.9615
 11
-19.6445
 21
27.8507
  0
LINE
  8
0
 10
-19.6445
 20
27.8507
 11
-19.6329
 21
27.7379
  0
LINE
  8
0
 10
-19.6329
 20
27.7379
 11
-19.6259
 21
27.6231
  0
LINE
  8
0
 10
-19.6259
 20
27.6231
 11
-19.6236
 21
27.5063
  0
LINE
  8
0
 10
-19.6236
 20
27.5063
 11
-19.6318
 21
27.2863
  0
LINE
  8
0
 10
-19.6318
 20
27.2863
 11
-19.6565
 21
27.078
  0
LINE
  8
0
 10
-19.6565
 20
27.078
 11
-19.6976
 21
26.8812
  0
LINE
  8
0
 10
-19.6976
 20
26.8812
 11
-19.7552
 21
26.696
  0
LINE
  8
0
 10
-19.7552
 20
26.696
 11
-19.8292
 21
26.5224
  0
LINE
  8
0
 10
-19.8292
 20
26.5224
 11
-19.9196
 21
26.3604
  0
LINE
  8
0
 10
-19.9196
 20
26.3604
 11
-20.0265
 21
26.21
  0
LINE
  8
0
 10
-20.0265
 20
26.21
 11
-20.1499
 21
26.0712
  0
LINE
  8
0
 10
-20.1499
 20
26.0712
 11
-20.2865
 21
25.9463
  0
LINE
  8
0
 10
-20.2865
 20
25.9463
 11
-20.4334
 21
25.838
  0
LINE
  8
0
 10
-20.4334
 20
25.838
 11
-20.5905
 21
25.7464
  0
LINE
  8
0
 10
-20.5905
 20
25.7464
 11
-20.7578
 21
25.6715
  0
LINE
  8
0
 10
-20.7578
 20
25.6715
 11
-20.9353
 21
25.6132
  0
LINE
  8
0
 10
-20.9353
 20
25.6132
 11
-21.1229
 21
25.5715
  0
LINE
  8
0
 10
-21.1229
 20
25.5715
 11
-21.3208
 21
25.5466
  0
LINE
  8
0
 10
-21.3208
 20
25.5466
 11
-21.5289
 21
25.5382
  0
LINE
  8
0
 10
-21.5289
 20
25.5382
 11
-21.7679
 21
25.5465
  0
LINE
  8
0
 10
-21.7679
 20
25.5465
 11
-21.9937
 21
25.5713
  0
LINE
  8
0
 10
-21.9937
 20
25.5713
 11
-22.2063
 21
25.6126
  0
LINE
  8
0
 10
-22.2063
 20
25.6126
 11
-22.4059
 21
25.6705
  0
LINE
  8
0
 10
-22.4059
 20
25.6705
 11
-22.5923
 21
25.7449
  0
LINE
  8
0
 10
-22.5923
 20
25.7449
 11
-22.7655
 21
25.8359
  0
LINE
  8
0
 10
-22.7655
 20
25.8359
 11
-22.9256
 21
25.9433
  0
LINE
  8
0
 10
-22.9256
 20
25.9433
 11
-23.0725
 21
26.0674
  0
LINE
  8
0
 10
-23.0725
 20
26.0674
 11
-23.2041
 21
26.206
  0
LINE
  8
0
 10
-23.2041
 20
26.206
 11
-23.3182
 21
26.3574
  0
LINE
  8
0
 10
-23.3182
 20
26.3574
 11
-23.4147
 21
26.5215
  0
LINE
  8
0
 10
-23.4147
 20
26.5215
 11
-23.4937
 21
26.6983
  0
LINE
  8
0
 10
-23.4937
 20
26.6983
 11
-23.5551
 21
26.8879
  0
LINE
  8
0
 10
-23.5551
 20
26.8879
 11
-23.599
 21
27.0902
  0
LINE
  8
0
 10
-23.599
 20
27.0902
 11
-23.6253
 21
27.3052
  0
LINE
  8
0
 10
-23.6253
 20
27.3052
 11
-23.634
 21
27.533
  0
LINE
  8
0
 10
-23.634
 20
27.533
 11
-23.613
 21
27.8956
  0
LINE
  8
0
 10
-23.613
 20
27.8956
 11
-23.5497
 21
28.2222
  0
LINE
  8
0
 10
-23.5497
 20
28.2222
 11
-23.4443
 21
28.5127
  0
LINE
  8
0
 10
-23.4443
 20
28.5127
 11
-23.2967
 21
28.7671
  0
LINE
  8
0
 10
-23.2967
 20
28.7671
 11
-23.1069
 21
28.9854
  0
LINE
  8
0
 10
-23.1069
 20
28.9854
 11
-22.875
 21
29.1677
  0
LINE
  8
0
 10
-22.875
 20
29.1677
 11
-22.6008
 21
29.3139
  0
LINE
  8
0
 10
-22.6008
 20
29.3139
 11
-22.2845
 21
29.424
  0
LINE
  8
0
 10
-22.2845
 20
29.424
 11
-22.4197
 21
30.5984
  0
LINE
  8
0
 10
-22.4197
 20
30.5984
 11
-22.6751
 21
30.5378
  0
LINE
  8
0
 10
-22.6751
 20
30.5378
 11
-22.9149
 21
30.4593
  0
LINE
  8
0
 10
-22.9149
 20
30.4593
 11
-23.1393
 21
30.3628
  0
LINE
  8
0
 10
-23.1393
 20
30.3628
 11
-23.3481
 21
30.2484
  0
LINE
  8
0
 10
-23.3481
 20
30.2484
 11
-23.5414
 21
30.1161
  0
LINE
  8
0
 10
-23.5414
 20
30.1161
 11
-23.7191
 21
29.9658
  0
LINE
  8
0
 10
-23.7191
 20
29.9658
 11
-23.8813
 21
29.7976
  0
LINE
  8
0
 10
-23.8813
 20
29.7976
 11
-24.0281
 21
29.6115
  0
LINE
  8
0
 10
-24.0281
 20
29.6115
 11
-24.1581
 21
29.4085
  0
LINE
  8
0
 10
-24.1581
 20
29.4085
 11
-24.2708
 21
29.1902
  0
LINE
  8
0
 10
-24.2708
 20
29.1902
 11
-24.3661
 21
28.9566
  0
LINE
  8
0
 10
-24.3661
 20
28.9566
 11
-24.4442
 21
28.7076
  0
LINE
  8
0
 10
-24.4442
 20
28.7076
 11
-24.5049
 21
28.4434
  0
LINE
  8
0
 10
-24.5049
 20
28.4434
 11
-24.5482
 21
28.1638
  0
LINE
  8
0
 10
-24.5482
 20
28.1638
 11
-24.5742
 21
27.8689
  0
LINE
  8
0
 10
-24.5742
 20
27.8689
 11
-24.5829
 21
27.5587
  0
LINE
  8
0
 10
-24.5829
 20
27.5587
 11
-24.57
 21
27.1898
  0
LINE
  8
0
 10
-24.57
 20
27.1898
 11
-24.5315
 21
26.8416
  0
LINE
  8
0
 10
-24.5315
 20
26.8416
 11
-24.4673
 21
26.5141
  0
LINE
  8
0
 10
-24.4673
 20
26.5141
 11
-24.3773
 21
26.2073
  0
LINE
  8
0
 10
-24.3773
 20
26.2073
 11
-24.2617
 21
25.9212
  0
LINE
  8
0
 10
-24.2617
 20
25.9212
 11
-24.1204
 21
25.6558
  0
LINE
  8
0
 10
-24.1204
 20
25.6558
 11
-23.9533
 21
25.4111
  0
LINE
  8
0
 10
-23.9533
 20
25.4111
 11
-23.7606
 21
25.1871
  0
LINE
  8
0
 10
-23.7606
 20
25.1871
 11
-23.5453
 21
24.9865
  0
LINE
  8
0
 10
-23.5453
 20
24.9865
 11
-23.3108
 21
24.8127
  0
LINE
  8
0
 10
-23.3108
 20
24.8127
 11
-23.0573
 21
24.6657
  0
LINE
  8
0
 10
-23.0573
 20
24.6657
 11
-22.7847
 21
24.5454
  0
LINE
  8
0
 10
-22.7847
 20
24.5454
 11
-22.4929
 21
24.4518
  0
LINE
  8
0
 10
-22.4929
 20
24.4518
 11
-22.1821
 21
24.3849
  0
LINE
  8
0
 10
-22.1821
 20
24.3849
 11
-21.8522
 21
24.3448
  0
LINE
  8
0
 10
-21.8522
 20
24.3448
 11
-21.5032
 21
24.3315
  0
LINE
  8
0
 10
-21.5032
 20
24.3315
 11
-21.1956
 21
24.3439
  0
LINE
  8
0
 10
-19.4819
 20
10.2315
 11
-19.1882
 21
10.254
  0
LINE
  8
0
 10
-19.1882
 20
10.254
 11
-18.9176
 21
10.2915
  0
LINE
  8
0
 10
-18.9176
 20
10.2915
 11
-18.67
 21
10.3441
  0
LINE
  8
0
 10
-18.67
 20
10.3441
 11
-18.4455
 21
10.4117
  0
LINE
  8
0
 10
-18.4455
 20
10.4117
 11
-18.2441
 21
10.4943
  0
LINE
  8
0
 10
-18.2441
 20
10.4943
 11
-18.0658
 21
10.5919
  0
LINE
  8
0
 10
-18.0658
 20
10.5919
 11
-17.9105
 21
10.7045
  0
LINE
  8
0
 10
-17.9105
 20
10.7045
 11
-17.7756
 21
10.8337
  0
LINE
  8
0
 10
-17.7756
 20
10.8337
 11
-17.6586
 21
10.981
  0
LINE
  8
0
 10
-17.6586
 20
10.981
 11
-17.5597
 21
11.1462
  0
LINE
  8
0
 10
-17.5597
 20
11.1462
 11
-17.4787
 21
11.3296
  0
LINE
  8
0
 10
-17.4787
 20
11.3296
 11
-17.4157
 21
11.531
  0
LINE
  8
0
 10
-17.4157
 20
11.531
 11
-17.3708
 21
11.7504
  0
LINE
  8
0
 10
-17.3708
 20
11.7504
 11
-17.3438
 21
11.9879
  0
LINE
  8
0
 10
-17.3438
 20
11.9879
 11
-17.3348
 21
12.2435
  0
LINE
  8
0
 10
-17.3348
 20
12.2435
 11
-17.3396
 21
12.4225
  0
LINE
  8
0
 10
-17.3396
 20
12.4225
 11
-17.3542
 21
12.5949
  0
LINE
  8
0
 10
-17.3542
 20
12.5949
 11
-17.3784
 21
12.7604
  0
LINE
  8
0
 10
-17.3784
 20
12.7604
 11
-17.4123
 21
12.9191
  0
LINE
  8
0
 10
-17.4123
 20
12.9191
 11
-17.456
 21
13.0711
  0
LINE
  8
0
 10
-17.456
 20
13.0711
 11
-17.5093
 21
13.2163
  0
LINE
  8
0
 10
-17.5093
 20
13.2163
 11
-17.5723
 21
13.3547
  0
LINE
  8
0
 10
-17.5723
 20
13.3547
 11
-17.645
 21
13.4864
  0
LINE
  8
0
 10
-17.645
 20
13.4864
 11
-17.7288
 21
13.6122
  0
LINE
  8
0
 10
-17.7288
 20
13.6122
 11
-17.8248
 21
13.7334
  0
LINE
  8
0
 10
-17.8248
 20
13.7334
 11
-17.9333
 21
13.8498
  0
LINE
  8
0
 10
-17.9333
 20
13.8498
 11
-18.054
 21
13.9615
  0
LINE
  8
0
 10
-18.054
 20
13.9615
 11
-18.1871
 21
14.0685
  0
LINE
  8
0
 10
-18.1871
 20
14.0685
 11
-18.3326
 21
14.1707
  0
LINE
  8
0
 10
-18.3326
 20
14.1707
 11
-18.4904
 21
14.2682
  0
LINE
  8
0
 10
-18.4904
 20
14.2682
 11
-18.6605
 21
14.361
  0
LINE
  8
0
 10
-18.6605
 20
14.361
 11
-18.6605
 21
14.38
  0
LINE
  8
0
 10
-18.6605
 20
14.38
 11
-18.4934
 21
14.4296
  0
LINE
  8
0
 10
-18.4934
 20
14.4296
 11
-18.338
 21
14.488
  0
LINE
  8
0
 10
-18.338
 20
14.488
 11
-18.1943
 21
14.5551
  0
LINE
  8
0
 10
-18.1943
 20
14.5551
 11
-18.0623
 21
14.631
  0
LINE
  8
0
 10
-18.0623
 20
14.631
 11
-17.9421
 21
14.7157
  0
LINE
  8
0
 10
-17.9421
 20
14.7157
 11
-17.8336
 21
14.8092
  0
LINE
  8
0
 10
-17.8336
 20
14.8092
 11
-17.7368
 21
14.9114
  0
LINE
  8
0
 10
-17.7368
 20
14.9114
 11
-17.6517
 21
15.0224
  0
LINE
  8
0
 10
-17.6517
 20
15.0224
 11
-17.5774
 21
15.1428
  0
LINE
  8
0
 10
-17.5774
 20
15.1428
 11
-17.513
 21
15.2735
  0
LINE
  8
0
 10
-17.513
 20
15.2735
 11
-17.4586
 21
15.4147
  0
LINE
  8
0
 10
-17.4586
 20
15.4147
 11
-17.414
 21
15.5663
  0
LINE
  8
0
 10
-17.414
 20
15.5663
 11
-17.3793
 21
15.7283
  0
LINE
  8
0
 10
-17.3793
 20
15.7283
 11
-17.3546
 21
15.9007
  0
LINE
  8
0
 10
-17.3546
 20
15.9007
 11
-17.3397
 21
16.0835
  0
LINE
  8
0
 10
-17.3397
 20
16.0835
 11
-17.3348
 21
16.2767
  0
LINE
  8
0
 10
-17.3348
 20
16.2767
 11
-17.3393
 21
16.4478
  0
LINE
  8
0
 10
-17.3393
 20
16.4478
 11
-17.353
 21
16.6122
  0
LINE
  8
0
 10
-17.353
 20
16.6122
 11
-17.3757
 21
16.77
  0
LINE
  8
0
 10
-17.3757
 20
16.77
 11
-17.4076
 21
16.921
  0
LINE
  8
0
 10
-17.4076
 20
16.921
 11
-17.4485
 21
17.0655
  0
LINE
  8
0
 10
-17.4485
 20
17.0655
 11
-17.4986
 21
17.2032
  0
LINE
  8
0
 10
-17.4986
 20
17.2032
 11
-17.5577
 21
17.3343
  0
LINE
  8
0
 10
-17.5577
 20
17.3343
 11
-17.626
 21
17.4588
  0
LINE
  8
0
 10
-17.626
 20
17.4588
 11
-17.7059
 21
17.5779
  0
LINE
  8
0
 10
-17.7059
 20
17.5779
 11
-17.7999
 21
17.6936
  0
LINE
  8
0
 10
-17.7999
 20
17.6936
 11
-17.908
 21
17.806
  0
LINE
  8
0
 10
-17.908
 20
17.806
 11
-18.0302
 21
17.9149
  0
LINE
  8
0
 10
-18.0302
 20
17.9149
 11
-18.1666
 21
18.0203
  0
LINE
  8
0
 10
-18.1666
 20
18.0203
 11
-18.3171
 21
18.1224
  0
LINE
  8
0
 10
-18.3171
 20
18.1224
 11
-18.4817
 21
18.221
  0
LINE
  8
0
 10
-18.4817
 20
18.221
 11
-18.6605
 21
18.3162
  0
LINE
  8
0
 10
-18.6605
 20
18.3162
 11
-18.6605
 21
18.3353
  0
LINE
  8
0
 10
-18.6605
 20
18.3353
 11
-18.5371
 21
18.3385
  0
LINE
  8
0
 10
-18.5371
 20
18.3385
 11
-18.424
 21
18.3417
  0
LINE
  8
0
 10
-18.424
 20
18.3417
 11
-18.3212
 21
18.3447
  0
LINE
  8
0
 10
-18.3212
 20
18.3447
 11
-18.2287
 21
18.3476
  0
LINE
  8
0
 10
-18.2287
 20
18.3476
 11
-18.1463
 21
18.3504
  0
LINE
  8
0
 10
-18.1463
 20
18.3504
 11
-18.0743
 21
18.3531
  0
LINE
  8
0
 10
-18.0743
 20
18.3531
 11
-18.0125
 21
18.3557
  0
LINE
  8
0
 10
-18.0125
 20
18.3557
 11
-17.961
 21
18.3581
  0
LINE
  8
0
 10
-17.961
 20
18.3581
 11
-17.8278
 21
18.3649
  0
LINE
  8
0
 10
-17.8278
 20
18.3649
 11
-17.7457
 21
18.3689
  0
LINE
  8
0
 10
-17.7457
 20
18.3689
 11
-17.5985
 21
18.3759
  0
LINE
  8
0
 10
-17.5985
 20
18.3759
 11
-17.5677
 21
18.3776
  0
LINE
  8
0
 10
-17.5677
 20
18.3776
 11
-17.5405
 21
18.3793
  0
LINE
  8
0
 10
-17.5405
 20
18.3793
 11
-17.5168
 21
18.381
  0
LINE
  8
0
 10
-17.5168
 20
18.381
 11
-17.4965
 21
18.3826
  0
LINE
  8
0
 10
-17.4965
 20
18.3826
 11
-17.4797
 21
18.3843
  0
LINE
  8
0
 10
-17.4797
 20
18.3843
 11
-17.4664
 21
18.386
  0
LINE
  8
0
 10
-17.4664
 20
18.386
 11
-17.4566
 21
18.3876
  0
LINE
  8
0
 10
-17.4566
 20
18.3876
 11
-17.4566
 21
19.4849
  0
LINE
  8
0
 10
-17.4566
 20
19.4849
 11
-17.5395
 21
19.4758
  0
LINE
  8
0
 10
-17.5395
 20
19.4758
 11
-17.6521
 21
19.4679
  0
LINE
  8
0
 10
-17.6521
 20
19.4679
 11
-17.7944
 21
19.4612
  0
LINE
  8
0
 10
-17.7944
 20
19.4612
 11
-17.9664
 21
19.4557
  0
LINE
  8
0
 10
-17.9664
 20
19.4557
 11
-18.1682
 21
19.4514
  0
LINE
  8
0
 10
-18.1682
 20
19.4514
 11
-18.3997
 21
19.4483
  0
LINE
  8
0
 10
-18.3997
 20
19.4483
 11
-18.6608
 21
19.4465
  0
LINE
  8
0
 10
-18.6608
 20
19.4465
 11
-18.9517
 21
19.4459
  0
LINE
  8
0
 10
-18.9517
 20
19.4459
 11
-24.4611
 21
19.4459
  0
LINE
  8
0
 10
-24.4611
 20
19.4459
 11
-24.4611
 21
18.2905
  0
LINE
  8
0
 10
-24.4611
 20
18.2905
 11
-20.4059
 21
18.2905
  0
LINE
  8
0
 10
-20.4059
 20
18.2905
 11
-20.1543
 21
18.2838
  0
LINE
  8
0
 10
-20.1543
 20
18.2838
 11
-19.9173
 21
18.2635
  0
LINE
  8
0
 10
-19.9173
 20
18.2635
 11
-19.6949
 21
18.2298
  0
LINE
  8
0
 10
-19.6949
 20
18.2298
 11
-19.487
 21
18.1825
  0
LINE
  8
0
 10
-19.487
 20
18.1825
 11
-19.2938
 21
18.1218
  0
LINE
  8
0
 10
-19.2938
 20
18.1218
 11
-19.115
 21
18.0475
  0
LINE
  8
0
 10
-19.115
 20
18.0475
 11
-18.9509
 21
17.9597
  0
LINE
  8
0
 10
-18.9509
 20
17.9597
 11
-18.8013
 21
17.8585
  0
LINE
  8
0
 10
-18.8013
 20
17.8585
 11
-18.668
 21
17.7454
  0
LINE
  8
0
 10
-18.668
 20
17.7454
 11
-18.5524
 21
17.6227
  0
LINE
  8
0
 10
-18.5524
 20
17.6227
 11
-18.4545
 21
17.4903
  0
LINE
  8
0
 10
-18.4545
 20
17.4903
 11
-18.3745
 21
17.3484
  0
LINE
  8
0
 10
-18.3745
 20
17.3484
 11
-18.3123
 21
17.1967
  0
LINE
  8
0
 10
-18.3123
 20
17.1967
 11
-18.2678
 21
17.0355
  0
LINE
  8
0
 10
-18.2678
 20
17.0355
 11
-18.2411
 21
16.8646
  0
LINE
  8
0
 10
-18.2411
 20
16.8646
 11
-18.2322
 21
16.6841
  0
LINE
  8
0
 10
-18.2322
 20
16.6841
 11
-18.2383
 21
16.5102
  0
LINE
  8
0
 10
-18.2383
 20
16.5102
 11
-18.2565
 21
16.3503
  0
LINE
  8
0
 10
-18.2565
 20
16.3503
 11
-18.2868
 21
16.2044
  0
LINE
  8
0
 10
-18.2868
 20
16.2044
 11
-18.3293
 21
16.0724
  0
LINE
  8
0
 10
-18.3293
 20
16.0724
 11
-18.3839
 21
15.9543
  0
LINE
  8
0
 10
-18.3839
 20
15.9543
 11
-18.4506
 21
15.8502
  0
LINE
  8
0
 10
-18.4506
 20
15.8502
 11
-18.5295
 21
15.7601
  0
LINE
  8
0
 10
-18.5295
 20
15.7601
 11
-18.6205
 21
15.6838
  0
LINE
  8
0
 10
-18.6205
 20
15.6838
 11
-18.7274
 21
15.6187
  0
LINE
  8
0
 10
-18.7274
 20
15.6187
 11
-18.8539
 21
15.5623
  0
LINE
  8
0
 10
-18.8539
 20
15.5623
 11
-18.9999
 21
15.5145
  0
LINE
  8
0
 10
-18.9999
 20
15.5145
 11
-19.1656
 21
15.4754
  0
LINE
  8
0
 10
-19.1656
 20
15.4754
 11
-19.3509
 21
15.445
  0
LINE
  8
0
 10
-19.3509
 20
15.445
 11
-19.5557
 21
15.4233
  0
LINE
  8
0
 10
-19.5557
 20
15.4233
 11
-19.7802
 21
15.4103
  0
LINE
  8
0
 10
-19.7802
 20
15.4103
 11
-20.0243
 21
15.4059
  0
LINE
  8
0
 10
-20.0243
 20
15.4059
 11
-24.4611
 21
15.4059
  0
LINE
  8
0
 10
-24.4611
 20
15.4059
 11
-24.4611
 21
14.2572
  0
LINE
  8
0
 10
-24.4611
 20
14.2572
 11
-20.4059
 21
14.2572
  0
LINE
  8
0
 10
-20.4059
 20
14.2572
 11
-20.1528
 21
14.2506
  0
LINE
  8
0
 10
-20.1528
 20
14.2506
 11
-19.9146
 21
14.2308
  0
LINE
  8
0
 10
-19.9146
 20
14.2308
 11
-19.6914
 21
14.1978
  0
LINE
  8
0
 10
-19.6914
 20
14.1978
 11
-19.483
 21
14.1516
  0
LINE
  8
0
 10
-19.483
 20
14.1516
 11
-19.2895
 21
14.0922
  0
LINE
  8
0
 10
-19.2895
 20
14.0922
 11
-19.1109
 21
14.0195
  0
LINE
  8
0
 10
-19.1109
 20
14.0195
 11
-18.9473
 21
13.9337
  0
LINE
  8
0
 10
-18.9473
 20
13.9337
 11
-18.7985
 21
13.8347
  0
LINE
  8
0
 10
-18.7985
 20
13.8347
 11
-18.6658
 21
13.7238
  0
LINE
  8
0
 10
-18.6658
 20
13.7238
 11
-18.5507
 21
13.6022
  0
LINE
  8
0
 10
-18.5507
 20
13.6022
 11
-18.4534
 21
13.4701
  0
LINE
  8
0
 10
-18.4534
 20
13.4701
 11
-18.3738
 21
13.3274
  0
LINE
  8
0
 10
-18.3738
 20
13.3274
 11
-18.3118
 21
13.1741
  0
LINE
  8
0
 10
-18.3118
 20
13.1741
 11
-18.2676
 21
13.0103
  0
LINE
  8
0
 10
-18.2676
 20
13.0103
 11
-18.2411
 21
12.8358
  0
LINE
  8
0
 10
-18.2411
 20
12.8358
 11
-18.2322
 21
12.6508
  0
LINE
  8
0
 10
-18.2322
 20
12.6508
 11
-18.2383
 21
12.4769
  0
LINE
  8
0
 10
-18.2383
 20
12.4769
 11
-18.2565
 21
12.317
  0
LINE
  8
0
 10
-18.2565
 20
12.317
 11
-18.2868
 21
12.1711
  0
LINE
  8
0
 10
-18.2868
 20
12.1711
 11
-18.3293
 21
12.0391
  0
LINE
  8
0
 10
-18.3293
 20
12.0391
 11
-18.3839
 21
11.921
  0
LINE
  8
0
 10
-18.3839
 20
11.921
 11
-18.4506
 21
11.8169
  0
LINE
  8
0
 10
-18.4506
 20
11.8169
 11
-18.5295
 21
11.7267
  0
LINE
  8
0
 10
-18.5295
 20
11.7267
 11
-18.6205
 21
11.6505
  0
LINE
  8
0
 10
-18.6205
 20
11.6505
 11
-18.7274
 21
11.5854
  0
LINE
  8
0
 10
-18.7274
 20
11.5854
 11
-18.8539
 21
11.529
  0
LINE
  8
0
 10
-18.8539
 20
11.529
 11
-18.9999
 21
11.4812
  0
LINE
  8
0
 10
-18.9999
 20
11.4812
 11
-19.1656
 21
11.4421
  0
LINE
  8
0
 10
-19.1656
 20
11.4421
 11
-19.3509
 21
11.4117
  0
LINE
  8
0
 10
-19.3509
 20
11.4117
 11
-19.5557
 21
11.39
  0
LINE
  8
0
 10
-19.5557
 20
11.39
 11
-19.7802
 21
11.377
  0
LINE
  8
0
 10
-19.7802
 20
11.377
 11
-20.0243
 21
11.3726
  0
LINE
  8
0
 10
-20.0243
 20
11.3726
 11
-24.4611
 21
11.3726
  0
LINE
  8
0
 10
-24.4611
 20
11.3726
 11
-24.4611
 21
10.2239
  0
LINE
  8
0
 10
-24.4611
 20
10.2239
 11
-19.7987
 21
10.2239
  0
LINE
  8
0
 10
-19.7987
 20
10.2239
 11
-19.4819
 21
10.2315
  0
LINE
  8
0
 10
-19.4819
 20
-0.521622
 11
-19.1882
 21
-0.499084
  0
LINE
  8
0
 10
-19.1882
 20
-0.499084
 11
-18.9176
 21
-0.461533
  0
LINE
  8
0
 10
-18.9176
 20
-0.461533
 11
-18.67
 21
-0.408981
  0
LINE
  8
0
 10
-18.67
 20
-0.408981
 11
-18.4455
 21
-0.3414
  0
LINE
  8
0
 10
-18.4455
 20
-0.3414
 11
-18.2441
 21
-0.258789
  0
LINE
  8
0
 10
-18.2441
 20
-0.258789
 11
-18.0658
 21
-0.161163
  0
LINE
  8
0
 10
-18.0658
 20
-0.161163
 11
-17.9105
 21
-0.0485229
  0
LINE
  8
0
 10
-17.9105
 20
-0.0485229
 11
-17.7756
 21
0.0806427
  0
LINE
  8
0
 10
-17.7756
 20
0.0806427
 11
-17.6586
 21
0.227875
  0
LINE
  8
0
 10
-17.6586
 20
0.227875
 11
-17.5597
 21
0.393158
  0
LINE
  8
0
 10
-17.5597
 20
0.393158
 11
-17.4787
 21
0.576492
  0
LINE
  8
0
 10
-17.4787
 20
0.576492
 11
-17.4157
 21
0.777878
  0
LINE
  8
0
 10
-17.4157
 20
0.777878
 11
-17.3708
 21
0.997314
  0
LINE
  8
0
 10
-17.3708
 20
0.997314
 11
-17.3438
 21
1.2348
  0
LINE
  8
0
 10
-17.3438
 20
1.2348
 11
-17.3348
 21
1.49036
  0
LINE
  8
0
 10
-17.3348
 20
1.49036
 11
-17.3396
 21
1.66946
  0
LINE
  8
0
 10
-17.3396
 20
1.66946
 11
-17.3542
 21
1.84178
  0
LINE
  8
0
 10
-17.3542
 20
1.84178
 11
-17.3784
 21
2.00731
  0
LINE
  8
0
 10
-17.3784
 20
2.00731
 11
-17.4123
 21
2.16606
  0
LINE
  8
0
 10
-17.4123
 20
2.16606
 11
-17.456
 21
2.31804
  0
LINE
  8
0
 10
-17.456
 20
2.31804
 11
-17.5093
 21
2.46324
  0
LINE
  8
0
 10
-17.5093
 20
2.46324
 11
-17.5723
 21
2.60164
  0
LINE
  8
0
 10
-17.5723
 20
2.60164
 11
-17.645
 21
2.73328
  0
LINE
  8
0
 10
-17.645
 20
2.73328
 11
-17.7288
 21
2.85916
  0
LINE
  8
0
 10
-17.7288
 20
2.85916
 11
-17.8248
 21
2.98032
  0
LINE
  8
0
 10
-17.8248
 20
2.98032
 11
-17.9333
 21
3.09671
  0
LINE
  8
0
 10
-17.9333
 20
3.09671
 11
-18.054
 21
3.20842
  0
LINE
  8
0
 10
-18.054
 20
3.20842
 11
-18.1871
 21
3.31537
  0
LINE
  8
0
 10
-18.1871
 20
3.31537
 11
-18.3326
 21
3.4176
  0
LINE
  8
0
 10
-18.3326
 20
3.4176
 11
-18.4904
 21
3.51512
  0
LINE
  8
0
 10
-18.4904
 20
3.51512
 11
-18.6605
 21
3.60788
  0
LINE
  8
0
 10
-18.6605
 20
3.60788
 11
-18.6605
 21
3.62692
  0
LINE
  8
0
 10
-18.6605
 20
3.62692
 11
-18.4934
 21
3.67651
  0
LINE
  8
0
 10
-18.4934
 20
3.67651
 11
-18.338
 21
3.73488
  0
LINE
  8
0
 10
-18.338
 20
3.73488
 11
-18.1943
 21
3.80203
  0
LINE
  8
0
 10
-18.1943
 20
3.80203
 11
-18.0623
 21
3.87793
  0
LINE
  8
0
 10
-18.0623
 20
3.87793
 11
-17.9421
 21
3.96262
  0
LINE
  8
0
 10
-17.9421
 20
3.96262
 11
-17.8336
 21
4.05609
  0
LINE
  8
0
 10
-17.8336
 20
4.05609
 11
-17.7368
 21
4.15833
  0
LINE
  8
0
 10
-17.7368
 20
4.15833
 11
-17.6517
 21
4.26932
  0
LINE
  8
0
 10
-17.6517
 20
4.26932
 11
-17.5774
 21
4.38968
  0
LINE
  8
0
 10
-17.5774
 20
4.38968
 11
-17.513
 21
4.52045
  0
LINE
  8
0
 10
-17.513
 20
4.52045
 11
-17.4586
 21
4.66162
  0
LINE
  8
0
 10
-17.4586
 20
4.66162
 11
-17.414
 21
4.81322
  0
LINE
  8
0
 10
-17.414
 20
4.81322
 11
-17.3793
 21
4.9752
  0
LINE
  8
0
 10
-17.3793
 20
4.9752
 11
-17.3546
 21
5.14763
  0
LINE
  8
0
 10
-17.3546
 20
5.14763
 11
-17.3397
 21
5.33044
  0
LINE
  8
0
 10
-17.3397
 20
5.33044
 11
-17.3348
 21
5.52365
  0
LINE
  8
0
 10
-17.3348
 20
5.52365
 11
-17.3393
 21
5.69473
  0
LINE
  8
0
 10
-17.3393
 20
5.69473
 11
-17.353
 21
5.85913
  0
LINE
  8
0
 10
-17.353
 20
5.85913
 11
-17.3757
 21
6.01688
  0
LINE
  8
0
 10
-17.3757
 20
6.01688
 11
-17.4076
 21
6.16795
  0
LINE
  8
0
 10
-17.4076
 20
6.16795
 11
-17.4485
 21
6.31238
  0
LINE
  8
0
 10
-17.4485
 20
6.31238
 11
-17.4986
 21
6.45015
  0
LINE
  8
0
 10
-17.4986
 20
6.45015
 11
-17.5577
 21
6.58124
  0
LINE
  8
0
 10
-17.5577
 20
6.58124
 11
-17.626
 21
6.70567
  0
LINE
  8
0
 10
-17.626
 20
6.70567
 11
-17.7059
 21
6.82481
  0
LINE
  8
0
 10
-17.7059
 20
6.82481
 11
-17.7999
 21
6.94055
  0
LINE
  8
0
 10
-17.7999
 20
6.94055
 11
-17.908
 21
7.05289
  0
LINE
  8
0
 10
-17.908
 20
7.05289
 11
-18.0302
 21
7.16177
  0
LINE
  8
0
 10
-18.0302
 20
7.16177
 11
-18.1666
 21
7.26726
  0
LINE
  8
0
 10
-18.1666
 20
7.26726
 11
-18.3171
 21
7.36929
  0
LINE
  8
0
 10
-18.3171
 20
7.36929
 11
-18.4817
 21
7.46793
  0
LINE
  8
0
 10
-18.4817
 20
7.46793
 11
-18.6605
 21
7.56316
  0
LINE
  8
0
 10
-18.6605
 20
7.56316
 11
-18.6605
 21
7.58218
  0
LINE
  8
0
 10
-18.6605
 20
7.58218
 11
-18.5371
 21
7.58546
  0
LINE
  8
0
 10
-18.5371
 20
7.58546
 11
-18.424
 21
7.58861
  0
LINE
  8
0
 10
-18.424
 20
7.58861
 11
-18.3212
 21
7.59164
  0
LINE
  8
0
 10
-18.3212
 20
7.59164
 11
-18.2287
 21
7.59456
  0
LINE
  8
0
 10
-18.2287
 20
7.59456
 11
-18.1463
 21
7.59735
  0
LINE
  8
0
 10
-18.1463
 20
7.59735
 11
-18.0743
 21
7.60004
  0
LINE
  8
0
 10
-18.0743
 20
7.60004
 11
-18.0125
 21
7.6026
  0
LINE
  8
0
 10
-18.0125
 20
7.6026
 11
-17.961
 21
7.60503
  0
LINE
  8
0
 10
-17.961
 20
7.60503
 11
-17.8278
 21
7.61177
  0
LINE
  8
0
 10
-17.8278
 20
7.61177
 11
-17.7457
 21
7.61581
  0
LINE
  8
0
 10
-17.7457
 20
7.61581
 11
-17.5985
 21
7.62286
  0
LINE
  8
0
 10
-17.5985
 20
7.62286
 11
-17.5677
 21
7.62454
  0
LINE
  8
0
 10
-17.5677
 20
7.62454
 11
-17.5405
 21
7.62621
  0
LINE
  8
0
 10
-17.5405
 20
7.62621
 11
-17.5168
 21
7.62787
  0
LINE
  8
0
 10
-17.5168
 20
7.62787
 11
-17.4965
 21
7.62953
  0
LINE
  8
0
 10
-17.4965
 20
7.62953
 11
-17.4797
 21
7.6312
  0
LINE
  8
0
 10
-17.4797
 20
7.6312
 11
-17.4664
 21
7.63287
  0
LINE
  8
0
 10
-17.4664
 20
7.63287
 11
-17.4566
 21
7.63452
  0
LINE
  8
0
 10
-17.4566
 20
7.63452
 11
-17.4566
 21
8.73184
  0
LINE
  8
0
 10
-17.4566
 20
8.73184
 11
-17.5395
 21
8.7227
  0
LINE
  8
0
 10
-17.5395
 20
8.7227
 11
-17.6521
 21
8.71477
  0
LINE
  8
0
 10
-17.6521
 20
8.71477
 11
-17.7944
 21
8.70807
  0
LINE
  8
0
 10
-17.7944
 20
8.70807
 11
-17.9664
 21
8.70258
  0
LINE
  8
0
 10
-17.9664
 20
8.70258
 11
-18.1682
 21
8.6983
  0
LINE
  8
0
 10
-18.1682
 20
8.6983
 11
-18.3997
 21
8.69525
  0
LINE
  8
0
 10
-18.3997
 20
8.69525
 11
-18.6608
 21
8.69342
  0
LINE
  8
0
 10
-18.6608
 20
8.69342
 11
-18.9517
 21
8.69281
  0
LINE
  8
0
 10
-18.9517
 20
8.69281
 11
-24.4611
 21
8.69281
  0
LINE
  8
0
 10
-24.4611
 20
8.69281
 11
-24.4611
 21
7.53746
  0
LINE
  8
0
 10
-24.4611
 20
7.53746
 11
-20.4059
 21
7.53746
  0
LINE
  8
0
 10
-20.4059
 20
7.53746
 11
-20.1543
 21
7.53072
  0
LINE
  8
0
 10
-20.1543
 20
7.53072
 11
-19.9173
 21
7.51045
  0
LINE
  8
0
 10
-19.9173
 20
7.51045
 11
-19.6949
 21
7.4767
  0
LINE
  8
0
 10
-19.6949
 20
7.4767
 11
-19.487
 21
7.42943
  0
LINE
  8
0
 10
-19.487
 20
7.42943
 11
-19.2938
 21
7.36868
  0
LINE
  8
0
 10
-19.2938
 20
7.36868
 11
-19.115
 21
7.29442
  0
LINE
  8
0
 10
-19.115
 20
7.29442
 11
-18.9509
 21
7.20665
  0
LINE
  8
0
 10
-18.9509
 20
7.20665
 11
-18.8013
 21
7.10538
  0
LINE
  8
0
 10
-18.8013
 20
7.10538
 11
-18.668
 21
6.99231
  0
LINE
  8
0
 10
-18.668
 20
6.99231
 11
-18.5524
 21
6.8696
  0
LINE
  8
0
 10
-18.5524
 20
6.8696
 11
-18.4545
 21
6.73726
  0
LINE
  8
0
 10
-18.4545
 20
6.73726
 11
-18.3745
 21
6.59528
  0
LINE
  8
0
 10
-18.3745
 20
6.59528
 11
-18.3123
 21
6.44365
  0
LINE
  8
0
 10
-18.3123
 20
6.44365
 11
-18.2678
 21
6.28241
  0
LINE
  8
0
 10
-18.2678
 20
6.28241
 11
-18.2411
 21
6.11151
  0
LINE
  8
0
 10
-18.2411
 20
6.11151
 11
-18.2322
 21
5.93098
  0
LINE
  8
0
 10
-18.2322
 20
5.93098
 11
-18.2383
 21
5.75714
  0
LINE
  8
0
 10
-18.2383
 20
5.75714
 11
-18.2565
 21
5.59724
  0
LINE
  8
0
 10
-18.2565
 20
5.59724
 11
-18.2868
 21
5.45129
  0
LINE
  8
0
 10
-18.2868
 20
5.45129
 11
-18.3293
 21
5.31929
  0
LINE
  8
0
 10
-18.3293
 20
5.31929
 11
-18.3839
 21
5.20123
  0
LINE
  8
0
 10
-18.3839
 20
5.20123
 11
-18.4506
 21
5.09712
  0
LINE
  8
0
 10
-18.4506
 20
5.09712
 11
-18.5295
 21
5.00697
  0
LINE
  8
0
 10
-18.5295
 20
5.00697
 11
-18.6205
 21
4.93076
  0
LINE
  8
0
 10
-18.6205
 20
4.93076
 11
-18.7274
 21
4.86562
  0
LINE
  8
0
 10
-18.7274
 20
4.86562
 11
-18.8539
 21
4.80917
  0
LINE
  8
0
 10
-18.8539
 20
4.80917
 11
-18.9999
 21
4.76141
  0
LINE
  8
0
 10
-18.9999
 20
4.76141
 11
-19.1656
 21
4.72234
  0
LINE
  8
0
 10
-19.1656
 20
4.72234
 11
-19.3509
 21
4.69194
  0
LINE
  8
0
 10
-19.3509
 20
4.69194
 11
-19.5557
 21
4.67023
  0
LINE
  8
0
 10
-19.5557
 20
4.67023
 11
-19.7802
 21
4.6572
  0
LINE
  8
0
 10
-19.7802
 20
4.6572
 11
-20.0243
 21
4.65286
  0
LINE
  8
0
 10
-20.0243
 20
4.65286
 11
-24.4611
 21
4.65286
  0
LINE
  8
0
 10
-24.4611
 20
4.65286
 11
-24.4611
 21
3.50415
  0
LINE
  8
0
 10
-24.4611
 20
3.50415
 11
-20.4059
 21
3.50415
  0
LINE
  8
0
 10
-20.4059
 20
3.50415
 11
-20.1528
 21
3.49754
  0
LINE
  8
0
 10
-20.1528
 20
3.49754
 11
-19.9146
 21
3.47774
  0
LINE
  8
0
 10
-19.9146
 20
3.47774
 11
-19.6914
 21
3.44473
  0
LINE
  8
0
 10
-19.6914
 20
3.44473
 11
-19.483
 21
3.39853
  0
LINE
  8
0
 10
-19.483
 20
3.39853
 11
-19.2895
 21
3.3391
  0
LINE
  8
0
 10
-19.2895
 20
3.3391
 11
-19.1109
 21
3.26646
  0
LINE
  8
0
 10
-19.1109
 20
3.26646
 11
-18.9473
 21
3.18063
  0
LINE
  8
0
 10
-18.9473
 20
3.18063
 11
-18.7985
 21
3.0816
  0
LINE
  8
0
 10
-18.7985
 20
3.0816
 11
-18.6658
 21
2.97067
  0
LINE
  8
0
 10
-18.6658
 20
2.97067
 11
-18.5507
 21
2.84915
  0
LINE
  8
0
 10
-18.5507
 20
2.84915
 11
-18.4534
 21
2.71704
  0
LINE
  8
0
 10
-18.4534
 20
2.71704
 11
-18.3738
 21
2.57434
  0
LINE
  8
0
 10
-18.3738
 20
2.57434
 11
-18.3118
 21
2.42107
  0
LINE
  8
0
 10
-18.3118
 20
2.42107
 11
-18.2676
 21
2.2572
  0
LINE
  8
0
 10
-18.2676
 20
2.2572
 11
-18.2411
 21
2.08273
  0
LINE
  8
0
 10
-18.2411
 20
2.08273
 11
-18.2322
 21
1.89769
  0
LINE
  8
0
 10
-18.2322
 20
1.89769
 11
-18.2383
 21
1.72385
  0
LINE
  8
0
 10
-18.2383
 20
1.72385
 11
-18.2565
 21
1.56395
  0
LINE
  8
0
 10
-18.2565
 20
1.56395
 11
-18.2868
 21
1.41798
  0
LINE
  8
0
 10
-18.2868
 20
1.41798
 11
-18.3293
 21
1.28598
  0
LINE
  8
0
 10
-18.3293
 20
1.28598
 11
-18.3839
 21
1.16792
  0
LINE
  8
0
 10
-18.3839
 20
1.16792
 11
-18.4506
 21
1.06381
  0
LINE
  8
0
 10
-18.4506
 20
1.06381
 11
-18.5295
 21
0.973663
  0
LINE
  8
0
 10
-18.5295
 20
0.973663
 11
-18.6205
 21
0.897446
  0
LINE
  8
0
 10
-18.6205
 20
0.897446
 11
-18.7274
 21
0.832321
  0
LINE
  8
0
 10
-18.7274
 20
0.832321
 11
-18.8539
 21
0.775879
  0
LINE
  8
0
 10
-18.8539
 20
0.775879
 11
-18.9999
 21
0.728119
  0
LINE
  8
0
 10
-18.9999
 20
0.728119
 11
-19.1656
 21
0.689041
  0
LINE
  8
0
 10
-19.1656
 20
0.689041
 11
-19.3509
 21
0.658646
  0
LINE
  8
0
 10
-19.3509
 20
0.658646
 11
-19.5557
 21
0.636917
  0
LINE
  8
0
 10
-19.5557
 20
0.636917
 11
-19.7802
 21
0.623886
  0
LINE
  8
0
 10
-19.7802
 20
0.623886
 11
-20.0243
 21
0.619553
  0
LINE
  8
0
 10
-20.0243
 20
0.619553
 11
-24.4611
 21
0.619553
  0
LINE
  8
0
 10
-24.4611
 20
0.619553
 11
-24.4611
 21
-0.529144
  0
LINE
  8
0
 10
-24.4611
 20
-0.529144
 11
-19.7987
 21
-0.529144
  0
LINE
  8
0
 10
-19.7987
 20
-0.529144
 11
-19.4819
 21
-0.521622
  0
LINE
  8
0
 10
214.027
 20
-31.2329
 11
214.904
 21
-31.0941
  0
LINE
  8
0
 10
214.904
 20
-31.0941
 11
215.722
 21
-30.8628
  0
LINE
  8
0
 10
215.722
 20
-30.8628
 11
216.481
 21
-30.539
  0
LINE
  8
0
 10
216.481
 20
-30.539
 11
217.181
 21
-30.1227
  0
LINE
  8
0
 10
217.181
 20
-30.1227
 11
217.822
 21
-29.6138
  0
LINE
  8
0
 10
217.822
 20
-29.6138
 11
218.405
 21
-29.0125
  0
LINE
  8
0
 10
218.405
 20
-29.0125
 11
218.928
 21
-28.3186
  0
LINE
  8
0
 10
218.928
 20
-28.3186
 11
219.392
 21
-27.5363
  0
LINE
  8
0
 10
219.392
 20
-27.5363
 11
219.793
 21
-26.6711
  0
LINE
  8
0
 10
219.793
 20
-26.6711
 11
220.133
 21
-25.7228
  0
LINE
  8
0
 10
220.133
 20
-25.7228
 11
220.411
 21
-24.6915
  0
LINE
  8
0
 10
220.411
 20
-24.6915
 11
220.627
 21
-23.5773
  0
LINE
  8
0
 10
220.627
 20
-23.5773
 11
220.782
 21
-22.38
  0
LINE
  8
0
 10
220.782
 20
-22.38
 11
220.874
 21
-21.0998
  0
LINE
  8
0
 10
220.874
 20
-21.0998
 11
220.905
 21
-19.7365
  0
LINE
  8
0
 10
220.905
 20
-19.7365
 11
220.876
 21
-18.3515
  0
LINE
  8
0
 10
220.876
 20
-18.3515
 11
220.787
 21
-17.054
  0
LINE
  8
0
 10
220.787
 20
-17.054
 11
220.64
 21
-15.8441
  0
LINE
  8
0
 10
220.64
 20
-15.8441
 11
220.434
 21
-14.7217
  0
LINE
  8
0
 10
220.434
 20
-14.7217
 11
220.17
 21
-13.6868
  0
LINE
  8
0
 10
220.17
 20
-13.6868
 11
219.846
 21
-12.7395
  0
LINE
  8
0
 10
219.846
 20
-12.7395
 11
219.463
 21
-11.8798
  0
LINE
  8
0
 10
219.463
 20
-11.8798
 11
219.022
 21
-11.1076
  0
LINE
  8
0
 10
219.022
 20
-11.1076
 11
218.519
 21
-10.4247
  0
LINE
  8
0
 10
218.519
 20
-10.4247
 11
217.952
 21
-9.83279
  0
LINE
  8
0
 10
217.952
 20
-9.83279
 11
217.32
 21
-9.332
  0
LINE
  8
0
 10
217.32
 20
-9.332
 11
216.623
 21
-8.92224
  0
LINE
  8
0
 10
216.623
 20
-8.92224
 11
215.861
 21
-8.60355
  0
LINE
  8
0
 10
215.861
 20
-8.60355
 11
215.035
 21
-8.37592
  0
LINE
  8
0
 10
215.035
 20
-8.37592
 11
214.143
 21
-8.23932
  0
LINE
  8
0
 10
214.143
 20
-8.23932
 11
213.187
 21
-8.19379
  0
LINE
  8
0
 10
213.187
 20
-8.19379
 11
212.205
 21
-8.23885
  0
LINE
  8
0
 10
212.205
 20
-8.23885
 11
211.291
 21
-8.37398
  0
LINE
  8
0
 10
211.291
 20
-8.37398
 11
210.445
 21
-8.59926
  0
LINE
  8
0
 10
210.445
 20
-8.59926
 11
209.667
 21
-8.91463
  0
LINE
  8
0
 10
209.667
 20
-8.91463
 11
208.957
 21
-9.3201
  0
LINE
  8
0
 10
208.957
 20
-9.3201
 11
208.316
 21
-9.81567
  0
LINE
  8
0
 10
208.316
 20
-9.81567
 11
207.743
 21
-10.4014
  0
LINE
  8
0
 10
207.743
 20
-10.4014
 11
207.238
 21
-11.0771
  0
LINE
  8
0
 10
207.238
 20
-11.0771
 11
206.797
 21
-11.8427
  0
LINE
  8
0
 10
206.797
 20
-11.8427
 11
206.415
 21
-12.6987
  0
LINE
  8
0
 10
206.415
 20
-12.6987
 11
206.092
 21
-13.6453
  0
LINE
  8
0
 10
206.092
 20
-13.6453
 11
205.827
 21
-14.6824
  0
LINE
  8
0
 10
205.827
 20
-14.6824
 11
205.622
 21
-15.8102
  0
LINE
  8
0
 10
205.622
 20
-15.8102
 11
205.475
 21
-17.0284
  0
LINE
  8
0
 10
205.475
 20
-17.0284
 11
205.387
 21
-18.3372
  0
LINE
  8
0
 10
205.387
 20
-18.3372
 11
205.357
 21
-19.7365
  0
LINE
  8
0
 10
205.357
 20
-19.7365
 11
205.387
 21
-21.1072
  0
LINE
  8
0
 10
205.387
 20
-21.1072
 11
205.478
 21
-22.3933
  0
LINE
  8
0
 10
205.478
 20
-22.3933
 11
205.63
 21
-23.595
  0
LINE
  8
0
 10
205.63
 20
-23.595
 11
205.841
 21
-24.7121
  0
LINE
  8
0
 10
205.841
 20
-24.7121
 11
206.114
 21
-25.7446
  0
LINE
  8
0
 10
206.114
 20
-25.7446
 11
206.447
 21
-26.6926
  0
LINE
  8
0
 10
206.447
 20
-26.6926
 11
206.84
 21
-27.556
  0
LINE
  8
0
 10
206.84
 20
-27.556
 11
207.294
 21
-28.3349
  0
LINE
  8
0
 10
207.294
 20
-28.3349
 11
207.809
 21
-29.025
  0
LINE
  8
0
 10
207.809
 20
-29.025
 11
208.383
 21
-29.623
  0
LINE
  8
0
 10
208.383
 20
-29.623
 11
209.017
 21
-30.1291
  0
LINE
  8
0
 10
209.017
 20
-30.1291
 11
209.712
 21
-30.5431
  0
LINE
  8
0
 10
209.712
 20
-30.5431
 11
210.467
 21
-30.8652
  0
LINE
  8
0
 10
210.467
 20
-30.8652
 11
211.282
 21
-31.0952
  0
LINE
  8
0
 10
211.282
 20
-31.0952
 11
212.156
 21
-31.2332
  0
LINE
  8
0
 10
212.156
 20
-31.2332
 11
213.091
 21
-31.2792
  0
LINE
  8
0
 10
213.091
 20
-31.2792
 11
214.027
 21
-31.2329
  0
LINE
  8
0
 10
212.51
 20
-28.9093
 11
211.939
 21
-28.8056
  0
LINE
  8
0
 10
211.939
 20
-28.8056
 11
211.411
 21
-28.6327
  0
LINE
  8
0
 10
211.411
 20
-28.6327
 11
210.926
 21
-28.3906
  0
LINE
  8
0
 10
210.926
 20
-28.3906
 11
210.484
 21
-28.0793
  0
LINE
  8
0
 10
210.484
 20
-28.0793
 11
210.084
 21
-27.6989
  0
LINE
  8
0
 10
210.084
 20
-27.6989
 11
209.728
 21
-27.2493
  0
LINE
  8
0
 10
209.728
 20
-27.2493
 11
209.414
 21
-26.7305
  0
LINE
  8
0
 10
209.414
 20
-26.7305
 11
209.141
 21
-26.1365
  0
LINE
  8
0
 10
209.141
 20
-26.1365
 11
208.904
 21
-25.4625
  0
LINE
  8
0
 10
208.904
 20
-25.4625
 11
208.703
 21
-24.7083
  0
LINE
  8
0
 10
208.703
 20
-24.7083
 11
208.539
 21
-23.8741
  0
LINE
  8
0
 10
208.539
 20
-23.8741
 11
208.412
 21
-22.9598
  0
LINE
  8
0
 10
208.412
 20
-22.9598
 11
208.32
 21
-21.9654
  0
LINE
  8
0
 10
208.32
 20
-21.9654
 11
208.266
 21
-20.891
  0
LINE
  8
0
 10
208.266
 20
-20.891
 11
208.248
 21
-19.7365
  0
LINE
  8
0
 10
208.248
 20
-19.7365
 11
208.266
 21
-18.549
  0
LINE
  8
0
 10
208.266
 20
-18.549
 11
208.319
 21
-17.4481
  0
LINE
  8
0
 10
208.319
 20
-17.4481
 11
208.409
 21
-16.4339
  0
LINE
  8
0
 10
208.409
 20
-16.4339
 11
208.535
 21
-15.5064
  0
LINE
  8
0
 10
208.535
 20
-15.5064
 11
208.697
 21
-14.6655
  0
LINE
  8
0
 10
208.697
 20
-14.6655
 11
208.894
 21
-13.9113
  0
LINE
  8
0
 10
208.894
 20
-13.9113
 11
209.128
 21
-13.2437
  0
LINE
  8
0
 10
209.128
 20
-13.2437
 11
209.398
 21
-12.6628
  0
LINE
  8
0
 10
209.398
 20
-12.6628
 11
209.709
 21
-12.1589
  0
LINE
  8
0
 10
209.709
 20
-12.1589
 11
210.067
 21
-11.7221
  0
LINE
  8
0
 10
210.067
 20
-11.7221
 11
210.471
 21
-11.3526
  0
LINE
  8
0
 10
210.471
 20
-11.3526
 11
210.921
 21
-11.0502
  0
LINE
  8
0
 10
210.921
 20
-11.0502
 11
211.418
 21
-10.815
  0
LINE
  8
0
 10
211.418
 20
-10.815
 11
211.962
 21
-10.647
  0
LINE
  8
0
 10
211.962
 20
-10.647
 11
212.551
 21
-10.5462
  0
LINE
  8
0
 10
212.551
 20
-10.5462
 11
213.187
 21
-10.5126
  0
LINE
  8
0
 10
213.187
 20
-10.5126
 11
213.808
 21
-10.5467
  0
LINE
  8
0
 10
213.808
 20
-10.5467
 11
214.383
 21
-10.6491
  0
LINE
  8
0
 10
214.383
 20
-10.6491
 11
214.912
 21
-10.8196
  0
LINE
  8
0
 10
214.912
 20
-10.8196
 11
215.396
 21
-11.0584
  0
LINE
  8
0
 10
215.396
 20
-11.0584
 11
215.835
 21
-11.3654
  0
LINE
  8
0
 10
215.835
 20
-11.3654
 11
216.228
 21
-11.7406
  0
LINE
  8
0
 10
216.228
 20
-11.7406
 11
216.576
 21
-12.184
  0
LINE
  8
0
 10
216.576
 20
-12.184
 11
216.879
 21
-12.6956
  0
LINE
  8
0
 10
216.879
 20
-12.6956
 11
217.141
 21
-13.2832
  0
LINE
  8
0
 10
217.141
 20
-13.2832
 11
217.369
 21
-13.9543
  0
LINE
  8
0
 10
217.369
 20
-13.9543
 11
217.561
 21
-14.709
  0
LINE
  8
0
 10
217.561
 20
-14.709
 11
217.719
 21
-15.5474
  0
LINE
  8
0
 10
217.719
 20
-15.5474
 11
217.841
 21
-16.4693
  0
LINE
  8
0
 10
217.841
 20
-16.4693
 11
217.928
 21
-17.4748
  0
LINE
  8
0
 10
217.928
 20
-17.4748
 11
217.981
 21
-18.5638
  0
LINE
  8
0
 10
217.981
 20
-18.5638
 11
217.998
 21
-19.7365
  0
LINE
  8
0
 10
217.998
 20
-19.7365
 11
217.98
 21
-20.8692
  0
LINE
  8
0
 10
217.98
 20
-20.8692
 11
217.925
 21
-21.9264
  0
LINE
  8
0
 10
217.925
 20
-21.9264
 11
217.833
 21
-22.9079
  0
LINE
  8
0
 10
217.833
 20
-22.9079
 11
217.704
 21
-23.8138
  0
LINE
  8
0
 10
217.704
 20
-23.8138
 11
217.539
 21
-24.6441
  0
LINE
  8
0
 10
217.539
 20
-24.6441
 11
217.337
 21
-25.3988
  0
LINE
  8
0
 10
217.337
 20
-25.3988
 11
217.098
 21
-26.0778
  0
LINE
  8
0
 10
217.098
 20
-26.0778
 11
216.823
 21
-26.6813
  0
LINE
  8
0
 10
216.823
 20
-26.6813
 11
216.508
 21
-27.2116
  0
LINE
  8
0
 10
216.508
 20
-27.2116
 11
216.151
 21
-27.6712
  0
LINE
  8
0
 10
216.151
 20
-27.6712
 11
215.752
 21
-28.0601
  0
LINE
  8
0
 10
215.752
 20
-28.0601
 11
215.311
 21
-28.3783
  0
LINE
  8
0
 10
215.311
 20
-28.3783
 11
214.828
 21
-28.6257
  0
LINE
  8
0
 10
214.828
 20
-28.6257
 11
214.302
 21
-28.8025
  0
LINE
  8
0
 10
214.302
 20
-28.8025
 11
213.734
 21
-28.9086
  0
LINE
  8
0
 10
213.734
 20
-28.9086
 11
213.124
 21
-28.944
  0
LINE
  8
0
 10
213.124
 20
-28.944
 11
212.51
 21
-28.9093
  0
LINE
  8
0
 10
182.743
 20
-25.8896
 11
185.888
 21
-25.8896
  0
LINE
  8
0
 10
185.888
 20
-25.8896
 11
185.888
 21
-23.634
  0
LINE
  8
0
 10
185.888
 20
-23.634
 11
182.743
 21
-23.634
  0
LINE
  8
0
 10
182.743
 20
-23.634
 11
182.743
 21
-8.64349
  0
LINE
  8
0
 10
182.743
 20
-8.64349
 11
179.74
 21
-8.64349
  0
LINE
  8
0
 10
179.74
 20
-8.64349
 11
169.497
 21
-23.6738
  0
LINE
  8
0
 10
169.497
 20
-23.6738
 11
169.497
 21
-25.8896
  0
LINE
  8
0
 10
169.497
 20
-25.8896
 11
180.042
 21
-25.8896
  0
LINE
  8
0
 10
180.042
 20
-25.8896
 11
180.042
 21
-30.9794
  0
LINE
  8
0
 10
180.042
 20
-30.9794
 11
182.743
 21
-30.9794
  0
LINE
  8
0
 10
182.743
 20
-30.9794
 11
182.743
 21
-25.8896
  0
LINE
  8
0
 10
172.132
 20
-23.634
 11
172.385
 21
-23.3178
  0
LINE
  8
0
 10
172.385
 20
-23.3178
 11
173.245
 21
-22.149
  0
LINE
  8
0
 10
173.245
 20
-22.149
 11
178.979
 21
-13.7473
  0
LINE
  8
0
 10
178.979
 20
-13.7473
 11
179.033
 21
-13.6654
  0
LINE
  8
0
 10
179.033
 20
-13.6654
 11
179.095
 21
-13.5697
  0
LINE
  8
0
 10
179.095
 20
-13.5697
 11
179.162
 21
-13.4602
  0
LINE
  8
0
 10
179.162
 20
-13.4602
 11
179.236
 21
-13.3368
  0
LINE
  8
0
 10
179.236
 20
-13.3368
 11
179.317
 21
-13.1996
  0
LINE
  8
0
 10
179.317
 20
-13.1996
 11
179.404
 21
-13.0486
  0
LINE
  8
0
 10
179.404
 20
-13.0486
 11
179.497
 21
-12.8837
  0
LINE
  8
0
 10
179.497
 20
-12.8837
 11
179.597
 21
-12.705
  0
LINE
  8
0
 10
179.597
 20
-12.705
 11
179.694
 21
-12.5295
  0
LINE
  8
0
 10
179.694
 20
-12.5295
 11
179.779
 21
-12.3743
  0
LINE
  8
0
 10
179.779
 20
-12.3743
 11
179.853
 21
-12.2394
  0
LINE
  8
0
 10
179.853
 20
-12.2394
 11
179.914
 21
-12.1247
  0
LINE
  8
0
 10
179.914
 20
-12.1247
 11
179.964
 21
-12.0303
  0
LINE
  8
0
 10
179.964
 20
-12.0303
 11
180.002
 21
-11.9562
  0
LINE
  8
0
 10
180.002
 20
-11.9562
 11
180.028
 21
-11.9024
  0
LINE
  8
0
 10
180.028
 20
-11.9024
 11
180.042
 21
-11.8688
  0
LINE
  8
0
 10
180.042
 20
-11.8688
 11
180.042
 21
-23.634
  0
LINE
  8
0
 10
180.042
 20
-23.634
 11
172.132
 21
-23.634
  0
LINE
  8
0
 10
196.109
 20
-31.2475
 11
196.966
 21
-31.1527
  0
LINE
  8
0
 10
196.966
 20
-31.1527
 11
197.772
 21
-30.9946
  0
LINE
  8
0
 10
197.772
 20
-30.9946
 11
198.527
 21
-30.7732
  0
LINE
  8
0
 10
198.527
 20
-30.7732
 11
199.231
 21
-30.4887
  0
LINE
  8
0
 10
199.231
 20
-30.4887
 11
199.885
 21
-30.1409
  0
LINE
  8
0
 10
199.885
 20
-30.1409
 11
200.487
 21
-29.7298
  0
LINE
  8
0
 10
200.487
 20
-29.7298
 11
201.038
 21
-29.2555
  0
LINE
  8
0
 10
201.038
 20
-29.2555
 11
201.532
 21
-28.7254
  0
LINE
  8
0
 10
201.532
 20
-28.7254
 11
201.959
 21
-28.1484
  0
LINE
  8
0
 10
201.959
 20
-28.1484
 11
202.321
 21
-27.5245
  0
LINE
  8
0
 10
202.321
 20
-27.5245
 11
202.617
 21
-26.8535
  0
LINE
  8
0
 10
202.617
 20
-26.8535
 11
202.848
 21
-26.1355
  0
LINE
  8
0
 10
202.848
 20
-26.1355
 11
203.012
 21
-25.3705
  0
LINE
  8
0
 10
203.012
 20
-25.3705
 11
203.111
 21
-24.5585
  0
LINE
  8
0
 10
203.111
 20
-24.5585
 11
203.144
 21
-23.6996
  0
LINE
  8
0
 10
203.144
 20
-23.6996
 11
203.113
 21
-22.9426
  0
LINE
  8
0
 10
203.113
 20
-22.9426
 11
203.021
 21
-22.2222
  0
LINE
  8
0
 10
203.021
 20
-22.2222
 11
202.868
 21
-21.5384
  0
LINE
  8
0
 10
202.868
 20
-21.5384
 11
202.653
 21
-20.8912
  0
LINE
  8
0
 10
202.653
 20
-20.8912
 11
202.377
 21
-20.2806
  0
LINE
  8
0
 10
202.377
 20
-20.2806
 11
202.04
 21
-19.7066
  0
LINE
  8
0
 10
202.04
 20
-19.7066
 11
201.641
 21
-19.1693
  0
LINE
  8
0
 10
201.641
 20
-19.1693
 11
201.181
 21
-18.6684
  0
LINE
  8
0
 10
201.181
 20
-18.6684
 11
200.67
 21
-18.2161
  0
LINE
  8
0
 10
200.67
 20
-18.2161
 11
200.117
 21
-17.8241
  0
LINE
  8
0
 10
200.117
 20
-17.8241
 11
199.522
 21
-17.4923
  0
LINE
  8
0
 10
199.522
 20
-17.4923
 11
198.884
 21
-17.2209
  0
LINE
  8
0
 10
198.884
 20
-17.2209
 11
198.205
 21
-17.0098
  0
LINE
  8
0
 10
198.205
 20
-17.0098
 11
197.484
 21
-16.859
  0
LINE
  8
0
 10
197.484
 20
-16.859
 11
196.721
 21
-16.7685
  0
LINE
  8
0
 10
196.721
 20
-16.7685
 11
195.916
 21
-16.7384
  0
LINE
  8
0
 10
195.916
 20
-16.7384
 11
195.239
 21
-16.7607
  0
LINE
  8
0
 10
195.239
 20
-16.7607
 11
194.59
 21
-16.8277
  0
LINE
  8
0
 10
194.59
 20
-16.8277
 11
193.97
 21
-16.9393
  0
LINE
  8
0
 10
193.97
 20
-16.9393
 11
193.378
 21
-17.0956
  0
LINE
  8
0
 10
193.378
 20
-17.0956
 11
192.815
 21
-17.2965
  0
LINE
  8
0
 10
192.815
 20
-17.2965
 11
192.28
 21
-17.5421
  0
LINE
  8
0
 10
192.28
 20
-17.5421
 11
191.773
 21
-17.8323
  0
LINE
  8
0
 10
191.773
 20
-17.8323
 11
191.294
 21
-18.1672
  0
LINE
  8
0
 10
191.294
 20
-18.1672
 11
191.723
 21
-11.0748
  0
LINE
  8
0
 10
191.723
 20
-11.0748
 11
201.842
 21
-11.0748
  0
LINE
  8
0
 10
201.842
 20
-11.0748
 11
201.842
 21
-8.64349
  0
LINE
  8
0
 10
201.842
 20
-8.64349
 11
189.118
 21
-8.64349
  0
LINE
  8
0
 10
189.118
 20
-8.64349
 11
188.371
 21
-20.6781
  0
LINE
  8
0
 10
188.371
 20
-20.6781
 11
191.168
 21
-20.6781
  0
LINE
  8
0
 10
191.168
 20
-20.6781
 11
191.418
 21
-20.4676
  0
LINE
  8
0
 10
191.418
 20
-20.4676
 11
191.668
 21
-20.273
  0
LINE
  8
0
 10
191.668
 20
-20.273
 11
191.918
 21
-20.0943
  0
LINE
  8
0
 10
191.918
 20
-20.0943
 11
192.168
 21
-19.9315
  0
LINE
  8
0
 10
192.168
 20
-19.9315
 11
192.418
 21
-19.7845
  0
LINE
  8
0
 10
192.418
 20
-19.7845
 11
192.668
 21
-19.6535
  0
LINE
  8
0
 10
192.668
 20
-19.6535
 11
192.918
 21
-19.5383
  0
LINE
  8
0
 10
192.918
 20
-19.5383
 11
193.168
 21
-19.4391
  0
LINE
  8
0
 10
193.168
 20
-19.4391
 11
193.421
 21
-19.3534
  0
LINE
  8
0
 10
193.421
 20
-19.3534
 11
193.679
 21
-19.2792
  0
LINE
  8
0
 10
193.679
 20
-19.2792
 11
193.942
 21
-19.2164
  0
LINE
  8
0
 10
193.942
 20
-19.2164
 11
194.21
 21
-19.165
  0
LINE
  8
0
 10
194.21
 20
-19.165
 11
194.482
 21
-19.125
  0
LINE
  8
0
 10
194.482
 20
-19.125
 11
194.76
 21
-19.0965
  0
LINE
  8
0
 10
194.76
 20
-19.0965
 11
195.043
 21
-19.0794
  0
LINE
  8
0
 10
195.043
 20
-19.0794
 11
195.33
 21
-19.0736
  0
LINE
  8
0
 10
195.33
 20
-19.0736
 11
195.871
 21
-19.0939
  0
LINE
  8
0
 10
195.871
 20
-19.0939
 11
196.384
 21
-19.1546
  0
LINE
  8
0
 10
196.384
 20
-19.1546
 11
196.869
 21
-19.2558
  0
LINE
  8
0
 10
196.869
 20
-19.2558
 11
197.324
 21
-19.3974
  0
LINE
  8
0
 10
197.324
 20
-19.3974
 11
197.752
 21
-19.5796
  0
LINE
  8
0
 10
197.752
 20
-19.5796
 11
198.15
 21
-19.8022
  0
LINE
  8
0
 10
198.15
 20
-19.8022
 11
198.521
 21
-20.0653
  0
LINE
  8
0
 10
198.521
 20
-20.0653
 11
198.862
 21
-20.3689
  0
LINE
  8
0
 10
198.862
 20
-20.3689
 11
199.17
 21
-20.7053
  0
LINE
  8
0
 10
199.17
 20
-20.7053
 11
199.436
 21
-21.0667
  0
LINE
  8
0
 10
199.436
 20
-21.0667
 11
199.661
 21
-21.4533
  0
LINE
  8
0
 10
199.661
 20
-21.4533
 11
199.846
 21
-21.865
  0
LINE
  8
0
 10
199.846
 20
-21.865
 11
199.989
 21
-22.3018
  0
LINE
  8
0
 10
199.989
 20
-22.3018
 11
200.092
 21
-22.7637
  0
LINE
  8
0
 10
200.092
 20
-22.7637
 11
200.153
 21
-23.2507
  0
LINE
  8
0
 10
200.153
 20
-23.2507
 11
200.174
 21
-23.7628
  0
LINE
  8
0
 10
200.174
 20
-23.7628
 11
200.153
 21
-24.351
  0
LINE
  8
0
 10
200.153
 20
-24.351
 11
200.092
 21
-24.9067
  0
LINE
  8
0
 10
200.092
 20
-24.9067
 11
199.991
 21
-25.4301
  0
LINE
  8
0
 10
199.991
 20
-25.4301
 11
199.848
 21
-25.9212
  0
LINE
  8
0
 10
199.848
 20
-25.9212
 11
199.665
 21
-26.3799
  0
LINE
  8
0
 10
199.665
 20
-26.3799
 11
199.441
 21
-26.8063
  0
LINE
  8
0
 10
199.441
 20
-26.8063
 11
199.177
 21
-27.2003
  0
LINE
  8
0
 10
199.177
 20
-27.2003
 11
198.872
 21
-27.562
  0
LINE
  8
0
 10
198.872
 20
-27.562
 11
198.53
 21
-27.8859
  0
LINE
  8
0
 10
198.53
 20
-27.8859
 11
198.158
 21
-28.1666
  0
LINE
  8
0
 10
198.158
 20
-28.1666
 11
197.754
 21
-28.4041
  0
LINE
  8
0
 10
197.754
 20
-28.4041
 11
197.319
 21
-28.5984
  0
LINE
  8
0
 10
197.319
 20
-28.5984
 11
196.852
 21
-28.7496
  0
LINE
  8
0
 10
196.852
 20
-28.7496
 11
196.354
 21
-28.8576
  0
LINE
  8
0
 10
196.354
 20
-28.8576
 11
195.825
 21
-28.9224
  0
LINE
  8
0
 10
195.825
 20
-28.9224
 11
195.264
 21
-28.944
  0
LINE
  8
0
 10
195.264
 20
-28.944
 11
194.372
 21
-28.8921
  0
LINE
  8
0
 10
194.372
 20
-28.8921
 11
193.568
 21
-28.7364
  0
LINE
  8
0
 10
193.568
 20
-28.7364
 11
192.853
 21
-28.4769
  0
LINE
  8
0
 10
192.853
 20
-28.4769
 11
192.227
 21
-28.1136
  0
LINE
  8
0
 10
192.227
 20
-28.1136
 11
191.69
 21
-27.6465
  0
LINE
  8
0
 10
191.69
 20
-27.6465
 11
191.241
 21
-27.0757
  0
LINE
  8
0
 10
191.241
 20
-27.0757
 11
190.881
 21
-26.401
  0
LINE
  8
0
 10
190.881
 20
-26.401
 11
190.61
 21
-25.6226
  0
LINE
  8
0
 10
190.61
 20
-25.6226
 11
187.72
 21
-25.9552
  0
LINE
  8
0
 10
187.72
 20
-25.9552
 11
187.869
 21
-26.5837
  0
LINE
  8
0
 10
187.869
 20
-26.5837
 11
188.062
 21
-27.1741
  0
LINE
  8
0
 10
188.062
 20
-27.1741
 11
188.3
 21
-27.7262
  0
LINE
  8
0
 10
188.3
 20
-27.7262
 11
188.581
 21
-28.2401
  0
LINE
  8
0
 10
188.581
 20
-28.2401
 11
188.907
 21
-28.7158
  0
LINE
  8
0
 10
188.907
 20
-28.7158
 11
189.277
 21
-29.1533
  0
LINE
  8
0
 10
189.277
 20
-29.1533
 11
189.691
 21
-29.5526
  0
LINE
  8
0
 10
189.691
 20
-29.5526
 11
190.149
 21
-29.9137
  0
LINE
  8
0
 10
190.149
 20
-29.9137
 11
190.648
 21
-30.2337
  0
LINE
  8
0
 10
190.648
 20
-30.2337
 11
191.186
 21
-30.511
  0
LINE
  8
0
 10
191.186
 20
-30.511
 11
191.761
 21
-30.7458
  0
LINE
  8
0
 10
191.761
 20
-30.7458
 11
192.373
 21
-30.9378
  0
LINE
  8
0
 10
192.373
 20
-30.9378
 11
193.024
 21
-31.0871
  0
LINE
  8
0
 10
193.024
 20
-31.0871
 11
193.712
 21
-31.1938
  0
LINE
  8
0
 10
193.712
 20
-31.1938
 11
194.438
 21
-31.2578
  0
LINE
  8
0
 10
194.438
 20
-31.2578
 11
195.201
 21
-31.2792
  0
LINE
  8
0
 10
195.201
 20
-31.2792
 11
196.109
 21
-31.2475
  0
LINE
  8
0
 10
262.144
 20
-20.999
 11
262.161
 21
-20.3798
  0
LINE
  8
0
 10
262.161
 20
-20.3798
 11
262.211
 21
-19.7965
  0
LINE
  8
0
 10
262.211
 20
-19.7965
 11
262.294
 21
-19.2491
  0
LINE
  8
0
 10
262.294
 20
-19.2491
 11
262.41
 21
-18.7375
  0
LINE
  8
0
 10
262.41
 20
-18.7375
 11
262.559
 21
-18.2618
  0
LINE
  8
0
 10
262.559
 20
-18.2618
 11
262.742
 21
-17.822
  0
LINE
  8
0
 10
262.742
 20
-17.822
 11
262.958
 21
-17.418
  0
LINE
  8
0
 10
262.958
 20
-17.418
 11
263.207
 21
-17.0499
  0
LINE
  8
0
 10
263.207
 20
-17.0499
 11
263.486
 21
-16.7216
  0
LINE
  8
0
 10
263.486
 20
-16.7216
 11
263.788
 21
-16.4371
  0
LINE
  8
0
 10
263.788
 20
-16.4371
 11
264.113
 21
-16.1964
  0
LINE
  8
0
 10
264.113
 20
-16.1964
 11
264.463
 21
-15.9994
  0
LINE
  8
0
 10
264.463
 20
-15.9994
 11
264.836
 21
-15.8462
  0
LINE
  8
0
 10
264.836
 20
-15.8462
 11
265.233
 21
-15.7368
  0
LINE
  8
0
 10
265.233
 20
-15.7368
 11
265.654
 21
-15.6711
  0
LINE
  8
0
 10
265.654
 20
-15.6711
 11
266.098
 21
-15.6492
  0
LINE
  8
0
 10
266.098
 20
-15.6492
 11
266.526
 21
-15.6642
  0
LINE
  8
0
 10
266.526
 20
-15.6642
 11
266.919
 21
-15.709
  0
LINE
  8
0
 10
266.919
 20
-15.709
 11
267.278
 21
-15.7836
  0
LINE
  8
0
 10
267.278
 20
-15.7836
 11
267.603
 21
-15.8882
  0
LINE
  8
0
 10
267.603
 20
-15.8882
 11
267.894
 21
-16.0225
  0
LINE
  8
0
 10
267.894
 20
-16.0225
 11
268.15
 21
-16.1868
  0
LINE
  8
0
 10
268.15
 20
-16.1868
 11
268.372
 21
-16.3809
  0
LINE
  8
0
 10
268.372
 20
-16.3809
 11
268.56
 21
-16.6049
  0
LINE
  8
0
 10
268.56
 20
-16.6049
 11
268.72
 21
-16.8679
  0
LINE
  8
0
 10
268.72
 20
-16.8679
 11
268.859
 21
-17.1792
  0
LINE
  8
0
 10
268.859
 20
-17.1792
 11
268.976
 21
-17.5387
  0
LINE
  8
0
 10
268.976
 20
-17.5387
 11
269.072
 21
-17.9464
  0
LINE
  8
0
 10
269.072
 20
-17.9464
 11
269.147
 21
-18.4024
  0
LINE
  8
0
 10
269.147
 20
-18.4024
 11
269.201
 21
-18.9066
  0
LINE
  8
0
 10
269.201
 20
-18.9066
 11
269.233
 21
-19.4591
  0
LINE
  8
0
 10
269.233
 20
-19.4591
 11
269.243
 21
-20.0597
  0
LINE
  8
0
 10
269.243
 20
-20.0597
 11
269.243
 21
-30.9794
  0
LINE
  8
0
 10
269.243
 20
-30.9794
 11
272.071
 21
-30.9794
  0
LINE
  8
0
 10
272.071
 20
-30.9794
 11
272.071
 21
-20.999
  0
LINE
  8
0
 10
272.071
 20
-20.999
 11
272.087
 21
-20.3761
  0
LINE
  8
0
 10
272.087
 20
-20.3761
 11
272.136
 21
-19.7899
  0
LINE
  8
0
 10
272.136
 20
-19.7899
 11
272.217
 21
-19.2404
  0
LINE
  8
0
 10
272.217
 20
-19.2404
 11
272.331
 21
-18.7276
  0
LINE
  8
0
 10
272.331
 20
-18.7276
 11
272.477
 21
-18.2514
  0
LINE
  8
0
 10
272.477
 20
-18.2514
 11
272.656
 21
-17.8119
  0
LINE
  8
0
 10
272.656
 20
-17.8119
 11
272.867
 21
-17.409
  0
LINE
  8
0
 10
272.867
 20
-17.409
 11
273.111
 21
-17.0429
  0
LINE
  8
0
 10
273.111
 20
-17.0429
 11
273.384
 21
-16.7162
  0
LINE
  8
0
 10
273.384
 20
-16.7162
 11
273.683
 21
-16.4332
  0
LINE
  8
0
 10
273.683
 20
-16.4332
 11
274.008
 21
-16.1936
  0
LINE
  8
0
 10
274.008
 20
-16.1936
 11
274.359
 21
-15.9977
  0
LINE
  8
0
 10
274.359
 20
-15.9977
 11
274.736
 21
-15.8452
  0
LINE
  8
0
 10
274.736
 20
-15.8452
 11
275.14
 21
-15.7363
  0
LINE
  8
0
 10
275.14
 20
-15.7363
 11
275.569
 21
-15.671
  0
LINE
  8
0
 10
275.569
 20
-15.671
 11
276.024
 21
-15.6492
  0
LINE
  8
0
 10
276.024
 20
-15.6492
 11
276.452
 21
-15.6642
  0
LINE
  8
0
 10
276.452
 20
-15.6642
 11
276.846
 21
-15.709
  0
LINE
  8
0
 10
276.846
 20
-15.709
 11
277.205
 21
-15.7836
  0
LINE
  8
0
 10
277.205
 20
-15.7836
 11
277.53
 21
-15.8882
  0
LINE
  8
0
 10
277.53
 20
-15.8882
 11
277.82
 21
-16.0225
  0
LINE
  8
0
 10
277.82
 20
-16.0225
 11
278.077
 21
-16.1868
  0
LINE
  8
0
 10
278.077
 20
-16.1868
 11
278.298
 21
-16.3809
  0
LINE
  8
0
 10
278.298
 20
-16.3809
 11
278.486
 21
-16.6049
  0
LINE
  8
0
 10
278.486
 20
-16.6049
 11
278.646
 21
-16.8679
  0
LINE
  8
0
 10
278.646
 20
-16.8679
 11
278.785
 21
-17.1792
  0
LINE
  8
0
 10
278.785
 20
-17.1792
 11
278.903
 21
-17.5387
  0
LINE
  8
0
 10
278.903
 20
-17.5387
 11
278.999
 21
-17.9464
  0
LINE
  8
0
 10
278.999
 20
-17.9464
 11
279.074
 21
-18.4024
  0
LINE
  8
0
 10
279.074
 20
-18.4024
 11
279.127
 21
-18.9066
  0
LINE
  8
0
 10
279.127
 20
-18.9066
 11
279.159
 21
-19.4591
  0
LINE
  8
0
 10
279.159
 20
-19.4591
 11
279.17
 21
-20.0597
  0
LINE
  8
0
 10
279.17
 20
-20.0597
 11
279.17
 21
-30.9794
  0
LINE
  8
0
 10
279.17
 20
-30.9794
 11
281.997
 21
-30.9794
  0
LINE
  8
0
 10
281.997
 20
-30.9794
 11
281.997
 21
-19.5046
  0
LINE
  8
0
 10
281.997
 20
-19.5046
 11
281.979
 21
-18.7249
  0
LINE
  8
0
 10
281.979
 20
-18.7249
 11
281.923
 21
-18.002
  0
LINE
  8
0
 10
281.923
 20
-18.002
 11
281.831
 21
-17.336
  0
LINE
  8
0
 10
281.831
 20
-17.336
 11
281.701
 21
-16.7267
  0
LINE
  8
0
 10
281.701
 20
-16.7267
 11
281.535
 21
-16.1742
  0
LINE
  8
0
 10
281.535
 20
-16.1742
 11
281.332
 21
-15.6785
  0
LINE
  8
0
 10
281.332
 20
-15.6785
 11
281.092
 21
-15.2396
  0
LINE
  8
0
 10
281.092
 20
-15.2396
 11
280.814
 21
-14.8575
  0
LINE
  8
0
 10
280.814
 20
-14.8575
 11
280.496
 21
-14.5254
  0
LINE
  8
0
 10
280.496
 20
-14.5254
 11
280.134
 21
-14.2376
  0
LINE
  8
0
 10
280.134
 20
-14.2376
 11
279.727
 21
-13.994
  0
LINE
  8
0
 10
279.727
 20
-13.994
 11
279.276
 21
-13.7947
  0
LINE
  8
0
 10
279.276
 20
-13.7947
 11
278.78
 21
-13.6398
  0
LINE
  8
0
 10
278.78
 20
-13.6398
 11
278.24
 21
-13.5291
  0
LINE
  8
0
 10
278.24
 20
-13.5291
 11
277.656
 21
-13.4626
  0
LINE
  8
0
 10
277.656
 20
-13.4626
 11
277.027
 21
-13.4405
  0
LINE
  8
0
 10
277.027
 20
-13.4405
 11
276.586
 21
-13.4524
  0
LINE
  8
0
 10
276.586
 20
-13.4524
 11
276.162
 21
-13.4882
  0
LINE
  8
0
 10
276.162
 20
-13.4882
 11
275.755
 21
-13.5479
  0
LINE
  8
0
 10
275.755
 20
-13.5479
 11
275.364
 21
-13.6314
  0
LINE
  8
0
 10
275.364
 20
-13.6314
 11
274.99
 21
-13.7388
  0
LINE
  8
0
 10
274.99
 20
-13.7388
 11
274.632
 21
-13.87
  0
LINE
  8
0
 10
274.632
 20
-13.87
 11
274.292
 21
-14.0251
  0
LINE
  8
0
 10
274.292
 20
-14.0251
 11
273.968
 21
-14.2041
  0
LINE
  8
0
 10
273.968
 20
-14.2041
 11
273.658
 21
-14.4102
  0
LINE
  8
0
 10
273.658
 20
-14.4102
 11
273.36
 21
-14.6466
  0
LINE
  8
0
 10
273.36
 20
-14.6466
 11
273.073
 21
-14.9134
  0
LINE
  8
0
 10
273.073
 20
-14.9134
 11
272.798
 21
-15.2107
  0
LINE
  8
0
 10
272.798
 20
-15.2107
 11
272.535
 21
-15.5383
  0
LINE
  8
0
 10
272.535
 20
-15.5383
 11
272.284
 21
-15.8962
  0
LINE
  8
0
 10
272.284
 20
-15.8962
 11
272.044
 21
-16.2845
  0
LINE
  8
0
 10
272.044
 20
-16.2845
 11
271.815
 21
-16.7033
  0
LINE
  8
0
 10
271.815
 20
-16.7033
 11
271.768
 21
-16.7033
  0
LINE
  8
0
 10
271.768
 20
-16.7033
 11
271.646
 21
-16.292
  0
LINE
  8
0
 10
271.646
 20
-16.292
 11
271.503
 21
-15.9095
  0
LINE
  8
0
 10
271.503
 20
-15.9095
 11
271.337
 21
-15.5559
  0
LINE
  8
0
 10
271.337
 20
-15.5559
 11
271.151
 21
-15.2311
  0
LINE
  8
0
 10
271.151
 20
-15.2311
 11
270.942
 21
-14.9352
  0
LINE
  8
0
 10
270.942
 20
-14.9352
 11
270.712
 21
-14.6681
  0
LINE
  8
0
 10
270.712
 20
-14.6681
 11
270.461
 21
-14.4299
  0
LINE
  8
0
 10
270.461
 20
-14.4299
 11
270.187
 21
-14.2204
  0
LINE
  8
0
 10
270.187
 20
-14.2204
 11
269.891
 21
-14.0377
  0
LINE
  8
0
 10
269.891
 20
-14.0377
 11
269.569
 21
-13.8792
  0
LINE
  8
0
 10
269.569
 20
-13.8792
 11
269.222
 21
-13.7452
  0
LINE
  8
0
 10
269.222
 20
-13.7452
 11
268.849
 21
-13.6355
  0
LINE
  8
0
 10
268.849
 20
-13.6355
 11
268.45
 21
-13.5502
  0
LINE
  8
0
 10
268.45
 20
-13.5502
 11
268.026
 21
-13.4892
  0
LINE
  8
0
 10
268.026
 20
-13.4892
 11
267.576
 21
-13.4527
  0
LINE
  8
0
 10
267.576
 20
-13.4527
 11
267.1
 21
-13.4405
  0
LINE
  8
0
 10
267.1
 20
-13.4405
 11
266.679
 21
-13.4517
  0
LINE
  8
0
 10
266.679
 20
-13.4517
 11
266.275
 21
-13.4853
  0
LINE
  8
0
 10
266.275
 20
-13.4853
 11
265.886
 21
-13.5413
  0
LINE
  8
0
 10
265.886
 20
-13.5413
 11
265.515
 21
-13.6196
  0
LINE
  8
0
 10
265.515
 20
-13.6196
 11
265.159
 21
-13.7205
  0
LINE
  8
0
 10
265.159
 20
-13.7205
 11
264.82
 21
-13.8436
  0
LINE
  8
0
 10
264.82
 20
-13.8436
 11
264.497
 21
-13.9892
  0
LINE
  8
0
 10
264.497
 20
-13.9892
 11
264.191
 21
-14.1572
  0
LINE
  8
0
 10
264.191
 20
-14.1572
 11
263.898
 21
-14.3538
  0
LINE
  8
0
 10
263.898
 20
-14.3538
 11
263.613
 21
-14.5851
  0
LINE
  8
0
 10
263.613
 20
-14.5851
 11
263.337
 21
-14.8512
  0
LINE
  8
0
 10
263.337
 20
-14.8512
 11
263.069
 21
-15.1521
  0
LINE
  8
0
 10
263.069
 20
-15.1521
 11
262.809
 21
-15.4877
  0
LINE
  8
0
 10
262.809
 20
-15.4877
 11
262.558
 21
-15.8581
  0
LINE
  8
0
 10
262.558
 20
-15.8581
 11
262.315
 21
-16.2633
  0
LINE
  8
0
 10
262.315
 20
-16.2633
 11
262.081
 21
-16.7033
  0
LINE
  8
0
 10
262.081
 20
-16.7033
 11
262.034
 21
-16.7033
  0
LINE
  8
0
 10
262.034
 20
-16.7033
 11
262.026
 21
-16.3997
  0
LINE
  8
0
 10
262.026
 20
-16.3997
 11
262.018
 21
-16.1214
  0
LINE
  8
0
 10
262.018
 20
-16.1214
 11
262.011
 21
-15.8683
  0
LINE
  8
0
 10
262.011
 20
-15.8683
 11
262.004
 21
-15.6405
  0
LINE
  8
0
 10
262.004
 20
-15.6405
 11
261.997
 21
-15.4379
  0
LINE
  8
0
 10
261.997
 20
-15.4379
 11
261.99
 21
-15.2606
  0
LINE
  8
0
 10
261.99
 20
-15.2606
 11
261.984
 21
-15.1085
  0
LINE
  8
0
 10
261.984
 20
-15.1085
 11
261.978
 21
-14.9817
  0
LINE
  8
0
 10
261.978
 20
-14.9817
 11
261.961
 21
-14.654
  0
LINE
  8
0
 10
261.961
 20
-14.654
 11
261.951
 21
-14.4519
  0
LINE
  8
0
 10
261.951
 20
-14.4519
 11
261.942
 21
-14.2631
  0
LINE
  8
0
 10
261.942
 20
-14.2631
 11
261.938
 21
-14.1736
  0
LINE
  8
0
 10
261.938
 20
-14.1736
 11
261.934
 21
-14.0895
  0
LINE
  8
0
 10
261.934
 20
-14.0895
 11
261.93
 21
-14.0139
  0
LINE
  8
0
 10
261.93
 20
-14.0139
 11
261.926
 21
-13.9469
  0
LINE
  8
0
 10
261.926
 20
-13.9469
 11
261.922
 21
-13.8884
  0
LINE
  8
0
 10
261.922
 20
-13.8884
 11
261.917
 21
-13.8386
  0
LINE
  8
0
 10
261.917
 20
-13.8386
 11
261.913
 21
-13.7972
  0
LINE
  8
0
 10
261.913
 20
-13.7972
 11
261.909
 21
-13.7645
  0
LINE
  8
0
 10
261.909
 20
-13.7645
 11
261.905
 21
-13.7403
  0
LINE
  8
0
 10
261.905
 20
-13.7403
 11
259.204
 21
-13.7403
  0
LINE
  8
0
 10
259.204
 20
-13.7403
 11
259.227
 21
-13.9443
  0
LINE
  8
0
 10
259.227
 20
-13.9443
 11
259.246
 21
-14.2215
  0
LINE
  8
0
 10
259.246
 20
-14.2215
 11
259.263
 21
-14.5718
  0
LINE
  8
0
 10
259.263
 20
-14.5718
 11
259.277
 21
-14.9951
  0
LINE
  8
0
 10
259.277
 20
-14.9951
 11
259.287
 21
-15.4917
  0
LINE
  8
0
 10
259.287
 20
-15.4917
 11
259.295
 21
-16.0614
  0
LINE
  8
0
 10
259.295
 20
-16.0614
 11
259.299
 21
-16.7041
  0
LINE
  8
0
 10
259.299
 20
-16.7041
 11
259.301
 21
-17.42
  0
LINE
  8
0
 10
259.301
 20
-17.42
 11
259.301
 21
-30.9794
  0
LINE
  8
0
 10
259.301
 20
-30.9794
 11
262.144
 21
-30.9794
  0
LINE
  8
0
 10
262.144
 20
-30.9794
 11
262.144
 21
-20.999
  0
LINE
  8
0
 10
235.679
 20
-20.999
 11
235.696
 21
-20.3798
  0
LINE
  8
0
 10
235.696
 20
-20.3798
 11
235.746
 21
-19.7965
  0
LINE
  8
0
 10
235.746
 20
-19.7965
 11
235.829
 21
-19.2491
  0
LINE
  8
0
 10
235.829
 20
-19.2491
 11
235.945
 21
-18.7375
  0
LINE
  8
0
 10
235.945
 20
-18.7375
 11
236.095
 21
-18.2618
  0
LINE
  8
0
 10
236.095
 20
-18.2618
 11
236.277
 21
-17.822
  0
LINE
  8
0
 10
236.277
 20
-17.822
 11
236.493
 21
-17.418
  0
LINE
  8
0
 10
236.493
 20
-17.418
 11
236.743
 21
-17.0499
  0
LINE
  8
0
 10
236.743
 20
-17.0499
 11
237.021
 21
-16.7216
  0
LINE
  8
0
 10
237.021
 20
-16.7216
 11
237.323
 21
-16.4371
  0
LINE
  8
0
 10
237.323
 20
-16.4371
 11
237.649
 21
-16.1964
  0
LINE
  8
0
 10
237.649
 20
-16.1964
 11
237.998
 21
-15.9994
  0
LINE
  8
0
 10
237.998
 20
-15.9994
 11
238.371
 21
-15.8462
  0
LINE
  8
0
 10
238.371
 20
-15.8462
 11
238.768
 21
-15.7368
  0
LINE
  8
0
 10
238.768
 20
-15.7368
 11
239.189
 21
-15.6711
  0
LINE
  8
0
 10
239.189
 20
-15.6711
 11
239.633
 21
-15.6492
  0
LINE
  8
0
 10
239.633
 20
-15.6492
 11
240.061
 21
-15.6642
  0
LINE
  8
0
 10
240.061
 20
-15.6642
 11
240.454
 21
-15.709
  0
LINE
  8
0
 10
240.454
 20
-15.709
 11
240.813
 21
-15.7836
  0
LINE
  8
0
 10
240.813
 20
-15.7836
 11
241.138
 21
-15.8882
  0
LINE
  8
0
 10
241.138
 20
-15.8882
 11
241.429
 21
-16.0225
  0
LINE
  8
0
 10
241.429
 20
-16.0225
 11
241.685
 21
-16.1868
  0
LINE
  8
0
 10
241.685
 20
-16.1868
 11
241.907
 21
-16.3809
  0
LINE
  8
0
 10
241.907
 20
-16.3809
 11
242.095
 21
-16.6049
  0
LINE
  8
0
 10
242.095
 20
-16.6049
 11
242.255
 21
-16.8679
  0
LINE
  8
0
 10
242.255
 20
-16.8679
 11
242.394
 21
-17.1792
  0
LINE
  8
0
 10
242.394
 20
-17.1792
 11
242.511
 21
-17.5387
  0
LINE
  8
0
 10
242.511
 20
-17.5387
 11
242.608
 21
-17.9464
  0
LINE
  8
0
 10
242.608
 20
-17.9464
 11
242.682
 21
-18.4024
  0
LINE
  8
0
 10
242.682
 20
-18.4024
 11
242.736
 21
-18.9066
  0
LINE
  8
0
 10
242.736
 20
-18.9066
 11
242.768
 21
-19.4591
  0
LINE
  8
0
 10
242.768
 20
-19.4591
 11
242.779
 21
-20.0597
  0
LINE
  8
0
 10
242.779
 20
-20.0597
 11
242.779
 21
-30.9794
  0
LINE
  8
0
 10
242.779
 20
-30.9794
 11
245.606
 21
-30.9794
  0
LINE
  8
0
 10
245.606
 20
-30.9794
 11
245.606
 21
-20.999
  0
LINE
  8
0
 10
245.606
 20
-20.999
 11
245.622
 21
-20.3761
  0
LINE
  8
0
 10
245.622
 20
-20.3761
 11
245.671
 21
-19.7899
  0
LINE
  8
0
 10
245.671
 20
-19.7899
 11
245.752
 21
-19.2404
  0
LINE
  8
0
 10
245.752
 20
-19.2404
 11
245.866
 21
-18.7276
  0
LINE
  8
0
 10
245.866
 20
-18.7276
 11
246.012
 21
-18.2514
  0
LINE
  8
0
 10
246.012
 20
-18.2514
 11
246.191
 21
-17.8119
  0
LINE
  8
0
 10
246.191
 20
-17.8119
 11
246.402
 21
-17.409
  0
LINE
  8
0
 10
246.402
 20
-17.409
 11
246.646
 21
-17.0429
  0
LINE
  8
0
 10
246.646
 20
-17.0429
 11
246.919
 21
-16.7162
  0
LINE
  8
0
 10
246.919
 20
-16.7162
 11
247.218
 21
-16.4332
  0
LINE
  8
0
 10
247.218
 20
-16.4332
 11
247.543
 21
-16.1936
  0
LINE
  8
0
 10
247.543
 20
-16.1936
 11
247.894
 21
-15.9977
  0
LINE
  8
0
 10
247.894
 20
-15.9977
 11
248.271
 21
-15.8452
  0
LINE
  8
0
 10
248.271
 20
-15.8452
 11
248.675
 21
-15.7363
  0
LINE
  8
0
 10
248.675
 20
-15.7363
 11
249.104
 21
-15.671
  0
LINE
  8
0
 10
249.104
 20
-15.671
 11
249.559
 21
-15.6492
  0
LINE
  8
0
 10
249.559
 20
-15.6492
 11
249.987
 21
-15.6642
  0
LINE
  8
0
 10
249.987
 20
-15.6642
 11
250.381
 21
-15.709
  0
LINE
  8
0
 10
250.381
 20
-15.709
 11
250.74
 21
-15.7836
  0
LINE
  8
0
 10
250.74
 20
-15.7836
 11
251.065
 21
-15.8882
  0
LINE
  8
0
 10
251.065
 20
-15.8882
 11
251.355
 21
-16.0225
  0
LINE
  8
0
 10
251.355
 20
-16.0225
 11
251.612
 21
-16.1868
  0
LINE
  8
0
 10
251.612
 20
-16.1868
 11
251.834
 21
-16.3809
  0
LINE
  8
0
 10
251.834
 20
-16.3809
 11
252.021
 21
-16.6049
  0
LINE
  8
0
 10
252.021
 20
-16.6049
 11
252.181
 21
-16.8679
  0
LINE
  8
0
 10
252.181
 20
-16.8679
 11
252.32
 21
-17.1792
  0
LINE
  8
0
 10
252.32
 20
-17.1792
 11
252.438
 21
-17.5387
  0
LINE
  8
0
 10
252.438
 20
-17.5387
 11
252.534
 21
-17.9464
  0
LINE
  8
0
 10
252.534
 20
-17.9464
 11
252.609
 21
-18.4024
  0
LINE
  8
0
 10
252.609
 20
-18.4024
 11
252.662
 21
-18.9066
  0
LINE
  8
0
 10
252.662
 20
-18.9066
 11
252.694
 21
-19.4591
  0
LINE
  8
0
 10
252.694
 20
-19.4591
 11
252.705
 21
-20.0597
  0
LINE
  8
0
 10
252.705
 20
-20.0597
 11
252.705
 21
-30.9794
  0
LINE
  8
0
 10
252.705
 20
-30.9794
 11
255.532
 21
-30.9794
  0
LINE
  8
0
 10
255.532
 20
-30.9794
 11
255.532
 21
-19.5046
  0
LINE
  8
0
 10
255.532
 20
-19.5046
 11
255.514
 21
-18.7249
  0
LINE
  8
0
 10
255.514
 20
-18.7249
 11
255.458
 21
-18.002
  0
LINE
  8
0
 10
255.458
 20
-18.002
 11
255.366
 21
-17.336
  0
LINE
  8
0
 10
255.366
 20
-17.336
 11
255.237
 21
-16.7267
  0
LINE
  8
0
 10
255.237
 20
-16.7267
 11
255.07
 21
-16.1742
  0
LINE
  8
0
 10
255.07
 20
-16.1742
 11
254.867
 21
-15.6785
  0
LINE
  8
0
 10
254.867
 20
-15.6785
 11
254.627
 21
-15.2396
  0
LINE
  8
0
 10
254.627
 20
-15.2396
 11
254.349
 21
-14.8575
  0
LINE
  8
0
 10
254.349
 20
-14.8575
 11
254.031
 21
-14.5254
  0
LINE
  8
0
 10
254.031
 20
-14.5254
 11
253.669
 21
-14.2376
  0
LINE
  8
0
 10
253.669
 20
-14.2376
 11
253.262
 21
-13.994
  0
LINE
  8
0
 10
253.262
 20
-13.994
 11
252.811
 21
-13.7947
  0
LINE
  8
0
 10
252.811
 20
-13.7947
 11
252.315
 21
-13.6398
  0
LINE
  8
0
 10
252.315
 20
-13.6398
 11
251.775
 21
-13.5291
  0
LINE
  8
0
 10
251.775
 20
-13.5291
 11
251.191
 21
-13.4626
  0
LINE
  8
0
 10
251.191
 20
-13.4626
 11
250.562
 21
-13.4405
  0
LINE
  8
0
 10
250.562
 20
-13.4405
 11
250.121
 21
-13.4524
  0
LINE
  8
0
 10
250.121
 20
-13.4524
 11
249.697
 21
-13.4882
  0
LINE
  8
0
 10
249.697
 20
-13.4882
 11
249.29
 21
-13.5479
  0
LINE
  8
0
 10
249.29
 20
-13.5479
 11
248.899
 21
-13.6314
  0
LINE
  8
0
 10
248.899
 20
-13.6314
 11
248.525
 21
-13.7388
  0
LINE
  8
0
 10
248.525
 20
-13.7388
 11
248.168
 21
-13.87
  0
LINE
  8
0
 10
248.168
 20
-13.87
 11
247.827
 21
-14.0251
  0
LINE
  8
0
 10
247.827
 20
-14.0251
 11
247.503
 21
-14.2041
  0
LINE
  8
0
 10
247.503
 20
-14.2041
 11
247.193
 21
-14.4102
  0
LINE
  8
0
 10
247.193
 20
-14.4102
 11
246.895
 21
-14.6466
  0
LINE
  8
0
 10
246.895
 20
-14.6466
 11
246.608
 21
-14.9134
  0
LINE
  8
0
 10
246.608
 20
-14.9134
 11
246.334
 21
-15.2107
  0
LINE
  8
0
 10
246.334
 20
-15.2107
 11
246.07
 21
-15.5383
  0
LINE
  8
0
 10
246.07
 20
-15.5383
 11
245.819
 21
-15.8962
  0
LINE
  8
0
 10
245.819
 20
-15.8962
 11
245.579
 21
-16.2845
  0
LINE
  8
0
 10
245.579
 20
-16.2845
 11
245.35
 21
-16.7033
  0
LINE
  8
0
 10
245.35
 20
-16.7033
 11
245.304
 21
-16.7033
  0
LINE
  8
0
 10
245.304
 20
-16.7033
 11
245.181
 21
-16.292
  0
LINE
  8
0
 10
245.181
 20
-16.292
 11
245.038
 21
-15.9095
  0
LINE
  8
0
 10
245.038
 20
-15.9095
 11
244.873
 21
-15.5559
  0
LINE
  8
0
 10
244.873
 20
-15.5559
 11
244.686
 21
-15.2311
  0
LINE
  8
0
 10
244.686
 20
-15.2311
 11
244.477
 21
-14.9352
  0
LINE
  8
0
 10
244.477
 20
-14.9352
 11
244.247
 21
-14.6681
  0
LINE
  8
0
 10
244.247
 20
-14.6681
 11
243.996
 21
-14.4299
  0
LINE
  8
0
 10
243.996
 20
-14.4299
 11
243.722
 21
-14.2204
  0
LINE
  8
0
 10
243.722
 20
-14.2204
 11
243.426
 21
-14.0377
  0
LINE
  8
0
 10
243.426
 20
-14.0377
 11
243.104
 21
-13.8792
  0
LINE
  8
0
 10
243.104
 20
-13.8792
 11
242.757
 21
-13.7452
  0
LINE
  8
0
 10
242.757
 20
-13.7452
 11
242.384
 21
-13.6355
  0
LINE
  8
0
 10
242.384
 20
-13.6355
 11
241.985
 21
-13.5502
  0
LINE
  8
0
 10
241.985
 20
-13.5502
 11
241.561
 21
-13.4892
  0
LINE
  8
0
 10
241.561
 20
-13.4892
 11
241.111
 21
-13.4527
  0
LINE
  8
0
 10
241.111
 20
-13.4527
 11
240.635
 21
-13.4405
  0
LINE
  8
0
 10
240.635
 20
-13.4405
 11
240.214
 21
-13.4517
  0
LINE
  8
0
 10
240.214
 20
-13.4517
 11
239.81
 21
-13.4853
  0
LINE
  8
0
 10
239.81
 20
-13.4853
 11
239.422
 21
-13.5413
  0
LINE
  8
0
 10
239.422
 20
-13.5413
 11
239.05
 21
-13.6196
  0
LINE
  8
0
 10
239.05
 20
-13.6196
 11
238.694
 21
-13.7205
  0
LINE
  8
0
 10
238.694
 20
-13.7205
 11
238.355
 21
-13.8436
  0
LINE
  8
0
 10
238.355
 20
-13.8436
 11
238.033
 21
-13.9892
  0
LINE
  8
0
 10
238.033
 20
-13.9892
 11
237.726
 21
-14.1572
  0
LINE
  8
0
 10
237.726
 20
-14.1572
 11
237.433
 21
-14.3538
  0
LINE
  8
0
 10
237.433
 20
-14.3538
 11
237.148
 21
-14.5851
  0
LINE
  8
0
 10
237.148
 20
-14.5851
 11
236.872
 21
-14.8512
  0
LINE
  8
0
 10
236.872
 20
-14.8512
 11
236.604
 21
-15.1521
  0
LINE
  8
0
 10
236.604
 20
-15.1521
 11
236.344
 21
-15.4877
  0
LINE
  8
0
 10
236.344
 20
-15.4877
 11
236.093
 21
-15.8581
  0
LINE
  8
0
 10
236.093
 20
-15.8581
 11
235.85
 21
-16.2633
  0
LINE
  8
0
 10
235.85
 20
-16.2633
 11
235.616
 21
-16.7033
  0
LINE
  8
0
 10
235.616
 20
-16.7033
 11
235.569
 21
-16.7033
  0
LINE
  8
0
 10
235.569
 20
-16.7033
 11
235.561
 21
-16.3997
  0
LINE
  8
0
 10
235.561
 20
-16.3997
 11
235.553
 21
-16.1214
  0
LINE
  8
0
 10
235.553
 20
-16.1214
 11
235.546
 21
-15.8683
  0
LINE
  8
0
 10
235.546
 20
-15.8683
 11
235.539
 21
-15.6405
  0
LINE
  8
0
 10
235.539
 20
-15.6405
 11
235.532
 21
-15.4379
  0
LINE
  8
0
 10
235.532
 20
-15.4379
 11
235.525
 21
-15.2606
  0
LINE
  8
0
 10
235.525
 20
-15.2606
 11
235.519
 21
-15.1085
  0
LINE
  8
0
 10
235.519
 20
-15.1085
 11
235.513
 21
-14.9817
  0
LINE
  8
0
 10
235.513
 20
-14.9817
 11
235.496
 21
-14.654
  0
LINE
  8
0
 10
235.496
 20
-14.654
 11
235.486
 21
-14.4519
  0
LINE
  8
0
 10
235.486
 20
-14.4519
 11
235.477
 21
-14.2631
  0
LINE
  8
0
 10
235.477
 20
-14.2631
 11
235.473
 21
-14.1736
  0
LINE
  8
0
 10
235.473
 20
-14.1736
 11
235.469
 21
-14.0895
  0
LINE
  8
0
 10
235.469
 20
-14.0895
 11
235.465
 21
-14.0139
  0
LINE
  8
0
 10
235.465
 20
-14.0139
 11
235.461
 21
-13.9469
  0
LINE
  8
0
 10
235.461
 20
-13.9469
 11
235.457
 21
-13.8884
  0
LINE
  8
0
 10
235.457
 20
-13.8884
 11
235.453
 21
-13.8386
  0
LINE
  8
0
 10
235.453
 20
-13.8386
 11
235.448
 21
-13.7972
  0
LINE
  8
0
 10
235.448
 20
-13.7972
 11
235.444
 21
-13.7645
  0
LINE
  8
0
 10
235.444
 20
-13.7645
 11
235.44
 21
-13.7403
  0
LINE
  8
0
 10
235.44
 20
-13.7403
 11
232.74
 21
-13.7403
  0
LINE
  8
0
 10
232.74
 20
-13.7403
 11
232.762
 21
-13.9443
  0
LINE
  8
0
 10
232.762
 20
-13.9443
 11
232.782
 21
-14.2215
  0
LINE
  8
0
 10
232.782
 20
-14.2215
 11
232.798
 21
-14.5718
  0
LINE
  8
0
 10
232.798
 20
-14.5718
 11
232.812
 21
-14.9951
  0
LINE
  8
0
 10
232.812
 20
-14.9951
 11
232.822
 21
-15.4917
  0
LINE
  8
0
 10
232.822
 20
-15.4917
 11
232.83
 21
-16.0614
  0
LINE
  8
0
 10
232.83
 20
-16.0614
 11
232.834
 21
-16.7041
  0
LINE
  8
0
 10
232.834
 20
-16.7041
 11
232.836
 21
-17.42
  0
LINE
  8
0
 10
232.836
 20
-17.42
 11
232.836
 21
-30.9794
  0
LINE
  8
0
 10
232.836
 20
-30.9794
 11
235.679
 21
-30.9794
  0
LINE
  8
0
 10
235.679
 20
-30.9794
 11
235.679
 21
-20.999
  0
ENDSEC
  0
SECTION
  2
OBJECTS
  0
DICTIONARY
  0
ENDSEC
  0
EOF
