  0
SECTION
  2
BLOCKS
  0
ENDSEC
  0
SECTION
  2
ENTITIES
  0
LINE
  8
0
 10
300
 20
56.25
 11
0
 21
56.25
  0
LINE
  8
0
 10
0
 20
56.25
 11
0
 21
0
  0
LINE
  8
0
 10
0
 20
0
 11
300
 21
0
  0
LINE
  8
0
 10
300
 20
0
 11
300
 21
56.25
  0
LINE
  8
0
 10
185.54
 20
9.47771
 11
183.602
 21
9.78473
  0
LINE
  8
0
 10
183.602
 20
9.78473
 11
181.706
 21
10.2927
  0
LINE
  8
0
 10
181.706
 20
10.2927
 11
179.874
 21
10.996
  0
LINE
  8
0
 10
179.874
 20
10.996
 11
178.125
 21
11.887
  0
LINE
  8
0
 10
178.125
 20
11.887
 11
176.479
 21
12.9559
  0
LINE
  8
0
 10
176.479
 20
12.9559
 11
174.954
 21
14.191
  0
LINE
  8
0
 10
174.954
 20
14.191
 11
173.566
 21
15.5788
  0
LINE
  8
0
 10
173.566
 20
15.5788
 11
172.331
 21
17.104
  0
LINE
  8
0
 10
172.331
 20
17.104
 11
171.262
 21
18.75
  0
LINE
  8
0
 10
171.262
 20
18.75
 11
170.371
 21
20.4987
  0
LINE
  8
0
 10
170.371
 20
20.4987
 11
169.668
 21
22.3309
  0
LINE
  8
0
 10
169.668
 20
22.3309
 11
169.16
 21
24.2267
  0
LINE
  8
0
 10
169.16
 20
24.2267
 11
168.853
 21
26.1651
  0
LINE
  8
0
 10
168.853
 20
26.1651
 11
168.75
 21
28.125
  0
LINE
  8
0
 10
168.75
 20
28.125
 11
168.853
 21
30.0849
  0
LINE
  8
0
 10
168.853
 20
30.0849
 11
169.16
 21
32.0233
  0
LINE
  8
0
 10
169.16
 20
32.0233
 11
169.668
 21
33.9191
  0
LINE
  8
0
 10
169.668
 20
33.9191
 11
170.371
 21
35.7513
  0
LINE
  8
0
 10
170.371
 20
35.7513
 11
171.262
 21
37.5
  0
LINE
  8
0
 10
171.262
 20
37.5
 11
172.331
 21
39.146
  0
LINE
  8
0
 10
172.331
 20
39.146
 11
173.566
 21
40.6712
  0
LINE
  8
0
 10
173.566
 20
40.6712
 11
174.954
 21
42.059
  0
LINE
  8
0
 10
174.954
 20
42.059
 11
176.479
 21
43.2941
  0
LINE
  8
0
 10
176.479
 20
43.2941
 11
178.125
 21
44.363
  0
LINE
  8
0
 10
178.125
 20
44.363
 11
179.874
 21
45.254
  0
LINE
  8
0
 10
179.874
 20
45.254
 11
181.706
 21
45.9573
  0
LINE
  8
0
 10
181.706
 20
45.9573
 11
183.602
 21
46.4653
  0
LINE
  8
0
 10
183.602
 20
46.4653
 11
185.54
 21
46.7723
  0
LINE
  8
0
 10
185.54
 20
46.7723
 11
187.5
 21
46.875
  0
LINE
  8
0
 10
187.5
 20
46.875
 11
189.46
 21
46.7723
  0
LINE
  8
0
 10
189.46
 20
46.7723
 11
191.398
 21
46.4653
  0
LINE
  8
0
 10
191.398
 20
46.4653
 11
193.294
 21
45.9573
  0
LINE
  8
0
 10
193.294
 20
45.9573
 11
195.126
 21
45.254
  0
LINE
  8
0
 10
195.126
 20
45.254
 11
196.875
 21
44.363
  0
LINE
  8
0
 10
196.875
 20
44.363
 11
198.521
 21
43.2941
  0
LINE
  8
0
 10
198.521
 20
43.2941
 11
200.046
 21
42.059
  0
LINE
  8
0
 10
200.046
 20
42.059
 11
201.434
 21
40.6712
  0
LINE
  8
0
 10
201.434
 20
40.6712
 11
202.669
 21
39.146
  0
LINE
  8
0
 10
202.669
 20
39.146
 11
203.738
 21
37.5
  0
LINE
  8
0
 10
203.738
 20
37.5
 11
204.629
 21
35.7513
  0
LINE
  8
0
 10
204.629
 20
35.7513
 11
205.332
 21
33.9191
  0
LINE
  8
0
 10
205.332
 20
33.9191
 11
205.84
 21
32.0233
  0
LINE
  8
0
 10
205.84
 20
32.0233
 11
206.147
 21
30.0849
  0
LINE
  8
0
 10
206.147
 20
30.0849
 11
206.25
 21
28.125
  0
LINE
  8
0
 10
206.25
 20
28.125
 11
206.147
 21
26.1651
  0
LINE
  8
0
 10
206.147
 20
26.1651
 11
205.84
 21
24.2267
  0
LINE
  8
0
 10
205.84
 20
24.2267
 11
205.332
 21
22.3309
  0
LINE
  8
0
 10
205.332
 20
22.3309
 11
204.629
 21
20.4987
  0
LINE
  8
0
 10
204.629
 20
20.4987
 11
203.738
 21
18.75
  0
LINE
  8
0
 10
203.738
 20
18.75
 11
202.669
 21
17.104
  0
LINE
  8
0
 10
202.669
 20
17.104
 11
201.434
 21
15.5788
  0
LINE
  8
0
 10
201.434
 20
15.5788
 11
200.046
 21
14.191
  0
LINE
  8
0
 10
200.046
 20
14.191
 11
198.521
 21
12.9559
  0
LINE
  8
0
 10
198.521
 20
12.9559
 11
196.875
 21
11.887
  0
LINE
  8
0
 10
196.875
 20
11.887
 11
195.126
 21
10.996
  0
LINE
  8
0
 10
195.126
 20
10.996
 11
193.294
 21
10.2927
  0
LINE
  8
0
 10
193.294
 20
10.2927
 11
191.398
 21
9.78473
  0
LINE
  8
0
 10
191.398
 20
9.78473
 11
189.46
 21
9.47771
  0
LINE
  8
0
 10
189.46
 20
9.47771
 11
187.5
 21
9.375
  0
LINE
  8
0
 10
187.5
 20
9.375
 11
185.54
 21
9.47771
  0
LINE
  8
0
 10
110.54
 20
9.47771
 11
108.602
 21
9.78473
  0
LINE
  8
0
 10
108.602
 20
9.78473
 11
106.706
 21
10.2927
  0
LINE
  8
0
 10
106.706
 20
10.2927
 11
104.874
 21
10.996
  0
LINE
  8
0
 10
104.874
 20
10.996
 11
103.125
 21
11.887
  0
LINE
  8
0
 10
103.125
 20
11.887
 11
101.479
 21
12.9559
  0
LINE
  8
0
 10
101.479
 20
12.9559
 11
99.9538
 21
14.191
  0
LINE
  8
0
 10
99.9538
 20
14.191
 11
98.566
 21
15.5788
  0
LINE
  8
0
 10
98.566
 20
15.5788
 11
97.3309
 21
17.104
  0
LINE
  8
0
 10
97.3309
 20
17.104
 11
96.262
 21
18.75
  0
LINE
  8
0
 10
96.262
 20
18.75
 11
95.371
 21
20.4987
  0
LINE
  8
0
 10
95.371
 20
20.4987
 11
94.6677
 21
22.3309
  0
LINE
  8
0
 10
94.6677
 20
22.3309
 11
94.1597
 21
24.2267
  0
LINE
  8
0
 10
94.1597
 20
24.2267
 11
93.8527
 21
26.1651
  0
LINE
  8
0
 10
93.8527
 20
26.1651
 11
93.75
 21
28.125
  0
LINE
  8
0
 10
93.75
 20
28.125
 11
93.8527
 21
30.0849
  0
LINE
  8
0
 10
93.8527
 20
30.0849
 11
94.1597
 21
32.0233
  0
LINE
  8
0
 10
94.1597
 20
32.0233
 11
94.6677
 21
33.9191
  0
LINE
  8
0
 10
94.6677
 20
33.9191
 11
95.371
 21
35.7513
  0
LINE
  8
0
 10
95.371
 20
35.7513
 11
96.262
 21
37.5
  0
LINE
  8
0
 10
96.262
 20
37.5
 11
97.3309
 21
39.146
  0
LINE
  8
0
 10
97.3309
 20
39.146
 11
98.566
 21
40.6712
  0
LINE
  8
0
 10
98.566
 20
40.6712
 11
99.9538
 21
42.059
  0
LINE
  8
0
 10
99.9538
 20
42.059
 11
101.479
 21
43.2941
  0
LINE
  8
0
 10
101.479
 20
43.2941
 11
103.125
 21
44.363
  0
LINE
  8
0
 10
103.125
 20
44.363
 11
104.874
 21
45.254
  0
LINE
  8
0
 10
104.874
 20
45.254
 11
106.706
 21
45.9573
  0
LINE
  8
0
 10
106.706
 20
45.9573
 11
108.602
 21
46.4653
  0
LINE
  8
0
 10
108.602
 20
46.4653
 11
110.54
 21
46.7723
  0
LINE
  8
0
 10
110.54
 20
46.7723
 11
112.5
 21
46.875
  0
LINE
  8
0
 10
112.5
 20
46.875
 11
114.46
 21
46.7723
  0
LINE
  8
0
 10
114.46
 20
46.7723
 11
116.398
 21
46.4653
  0
LINE
  8
0
 10
116.398
 20
46.4653
 11
118.294
 21
45.9573
  0
LINE
  8
0
 10
118.294
 20
45.9573
 11
120.126
 21
45.254
  0
LINE
  8
0
 10
120.126
 20
45.254
 11
121.875
 21
44.363
  0
LINE
  8
0
 10
121.875
 20
44.363
 11
123.521
 21
43.2941
  0
LINE
  8
0
 10
123.521
 20
43.2941
 11
125.046
 21
42.059
  0
LINE
  8
0
 10
125.046
 20
42.059
 11
126.434
 21
40.6712
  0
LINE
  8
0
 10
126.434
 20
40.6712
 11
127.669
 21
39.146
  0
LINE
  8
0
 10
127.669
 20
39.146
 11
128.738
 21
37.5
  0
LINE
  8
0
 10
128.738
 20
37.5
 11
129.629
 21
35.7513
  0
LINE
  8
0
 10
129.629
 20
35.7513
 11
130.332
 21
33.9191
  0
LINE
  8
0
 10
130.332
 20
33.9191
 11
130.84
 21
32.0233
  0
LINE
  8
0
 10
130.84
 20
32.0233
 11
131.147
 21
30.0849
  0
LINE
  8
0
 10
131.147
 20
30.0849
 11
131.25
 21
28.125
  0
LINE
  8
0
 10
131.25
 20
28.125
 11
131.147
 21
26.1651
  0
LINE
  8
0
 10
131.147
 20
26.1651
 11
130.84
 21
24.2267
  0
LINE
  8
0
 10
130.84
 20
24.2267
 11
130.332
 21
22.3309
  0
LINE
  8
0
 10
130.332
 20
22.3309
 11
129.629
 21
20.4987
  0
LINE
  8
0
 10
129.629
 20
20.4987
 11
128.738
 21
18.75
  0
LINE
  8
0
 10
128.738
 20
18.75
 11
127.669
 21
17.104
  0
LINE
  8
0
 10
127.669
 20
17.104
 11
126.434
 21
15.5788
  0
LINE
  8
0
 10
126.434
 20
15.5788
 11
125.046
 21
14.191
  0
LINE
  8
0
 10
125.046
 20
14.191
 11
123.521
 21
12.9559
  0
LINE
  8
0
 10
123.521
 20
12.9559
 11
121.875
 21
11.887
  0
LINE
  8
0
 10
121.875
 20
11.887
 11
120.126
 21
10.996
  0
LINE
  8
0
 10
120.126
 20
10.996
 11
118.294
 21
10.2927
  0
LINE
  8
0
 10
118.294
 20
10.2927
 11
116.398
 21
9.78473
  0
LINE
  8
0
 10
116.398
 20
9.78473
 11
114.46
 21
9.47771
  0
LINE
  8
0
 10
114.46
 20
9.47771
 11
112.5
 21
9.375
  0
LINE
  8
0
 10
112.5
 20
9.375
 11
110.54
 21
9.47771
  0
LINE
  8
0
 10
260.54
 20
9.47771
 11
258.602
 21
9.78473
  0
LINE
  8
0
 10
258.602
 20
9.78473
 11
256.706
 21
10.2927
  0
LINE
  8
0
 10
256.706
 20
10.2927
 11
254.874
 21
10.996
  0
LINE
  8
0
 10
254.874
 20
10.996
 11
253.125
 21
11.887
  0
LINE
  8
0
 10
253.125
 20
11.887
 11
251.479
 21
12.9559
  0
LINE
  8
0
 10
251.479
 20
12.9559
 11
249.954
 21
14.191
  0
LINE
  8
0
 10
249.954
 20
14.191
 11
248.566
 21
15.5788
  0
LINE
  8
0
 10
248.566
 20
15.5788
 11
247.331
 21
17.104
  0
LINE
  8
0
 10
247.331
 20
17.104
 11
246.262
 21
18.75
  0
LINE
  8
0
 10
246.262
 20
18.75
 11
245.371
 21
20.4987
  0
LINE
  8
0
 10
245.371
 20
20.4987
 11
244.668
 21
22.3309
  0
LINE
  8
0
 10
244.668
 20
22.3309
 11
244.16
 21
24.2267
  0
LINE
  8
0
 10
244.16
 20
24.2267
 11
243.853
 21
26.1651
  0
LINE
  8
0
 10
243.853
 20
26.1651
 11
243.75
 21
28.125
  0
LINE
  8
0
 10
243.75
 20
28.125
 11
243.853
 21
30.0849
  0
LINE
  8
0
 10
243.853
 20
30.0849
 11
244.16
 21
32.0233
  0
LINE
  8
0
 10
244.16
 20
32.0233
 11
244.668
 21
33.9191
  0
LINE
  8
0
 10
244.668
 20
33.9191
 11
245.371
 21
35.7513
  0
LINE
  8
0
 10
245.371
 20
35.7513
 11
246.262
 21
37.5
  0
LINE
  8
0
 10
246.262
 20
37.5
 11
247.331
 21
39.146
  0
LINE
  8
0
 10
247.331
 20
39.146
 11
248.566
 21
40.6712
  0
LINE
  8
0
 10
248.566
 20
40.6712
 11
249.954
 21
42.059
  0
LINE
  8
0
 10
249.954
 20
42.059
 11
251.479
 21
43.2941
  0
LINE
  8
0
 10
251.479
 20
43.2941
 11
253.125
 21
44.363
  0
LINE
  8
0
 10
253.125
 20
44.363
 11
254.874
 21
45.254
  0
LINE
  8
0
 10
254.874
 20
45.254
 11
256.706
 21
45.9573
  0
LINE
  8
0
 10
256.706
 20
45.9573
 11
258.602
 21
46.4653
  0
LINE
  8
0
 10
258.602
 20
46.4653
 11
260.54
 21
46.7723
  0
LINE
  8
0
 10
260.54
 20
46.7723
 11
262.5
 21
46.875
  0
LINE
  8
0
 10
262.5
 20
46.875
 11
264.46
 21
46.7723
  0
LINE
  8
0
 10
264.46
 20
46.7723
 11
266.398
 21
46.4653
  0
LINE
  8
0
 10
266.398
 20
46.4653
 11
268.294
 21
45.9573
  0
LINE
  8
0
 10
268.294
 20
45.9573
 11
270.126
 21
45.254
  0
LINE
  8
0
 10
270.126
 20
45.254
 11
271.875
 21
44.363
  0
LINE
  8
0
 10
271.875
 20
44.363
 11
273.521
 21
43.2941
  0
LINE
  8
0
 10
273.521
 20
43.2941
 11
275.046
 21
42.059
  0
LINE
  8
0
 10
275.046
 20
42.059
 11
276.434
 21
40.6712
  0
LINE
  8
0
 10
276.434
 20
40.6712
 11
277.669
 21
39.146
  0
LINE
  8
0
 10
277.669
 20
39.146
 11
278.738
 21
37.5
  0
LINE
  8
0
 10
278.738
 20
37.5
 11
279.629
 21
35.7513
  0
LINE
  8
0
 10
279.629
 20
35.7513
 11
280.332
 21
33.9191
  0
LINE
  8
0
 10
280.332
 20
33.9191
 11
280.84
 21
32.0233
  0
LINE
  8
0
 10
280.84
 20
32.0233
 11
281.147
 21
30.0849
  0
LINE
  8
0
 10
281.147
 20
30.0849
 11
281.25
 21
28.125
  0
LINE
  8
0
 10
281.25
 20
28.125
 11
281.147
 21
26.1651
  0
LINE
  8
0
 10
281.147
 20
26.1651
 11
280.84
 21
24.2267
  0
LINE
  8
0
 10
280.84
 20
24.2267
 11
280.332
 21
22.3309
  0
LINE
  8
0
 10
280.332
 20
22.3309
 11
279.629
 21
20.4987
  0
LINE
  8
0
 10
279.629
 20
20.4987
 11
278.738
 21
18.75
  0
LINE
  8
0
 10
278.738
 20
18.75
 11
277.669
 21
17.104
  0
LINE
  8
0
 10
277.669
 20
17.104
 11
276.434
 21
15.5788
  0
LINE
  8
0
 10
276.434
 20
15.5788
 11
275.046
 21
14.191
  0
LINE
  8
0
 10
275.046
 20
14.191
 11
273.521
 21
12.9559
  0
LINE
  8
0
 10
273.521
 20
12.9559
 11
271.875
 21
11.887
  0
LINE
  8
0
 10
271.875
 20
11.887
 11
270.126
 21
10.996
  0
LINE
  8
0
 10
270.126
 20
10.996
 11
268.294
 21
10.2927
  0
LINE
  8
0
 10
268.294
 20
10.2927
 11
266.398
 21
9.78473
  0
LINE
  8
0
 10
266.398
 20
9.78473
 11
264.46
 21
9.47771
  0
LINE
  8
0
 10
264.46
 20
9.47771
 11
262.5
 21
9.375
  0
LINE
  8
0
 10
262.5
 20
9.375
 11
260.54
 21
9.47771
  0
LINE
  8
0
 10
35.5401
 20
9.47771
 11
33.6017
 21
9.78473
  0
LINE
  8
0
 10
33.6017
 20
9.78473
 11
31.7059
 21
10.2927
  0
LINE
  8
0
 10
31.7059
 20
10.2927
 11
29.8737
 21
10.996
  0
LINE
  8
0
 10
29.8737
 20
10.996
 11
28.125
 21
11.887
  0
LINE
  8
0
 10
28.125
 20
11.887
 11
26.479
 21
12.9559
  0
LINE
  8
0
 10
26.479
 20
12.9559
 11
24.9538
 21
14.191
  0
LINE
  8
0
 10
24.9538
 20
14.191
 11
23.566
 21
15.5788
  0
LINE
  8
0
 10
23.566
 20
15.5788
 11
22.3309
 21
17.104
  0
LINE
  8
0
 10
22.3309
 20
17.104
 11
21.262
 21
18.75
  0
LINE
  8
0
 10
21.262
 20
18.75
 11
20.371
 21
20.4987
  0
LINE
  8
0
 10
20.371
 20
20.4987
 11
19.6677
 21
22.3309
  0
LINE
  8
0
 10
19.6677
 20
22.3309
 11
19.1597
 21
24.2267
  0
LINE
  8
0
 10
19.1597
 20
24.2267
 11
18.8527
 21
26.1651
  0
LINE
  8
0
 10
18.8527
 20
26.1651
 11
18.75
 21
28.125
  0
LINE
  8
0
 10
18.75
 20
28.125
 11
18.8527
 21
30.0849
  0
LINE
  8
0
 10
18.8527
 20
30.0849
 11
19.1597
 21
32.0233
  0
LINE
  8
0
 10
19.1597
 20
32.0233
 11
19.6677
 21
33.9191
  0
LINE
  8
0
 10
19.6677
 20
33.9191
 11
20.371
 21
35.7513
  0
LINE
  8
0
 10
20.371
 20
35.7513
 11
21.262
 21
37.5
  0
LINE
  8
0
 10
21.262
 20
37.5
 11
22.3309
 21
39.146
  0
LINE
  8
0
 10
22.3309
 20
39.146
 11
23.566
 21
40.6712
  0
LINE
  8
0
 10
23.566
 20
40.6712
 11
24.9538
 21
42.059
  0
LINE
  8
0
 10
24.9538
 20
42.059
 11
26.479
 21
43.2941
  0
LINE
  8
0
 10
26.479
 20
43.2941
 11
28.125
 21
44.363
  0
LINE
  8
0
 10
28.125
 20
44.363
 11
29.8737
 21
45.254
  0
LINE
  8
0
 10
29.8737
 20
45.254
 11
31.7059
 21
45.9573
  0
LINE
  8
0
 10
31.7059
 20
45.9573
 11
33.6017
 21
46.4653
  0
LINE
  8
0
 10
33.6017
 20
46.4653
 11
35.5401
 21
46.7723
  0
LINE
  8
0
 10
35.5401
 20
46.7723
 11
37.5
 21
46.875
  0
LINE
  8
0
 10
37.5
 20
46.875
 11
39.4599
 21
46.7723
  0
LINE
  8
0
 10
39.4599
 20
46.7723
 11
41.3983
 21
46.4653
  0
LINE
  8
0
 10
41.3983
 20
46.4653
 11
43.2941
 21
45.9573
  0
LINE
  8
0
 10
43.2941
 20
45.9573
 11
45.1263
 21
45.254
  0
LINE
  8
0
 10
45.1263
 20
45.254
 11
46.875
 21
44.363
  0
LINE
  8
0
 10
46.875
 20
44.363
 11
48.521
 21
43.2941
  0
LINE
  8
0
 10
48.521
 20
43.2941
 11
50.0462
 21
42.059
  0
LINE
  8
0
 10
50.0462
 20
42.059
 11
51.434
 21
40.6712
  0
LINE
  8
0
 10
51.434
 20
40.6712
 11
52.6691
 21
39.146
  0
LINE
  8
0
 10
52.6691
 20
39.146
 11
53.738
 21
37.5
  0
LINE
  8
0
 10
53.738
 20
37.5
 11
54.629
 21
35.7513
  0
LINE
  8
0
 10
54.629
 20
35.7513
 11
55.3323
 21
33.9191
  0
LINE
  8
0
 10
55.3323
 20
33.9191
 11
55.8403
 21
32.0233
  0
LINE
  8
0
 10
55.8403
 20
32.0233
 11
56.1473
 21
30.0849
  0
LINE
  8
0
 10
56.1473
 20
30.0849
 11
56.25
 21
28.125
  0
LINE
  8
0
 10
56.25
 20
28.125
 11
56.1473
 21
26.1651
  0
LINE
  8
0
 10
56.1473
 20
26.1651
 11
55.8403
 21
24.2267
  0
LINE
  8
0
 10
55.8403
 20
24.2267
 11
55.3323
 21
22.3309
  0
LINE
  8
0
 10
55.3323
 20
22.3309
 11
54.629
 21
20.4987
  0
LINE
  8
0
 10
54.629
 20
20.4987
 11
53.738
 21
18.75
  0
LINE
  8
0
 10
53.738
 20
18.75
 11
52.6691
 21
17.104
  0
LINE
  8
0
 10
52.6691
 20
17.104
 11
51.434
 21
15.5788
  0
LINE
  8
0
 10
51.434
 20
15.5788
 11
50.0462
 21
14.191
  0
LINE
  8
0
 10
50.0462
 20
14.191
 11
48.521
 21
12.9559
  0
LINE
  8
0
 10
48.521
 20
12.9559
 11
46.875
 21
11.887
  0
LINE
  8
0
 10
46.875
 20
11.887
 11
45.1263
 21
10.996
  0
LINE
  8
0
 10
45.1263
 20
10.996
 11
43.2941
 21
10.2927
  0
LINE
  8
0
 10
43.2941
 20
10.2927
 11
41.3983
 21
9.78473
  0
LINE
  8
0
 10
41.3983
 20
9.78473
 11
39.4599
 21
9.47771
  0
LINE
  8
0
 10
39.4599
 20
9.47771
 11
37.5
 21
9.375
  0
LINE
  8
0
 10
37.5
 20
9.375
 11
35.5401
 21
9.47771
  0
LINE
  8
0
 10
-21.1956
 20
49.4664
 11
-20.9029
 21
49.5038
  0
LINE
  8
0
 10
-20.9029
 20
49.5038
 11
-20.6251
 21
49.5661
  0
LINE
  8
0
 10
-20.6251
 20
49.5661
 11
-20.3621
 21
49.6533
  0
LINE
  8
0
 10
-20.3621
 20
49.6533
 11
-20.114
 21
49.7655
  0
LINE
  8
0
 10
-20.114
 20
49.7655
 11
-19.8808
 21
49.9025
  0
LINE
  8
0
 10
-19.8808
 20
49.9025
 11
-19.6624
 21
50.0645
  0
LINE
  8
0
 10
-19.6624
 20
50.0645
 11
-19.459
 21
50.2514
  0
LINE
  8
0
 10
-19.459
 20
50.2514
 11
-19.2752
 21
50.4591
  0
LINE
  8
0
 10
-19.2752
 20
50.4591
 11
-19.1159
 21
50.6839
  0
LINE
  8
0
 10
-19.1159
 20
50.6839
 11
-18.9811
 21
50.9257
  0
LINE
  8
0
 10
-18.9811
 20
50.9257
 11
-18.8708
 21
51.1846
  0
LINE
  8
0
 10
-18.8708
 20
51.1846
 11
-18.785
 21
51.4606
  0
LINE
  8
0
 10
-18.785
 20
51.4606
 11
-18.7238
 21
51.7536
  0
LINE
  8
0
 10
-18.7238
 20
51.7536
 11
-18.687
 21
52.0637
  0
LINE
  8
0
 10
-18.687
 20
52.0637
 11
-18.6748
 21
52.3909
  0
LINE
  8
0
 10
-18.6748
 20
52.3909
 11
-18.6838
 21
52.6659
  0
LINE
  8
0
 10
-18.6838
 20
52.6659
 11
-18.711
 21
52.9293
  0
LINE
  8
0
 10
-18.711
 20
52.9293
 11
-18.7564
 21
53.1813
  0
LINE
  8
0
 10
-18.7564
 20
53.1813
 11
-18.8199
 21
53.4218
  0
LINE
  8
0
 10
-18.8199
 20
53.4218
 11
-18.9015
 21
53.6507
  0
LINE
  8
0
 10
-18.9015
 20
53.6507
 11
-19.0013
 21
53.8682
  0
LINE
  8
0
 10
-19.0013
 20
53.8682
 11
-19.1192
 21
54.0741
  0
LINE
  8
0
 10
-19.1192
 20
54.0741
 11
-19.2553
 21
54.2686
  0
LINE
  8
0
 10
-19.2553
 20
54.2686
 11
-16.3736
 21
54.0944
  0
LINE
  8
0
 10
-16.3736
 20
54.0944
 11
-16.3736
 21
49.9831
  0
LINE
  8
0
 10
-16.3736
 20
49.9831
 11
-15.3857
 21
49.9831
  0
LINE
  8
0
 10
-15.3857
 20
49.9831
 11
-15.3857
 21
55.1527
  0
LINE
  8
0
 10
-15.3857
 20
55.1527
 11
-20.2755
 21
55.4563
  0
LINE
  8
0
 10
-20.2755
 20
55.4563
 11
-20.2755
 21
54.3199
  0
LINE
  8
0
 10
-20.2755
 20
54.3199
 11
-20.19
 21
54.2184
  0
LINE
  8
0
 10
-20.19
 20
54.2184
 11
-20.1109
 21
54.1168
  0
LINE
  8
0
 10
-20.1109
 20
54.1168
 11
-20.0383
 21
54.0152
  0
LINE
  8
0
 10
-20.0383
 20
54.0152
 11
-19.9722
 21
53.9136
  0
LINE
  8
0
 10
-19.9722
 20
53.9136
 11
-19.9125
 21
53.812
  0
LINE
  8
0
 10
-19.9125
 20
53.812
 11
-19.8592
 21
53.7104
  0
LINE
  8
0
 10
-19.8592
 20
53.7104
 11
-19.8124
 21
53.6088
  0
LINE
  8
0
 10
-19.8124
 20
53.6088
 11
-19.7721
 21
53.5072
  0
LINE
  8
0
 10
-19.7721
 20
53.5072
 11
-19.7373
 21
53.4044
  0
LINE
  8
0
 10
-19.7373
 20
53.4044
 11
-19.7071
 21
53.2996
  0
LINE
  8
0
 10
-19.7071
 20
53.2996
 11
-19.6816
 21
53.1927
  0
LINE
  8
0
 10
-19.6816
 20
53.1927
 11
-19.6607
 21
53.0839
  0
LINE
  8
0
 10
-19.6607
 20
53.0839
 11
-19.6445
 21
52.9731
  0
LINE
  8
0
 10
-19.6445
 20
52.9731
 11
-19.6329
 21
52.8604
  0
LINE
  8
0
 10
-19.6329
 20
52.8604
 11
-19.6259
 21
52.7456
  0
LINE
  8
0
 10
-19.6259
 20
52.7456
 11
-19.6236
 21
52.6288
  0
LINE
  8
0
 10
-19.6236
 20
52.6288
 11
-19.6318
 21
52.4088
  0
LINE
  8
0
 10
-19.6318
 20
52.4088
 11
-19.6565
 21
52.2004
  0
LINE
  8
0
 10
-19.6565
 20
52.2004
 11
-19.6976
 21
52.0036
  0
LINE
  8
0
 10
-19.6976
 20
52.0036
 11
-19.7552
 21
51.8184
  0
LINE
  8
0
 10
-19.7552
 20
51.8184
 11
-19.8292
 21
51.6448
  0
LINE
  8
0
 10
-19.8292
 20
51.6448
 11
-19.9196
 21
51.4828
  0
LINE
  8
0
 10
-19.9196
 20
51.4828
 11
-20.0265
 21
51.3324
  0
LINE
  8
0
 10
-20.0265
 20
51.3324
 11
-20.1499
 21
51.1936
  0
LINE
  8
0
 10
-20.1499
 20
51.1936
 11
-20.2865
 21
51.0687
  0
LINE
  8
0
 10
-20.2865
 20
51.0687
 11
-20.4334
 21
50.9604
  0
LINE
  8
0
 10
-20.4334
 20
50.9604
 11
-20.5905
 21
50.8689
  0
LINE
  8
0
 10
-20.5905
 20
50.8689
 11
-20.7578
 21
50.7939
  0
LINE
  8
0
 10
-20.7578
 20
50.7939
 11
-20.9353
 21
50.7356
  0
LINE
  8
0
 10
-20.9353
 20
50.7356
 11
-21.1229
 21
50.694
  0
LINE
  8
0
 10
-21.1229
 20
50.694
 11
-21.3208
 21
50.669
  0
LINE
  8
0
 10
-21.3208
 20
50.669
 11
-21.5289
 21
50.6607
  0
LINE
  8
0
 10
-21.5289
 20
50.6607
 11
-21.7679
 21
50.6689
  0
LINE
  8
0
 10
-21.7679
 20
50.6689
 11
-21.9937
 21
50.6937
  0
LINE
  8
0
 10
-21.9937
 20
50.6937
 11
-22.2063
 21
50.7351
  0
LINE
  8
0
 10
-22.2063
 20
50.7351
 11
-22.4059
 21
50.793
  0
LINE
  8
0
 10
-22.4059
 20
50.793
 11
-22.5923
 21
50.8674
  0
LINE
  8
0
 10
-22.5923
 20
50.8674
 11
-22.7655
 21
50.9583
  0
LINE
  8
0
 10
-22.7655
 20
50.9583
 11
-22.9256
 21
51.0658
  0
LINE
  8
0
 10
-22.9256
 20
51.0658
 11
-23.0725
 21
51.1898
  0
LINE
  8
0
 10
-23.0725
 20
51.1898
 11
-23.2041
 21
51.3285
  0
LINE
  8
0
 10
-23.2041
 20
51.3285
 11
-23.3182
 21
51.4799
  0
LINE
  8
0
 10
-23.3182
 20
51.4799
 11
-23.4147
 21
51.644
  0
LINE
  8
0
 10
-23.4147
 20
51.644
 11
-23.4937
 21
51.8208
  0
LINE
  8
0
 10
-23.4937
 20
51.8208
 11
-23.5551
 21
52.0104
  0
LINE
  8
0
 10
-23.5551
 20
52.0104
 11
-23.599
 21
52.2126
  0
LINE
  8
0
 10
-23.599
 20
52.2126
 11
-23.6253
 21
52.4277
  0
LINE
  8
0
 10
-23.6253
 20
52.4277
 11
-23.634
 21
52.6554
  0
LINE
  8
0
 10
-23.634
 20
52.6554
 11
-23.613
 21
53.0181
  0
LINE
  8
0
 10
-23.613
 20
53.0181
 11
-23.5497
 21
53.3446
  0
LINE
  8
0
 10
-23.5497
 20
53.3446
 11
-23.4443
 21
53.6351
  0
LINE
  8
0
 10
-23.4443
 20
53.6351
 11
-23.2967
 21
53.8896
  0
LINE
  8
0
 10
-23.2967
 20
53.8896
 11
-23.1069
 21
54.1079
  0
LINE
  8
0
 10
-23.1069
 20
54.1079
 11
-22.875
 21
54.2901
  0
LINE
  8
0
 10
-22.875
 20
54.2901
 11
-22.6008
 21
54.4363
  0
LINE
  8
0
 10
-22.6008
 20
54.4363
 11
-22.2845
 21
54.5465
  0
LINE
  8
0
 10
-22.2845
 20
54.5465
 11
-22.4197
 21
55.7209
  0
LINE
  8
0
 10
-22.4197
 20
55.7209
 11
-22.6751
 21
55.6603
  0
LINE
  8
0
 10
-22.6751
 20
55.6603
 11
-22.9149
 21
55.5817
  0
LINE
  8
0
 10
-22.9149
 20
55.5817
 11
-23.1393
 21
55.4853
  0
LINE
  8
0
 10
-23.1393
 20
55.4853
 11
-23.3481
 21
55.3709
  0
LINE
  8
0
 10
-23.3481
 20
55.3709
 11
-23.5414
 21
55.2385
  0
LINE
  8
0
 10
-23.5414
 20
55.2385
 11
-23.7191
 21
55.0883
  0
LINE
  8
0
 10
-23.7191
 20
55.0883
 11
-23.8813
 21
54.9201
  0
LINE
  8
0
 10
-23.8813
 20
54.9201
 11
-24.0281
 21
54.7339
  0
LINE
  8
0
 10
-24.0281
 20
54.7339
 11
-24.1581
 21
54.5309
  0
LINE
  8
0
 10
-24.1581
 20
54.5309
 11
-24.2708
 21
54.3126
  0
LINE
  8
0
 10
-24.2708
 20
54.3126
 11
-24.3661
 21
54.079
  0
LINE
  8
0
 10
-24.3661
 20
54.079
 11
-24.4442
 21
53.8301
  0
LINE
  8
0
 10
-24.4442
 20
53.8301
 11
-24.5049
 21
53.5658
  0
LINE
  8
0
 10
-24.5049
 20
53.5658
 11
-24.5482
 21
53.2862
  0
LINE
  8
0
 10
-24.5482
 20
53.2862
 11
-24.5742
 21
52.9913
  0
LINE
  8
0
 10
-24.5742
 20
52.9913
 11
-24.5829
 21
52.6811
  0
LINE
  8
0
 10
-24.5829
 20
52.6811
 11
-24.57
 21
52.3122
  0
LINE
  8
0
 10
-24.57
 20
52.3122
 11
-24.5315
 21
51.964
  0
LINE
  8
0
 10
-24.5315
 20
51.964
 11
-24.4673
 21
51.6365
  0
LINE
  8
0
 10
-24.4673
 20
51.6365
 11
-24.3773
 21
51.3297
  0
LINE
  8
0
 10
-24.3773
 20
51.3297
 11
-24.2617
 21
51.0436
  0
LINE
  8
0
 10
-24.2617
 20
51.0436
 11
-24.1204
 21
50.7782
  0
LINE
  8
0
 10
-24.1204
 20
50.7782
 11
-23.9533
 21
50.5335
  0
LINE
  8
0
 10
-23.9533
 20
50.5335
 11
-23.7606
 21
50.3095
  0
LINE
  8
0
 10
-23.7606
 20
50.3095
 11
-23.5453
 21
50.109
  0
LINE
  8
0
 10
-23.5453
 20
50.109
 11
-23.3108
 21
49.9352
  0
LINE
  8
0
 10
-23.3108
 20
49.9352
 11
-23.0573
 21
49.7881
  0
LINE
  8
0
 10
-23.0573
 20
49.7881
 11
-22.7847
 21
49.6678
  0
LINE
  8
0
 10
-22.7847
 20
49.6678
 11
-22.4929
 21
49.5742
  0
LINE
  8
0
 10
-22.4929
 20
49.5742
 11
-22.1821
 21
49.5074
  0
LINE
  8
0
 10
-22.1821
 20
49.5074
 11
-21.8522
 21
49.4673
  0
LINE
  8
0
 10
-21.8522
 20
49.4673
 11
-21.5032
 21
49.4539
  0
LINE
  8
0
 10
-21.5032
 20
49.4539
 11
-21.1956
 21
49.4664
  0
LINE
  8
0
 10
-21.1429
 20
42.3125
 11
-20.8349
 21
42.3472
  0
LINE
  8
0
 10
-20.8349
 20
42.3472
 11
-20.5438
 21
42.405
  0
LINE
  8
0
 10
-20.5438
 20
42.405
 11
-20.2698
 21
42.4859
  0
LINE
  8
0
 10
-20.2698
 20
42.4859
 11
-20.0128
 21
42.5898
  0
LINE
  8
0
 10
-20.0128
 20
42.5898
 11
-19.7728
 21
42.7169
  0
LINE
  8
0
 10
-19.7728
 20
42.7169
 11
-19.5498
 21
42.8671
  0
LINE
  8
0
 10
-19.5498
 20
42.8671
 11
-19.3438
 21
43.0405
  0
LINE
  8
0
 10
-19.3438
 20
43.0405
 11
-19.1584
 21
43.2332
  0
LINE
  8
0
 10
-19.1584
 20
43.2332
 11
-18.9978
 21
43.4422
  0
LINE
  8
0
 10
-18.9978
 20
43.4422
 11
-18.8619
 21
43.6675
  0
LINE
  8
0
 10
-18.8619
 20
43.6675
 11
-18.7507
 21
43.9091
  0
LINE
  8
0
 10
-18.7507
 20
43.9091
 11
-18.6642
 21
44.1669
  0
LINE
  8
0
 10
-18.6642
 20
44.1669
 11
-18.6024
 21
44.441
  0
LINE
  8
0
 10
-18.6024
 20
44.441
 11
-18.5653
 21
44.7314
  0
LINE
  8
0
 10
-18.5653
 20
44.7314
 11
-18.5529
 21
45.0381
  0
LINE
  8
0
 10
-18.5529
 20
45.0381
 11
-18.5578
 21
45.2208
  0
LINE
  8
0
 10
-18.5578
 20
45.2208
 11
-18.5722
 21
45.3983
  0
LINE
  8
0
 10
-18.5722
 20
45.3983
 11
-18.5962
 21
45.5707
  0
LINE
  8
0
 10
-18.5962
 20
45.5707
 11
-18.6298
 21
45.7378
  0
LINE
  8
0
 10
-18.6298
 20
45.7378
 11
-18.673
 21
45.8997
  0
LINE
  8
0
 10
-18.673
 20
45.8997
 11
-18.7258
 21
46.0564
  0
LINE
  8
0
 10
-18.7258
 20
46.0564
 11
-18.7883
 21
46.2079
  0
LINE
  8
0
 10
-18.7883
 20
46.2079
 11
-18.8603
 21
46.3543
  0
LINE
  8
0
 10
-18.8603
 20
46.3543
 11
-18.9413
 21
46.4939
  0
LINE
  8
0
 10
-18.9413
 20
46.4939
 11
-19.0311
 21
46.6255
  0
LINE
  8
0
 10
-19.0311
 20
46.6255
 11
-19.1297
 21
46.749
  0
LINE
  8
0
 10
-19.1297
 20
46.749
 11
-19.237
 21
46.8644
  0
LINE
  8
0
 10
-19.237
 20
46.8644
 11
-19.3531
 21
46.9717
  0
LINE
  8
0
 10
-19.3531
 20
46.9717
 11
-19.4779
 21
47.0709
  0
LINE
  8
0
 10
-19.4779
 20
47.0709
 11
-19.6116
 21
47.162
  0
LINE
  8
0
 10
-19.6116
 20
47.162
 11
-19.754
 21
47.2451
  0
LINE
  8
0
 10
-19.754
 20
47.2451
 11
-19.328
 21
47.2365
  0
LINE
  8
0
 10
-19.328
 20
47.2365
 11
-18.9279
 21
47.211
  0
LINE
  8
0
 10
-18.9279
 20
47.211
 11
-18.5538
 21
47.1684
  0
LINE
  8
0
 10
-18.5538
 20
47.1684
 11
-18.2056
 21
47.1087
  0
LINE
  8
0
 10
-18.2056
 20
47.1087
 11
-17.8833
 21
47.032
  0
LINE
  8
0
 10
-17.8833
 20
47.032
 11
-17.587
 21
46.9383
  0
LINE
  8
0
 10
-17.587
 20
46.9383
 11
-17.3166
 21
46.8275
  0
LINE
  8
0
 10
-17.3166
 20
46.8275
 11
-17.0721
 21
46.6997
  0
LINE
  8
0
 10
-17.0721
 20
46.6997
 11
-16.8548
 21
46.5564
  0
LINE
  8
0
 10
-16.8548
 20
46.5564
 11
-16.6665
 21
46.399
  0
LINE
  8
0
 10
-16.6665
 20
46.399
 11
-16.5072
 21
46.2276
  0
LINE
  8
0
 10
-16.5072
 20
46.2276
 11
-16.3769
 21
46.0421
  0
LINE
  8
0
 10
-16.3769
 20
46.0421
 11
-16.2755
 21
45.8426
  0
LINE
  8
0
 10
-16.2755
 20
45.8426
 11
-16.2031
 21
45.6291
  0
LINE
  8
0
 10
-16.2031
 20
45.6291
 11
-16.1596
 21
45.4015
  0
LINE
  8
0
 10
-16.1596
 20
45.4015
 11
-16.1451
 21
45.1599
  0
LINE
  8
0
 10
-16.1451
 20
45.1599
 11
-16.1625
 21
44.8838
  0
LINE
  8
0
 10
-16.1625
 20
44.8838
 11
-16.2145
 21
44.6331
  0
LINE
  8
0
 10
-16.2145
 20
44.6331
 11
-16.3012
 21
44.4078
  0
LINE
  8
0
 10
-16.3012
 20
44.4078
 11
-16.4226
 21
44.2079
  0
LINE
  8
0
 10
-16.4226
 20
44.2079
 11
-16.5786
 21
44.0335
  0
LINE
  8
0
 10
-16.5786
 20
44.0335
 11
-16.7693
 21
43.8845
  0
LINE
  8
0
 10
-16.7693
 20
43.8845
 11
-16.9947
 21
43.761
  0
LINE
  8
0
 10
-16.9947
 20
43.761
 11
-17.2548
 21
43.6629
  0
LINE
  8
0
 10
-17.2548
 20
43.6629
 11
-17.055
 21
42.5532
  0
LINE
  8
0
 10
-17.055
 20
42.5532
 11
-16.6209
 21
42.7109
  0
LINE
  8
0
 10
-16.6209
 20
42.7109
 11
-16.2447
 21
42.9162
  0
LINE
  8
0
 10
-16.2447
 20
42.9162
 11
-15.9264
 21
43.1692
  0
LINE
  8
0
 10
-15.9264
 20
43.1692
 11
-15.666
 21
43.4697
  0
LINE
  8
0
 10
-15.666
 20
43.4697
 11
-15.4634
 21
43.8177
  0
LINE
  8
0
 10
-15.4634
 20
43.8177
 11
-15.3187
 21
44.2134
  0
LINE
  8
0
 10
-15.3187
 20
44.2134
 11
-15.2319
 21
44.6567
  0
LINE
  8
0
 10
-15.2319
 20
44.6567
 11
-15.203
 21
45.1475
  0
LINE
  8
0
 10
-15.203
 20
45.1475
 11
-15.2228
 21
45.5268
  0
LINE
  8
0
 10
-15.2228
 20
45.5268
 11
-15.2822
 21
45.8837
  0
LINE
  8
0
 10
-15.2822
 20
45.8837
 11
-15.3814
 21
46.2182
  0
LINE
  8
0
 10
-15.3814
 20
46.2182
 11
-15.5201
 21
46.5303
  0
LINE
  8
0
 10
-15.5201
 20
46.5303
 11
-15.6985
 21
46.8201
  0
LINE
  8
0
 10
-15.6985
 20
46.8201
 11
-15.9165
 21
47.0876
  0
LINE
  8
0
 10
-15.9165
 20
47.0876
 11
-16.1742
 21
47.3326
  0
LINE
  8
0
 10
-16.1742
 20
47.3326
 11
-16.4716
 21
47.5553
  0
LINE
  8
0
 10
-16.4716
 20
47.5553
 11
-16.8057
 21
47.7534
  0
LINE
  8
0
 10
-16.8057
 20
47.7534
 11
-17.1741
 21
47.925
  0
LINE
  8
0
 10
-17.1741
 20
47.925
 11
-17.5769
 21
48.0703
  0
LINE
  8
0
 10
-17.5769
 20
48.0703
 11
-18.014
 21
48.1891
  0
LINE
  8
0
 10
-18.014
 20
48.1891
 11
-18.4855
 21
48.2816
  0
LINE
  8
0
 10
-18.4855
 20
48.2816
 11
-18.9914
 21
48.3476
  0
LINE
  8
0
 10
-18.9914
 20
48.3476
 11
-19.5316
 21
48.3872
  0
LINE
  8
0
 10
-19.5316
 20
48.3872
 11
-20.1061
 21
48.4004
  0
LINE
  8
0
 10
-20.1061
 20
48.4004
 11
-20.6366
 21
48.3877
  0
LINE
  8
0
 10
-20.6366
 20
48.3877
 11
-21.1345
 21
48.3496
  0
LINE
  8
0
 10
-21.1345
 20
48.3496
 11
-21.5998
 21
48.2861
  0
LINE
  8
0
 10
-21.5998
 20
48.2861
 11
-22.0326
 21
48.1972
  0
LINE
  8
0
 10
-22.0326
 20
48.1972
 11
-22.4328
 21
48.0829
  0
LINE
  8
0
 10
-22.4328
 20
48.0829
 11
-22.8004
 21
47.9433
  0
LINE
  8
0
 10
-22.8004
 20
47.9433
 11
-23.1355
 21
47.7782
  0
LINE
  8
0
 10
-23.1355
 20
47.7782
 11
-23.438
 21
47.5877
  0
LINE
  8
0
 10
-23.438
 20
47.5877
 11
-23.7063
 21
47.373
  0
LINE
  8
0
 10
-23.7063
 20
47.373
 11
-23.9389
 21
47.1357
  0
LINE
  8
0
 10
-23.9389
 20
47.1357
 11
-24.1357
 21
46.8758
  0
LINE
  8
0
 10
-24.1357
 20
46.8758
 11
-24.2967
 21
46.5934
  0
LINE
  8
0
 10
-24.2967
 20
46.5934
 11
-24.4219
 21
46.2884
  0
LINE
  8
0
 10
-24.4219
 20
46.2884
 11
-24.5113
 21
45.9608
  0
LINE
  8
0
 10
-24.5113
 20
45.9608
 11
-24.565
 21
45.6106
  0
LINE
  8
0
 10
-24.565
 20
45.6106
 11
-24.5829
 21
45.2379
  0
LINE
  8
0
 10
-24.5829
 20
45.2379
 11
-24.5698
 21
44.9034
  0
LINE
  8
0
 10
-24.5698
 20
44.9034
 11
-24.5307
 21
44.5875
  0
LINE
  8
0
 10
-24.5307
 20
44.5875
 11
-24.4654
 21
44.2902
  0
LINE
  8
0
 10
-24.4654
 20
44.2902
 11
-24.374
 21
44.0114
  0
LINE
  8
0
 10
-24.374
 20
44.0114
 11
-24.2565
 21
43.7513
  0
LINE
  8
0
 10
-24.2565
 20
43.7513
 11
-24.1129
 21
43.5097
  0
LINE
  8
0
 10
-24.1129
 20
43.5097
 11
-23.9431
 21
43.2867
  0
LINE
  8
0
 10
-23.9431
 20
43.2867
 11
-23.7473
 21
43.0823
  0
LINE
  8
0
 10
-23.7473
 20
43.0823
 11
-23.5289
 21
42.8992
  0
LINE
  8
0
 10
-23.5289
 20
42.8992
 11
-23.2915
 21
42.7405
  0
LINE
  8
0
 10
-23.2915
 20
42.7405
 11
-23.0351
 21
42.6062
  0
LINE
  8
0
 10
-23.0351
 20
42.6062
 11
-22.7597
 21
42.4963
  0
LINE
  8
0
 10
-22.7597
 20
42.4963
 11
-22.4653
 21
42.4109
  0
LINE
  8
0
 10
-22.4653
 20
42.4109
 11
-22.1518
 21
42.3498
  0
LINE
  8
0
 10
-22.1518
 20
42.3498
 11
-21.8194
 21
42.3132
  0
LINE
  8
0
 10
-21.8194
 20
42.3132
 11
-21.468
 21
42.301
  0
LINE
  8
0
 10
-21.468
 20
42.301
 11
-21.1429
 21
42.3125
  0
LINE
  8
0
 10
-21.7609
 20
43.4895
 11
-21.9892
 21
43.5119
  0
LINE
  8
0
 10
-21.9892
 20
43.5119
 11
-22.2041
 21
43.5492
  0
LINE
  8
0
 10
-22.2041
 20
43.5492
 11
-22.4059
 21
43.6015
  0
LINE
  8
0
 10
-22.4059
 20
43.6015
 11
-22.5943
 21
43.6687
  0
LINE
  8
0
 10
-22.5943
 20
43.6687
 11
-22.7695
 21
43.7508
  0
LINE
  8
0
 10
-22.7695
 20
43.7508
 11
-22.9315
 21
43.8478
  0
LINE
  8
0
 10
-22.9315
 20
43.8478
 11
-23.0802
 21
43.9598
  0
LINE
  8
0
 10
-23.0802
 20
43.9598
 11
-23.2131
 21
44.0849
  0
LINE
  8
0
 10
-23.2131
 20
44.0849
 11
-23.3283
 21
44.2212
  0
LINE
  8
0
 10
-23.3283
 20
44.2212
 11
-23.4258
 21
44.3688
  0
LINE
  8
0
 10
-23.4258
 20
44.3688
 11
-23.5056
 21
44.5277
  0
LINE
  8
0
 10
-23.5056
 20
44.5277
 11
-23.5676
 21
44.6979
  0
LINE
  8
0
 10
-23.5676
 20
44.6979
 11
-23.6119
 21
44.8793
  0
LINE
  8
0
 10
-23.6119
 20
44.8793
 11
-23.6385
 21
45.072
  0
LINE
  8
0
 10
-23.6385
 20
45.072
 11
-23.6474
 21
45.276
  0
LINE
  8
0
 10
-23.6474
 20
45.276
 11
-23.6368
 21
45.4748
  0
LINE
  8
0
 10
-23.6368
 20
45.4748
 11
-23.6052
 21
45.6645
  0
LINE
  8
0
 10
-23.6052
 20
45.6645
 11
-23.5525
 21
45.8449
  0
LINE
  8
0
 10
-23.5525
 20
45.8449
 11
-23.4787
 21
46.0162
  0
LINE
  8
0
 10
-23.4787
 20
46.0162
 11
-23.3838
 21
46.1782
  0
LINE
  8
0
 10
-23.3838
 20
46.1782
 11
-23.2678
 21
46.3311
  0
LINE
  8
0
 10
-23.2678
 20
46.3311
 11
-23.1308
 21
46.4748
  0
LINE
  8
0
 10
-23.1308
 20
46.4748
 11
-22.9726
 21
46.6093
  0
LINE
  8
0
 10
-22.9726
 20
46.6093
 11
-22.7979
 21
46.7311
  0
LINE
  8
0
 10
-22.7979
 20
46.7311
 11
-22.6113
 21
46.8367
  0
LINE
  8
0
 10
-22.6113
 20
46.8367
 11
-22.4128
 21
46.926
  0
LINE
  8
0
 10
-22.4128
 20
46.926
 11
-22.2022
 21
46.999
  0
LINE
  8
0
 10
-22.2022
 20
46.999
 11
-21.9797
 21
47.0559
  0
LINE
  8
0
 10
-21.9797
 20
47.0559
 11
-21.7453
 21
47.0965
  0
LINE
  8
0
 10
-21.7453
 20
47.0965
 11
-21.4989
 21
47.1208
  0
LINE
  8
0
 10
-21.4989
 20
47.1208
 11
-21.2405
 21
47.129
  0
LINE
  8
0
 10
-21.2405
 20
47.129
 11
-21.037
 21
47.1211
  0
LINE
  8
0
 10
-21.037
 20
47.1211
 11
-20.8447
 21
47.0977
  0
LINE
  8
0
 10
-20.8447
 20
47.0977
 11
-20.6637
 21
47.0587
  0
LINE
  8
0
 10
-20.6637
 20
47.0587
 11
-20.4939
 21
47.004
  0
LINE
  8
0
 10
-20.4939
 20
47.004
 11
-20.3354
 21
46.9338
  0
LINE
  8
0
 10
-20.3354
 20
46.9338
 11
-20.1881
 21
46.8479
  0
LINE
  8
0
 10
-20.1881
 20
46.8479
 11
-20.052
 21
46.7464
  0
LINE
  8
0
 10
-20.052
 20
46.7464
 11
-19.9272
 21
46.6293
  0
LINE
  8
0
 10
-19.9272
 20
46.6293
 11
-19.8154
 21
46.4993
  0
LINE
  8
0
 10
-19.8154
 20
46.4993
 11
-19.7186
 21
46.3595
  0
LINE
  8
0
 10
-19.7186
 20
46.3595
 11
-19.6366
 21
46.2098
  0
LINE
  8
0
 10
-19.6366
 20
46.2098
 11
-19.5696
 21
46.0504
  0
LINE
  8
0
 10
-19.5696
 20
46.0504
 11
-19.5175
 21
45.8813
  0
LINE
  8
0
 10
-19.5175
 20
45.8813
 11
-19.4802
 21
45.7023
  0
LINE
  8
0
 10
-19.4802
 20
45.7023
 11
-19.4578
 21
45.5135
  0
LINE
  8
0
 10
-19.4578
 20
45.5135
 11
-19.4504
 21
45.315
  0
LINE
  8
0
 10
-19.4504
 20
45.315
 11
-19.4588
 21
45.1047
  0
LINE
  8
0
 10
-19.4588
 20
45.1047
 11
-19.4841
 21
44.9063
  0
LINE
  8
0
 10
-19.4841
 20
44.9063
 11
-19.5262
 21
44.7198
  0
LINE
  8
0
 10
-19.5262
 20
44.7198
 11
-19.5851
 21
44.5453
  0
LINE
  8
0
 10
-19.5851
 20
44.5453
 11
-19.6608
 21
44.3827
  0
LINE
  8
0
 10
-19.6608
 20
44.3827
 11
-19.7534
 21
44.232
  0
LINE
  8
0
 10
-19.7534
 20
44.232
 11
-19.8628
 21
44.0933
  0
LINE
  8
0
 10
-19.8628
 20
44.0933
 11
-19.9891
 21
43.9664
  0
LINE
  8
0
 10
-19.9891
 20
43.9664
 11
-20.1306
 21
43.8529
  0
LINE
  8
0
 10
-20.1306
 20
43.8529
 11
-20.2863
 21
43.7545
  0
LINE
  8
0
 10
-20.2863
 20
43.7545
 11
-20.4563
 21
43.6713
  0
LINE
  8
0
 10
-20.4563
 20
43.6713
 11
-20.6405
 21
43.6031
  0
LINE
  8
0
 10
-20.6405
 20
43.6031
 11
-20.8389
 21
43.5502
  0
LINE
  8
0
 10
-20.8389
 20
43.5502
 11
-21.0515
 21
43.5123
  0
LINE
  8
0
 10
-21.0515
 20
43.5123
 11
-21.2783
 21
43.4896
  0
LINE
  8
0
 10
-21.2783
 20
43.4896
 11
-21.5194
 21
43.482
  0
LINE
  8
0
 10
-21.5194
 20
43.482
 11
-21.7609
 21
43.4895
  0
LINE
  8
0
 10
-23.0602
 20
40.686
 11
-24.4611
 21
40.686
  0
LINE
  8
0
 10
-24.4611
 20
40.686
 11
-24.4611
 21
39.4278
  0
LINE
  8
0
 10
-24.4611
 20
39.4278
 11
-23.0602
 21
39.4278
  0
LINE
  8
0
 10
-23.0602
 20
39.4278
 11
-23.0602
 21
40.686
  0
LINE
  8
0
 10
-23.4732
 20
36.3638
 11
-23.3594
 21
36.3116
  0
LINE
  8
0
 10
-23.3594
 20
36.3116
 11
-23.2444
 21
36.2518
  0
LINE
  8
0
 10
-23.2444
 20
36.2518
 11
-23.1284
 21
36.1844
  0
LINE
  8
0
 10
-23.1284
 20
36.1844
 11
-23.0112
 21
36.1092
  0
LINE
  8
0
 10
-23.0112
 20
36.1092
 11
-22.8928
 21
36.0264
  0
LINE
  8
0
 10
-22.8928
 20
36.0264
 11
-22.7734
 21
35.9359
  0
LINE
  8
0
 10
-22.7734
 20
35.9359
 11
-22.6528
 21
35.8377
  0
LINE
  8
0
 10
-22.6528
 20
35.8377
 11
-22.531
 21
35.7319
  0
LINE
  8
0
 10
-22.531
 20
35.7319
 11
-22.4069
 21
35.6172
  0
LINE
  8
0
 10
-22.4069
 20
35.6172
 11
-22.279
 21
35.4931
  0
LINE
  8
0
 10
-22.279
 20
35.4931
 11
-22.1473
 21
35.3595
  0
LINE
  8
0
 10
-22.1473
 20
35.3595
 11
-22.0119
 21
35.2165
  0
LINE
  8
0
 10
-22.0119
 20
35.2165
 11
-21.8727
 21
35.064
  0
LINE
  8
0
 10
-21.8727
 20
35.064
 11
-21.7298
 21
34.9021
  0
LINE
  8
0
 10
-21.7298
 20
34.9021
 11
-21.5832
 21
34.7307
  0
LINE
  8
0
 10
-21.5832
 20
34.7307
 11
-21.4328
 21
34.5498
  0
LINE
  8
0
 10
-21.4328
 20
34.5498
 11
-21.1667
 21
34.2263
  0
LINE
  8
0
 10
-21.1667
 20
34.2263
 11
-20.9187
 21
33.9301
  0
LINE
  8
0
 10
-20.9187
 20
33.9301
 11
-20.6886
 21
33.661
  0
LINE
  8
0
 10
-20.6886
 20
33.661
 11
-20.4765
 21
33.4192
  0
LINE
  8
0
 10
-20.4765
 20
33.4192
 11
-20.2825
 21
33.2047
  0
LINE
  8
0
 10
-20.2825
 20
33.2047
 11
-20.1064
 21
33.0174
  0
LINE
  8
0
 10
-20.1064
 20
33.0174
 11
-19.9483
 21
32.8573
  0
LINE
  8
0
 10
-19.9483
 20
32.8573
 11
-19.8082
 21
32.7245
  0
LINE
  8
0
 10
-19.8082
 20
32.7245
 11
-19.6769
 21
32.6087
  0
LINE
  8
0
 10
-19.6769
 20
32.6087
 11
-19.5456
 21
32.5004
  0
LINE
  8
0
 10
-19.5456
 20
32.5004
 11
-19.4144
 21
32.3994
  0
LINE
  8
0
 10
-19.4144
 20
32.3994
 11
-19.2831
 21
32.3057
  0
LINE
  8
0
 10
-19.2831
 20
32.3057
 11
-19.1519
 21
32.2195
  0
LINE
  8
0
 10
-19.1519
 20
32.2195
 11
-19.0208
 21
32.1406
  0
LINE
  8
0
 10
-19.0208
 20
32.1406
 11
-18.8896
 21
32.0691
  0
LINE
  8
0
 10
-18.8896
 20
32.0691
 11
-18.7585
 21
32.005
  0
LINE
  8
0
 10
-18.7585
 20
32.005
 11
-18.6273
 21
31.9481
  0
LINE
  8
0
 10
-18.6273
 20
31.9481
 11
-18.4959
 21
31.8988
  0
LINE
  8
0
 10
-18.4959
 20
31.8988
 11
-18.3643
 21
31.8571
  0
LINE
  8
0
 10
-18.3643
 20
31.8571
 11
-18.2325
 21
31.823
  0
LINE
  8
0
 10
-18.2325
 20
31.823
 11
-18.1004
 21
31.7964
  0
LINE
  8
0
 10
-18.1004
 20
31.7964
 11
-17.9682
 21
31.7775
  0
LINE
  8
0
 10
-17.9682
 20
31.7775
 11
-17.8357
 21
31.7661
  0
LINE
  8
0
 10
-17.8357
 20
31.7661
 11
-17.7031
 21
31.7623
  0
LINE
  8
0
 10
-17.7031
 20
31.7623
 11
-17.4121
 21
31.7739
  0
LINE
  8
0
 10
-17.4121
 20
31.7739
 11
-17.1382
 21
31.8085
  0
LINE
  8
0
 10
-17.1382
 20
31.8085
 11
-16.8814
 21
31.8663
  0
LINE
  8
0
 10
-16.8814
 20
31.8663
 11
-16.6417
 21
31.9472
  0
LINE
  8
0
 10
-16.6417
 20
31.9472
 11
-16.4191
 21
32.0512
  0
LINE
  8
0
 10
-16.4191
 20
32.0512
 11
-16.2136
 21
32.1783
  0
LINE
  8
0
 10
-16.2136
 20
32.1783
 11
-16.0252
 21
32.3285
  0
LINE
  8
0
 10
-16.0252
 20
32.3285
 11
-15.8539
 21
32.5018
  0
LINE
  8
0
 10
-15.8539
 20
32.5018
 11
-15.7014
 21
32.6963
  0
LINE
  8
0
 10
-15.7014
 20
32.6963
 11
-15.5691
 21
32.9108
  0
LINE
  8
0
 10
-15.5691
 20
32.9108
 11
-15.4572
 21
33.1451
  0
LINE
  8
0
 10
-15.4572
 20
33.1451
 11
-15.3657
 21
33.3992
  0
LINE
  8
0
 10
-15.3657
 20
33.3992
 11
-15.2945
 21
33.6733
  0
LINE
  8
0
 10
-15.2945
 20
33.6733
 11
-15.2437
 21
33.9672
  0
LINE
  8
0
 10
-15.2437
 20
33.9672
 11
-15.2131
 21
34.2809
  0
LINE
  8
0
 10
-15.2131
 20
34.2809
 11
-15.203
 21
34.6145
  0
LINE
  8
0
 10
-15.203
 20
34.6145
 11
-15.213
 21
34.9205
  0
LINE
  8
0
 10
-15.213
 20
34.9205
 11
-15.2433
 21
35.2123
  0
LINE
  8
0
 10
-15.2433
 20
35.2123
 11
-15.2937
 21
35.4898
  0
LINE
  8
0
 10
-15.2937
 20
35.4898
 11
-15.3643
 21
35.753
  0
LINE
  8
0
 10
-15.3643
 20
35.753
 11
-15.455
 21
36.002
  0
LINE
  8
0
 10
-15.455
 20
36.002
 11
-15.5659
 21
36.2368
  0
LINE
  8
0
 10
-15.5659
 20
36.2368
 11
-15.697
 21
36.4573
  0
LINE
  8
0
 10
-15.697
 20
36.4573
 11
-15.8482
 21
36.6636
  0
LINE
  8
0
 10
-15.8482
 20
36.6636
 11
-16.0165
 21
36.8523
  0
LINE
  8
0
 10
-16.0165
 20
36.8523
 11
-16.1987
 21
37.0202
  0
LINE
  8
0
 10
-16.1987
 20
37.0202
 11
-16.3948
 21
37.1672
  0
LINE
  8
0
 10
-16.3948
 20
37.1672
 11
-16.6048
 21
37.2934
  0
LINE
  8
0
 10
-16.6048
 20
37.2934
 11
-16.8288
 21
37.3987
  0
LINE
  8
0
 10
-16.8288
 20
37.3987
 11
-17.0666
 21
37.4832
  0
LINE
  8
0
 10
-17.0666
 20
37.4832
 11
-17.3184
 21
37.5468
  0
LINE
  8
0
 10
-17.3184
 20
37.5468
 11
-17.5841
 21
37.5896
  0
LINE
  8
0
 10
-17.5841
 20
37.5896
 11
-17.6936
 21
36.4028
  0
LINE
  8
0
 10
-17.6936
 20
36.4028
 11
-17.5164
 21
36.3757
  0
LINE
  8
0
 10
-17.5164
 20
36.3757
 11
-17.3495
 21
36.3361
  0
LINE
  8
0
 10
-17.3495
 20
36.3361
 11
-17.1927
 21
36.2842
  0
LINE
  8
0
 10
-17.1927
 20
36.2842
 11
-17.0462
 21
36.2198
  0
LINE
  8
0
 10
-17.0462
 20
36.2198
 11
-16.9098
 21
36.1431
  0
LINE
  8
0
 10
-16.9098
 20
36.1431
 11
-16.7837
 21
36.0539
  0
LINE
  8
0
 10
-16.7837
 20
36.0539
 11
-16.6677
 21
35.9524
  0
LINE
  8
0
 10
-16.6677
 20
35.9524
 11
-16.562
 21
35.8384
  0
LINE
  8
0
 10
-16.562
 20
35.8384
 11
-16.4674
 21
35.714
  0
LINE
  8
0
 10
-16.4674
 20
35.714
 11
-16.3855
 21
35.5814
  0
LINE
  8
0
 10
-16.3855
 20
35.5814
 11
-16.3161
 21
35.4406
  0
LINE
  8
0
 10
-16.3161
 20
35.4406
 11
-16.2593
 21
35.2917
  0
LINE
  8
0
 10
-16.2593
 20
35.2917
 11
-16.2152
 21
35.1346
  0
LINE
  8
0
 10
-16.2152
 20
35.1346
 11
-16.1837
 21
34.9694
  0
LINE
  8
0
 10
-16.1837
 20
34.9694
 11
-16.1648
 21
34.7961
  0
LINE
  8
0
 10
-16.1648
 20
34.7961
 11
-16.1585
 21
34.6145
  0
LINE
  8
0
 10
-16.1585
 20
34.6145
 11
-16.165
 21
34.4246
  0
LINE
  8
0
 10
-16.165
 20
34.4246
 11
-16.1844
 21
34.2453
  0
LINE
  8
0
 10
-16.1844
 20
34.2453
 11
-16.2169
 21
34.0767
  0
LINE
  8
0
 10
-16.2169
 20
34.0767
 11
-16.2624
 21
33.9189
  0
LINE
  8
0
 10
-16.2624
 20
33.9189
 11
-16.3209
 21
33.7717
  0
LINE
  8
0
 10
-16.3209
 20
33.7717
 11
-16.3924
 21
33.6353
  0
LINE
  8
0
 10
-16.3924
 20
33.6353
 11
-16.4769
 21
33.5095
  0
LINE
  8
0
 10
-16.4769
 20
33.5095
 11
-16.5744
 21
33.3945
  0
LINE
  8
0
 10
-16.5744
 20
33.3945
 11
-16.6834
 21
33.2916
  0
LINE
  8
0
 10
-16.6834
 20
33.2916
 11
-16.8029
 21
33.2025
  0
LINE
  8
0
 10
-16.8029
 20
33.2025
 11
-16.9331
 21
33.1271
  0
LINE
  8
0
 10
-16.9331
 20
33.1271
 11
-17.0738
 21
33.0654
  0
LINE
  8
0
 10
-17.0738
 20
33.0654
 11
-17.225
 21
33.0174
  0
LINE
  8
0
 10
-17.225
 20
33.0174
 11
-17.3868
 21
32.9832
  0
LINE
  8
0
 10
-17.3868
 20
32.9832
 11
-17.5592
 21
32.9626
  0
LINE
  8
0
 10
-17.5592
 20
32.9626
 11
-17.7421
 21
32.9557
  0
LINE
  8
0
 10
-17.7421
 20
32.9557
 11
-17.8795
 21
32.9597
  0
LINE
  8
0
 10
-17.8795
 20
32.9597
 11
-18.0132
 21
32.9717
  0
LINE
  8
0
 10
-18.0132
 20
32.9717
 11
-18.1433
 21
32.9916
  0
LINE
  8
0
 10
-18.1433
 20
32.9916
 11
-18.2698
 21
33.0195
  0
LINE
  8
0
 10
-18.2698
 20
33.0195
 11
-18.3927
 21
33.0554
  0
LINE
  8
0
 10
-18.3927
 20
33.0554
 11
-18.5119
 21
33.0992
  0
LINE
  8
0
 10
-18.5119
 20
33.0992
 11
-18.6275
 21
33.151
  0
LINE
  8
0
 10
-18.6275
 20
33.151
 11
-18.7395
 21
33.2108
  0
LINE
  8
0
 10
-18.7395
 20
33.2108
 11
-18.8488
 21
33.277
  0
LINE
  8
0
 10
-18.8488
 20
33.277
 11
-18.9569
 21
33.3482
  0
LINE
  8
0
 10
-18.9569
 20
33.3482
 11
-19.0639
 21
33.4243
  0
LINE
  8
0
 10
-19.0639
 20
33.4243
 11
-19.1696
 21
33.5054
  0
LINE
  8
0
 10
-19.1696
 20
33.5054
 11
-19.2742
 21
33.5913
  0
LINE
  8
0
 10
-19.2742
 20
33.5913
 11
-19.3776
 21
33.6823
  0
LINE
  8
0
 10
-19.3776
 20
33.6823
 11
-19.4798
 21
33.7781
  0
LINE
  8
0
 10
-19.4798
 20
33.7781
 11
-19.5808
 21
33.8789
  0
LINE
  8
0
 10
-19.5808
 20
33.8789
 11
-19.6812
 21
33.9837
  0
LINE
  8
0
 10
-19.6812
 20
33.9837
 11
-19.7816
 21
34.0916
  0
LINE
  8
0
 10
-19.7816
 20
34.0916
 11
-19.882
 21
34.2027
  0
LINE
  8
0
 10
-19.882
 20
34.2027
 11
-19.9824
 21
34.3169
  0
LINE
  8
0
 10
-19.9824
 20
34.3169
 11
-20.0828
 21
34.4342
  0
LINE
  8
0
 10
-20.0828
 20
34.4342
 11
-20.1832
 21
34.5547
  0
LINE
  8
0
 10
-20.1832
 20
34.5547
 11
-20.2836
 21
34.6782
  0
LINE
  8
0
 10
-20.2836
 20
34.6782
 11
-20.384
 21
34.8049
  0
LINE
  8
0
 10
-20.384
 20
34.8049
 11
-20.4855
 21
34.9333
  0
LINE
  8
0
 10
-20.4855
 20
34.9333
 11
-20.589
 21
35.062
  0
LINE
  8
0
 10
-20.589
 20
35.062
 11
-20.6947
 21
35.1911
  0
LINE
  8
0
 10
-20.6947
 20
35.1911
 11
-20.8025
 21
35.3205
  0
LINE
  8
0
 10
-20.8025
 20
35.3205
 11
-20.9124
 21
35.4502
  0
LINE
  8
0
 10
-20.9124
 20
35.4502
 11
-21.0244
 21
35.5802
  0
LINE
  8
0
 10
-21.0244
 20
35.5802
 11
-21.1386
 21
35.7106
  0
LINE
  8
0
 10
-21.1386
 20
35.7106
 11
-21.2548
 21
35.8413
  0
LINE
  8
0
 10
-21.2548
 20
35.8413
 11
-21.3738
 21
35.9712
  0
LINE
  8
0
 10
-21.3738
 20
35.9712
 11
-21.4963
 21
36.0996
  0
LINE
  8
0
 10
-21.4963
 20
36.0996
 11
-21.6222
 21
36.2265
  0
LINE
  8
0
 10
-21.6222
 20
36.2265
 11
-21.7516
 21
36.3519
  0
LINE
  8
0
 10
-21.7516
 20
36.3519
 11
-21.8844
 21
36.4758
  0
LINE
  8
0
 10
-21.8844
 20
36.4758
 11
-22.0207
 21
36.5983
  0
LINE
  8
0
 10
-22.0207
 20
36.5983
 11
-22.1604
 21
36.7192
  0
LINE
  8
0
 10
-22.1604
 20
36.7192
 11
-22.3036
 21
36.8387
  0
LINE
  8
0
 10
-22.3036
 20
36.8387
 11
-22.4512
 21
36.9549
  0
LINE
  8
0
 10
-22.4512
 20
36.9549
 11
-22.6045
 21
37.0666
  0
LINE
  8
0
 10
-22.6045
 20
37.0666
 11
-22.7633
 21
37.1738
  0
LINE
  8
0
 10
-22.7633
 20
37.1738
 11
-22.9277
 21
37.2765
  0
LINE
  8
0
 10
-22.9277
 20
37.2765
 11
-23.0976
 21
37.3746
  0
LINE
  8
0
 10
-23.0976
 20
37.3746
 11
-23.2731
 21
37.4682
  0
LINE
  8
0
 10
-23.2731
 20
37.4682
 11
-23.4541
 21
37.5573
  0
LINE
  8
0
 10
-23.4541
 20
37.5573
 11
-23.6407
 21
37.6419
  0
LINE
  8
0
 10
-23.6407
 20
37.6419
 11
-24.4611
 21
37.6419
  0
LINE
  8
0
 10
-24.4611
 20
37.6419
 11
-24.4611
 21
31.6205
  0
LINE
  8
0
 10
-24.4611
 20
31.6205
 11
-23.4732
 21
31.6205
  0
LINE
  8
0
 10
-23.4732
 20
31.6205
 11
-23.4732
 21
36.3638
  0
LINE
  8
0
 10
-21.1956
 20
24.3439
 11
-20.9029
 21
24.3813
  0
LINE
  8
0
 10
-20.9029
 20
24.3813
 11
-20.6251
 21
24.4436
  0
LINE
  8
0
 10
-20.6251
 20
24.4436
 11
-20.3621
 21
24.5309
  0
LINE
  8
0
 10
-20.3621
 20
24.5309
 11
-20.114
 21
24.643
  0
LINE
  8
0
 10
-20.114
 20
24.643
 11
-19.8808
 21
24.7801
  0
LINE
  8
0
 10
-19.8808
 20
24.7801
 11
-19.6624
 21
24.9421
  0
LINE
  8
0
 10
-19.6624
 20
24.9421
 11
-19.459
 21
25.129
  0
LINE
  8
0
 10
-19.459
 20
25.129
 11
-19.2752
 21
25.3367
  0
LINE
  8
0
 10
-19.2752
 20
25.3367
 11
-19.1159
 21
25.5614
  0
LINE
  8
0
 10
-19.1159
 20
25.5614
 11
-18.9811
 21
25.8032
  0
LINE
  8
0
 10
-18.9811
 20
25.8032
 11
-18.8708
 21
26.0621
  0
LINE
  8
0
 10
-18.8708
 20
26.0621
 11
-18.785
 21
26.3381
  0
LINE
  8
0
 10
-18.785
 20
26.3381
 11
-18.7238
 21
26.6311
  0
LINE
  8
0
 10
-18.7238
 20
26.6311
 11
-18.687
 21
26.9412
  0
LINE
  8
0
 10
-18.687
 20
26.9412
 11
-18.6748
 21
27.2684
  0
LINE
  8
0
 10
-18.6748
 20
27.2684
 11
-18.6838
 21
27.5434
  0
LINE
  8
0
 10
-18.6838
 20
27.5434
 11
-18.711
 21
27.8069
  0
LINE
  8
0
 10
-18.711
 20
27.8069
 11
-18.7564
 21
28.0589
  0
LINE
  8
0
 10
-18.7564
 20
28.0589
 11
-18.8199
 21
28.2993
  0
LINE
  8
0
 10
-18.8199
 20
28.2993
 11
-18.9015
 21
28.5283
  0
LINE
  8
0
 10
-18.9015
 20
28.5283
 11
-19.0013
 21
28.7457
  0
LINE
  8
0
 10
-19.0013
 20
28.7457
 11
-19.1192
 21
28.9517
  0
LINE
  8
0
 10
-19.1192
 20
28.9517
 11
-19.2553
 21
29.1461
  0
LINE
  8
0
 10
-19.2553
 20
29.1461
 11
-16.3736
 21
28.972
  0
LINE
  8
0
 10
-16.3736
 20
28.972
 11
-16.3736
 21
24.8606
  0
LINE
  8
0
 10
-16.3736
 20
24.8606
 11
-15.3857
 21
24.8606
  0
LINE
  8
0
 10
-15.3857
 20
24.8606
 11
-15.3857
 21
30.0302
  0
LINE
  8
0
 10
-15.3857
 20
30.0302
 11
-20.2755
 21
30.3338
  0
LINE
  8
0
 10
-20.2755
 20
30.3338
 11
-20.2755
 21
29.1975
  0
LINE
  8
0
 10
-20.2755
 20
29.1975
 11
-20.19
 21
29.0959
  0
LINE
  8
0
 10
-20.19
 20
29.0959
 11
-20.1109
 21
28.9943
  0
LINE
  8
0
 10
-20.1109
 20
28.9943
 11
-20.0383
 21
28.8927
  0
LINE
  8
0
 10
-20.0383
 20
28.8927
 11
-19.9722
 21
28.7911
  0
LINE
  8
0
 10
-19.9722
 20
28.7911
 11
-19.9125
 21
28.6895
  0
LINE
  8
0
 10
-19.9125
 20
28.6895
 11
-19.8592
 21
28.588
  0
LINE
  8
0
 10
-19.8592
 20
28.588
 11
-19.8124
 21
28.4864
  0
LINE
  8
0
 10
-19.8124
 20
28.4864
 11
-19.7721
 21
28.3848
  0
LINE
  8
0
 10
-19.7721
 20
28.3848
 11
-19.7373
 21
28.2819
  0
LINE
  8
0
 10
-19.7373
 20
28.2819
 11
-19.7071
 21
28.1771
  0
LINE
  8
0
 10
-19.7071
 20
28.1771
 11
-19.6816
 21
28.0703
  0
LINE
  8
0
 10
-19.6816
 20
28.0703
 11
-19.6607
 21
27.9615
  0
LINE
  8
0
 10
-19.6607
 20
27.9615
 11
-19.6445
 21
27.8507
  0
LINE
  8
0
 10
-19.6445
 20
27.8507
 11
-19.6329
 21
27.7379
  0
LINE
  8
0
 10
-19.6329
 20
27.7379
 11
-19.6259
 21
27.6231
  0
LINE
  8
0
 10
-19.6259
 20
27.6231
 11
-19.6236
 21
27.5063
  0
LINE
  8
0
 10
-19.6236
 20
27.5063
 11
-19.6318
 21
27.2863
  0
LINE
  8
0
 10
-19.6318
 20
27.2863
 11
-19.6565
 21
27.078
  0
LINE
  8
0
 10
-19.6565
 20
27.078
 11
-19.6976
 21
26.8812
  0
LINE
  8
0
 10
-19.6976
 20
26.8812
 11
-19.7552
 21
26.696
  0
LINE
  8
0
 10
-19.7552
 20
26.696
 11
-19.8292
 21
26.5224
  0
LINE
  8
0
 10
-19.8292
 20
26.5224
 11
-19.9196
 21
26.3604
  0
LINE
  8
0
 10
-19.9196
 20
26.3604
 11
-20.0265
 21
26.21
  0
LINE
  8
0
 10
-20.0265
 20
26.21
 11
-20.1499
 21
26.0712
  0
LINE
  8
0
 10
-20.1499
 20
26.0712
 11
-20.2865
 21
25.9463
  0
LINE
  8
0
 10
-20.2865
 20
25.9463
 11
-20.4334
 21
25.838
  0
LINE
  8
0
 10
-20.4334
 20
25.838
 11
-20.5905
 21
25.7464
  0
LINE
  8
0
 10
-20.5905
 20
25.7464
 11
-20.7578
 21
25.6715
  0
LINE
  8
0
 10
-20.7578
 20
25.6715
 11
-20.9353
 21
25.6132
  0
LINE
  8
0
 10
-20.9353
 20
25.6132
 11
-21.1229
 21
25.5715
  0
LINE
  8
0
 10
-21.1229
 20
25.5715
 11
-21.3208
 21
25.5466
  0
LINE
  8
0
 10
-21.3208
 20
25.5466
 11
-21.5289
 21
25.5382
  0
LINE
  8
0
 10
-21.5289
 20
25.5382
 11
-21.7679
 21
25.5465
  0
LINE
  8
0
 10
-21.7679
 20
25.5465
 11
-21.9937
 21
25.5713
  0
LINE
  8
0
 10
-21.9937
 20
25.5713
 11
-22.2063
 21
25.6126
  0
LINE
  8
0
 10
-22.2063
 20
25.6126
 11
-22.4059
 21
25.6705
  0
LINE
  8
0
 10
-22.4059
 20
25.6705
 11
-22.5923
 21
25.7449
  0
LINE
  8
0
 10
-22.5923
 20
25.7449
 11
-22.7655
 21
25.8359
  0
LINE
  8
0
 10
-22.7655
 20
25.8359
 11
-22.9256
 21
25.9433
  0
LINE
  8
0
 10
-22.9256
 20
25.9433
 11
-23.0725
 21
26.0674
  0
LINE
  8
0
 10
-23.0725
 20
26.0674
 11
-23.2041
 21
26.206
  0
LINE
  8
0
 10
-23.2041
 20
26.206
 11
-23.3182
 21
26.3574
  0
LINE
  8
0
 10
-23.3182
 20
26.3574
 11
-23.4147
 21
26.5215
  0
LINE
  8
0
 10
-23.4147
 20
26.5215
 11
-23.4937
 21
26.6983
  0
LINE
  8
0
 10
-23.4937
 20
26.6983
 11
-23.5551
 21
26.8879
  0
LINE
  8
0
 10
-23.5551
 20
26.8879
 11
-23.599
 21
27.0902
  0
LINE
  8
0
 10
-23.599
 20
27.0902
 11
-23.6253
 21
27.3052
  0
LINE
  8
0
 10
-23.6253
 20
27.3052
 11
-23.634
 21
27.533
  0
LINE
  8
0
 10
-23.634
 20
27.533
 11
-23.613
 21
27.8956
  0
LINE
  8
0
 10
-23.613
 20
27.8956
 11
-23.5497
 21
28.2222
  0
LINE
  8
0
 10
-23.5497
 20
28.2222
 11
-23.4443
 21
28.5127
  0
LINE
  8
0
 10
-23.4443
 20
28.5127
 11
-23.2967
 21
28.7671
  0
LINE
  8
0
 10
-23.2967
 20
28.7671
 11
-23.1069
 21
28.9854
  0
LINE
  8
0
 10
-23.1069
 20
28.9854
 11
-22.875
 21
29.1677
  0
LINE
  8
0
 10
-22.875
 20
29.1677
 11
-22.6008
 21
29.3139
  0
LINE
  8
0
 10
-22.6008
 20
29.3139
 11
-22.2845
 21
29.424
  0
LINE
  8
0
 10
-22.2845
 20
29.424
 11
-22.4197
 21
30.5984
  0
LINE
  8
0
 10
-22.4197
 20
30.5984
 11
-22.6751
 21
30.5378
  0
LINE
  8
0
 10
-22.6751
 20
30.5378
 11
-22.9149
 21
30.4593
  0
LINE
  8
0
 10
-22.9149
 20
30.4593
 11
-23.1393
 21
30.3628
  0
LINE
  8
0
 10
-23.1393
 20
30.3628
 11
-23.3481
 21
30.2484
  0
LINE
  8
0
 10
-23.3481
 20
30.2484
 11
-23.5414
 21
30.1161
  0
LINE
  8
0
 10
-23.5414
 20
30.1161
 11
-23.7191
 21
29.9658
  0
LINE
  8
0
 10
-23.7191
 20
29.9658
 11
-23.8813
 21
29.7976
  0
LINE
  8
0
 10
-23.8813
 20
29.7976
 11
-24.0281
 21
29.6115
  0
LINE
  8
0
 10
-24.0281
 20
29.6115
 11
-24.1581
 21
29.4085
  0
LINE
  8
0
 10
-24.1581
 20
29.4085
 11
-24.2708
 21
29.1902
  0
LINE
  8
0
 10
-24.2708
 20
29.1902
 11
-24.3661
 21
28.9566
  0
LINE
  8
0
 10
-24.3661
 20
28.9566
 11
-24.4442
 21
28.7076
  0
LINE
  8
0
 10
-24.4442
 20
28.7076
 11
-24.5049
 21
28.4434
  0
LINE
  8
0
 10
-24.5049
 20
28.4434
 11
-24.5482
 21
28.1638
  0
LINE
  8
0
 10
-24.5482
 20
28.1638
 11
-24.5742
 21
27.8689
  0
LINE
  8
0
 10
-24.5742
 20
27.8689
 11
-24.5829
 21
27.5587
  0
LINE
  8
0
 10
-24.5829
 20
27.5587
 11
-24.57
 21
27.1898
  0
LINE
  8
0
 10
-24.57
 20
27.1898
 11
-24.5315
 21
26.8416
  0
LINE
  8
0
 10
-24.5315
 20
26.8416
 11
-24.4673
 21
26.5141
  0
LINE
  8
0
 10
-24.4673
 20
26.5141
 11
-24.3773
 21
26.2073
  0
LINE
  8
0
 10
-24.3773
 20
26.2073
 11
-24.2617
 21
25.9212
  0
LINE
  8
0
 10
-24.2617
 20
25.9212
 11
-24.1204
 21
25.6558
  0
LINE
  8
0
 10
-24.1204
 20
25.6558
 11
-23.9533
 21
25.4111
  0
LINE
  8
0
 10
-23.9533
 20
25.4111
 11
-23.7606
 21
25.1871
  0
LINE
  8
0
 10
-23.7606
 20
25.1871
 11
-23.5453
 21
24.9865
  0
LINE
  8
0
 10
-23.5453
 20
24.9865
 11
-23.3108
 21
24.8127
  0
LINE
  8
0
 10
-23.3108
 20
24.8127
 11
-23.0573
 21
24.6657
  0
LINE
  8
0
 10
-23.0573
 20
24.6657
 11
-22.7847
 21
24.5454
  0
LINE
  8
0
 10
-22.7847
 20
24.5454
 11
-22.4929
 21
24.4518
  0
LINE
  8
0
 10
-22.4929
 20
24.4518
 11
-22.1821
 21
24.3849
  0
LINE
  8
0
 10
-22.1821
 20
24.3849
 11
-21.8522
 21
24.3448
  0
LINE
  8
0
 10
-21.8522
 20
24.3448
 11
-21.5032
 21
24.3315
  0
LINE
  8
0
 10
-21.5032
 20
24.3315
 11
-21.1956
 21
24.3439
  0
LINE
  8
0
 10
-19.4819
 20
10.2315
 11
-19.1882
 21
10.254
  0
LINE
  8
0
 10
-19.1882
 20
10.254
 11
-18.9176
 21
10.2915
  0
LINE
  8
0
 10
-18.9176
 20
10.2915
 11
-18.67
 21
10.3441
  0
LINE
  8
0
 10
-18.67
 20
10.3441
 11
-18.4455
 21
10.4117
  0
LINE
  8
0
 10
-18.4455
 20
10.4117
 11
-18.2441
 21
10.4943
  0
LINE
  8
0
 10
-18.2441
 20
10.4943
 11
-18.0658
 21
10.5919
  0
LINE
  8
0
 10
-18.0658
 20
10.5919
 11
-17.9105
 21
10.7045
  0
LINE
  8
0
 10
-17.9105
 20
10.7045
 11
-17.7756
 21
10.8337
  0
LINE
  8
0
 10
-17.7756
 20
10.8337
 11
-17.6586
 21
10.981
  0
LINE
  8
0
 10
-17.6586
 20
10.981
 11
-17.5597
 21
11.1462
  0
LINE
  8
0
 10
-17.5597
 20
11.1462
 11
-17.4787
 21
11.3296
  0
LINE
  8
0
 10
-17.4787
 20
11.3296
 11
-17.4157
 21
11.531
  0
LINE
  8
0
 10
-17.4157
 20
11.531
 11
-17.3708
 21
11.7504
  0
LINE
  8
0
 10
-17.3708
 20
11.7504
 11
-17.3438
 21
11.9879
  0
LINE
  8
0
 10
-17.3438
 20
11.9879
 11
-17.3348
 21
12.2435
  0
LINE
  8
0
 10
-17.3348
 20
12.2435
 11
-17.3396
 21
12.4225
  0
LINE
  8
0
 10
-17.3396
 20
12.4225
 11
-17.3542
 21
12.5949
  0
LINE
  8
0
 10
-17.3542
 20
12.5949
 11
-17.3784
 21
12.7604
  0
LINE
  8
0
 10
-17.3784
 20
12.7604
 11
-17.4123
 21
12.9191
  0
LINE
  8
0
 10
-17.4123
 20
12.9191
 11
-17.456
 21
13.0711
  0
LINE
  8
0
 10
-17.456
 20
13.0711
 11
-17.5093
 21
13.2163
  0
LINE
  8
0
 10
-17.5093
 20
13.2163
 11
-17.5723
 21
13.3547
  0
LINE
  8
0
 10
-17.5723
 20
13.3547
 11
-17.645
 21
13.4864
  0
LINE
  8
0
 10
-17.645
 20
13.4864
 11
-17.7288
 21
13.6122
  0
LINE
  8
0
 10
-17.7288
 20
13.6122
 11
-17.8248
 21
13.7334
  0
LINE
  8
0
 10
-17.8248
 20
13.7334
 11
-17.9333
 21
13.8498
  0
LINE
  8
0
 10
-17.9333
 20
13.8498
 11
-18.054
 21
13.9615
  0
LINE
  8
0
 10
-18.054
 20
13.9615
 11
-18.1871
 21
14.0685
  0
LINE
  8
0
 10
-18.1871
 20
14.0685
 11
-18.3326
 21
14.1707
  0
LINE
  8
0
 10
-18.3326
 20
14.1707
 11
-18.4904
 21
14.2682
  0
LINE
  8
0
 10
-18.4904
 20
14.2682
 11
-18.6605
 21
14.361
  0
LINE
  8
0
 10
-18.6605
 20
14.361
 11
-18.6605
 21
14.38
  0
LINE
  8
0
 10
-18.6605
 20
14.38
 11
-18.4934
 21
14.4296
  0
LINE
  8
0
 10
-18.4934
 20
14.4296
 11
-18.338
 21
14.488
  0
LINE
  8
0
 10
-18.338
 20
14.488
 11
-18.1943
 21
14.5551
  0
LINE
  8
0
 10
-18.1943
 20
14.5551
 11
-18.0623
 21
14.631
  0
LINE
  8
0
 10
-18.0623
 20
14.631
 11
-17.9421
 21
14.7157
  0
LINE
  8
0
 10
-17.9421
 20
14.7157
 11
-17.8336
 21
14.8092
  0
LINE
  8
0
 10
-17.8336
 20
14.8092
 11
-17.7368
 21
14.9114
  0
LINE
  8
0
 10
-17.7368
 20
14.9114
 11
-17.6517
 21
15.0224
  0
LINE
  8
0
 10
-17.6517
 20
15.0224
 11
-17.5774
 21
15.1428
  0
LINE
  8
0
 10
-17.5774
 20
15.1428
 11
-17.513
 21
15.2735
  0
LINE
  8
0
 10
-17.513
 20
15.2735
 11
-17.4586
 21
15.4147
  0
LINE
  8
0
 10
-17.4586
 20
15.4147
 11
-17.414
 21
15.5663
  0
LINE
  8
0
 10
-17.414
 20
15.5663
 11
-17.3793
 21
15.7283
  0
LINE
  8
0
 10
-17.3793
 20
15.7283
 11
-17.3546
 21
15.9007
  0
LINE
  8
0
 10
-17.3546
 20
15.9007
 11
-17.3397
 21
16.0835
  0
LINE
  8
0
 10
-17.3397
 20
16.0835
 11
-17.3348
 21
16.2767
  0
LINE
  8
0
 10
-17.3348
 20
16.2767
 11
-17.3393
 21
16.4478
  0
LINE
  8
0
 10
-17.3393
 20
16.4478
 11
-17.353
 21
16.6122
  0
LINE
  8
0
 10
-17.353
 20
16.6122
 11
-17.3757
 21
16.77
  0
LINE
  8
0
 10
-17.3757
 20
16.77
 11
-17.4076
 21
16.921
  0
LINE
  8
0
 10
-17.4076
 20
16.921
 11
-17.4485
 21
17.0655
  0
LINE
  8
0
 10
-17.4485
 20
17.0655
 11
-17.4986
 21
17.2032
  0
LINE
  8
0
 10
-17.4986
 20
17.2032
 11
-17.5577
 21
17.3343
  0
LINE
  8
0
 10
-17.5577
 20
17.3343
 11
-17.626
 21
17.4588
  0
LINE
  8
0
 10
-17.626
 20
17.4588
 11
-17.7059
 21
17.5779
  0
LINE
  8
0
 10
-17.7059
 20
17.5779
 11
-17.7999
 21
17.6936
  0
LINE
  8
0
 10
-17.7999
 20
17.6936
 11
-17.908
 21
17.806
  0
LINE
  8
0
 10
-17.908
 20
17.806
 11
-18.0302
 21
17.9149
  0
LINE
  8
0
 10
-18.0302
 20
17.9149
 11
-18.1666
 21
18.0203
  0
LINE
  8
0
 10
-18.1666
 20
18.0203
 11
-18.3171
 21
18.1224
  0
LINE
  8
0
 10
-18.3171
 20
18.1224
 11
-18.4817
 21
18.221
  0
LINE
  8
0
 10
-18.4817
 20
18.221
 11
-18.6605
 21
18.3162
  0
LINE
  8
0
 10
-18.6605
 20
18.3162
 11
-18.6605
 21
18.3353
  0
LINE
  8
0
 10
-18.6605
 20
18.3353
 11
-18.5371
 21
18.3385
  0
LINE
  8
0
 10
-18.5371
 20
18.3385
 11
-18.424
 21
18.3417
  0
LINE
  8
0
 10
-18.424
 20
18.3417
 11
-18.3212
 21
18.3447
  0
LINE
  8
0
 10
-18.3212
 20
18.3447
 11
-18.2287
 21
18.3476
  0
LINE
  8
0
 10
-18.2287
 20
18.3476
 11
-18.1463
 21
18.3504
  0
LINE
  8
0
 10
-18.1463
 20
18.3504
 11
-18.0743
 21
18.3531
  0
LINE
  8
0
 10
-18.0743
 20
18.3531
 11
-18.0125
 21
18.3557
  0
LINE
  8
0
 10
-18.0125
 20
18.3557
 11
-17.961
 21
18.3581
  0
LINE
  8
0
 10
-17.961
 20
18.3581
 11
-17.8278
 21
18.3649
  0
LINE
  8
0
 10
-17.8278
 20
18.3649
 11
-17.7457
 21
18.3689
  0
LINE
  8
0
 10
-17.7457
 20
18.3689
 11
-17.5985
 21
18.3759
  0
LINE
  8
0
 10
-17.5985
 20
18.3759
 11
-17.5677
 21
18.3776
  0
LINE
  8
0
 10
-17.5677
 20
18.3776
 11
-17.5405
 21
18.3793
  0
LINE
  8
0
 10
-17.5405
 20
18.3793
 11
-17.5168
 21
18.381
  0
LINE
  8
0
 10
-17.5168
 20
18.381
 11
-17.4965
 21
18.3826
  0
LINE
  8
0
 10
-17.4965
 20
18.3826
 11
-17.4797
 21
18.3843
  0
LINE
  8
0
 10
-17.4797
 20
18.3843
 11
-17.4664
 21
18.386
  0
LINE
  8
0
 10
-17.4664
 20
18.386
 11
-17.4566
 21
18.3876
  0
LINE
  8
0
 10
-17.4566
 20
18.3876
 11
-17.4566
 21
19.4849
  0
LINE
  8
0
 10
-17.4566
 20
19.4849
 11
-17.5395
 21
19.4758
  0
LINE
  8
0
 10
-17.5395
 20
19.4758
 11
-17.6521
 21
19.4679
  0
LINE
  8
0
 10
-17.6521
 20
19.4679
 11
-17.7944
 21
19.4612
  0
LINE
  8
0
 10
-17.7944
 20
19.4612
 11
-17.9664
 21
19.4557
  0
LINE
  8
0
 10
-17.9664
 20
19.4557
 11
-18.1682
 21
19.4514
  0
LINE
  8
0
 10
-18.1682
 20
19.4514
 11
-18.3997
 21
19.4483
  0
LINE
  8
0
 10
-18.3997
 20
19.4483
 11
-18.6608
 21
19.4465
  0
LINE
  8
0
 10
-18.6608
 20
19.4465
 11
-18.9517
 21
19.4459
  0
LINE
  8
0
 10
-18.9517
 20
19.4459
 11
-24.4611
 21
19.4459
  0
LINE
  8
0
 10
-24.4611
 20
19.4459
 11
-24.4611
 21
18.2905
  0
LINE
  8
0
 10
-24.4611
 20
18.2905
 11
-20.4059
 21
18.2905
  0
LINE
  8
0
 10
-20.4059
 20
18.2905
 11
-20.1543
 21
18.2838
  0
LINE
  8
0
 10
-20.1543
 20
18.2838
 11
-19.9173
 21
18.2635
  0
LINE
  8
0
 10
-19.9173
 20
18.2635
 11
-19.6949
 21
18.2298
  0
LINE
  8
0
 10
-19.6949
 20
18.2298
 11
-19.487
 21
18.1825
  0
LINE
  8
0
 10
-19.487
 20
18.1825
 11
-19.2938
 21
18.1218
  0
LINE
  8
0
 10
-19.2938
 20
18.1218
 11
-19.115
 21
18.0475
  0
LINE
  8
0
 10
-19.115
 20
18.0475
 11
-18.9509
 21
17.9597
  0
LINE
  8
0
 10
-18.9509
 20
17.9597
 11
-18.8013
 21
17.8585
  0
LINE
  8
0
 10
-18.8013
 20
17.8585
 11
-18.668
 21
17.7454
  0
LINE
  8
0
 10
-18.668
 20
17.7454
 11
-18.5524
 21
17.6227
  0
LINE
  8
0
 10
-18.5524
 20
17.6227
 11
-18.4545
 21
17.4903
  0
LINE
  8
0
 10
-18.4545
 20
17.4903
 11
-18.3745
 21
17.3484
  0
LINE
  8
0
 10
-18.3745
 20
17.3484
 11
-18.3123
 21
17.1967
  0
LINE
  8
0
 10
-18.3123
 20
17.1967
 11
-18.2678
 21
17.0355
  0
LINE
  8
0
 10
-18.2678
 20
17.0355
 11
-18.2411
 21
16.8646
  0
LINE
  8
0
 10
-18.2411
 20
16.8646
 11
-18.2322
 21
16.6841
  0
LINE
  8
0
 10
-18.2322
 20
16.6841
 11
-18.2383
 21
16.5102
  0
LINE
  8
0
 10
-18.2383
 20
16.5102
 11
-18.2565
 21
16.3503
  0
LINE
  8
0
 10
-18.2565
 20
16.3503
 11
-18.2868
 21
16.2044
  0
LINE
  8
0
 10
-18.2868
 20
16.2044
 11
-18.3293
 21
16.0724
  0
LINE
  8
0
 10
-18.3293
 20
16.0724
 11
-18.3839
 21
15.9543
  0
LINE
  8
0
 10
-18.3839
 20
15.9543
 11
-18.4506
 21
15.8502
  0
LINE
  8
0
 10
-18.4506
 20
15.8502
 11
-18.5295
 21
15.7601
  0
LINE
  8
0
 10
-18.5295
 20
15.7601
 11
-18.6205
 21
15.6838
  0
LINE
  8
0
 10
-18.6205
 20
15.6838
 11
-18.7274
 21
15.6187
  0
LINE
  8
0
 10
-18.7274
 20
15.6187
 11
-18.8539
 21
15.5623
  0
LINE
  8
0
 10
-18.8539
 20
15.5623
 11
-18.9999
 21
15.5145
  0
LINE
  8
0
 10
-18.9999
 20
15.5145
 11
-19.1656
 21
15.4754
  0
LINE
  8
0
 10
-19.1656
 20
15.4754
 11
-19.3509
 21
15.445
  0
LINE
  8
0
 10
-19.3509
 20
15.445
 11
-19.5557
 21
15.4233
  0
LINE
  8
0
 10
-19.5557
 20
15.4233
 11
-19.7802
 21
15.4103
  0
LINE
  8
0
 10
-19.7802
 20
15.4103
 11
-20.0243
 21
15.4059
  0
LINE
  8
0
 10
-20.0243
 20
15.4059
 11
-24.4611
 21
15.4059
  0
LINE
  8
0
 10
-24.4611
 20
15.4059
 11
-24.4611
 21
14.2572
  0
LINE
  8
0
 10
-24.4611
 20
14.2572
 11
-20.4059
 21
14.2572
  0
LINE
  8
0
 10
-20.4059
 20
14.2572
 11
-20.1528
 21
14.2506
  0
LINE
  8
0
 10
-20.1528
 20
14.2506
 11
-19.9146
 21
14.2308
  0
LINE
  8
0
 10
-19.9146
 20
14.2308
 11
-19.6914
 21
14.1978
  0
LINE
  8
0
 10
-19.6914
 20
14.1978
 11
-19.483
 21
14.1516
  0
LINE
  8
0
 10
-19.483
 20
14.1516
 11
-19.2895
 21
14.0922
  0
LINE
  8
0
 10
-19.2895
 20
14.0922
 11
-19.1109
 21
14.0195
  0
LINE
  8
0
 10
-19.1109
 20
14.0195
 11
-18.9473
 21
13.9337
  0
LINE
  8
0
 10
-18.9473
 20
13.9337
 11
-18.7985
 21
13.8347
  0
LINE
  8
0
 10
-18.7985
 20
13.8347
 11
-18.6658
 21
13.7238
  0
LINE
  8
0
 10
-18.6658
 20
13.7238
 11
-18.5507
 21
13.6022
  0
LINE
  8
0
 10
-18.5507
 20
13.6022
 11
-18.4534
 21
13.4701
  0
LINE
  8
0
 10
-18.4534
 20
13.4701
 11
-18.3738
 21
13.3274
  0
LINE
  8
0
 10
-18.3738
 20
13.3274
 11
-18.3118
 21
13.1741
  0
LINE
  8
0
 10
-18.3118
 20
13.1741
 11
-18.2676
 21
13.0103
  0
LINE
  8
0
 10
-18.2676
 20
13.0103
 11
-18.2411
 21
12.8358
  0
LINE
  8
0
 10
-18.2411
 20
12.8358
 11
-18.2322
 21
12.6508
  0
LINE
  8
0
 10
-18.2322
 20
12.6508
 11
-18.2383
 21
12.4769
  0
LINE
  8
0
 10
-18.2383
 20
12.4769
 11
-18.2565
 21
12.317
  0
LINE
  8
0
 10
-18.2565
 20
12.317
 11
-18.2868
 21
12.1711
  0
LINE
  8
0
 10
-18.2868
 20
12.1711
 11
-18.3293
 21
12.0391
  0
LINE
  8
0
 10
-18.3293
 20
12.0391
 11
-18.3839
 21
11.921
  0
LINE
  8
0
 10
-18.3839
 20
11.921
 11
-18.4506
 21
11.8169
  0
LINE
  8
0
 10
-18.4506
 20
11.8169
 11
-18.5295
 21
11.7267
  0
LINE
  8
0
 10
-18.5295
 20
11.7267
 11
-18.6205
 21
11.6505
  0
LINE
  8
0
 10
-18.6205
 20
11.6505
 11
-18.7274
 21
11.5854
  0
LINE
  8
0
 10
-18.7274
 20
11.5854
 11
-18.8539
 21
11.529
  0
LINE
  8
0
 10
-18.8539
 20
11.529
 11
-18.9999
 21
11.4812
  0
LINE
  8
0
 10
-18.9999
 20
11.4812
 11
-19.1656
 21
11.4421
  0
LINE
  8
0
 10
-19.1656
 20
11.4421
 11
-19.3509
 21
11.4117
  0
LINE
  8
0
 10
-19.3509
 20
11.4117
 11
-19.5557
 21
11.39
  0
LINE
  8
0
 10
-19.5557
 20
11.39
 11
-19.7802
 21
11.377
  0
LINE
  8
0
 10
-19.7802
 20
11.377
 11
-20.0243
 21
11.3726
  0
LINE
  8
0
 10
-20.0243
 20
11.3726
 11
-24.4611
 21
11.3726
  0
LINE
  8
0
 10
-24.4611
 20
11.3726
 11
-24.4611
 21
10.2239
  0
LINE
  8
0
 10
-24.4611
 20
10.2239
 11
-19.7987
 21
10.2239
  0
LINE
  8
0
 10
-19.7987
 20
10.2239
 11
-19.4819
 21
10.2315
  0
LINE
  8
0
 10
-19.4819
 20
-0.521622
 11
-19.1882
 21
-0.499084
  0
LINE
  8
0
 10
-19.1882
 20
-0.499084
 11
-18.9176
 21
-0.461533
  0
LINE
  8
0
 10
-18.9176
 20
-0.461533
 11
-18.67
 21
-0.408981
  0
LINE
  8
0
 10
-18.67
 20
-0.408981
 11
-18.4455
 21
-0.3414
  0
LINE
  8
0
 10
-18.4455
 20
-0.3414
 11
-18.2441
 21
-0.258789
  0
LINE
  8
0
 10
-18.2441
 20
-0.258789
 11
-18.0658
 21
-0.161163
  0
LINE
  8
0
 10
-18.0658
 20
-0.161163
 11
-17.9105
 21
-0.0485229
  0
LINE
  8
0
 10
-17.9105
 20
-0.0485229
 11
-17.7756
 21
0.0806427
  0
LINE
  8
0
 10
-17.7756
 20
0.0806427
 11
-17.6586
 21
0.227875
  0
LINE
  8
0
 10
-17.6586
 20
0.227875
 11
-17.5597
 21
0.393158
  0
LINE
  8
0
 10
-17.5597
 20
0.393158
 11
-17.4787
 21
0.576492
  0
LINE
  8
0
 10
-17.4787
 20
0.576492
 11
-17.4157
 21
0.777878
  0
LINE
  8
0
 10
-17.4157
 20
0.777878
 11
-17.3708
 21
0.997314
  0
LINE
  8
0
 10
-17.3708
 20
0.997314
 11
-17.3438
 21
1.2348
  0
LINE
  8
0
 10
-17.3438
 20
1.2348
 11
-17.3348
 21
1.49036
  0
LINE
  8
0
 10
-17.3348
 20
1.49036
 11
-17.3396
 21
1.66946
  0
LINE
  8
0
 10
-17.3396
 20
1.66946
 11
-17.3542
 21
1.84178
  0
LINE
  8
0
 10
-17.3542
 20
1.84178
 11
-17.3784
 21
2.00731
  0
LINE
  8
0
 10
-17.3784
 20
2.00731
 11
-17.4123
 21
2.16606
  0
LINE
  8
0
 10
-17.4123
 20
2.16606
 11
-17.456
 21
2.31804
  0
LINE
  8
0
 10
-17.456
 20
2.31804
 11
-17.5093
 21
2.46324
  0
LINE
  8
0
 10
-17.5093
 20
2.46324
 11
-17.5723
 21
2.60164
  0
LINE
  8
0
 10
-17.5723
 20
2.60164
 11
-17.645
 21
2.73328
  0
LINE
  8
0
 10
-17.645
 20
2.73328
 11
-17.7288
 21
2.85916
  0
LINE
  8
0
 10
-17.7288
 20
2.85916
 11
-17.8248
 21
2.98032
  0
LINE
  8
0
 10
-17.8248
 20
2.98032
 11
-17.9333
 21
3.09671
  0
LINE
  8
0
 10
-17.9333
 20
3.09671
 11
-18.054
 21
3.20842
  0
LINE
  8
0
 10
-18.054
 20
3.20842
 11
-18.1871
 21
3.31537
  0
LINE
  8
0
 10
-18.1871
 20
3.31537
 11
-18.3326
 21
3.4176
  0
LINE
  8
0
 10
-18.3326
 20
3.4176
 11
-18.4904
 21
3.51512
  0
LINE
  8
0
 10
-18.4904
 20
3.51512
 11
-18.6605
 21
3.60788
  0
LINE
  8
0
 10
-18.6605
 20
3.60788
 11
-18.6605
 21
3.62692
  0
LINE
  8
0
 10
-18.6605
 20
3.62692
 11
-18.4934
 21
3.67651
  0
LINE
  8
0
 10
-18.4934
 20
3.67651
 11
-18.338
 21
3.73488
  0
LINE
  8
0
 10
-18.338
 20
3.73488
 11
-18.1943
 21
3.80203
  0
LINE
  8
0
 10
-18.1943
 20
3.80203
 11
-18.0623
 21
3.87793
  0
LINE
  8
0
 10
-18.0623
 20
3.87793
 11
-17.9421
 21
3.96262
  0
LINE
  8
0
 10
-17.9421
 20
3.96262
 11
-17.8336
 21
4.05609
  0
LINE
  8
0
 10
-17.8336
 20
4.05609
 11
-17.7368
 21
4.15833
  0
LINE
  8
0
 10
-17.7368
 20
4.15833
 11
-17.6517
 21
4.26932
  0
LINE
  8
0
 10
-17.6517
 20
4.26932
 11
-17.5774
 21
4.38968
  0
LINE
  8
0
 10
-17.5774
 20
4.38968
 11
-17.513
 21
4.52045
  0
LINE
  8
0
 10
-17.513
 20
4.52045
 11
-17.4586
 21
4.66162
  0
LINE
  8
0
 10
-17.4586
 20
4.66162
 11
-17.414
 21
4.81322
  0
LINE
  8
0
 10
-17.414
 20
4.81322
 11
-17.3793
 21
4.9752
  0
LINE
  8
0
 10
-17.3793
 20
4.9752
 11
-17.3546
 21
5.14763
  0
LINE
  8
0
 10
-17.3546
 20
5.14763
 11
-17.3397
 21
5.33044
  0
LINE
  8
0
 10
-17.3397
 20
5.33044
 11
-17.3348
 21
5.52365
  0
LINE
  8
0
 10
-17.3348
 20
5.52365
 11
-17.3393
 21
5.69473
  0
LINE
  8
0
 10
-17.3393
 20
5.69473
 11
-17.353
 21
5.85913
  0
LINE
  8
0
 10
-17.353
 20
5.85913
 11
-17.3757
 21
6.01688
  0
LINE
  8
0
 10
-17.3757
 20
6.01688
 11
-17.4076
 21
6.16795
  0
LINE
  8
0
 10
-17.4076
 20
6.16795
 11
-17.4485
 21
6.31238
  0
LINE
  8
0
 10
-17.4485
 20
6.31238
 11
-17.4986
 21
6.45015
  0
LINE
  8
0
 10
-17.4986
 20
6.45015
 11
-17.5577
 21
6.58124
  0
LINE
  8
0
 10
-17.5577
 20
6.58124
 11
-17.626
 21
6.70567
  0
LINE
  8
0
 10
-17.626
 20
6.70567
 11
-17.7059
 21
6.82481
  0
LINE
  8
0
 10
-17.7059
 20
6.82481
 11
-17.7999
 21
6.94055
  0
LINE
  8
0
 10
-17.7999
 20
6.94055
 11
-17.908
 21
7.05289
  0
LINE
  8
0
 10
-17.908
 20
7.05289
 11
-18.0302
 21
7.16177
  0
LINE
  8
0
 10
-18.0302
 20
7.16177
 11
-18.1666
 21
7.26726
  0
LINE
  8
0
 10
-18.1666
 20
7.26726
 11
-18.3171
 21
7.36929
  0
LINE
  8
0
 10
-18.3171
 20
7.36929
 11
-18.4817
 21
7.46793
  0
LINE
  8
0
 10
-18.4817
 20
7.46793
 11
-18.6605
 21
7.56316
  0
LINE
  8
0
 10
-18.6605
 20
7.56316
 11
-18.6605
 21
7.58218
  0
LINE
  8
0
 10
-18.6605
 20
7.58218
 11
-18.5371
 21
7.58546
  0
LINE
  8
0
 10
-18.5371
 20
7.58546
 11
-18.424
 21
7.58861
  0
LINE
  8
0
 10
-18.424
 20
7.58861
 11
-18.3212
 21
7.59164
  0
LINE
  8
0
 10
-18.3212
 20
7.59164
 11
-18.2287
 21
7.59456
  0
LINE
  8
0
 10
-18.2287
 20
7.59456
 11
-18.1463
 21
7.59735
  0
LINE
  8
0
 10
-18.1463
 20
7.59735
 11
-18.0743
 21
7.60004
  0
LINE
  8
0
 10
-18.0743
 20
7.60004
 11
-18.0125
 21
7.6026
  0
LINE
  8
0
 10
-18.0125
 20
7.6026
 11
-17.961
 21
7.60503
  0
LINE
  8
0
 10
-17.961
 20
7.60503
 11
-17.8278
 21
7.61177
  0
LINE
  8
0
 10
-17.8278
 20
7.61177
 11
-17.7457
 21
7.61581
  0
LINE
  8
0
 10
-17.7457
 20
7.61581
 11
-17.5985
 21
7.62286
  0
LINE
  8
0
 10
-17.5985
 20
7.62286
 11
-17.5677
 21
7.62454
  0
LINE
  8
0
 10
-17.5677
 20
7.62454
 11
-17.5405
 21
7.62621
  0
LINE
  8
0
 10
-17.5405
 20
7.62621
 11
-17.5168
 21
7.62787
  0
LINE
  8
0
 10
-17.5168
 20
7.62787
 11
-17.4965
 21
7.62953
  0
LINE
  8
0
 10
-17.4965
 20
7.62953
 11
-17.4797
 21
7.6312
  0
LINE
  8
0
 10
-17.4797
 20
7.6312
 11
-17.4664
 21
7.63287
  0
LINE
  8
0
 10
-17.4664
 20
7.63287
 11
-17.4566
 21
7.63452
  0
LINE
  8
0
 10
-17.4566
 20
7.63452
 11
-17.4566
 21
8.73184
  0
LINE
  8
0
 10
-17.4566
 20
8.73184
 11
-17.5395
 21
8.7227
  0
LINE
  8
0
 10
-17.5395
 20
8.7227
 11
-17.6521
 21
8.71477
  0
LINE
  8
0
 10
-17.6521
 20
8.71477
 11
-17.7944
 21
8.70807
  0
LINE
  8
0
 10
-17.7944
 20
8.70807
 11
-17.9664
 21
8.70258
  0
LINE
  8
0
 10
-17.9664
 20
8.70258
 11
-18.1682
 21
8.6983
  0
LINE
  8
0
 10
-18.1682
 20
8.6983
 11
-18.3997
 21
8.69525
  0
LINE
  8
0
 10
-18.3997
 20
8.69525
 11
-18.6608
 21
8.69342
  0
LINE
  8
0
 10
-18.6608
 20
8.69342
 11
-18.9517
 21
8.69281
  0
LINE
  8
0
 10
-18.9517
 20
8.69281
 11
-24.4611
 21
8.69281
  0
LINE
  8
0
 10
-24.4611
 20
8.69281
 11
-24.4611
 21
7.53746
  0
LINE
  8
0
 10
-24.4611
 20
7.53746
 11
-20.4059
 21
7.53746
  0
LINE
  8
0
 10
-20.4059
 20
7.53746
 11
-20.1543
 21
7.53072
  0
LINE
  8
0
 10
-20.1543
 20
7.53072
 11
-19.9173
 21
7.51045
  0
LINE
  8
0
 10
-19.9173
 20
7.51045
 11
-19.6949
 21
7.4767
  0
LINE
  8
0
 10
-19.6949
 20
7.4767
 11
-19.487
 21
7.42943
  0
LINE
  8
0
 10
-19.487
 20
7.42943
 11
-19.2938
 21
7.36868
  0
LINE
  8
0
 10
-19.2938
 20
7.36868
 11
-19.115
 21
7.29442
  0
LINE
  8
0
 10
-19.115
 20
7.29442
 11
-18.9509
 21
7.20665
  0
LINE
  8
0
 10
-18.9509
 20
7.20665
 11
-18.8013
 21
7.10538
  0
LINE
  8
0
 10
-18.8013
 20
7.10538
 11
-18.668
 21
6.99231
  0
LINE
  8
0
 10
-18.668
 20
6.99231
 11
-18.5524
 21
6.8696
  0
LINE
  8
0
 10
-18.5524
 20
6.8696
 11
-18.4545
 21
6.73726
  0
LINE
  8
0
 10
-18.4545
 20
6.73726
 11
-18.3745
 21
6.59528
  0
LINE
  8
0
 10
-18.3745
 20
6.59528
 11
-18.3123
 21
6.44365
  0
LINE
  8
0
 10
-18.3123
 20
6.44365
 11
-18.2678
 21
6.28241
  0
LINE
  8
0
 10
-18.2678
 20
6.28241
 11
-18.2411
 21
6.11151
  0
LINE
  8
0
 10
-18.2411
 20
6.11151
 11
-18.2322
 21
5.93098
  0
LINE
  8
0
 10
-18.2322
 20
5.93098
 11
-18.2383
 21
5.75714
  0
LINE
  8
0
 10
-18.2383
 20
5.75714
 11
-18.2565
 21
5.59724
  0
LINE
  8
0
 10
-18.2565
 20
5.59724
 11
-18.2868
 21
5.45129
  0
LINE
  8
0
 10
-18.2868
 20
5.45129
 11
-18.3293
 21
5.31929
  0
LINE
  8
0
 10
-18.3293
 20
5.31929
 11
-18.3839
 21
5.20123
  0
LINE
  8
0
 10
-18.3839
 20
5.20123
 11
-18.4506
 21
5.09712
  0
LINE
  8
0
 10
-18.4506
 20
5.09712
 11
-18.5295
 21
5.00697
  0
LINE
  8
0
 10
-18.5295
 20
5.00697
 11
-18.6205
 21
4.93076
  0
LINE
  8
0
 10
-18.6205
 20
4.93076
 11
-18.7274
 21
4.86562
  0
LINE
  8
0
 10
-18.7274
 20
4.86562
 11
-18.8539
 21
4.80917
  0
LINE
  8
0
 10
-18.8539
 20
4.80917
 11
-18.9999
 21
4.76141
  0
LINE
  8
0
 10
-18.9999
 20
4.76141
 11
-19.1656
 21
4.72234
  0
LINE
  8
0
 10
-19.1656
 20
4.72234
 11
-19.3509
 21
4.69194
  0
LINE
  8
0
 10
-19.3509
 20
4.69194
 11
-19.5557
 21
4.67023
  0
LINE
  8
0
 10
-19.5557
 20
4.67023
 11
-19.7802
 21
4.6572
  0
LINE
  8
0
 10
-19.7802
 20
4.6572
 11
-20.0243
 21
4.65286
  0
LINE
  8
0
 10
-20.0243
 20
4.65286
 11
-24.4611
 21
4.65286
  0
LINE
  8
0
 10
-24.4611
 20
4.65286
 11
-24.4611
 21
3.50415
  0
LINE
  8
0
 10
-24.4611
 20
3.50415
 11
-20.4059
 21
3.50415
  0
LINE
  8
0
 10
-20.4059
 20
3.50415
 11
-20.1528
 21
3.49754
  0
LINE
  8
0
 10
-20.1528
 20
3.49754
 11
-19.9146
 21
3.47774
  0
LINE
  8
0
 10
-19.9146
 20
3.47774
 11
-19.6914
 21
3.44473
  0
LINE
  8
0
 10
-19.6914
 20
3.44473
 11
-19.483
 21
3.39853
  0
LINE
  8
0
 10
-19.483
 20
3.39853
 11
-19.2895
 21
3.3391
  0
LINE
  8
0
 10
-19.2895
 20
3.3391
 11
-19.1109
 21
3.26646
  0
LINE
  8
0
 10
-19.1109
 20
3.26646
 11
-18.9473
 21
3.18063
  0
LINE
  8
0
 10
-18.9473
 20
3.18063
 11
-18.7985
 21
3.0816
  0
LINE
  8
0
 10
-18.7985
 20
3.0816
 11
-18.6658
 21
2.97067
  0
LINE
  8
0
 10
-18.6658
 20
2.97067
 11
-18.5507
 21
2.84915
  0
LINE
  8
0
 10
-18.5507
 20
2.84915
 11
-18.4534
 21
2.71704
  0
LINE
  8
0
 10
-18.4534
 20
2.71704
 11
-18.3738
 21
2.57434
  0
LINE
  8
0
 10
-18.3738
 20
2.57434
 11
-18.3118
 21
2.42107
  0
LINE
  8
0
 10
-18.3118
 20
2.42107
 11
-18.2676
 21
2.2572
  0
LINE
  8
0
 10
-18.2676
 20
2.2572
 11
-18.2411
 21
2.08273
  0
LINE
  8
0
 10
-18.2411
 20
2.08273
 11
-18.2322
 21
1.89769
  0
LINE
  8
0
 10
-18.2322
 20
1.89769
 11
-18.2383
 21
1.72385
  0
LINE
  8
0
 10
-18.2383
 20
1.72385
 11
-18.2565
 21
1.56395
  0
LINE
  8
0
 10
-18.2565
 20
1.56395
 11
-18.2868
 21
1.41798
  0
LINE
  8
0
 10
-18.2868
 20
1.41798
 11
-18.3293
 21
1.28598
  0
LINE
  8
0
 10
-18.3293
 20
1.28598
 11
-18.3839
 21
1.16792
  0
LINE
  8
0
 10
-18.3839
 20
1.16792
 11
-18.4506
 21
1.06381
  0
LINE
  8
0
 10
-18.4506
 20
1.06381
 11
-18.5295
 21
0.973663
  0
LINE
  8
0
 10
-18.5295
 20
0.973663
 11
-18.6205
 21
0.897446
  0
LINE
  8
0
 10
-18.6205
 20
0.897446
 11
-18.7274
 21
0.832321
  0
LINE
  8
0
 10
-18.7274
 20
0.832321
 11
-18.8539
 21
0.775879
  0
LINE
  8
0
 10
-18.8539
 20
0.775879
 11
-18.9999
 21
0.728119
  0
LINE
  8
0
 10
-18.9999
 20
0.728119
 11
-19.1656
 21
0.689041
  0
LINE
  8
0
 10
-19.1656
 20
0.689041
 11
-19.3509
 21
0.658646
  0
LINE
  8
0
 10
-19.3509
 20
0.658646
 11
-19.5557
 21
0.636917
  0
LINE
  8
0
 10
-19.5557
 20
0.636917
 11
-19.7802
 21
0.623886
  0
LINE
  8
0
 10
-19.7802
 20
0.623886
 11
-20.0243
 21
0.619553
  0
LINE
  8
0
 10
-20.0243
 20
0.619553
 11
-24.4611
 21
0.619553
  0
LINE
  8
0
 10
-24.4611
 20
0.619553
 11
-24.4611
 21
-0.529144
  0
LINE
  8
0
 10
-24.4611
 20
-0.529144
 11
-19.7987
 21
-0.529144
  0
LINE
  8
0
 10
-19.7987
 20
-0.529144
 11
-19.4819
 21
-0.521622
  0
LINE
  8
0
 10
142.817
 20
-27.5215
 11
143.404
 21
-27.4286
  0
LINE
  8
0
 10
143.404
 20
-27.4286
 11
143.952
 21
-27.2737
  0
LINE
  8
0
 10
143.952
 20
-27.2737
 11
144.46
 21
-27.0569
  0
LINE
  8
0
 10
144.46
 20
-27.0569
 11
144.929
 21
-26.7781
  0
LINE
  8
0
 10
144.929
 20
-26.7781
 11
145.358
 21
-26.4374
  0
LINE
  8
0
 10
145.358
 20
-26.4374
 11
145.748
 21
-26.0347
  0
LINE
  8
0
 10
145.748
 20
-26.0347
 11
146.099
 21
-25.5701
  0
LINE
  8
0
 10
146.099
 20
-25.5701
 11
146.409
 21
-25.0463
  0
LINE
  8
0
 10
146.409
 20
-25.0463
 11
146.678
 21
-24.4669
  0
LINE
  8
0
 10
146.678
 20
-24.4669
 11
146.906
 21
-23.8319
  0
LINE
  8
0
 10
146.906
 20
-23.8319
 11
147.092
 21
-23.1414
  0
LINE
  8
0
 10
147.092
 20
-23.1414
 11
147.237
 21
-22.3953
  0
LINE
  8
0
 10
147.237
 20
-22.3953
 11
147.34
 21
-21.5936
  0
LINE
  8
0
 10
147.34
 20
-21.5936
 11
147.402
 21
-20.7364
  0
LINE
  8
0
 10
147.402
 20
-20.7364
 11
147.423
 21
-19.8236
  0
LINE
  8
0
 10
147.423
 20
-19.8236
 11
147.403
 21
-18.8961
  0
LINE
  8
0
 10
147.403
 20
-18.8961
 11
147.344
 21
-18.0274
  0
LINE
  8
0
 10
147.344
 20
-18.0274
 11
147.245
 21
-17.2172
  0
LINE
  8
0
 10
147.245
 20
-17.2172
 11
147.108
 21
-16.4657
  0
LINE
  8
0
 10
147.108
 20
-16.4657
 11
146.93
 21
-15.7727
  0
LINE
  8
0
 10
146.93
 20
-15.7727
 11
146.714
 21
-15.1384
  0
LINE
  8
0
 10
146.714
 20
-15.1384
 11
146.457
 21
-14.5627
  0
LINE
  8
0
 10
146.457
 20
-14.5627
 11
146.162
 21
-14.0457
  0
LINE
  8
0
 10
146.162
 20
-14.0457
 11
145.825
 21
-13.5884
  0
LINE
  8
0
 10
145.825
 20
-13.5884
 11
145.445
 21
-13.1921
  0
LINE
  8
0
 10
145.445
 20
-13.1921
 11
145.022
 21
-12.8568
  0
LINE
  8
0
 10
145.022
 20
-12.8568
 11
144.555
 21
-12.5824
  0
LINE
  8
0
 10
144.555
 20
-12.5824
 11
144.045
 21
-12.369
  0
LINE
  8
0
 10
144.045
 20
-12.369
 11
143.492
 21
-12.2166
  0
LINE
  8
0
 10
143.492
 20
-12.2166
 11
142.895
 21
-12.1251
  0
LINE
  8
0
 10
142.895
 20
-12.1251
 11
142.255
 21
-12.0946
  0
LINE
  8
0
 10
142.255
 20
-12.0946
 11
141.597
 21
-12.1248
  0
LINE
  8
0
 10
141.597
 20
-12.1248
 11
140.985
 21
-12.2153
  0
LINE
  8
0
 10
140.985
 20
-12.2153
 11
140.419
 21
-12.3661
  0
LINE
  8
0
 10
140.419
 20
-12.3661
 11
139.898
 21
-12.5773
  0
LINE
  8
0
 10
139.898
 20
-12.5773
 11
139.423
 21
-12.8488
  0
LINE
  8
0
 10
139.423
 20
-12.8488
 11
138.993
 21
-13.1806
  0
LINE
  8
0
 10
138.993
 20
-13.1806
 11
138.609
 21
-13.5728
  0
LINE
  8
0
 10
138.609
 20
-13.5728
 11
138.271
 21
-14.0253
  0
LINE
  8
0
 10
138.271
 20
-14.0253
 11
137.976
 21
-14.5379
  0
LINE
  8
0
 10
137.976
 20
-14.5379
 11
137.72
 21
-15.1111
  0
LINE
  8
0
 10
137.72
 20
-15.1111
 11
137.504
 21
-15.7449
  0
LINE
  8
0
 10
137.504
 20
-15.7449
 11
137.327
 21
-16.4394
  0
LINE
  8
0
 10
137.327
 20
-16.4394
 11
137.189
 21
-17.1945
  0
LINE
  8
0
 10
137.189
 20
-17.1945
 11
137.091
 21
-18.0102
  0
LINE
  8
0
 10
137.091
 20
-18.0102
 11
137.032
 21
-18.8866
  0
LINE
  8
0
 10
137.032
 20
-18.8866
 11
137.012
 21
-19.8236
  0
LINE
  8
0
 10
137.012
 20
-19.8236
 11
137.032
 21
-20.7414
  0
LINE
  8
0
 10
137.032
 20
-20.7414
 11
137.093
 21
-21.6026
  0
LINE
  8
0
 10
137.093
 20
-21.6026
 11
137.194
 21
-22.4072
  0
LINE
  8
0
 10
137.194
 20
-22.4072
 11
137.336
 21
-23.1552
  0
LINE
  8
0
 10
137.336
 20
-23.1552
 11
137.519
 21
-23.8465
  0
LINE
  8
0
 10
137.519
 20
-23.8465
 11
137.742
 21
-24.4813
  0
LINE
  8
0
 10
137.742
 20
-24.4813
 11
138.005
 21
-25.0595
  0
LINE
  8
0
 10
138.005
 20
-25.0595
 11
138.309
 21
-25.581
  0
LINE
  8
0
 10
138.309
 20
-25.581
 11
138.653
 21
-26.0431
  0
LINE
  8
0
 10
138.653
 20
-26.0431
 11
139.038
 21
-26.4435
  0
LINE
  8
0
 10
139.038
 20
-26.4435
 11
139.463
 21
-26.7824
  0
LINE
  8
0
 10
139.463
 20
-26.7824
 11
139.928
 21
-27.0596
  0
LINE
  8
0
 10
139.928
 20
-27.0596
 11
140.433
 21
-27.2753
  0
LINE
  8
0
 10
140.433
 20
-27.2753
 11
140.979
 21
-27.4292
  0
LINE
  8
0
 10
140.979
 20
-27.4292
 11
141.565
 21
-27.5217
  0
LINE
  8
0
 10
141.565
 20
-27.5217
 11
142.191
 21
-27.5525
  0
LINE
  8
0
 10
142.191
 20
-27.5525
 11
142.817
 21
-27.5215
  0
LINE
  8
0
 10
141.802
 20
-25.9657
 11
141.419
 21
-25.8962
  0
LINE
  8
0
 10
141.419
 20
-25.8962
 11
141.066
 21
-25.7804
  0
LINE
  8
0
 10
141.066
 20
-25.7804
 11
140.741
 21
-25.6183
  0
LINE
  8
0
 10
140.741
 20
-25.6183
 11
140.445
 21
-25.4099
  0
LINE
  8
0
 10
140.445
 20
-25.4099
 11
140.177
 21
-25.1551
  0
LINE
  8
0
 10
140.177
 20
-25.1551
 11
139.938
 21
-24.8541
  0
LINE
  8
0
 10
139.938
 20
-24.8541
 11
139.728
 21
-24.5067
  0
LINE
  8
0
 10
139.728
 20
-24.5067
 11
139.545
 21
-24.109
  0
LINE
  8
0
 10
139.545
 20
-24.109
 11
139.387
 21
-23.6576
  0
LINE
  8
0
 10
139.387
 20
-23.6576
 11
139.252
 21
-23.1526
  0
LINE
  8
0
 10
139.252
 20
-23.1526
 11
139.143
 21
-22.5941
  0
LINE
  8
0
 10
139.143
 20
-22.5941
 11
139.057
 21
-21.9819
  0
LINE
  8
0
 10
139.057
 20
-21.9819
 11
138.996
 21
-21.316
  0
LINE
  8
0
 10
138.996
 20
-21.316
 11
138.96
 21
-20.5966
  0
LINE
  8
0
 10
138.96
 20
-20.5966
 11
138.947
 21
-19.8236
  0
LINE
  8
0
 10
138.947
 20
-19.8236
 11
138.959
 21
-19.0284
  0
LINE
  8
0
 10
138.959
 20
-19.0284
 11
138.995
 21
-18.2913
  0
LINE
  8
0
 10
138.995
 20
-18.2913
 11
139.056
 21
-17.6122
  0
LINE
  8
0
 10
139.056
 20
-17.6122
 11
139.14
 21
-16.9911
  0
LINE
  8
0
 10
139.14
 20
-16.9911
 11
139.248
 21
-16.428
  0
LINE
  8
0
 10
139.248
 20
-16.428
 11
139.38
 21
-15.923
  0
LINE
  8
0
 10
139.38
 20
-15.923
 11
139.537
 21
-15.476
  0
LINE
  8
0
 10
139.537
 20
-15.476
 11
139.717
 21
-15.0871
  0
LINE
  8
0
 10
139.717
 20
-15.0871
 11
139.926
 21
-14.7496
  0
LINE
  8
0
 10
139.926
 20
-14.7496
 11
140.165
 21
-14.4572
  0
LINE
  8
0
 10
140.165
 20
-14.4572
 11
140.436
 21
-14.2097
  0
LINE
  8
0
 10
140.436
 20
-14.2097
 11
140.738
 21
-14.0072
  0
LINE
  8
0
 10
140.738
 20
-14.0072
 11
141.07
 21
-13.8498
  0
LINE
  8
0
 10
141.07
 20
-13.8498
 11
141.434
 21
-13.7373
  0
LINE
  8
0
 10
141.434
 20
-13.7373
 11
141.829
 21
-13.6698
  0
LINE
  8
0
 10
141.829
 20
-13.6698
 11
142.255
 21
-13.6473
  0
LINE
  8
0
 10
142.255
 20
-13.6473
 11
142.67
 21
-13.6702
  0
LINE
  8
0
 10
142.67
 20
-13.6702
 11
143.055
 21
-13.7387
  0
LINE
  8
0
 10
143.055
 20
-13.7387
 11
143.41
 21
-13.8529
  0
LINE
  8
0
 10
143.41
 20
-13.8529
 11
143.734
 21
-14.0128
  0
LINE
  8
0
 10
143.734
 20
-14.0128
 11
144.028
 21
-14.2183
  0
LINE
  8
0
 10
144.028
 20
-14.2183
 11
144.291
 21
-14.4695
  0
LINE
  8
0
 10
144.291
 20
-14.4695
 11
144.524
 21
-14.7664
  0
LINE
  8
0
 10
144.524
 20
-14.7664
 11
144.727
 21
-15.109
  0
LINE
  8
0
 10
144.727
 20
-15.109
 11
144.902
 21
-15.5025
  0
LINE
  8
0
 10
144.902
 20
-15.5025
 11
145.055
 21
-15.9518
  0
LINE
  8
0
 10
145.055
 20
-15.9518
 11
145.184
 21
-16.4572
  0
LINE
  8
0
 10
145.184
 20
-16.4572
 11
145.289
 21
-17.0185
  0
LINE
  8
0
 10
145.289
 20
-17.0185
 11
145.371
 21
-17.6358
  0
LINE
  8
0
 10
145.371
 20
-17.6358
 11
145.43
 21
-18.3091
  0
LINE
  8
0
 10
145.43
 20
-18.3091
 11
145.465
 21
-19.0384
  0
LINE
  8
0
 10
145.465
 20
-19.0384
 11
145.476
 21
-19.8236
  0
LINE
  8
0
 10
145.476
 20
-19.8236
 11
145.464
 21
-20.582
  0
LINE
  8
0
 10
145.464
 20
-20.582
 11
145.427
 21
-21.2899
  0
LINE
  8
0
 10
145.427
 20
-21.2899
 11
145.366
 21
-21.9471
  0
LINE
  8
0
 10
145.366
 20
-21.9471
 11
145.28
 21
-22.5537
  0
LINE
  8
0
 10
145.28
 20
-22.5537
 11
145.169
 21
-23.1096
  0
LINE
  8
0
 10
145.169
 20
-23.1096
 11
145.034
 21
-23.615
  0
LINE
  8
0
 10
145.034
 20
-23.615
 11
144.874
 21
-24.0697
  0
LINE
  8
0
 10
144.874
 20
-24.0697
 11
144.689
 21
-24.4738
  0
LINE
  8
0
 10
144.689
 20
-24.4738
 11
144.479
 21
-24.8289
  0
LINE
  8
0
 10
144.479
 20
-24.8289
 11
144.24
 21
-25.1366
  0
LINE
  8
0
 10
144.24
 20
-25.1366
 11
143.973
 21
-25.397
  0
LINE
  8
0
 10
143.973
 20
-25.397
 11
143.677
 21
-25.61
  0
LINE
  8
0
 10
143.677
 20
-25.61
 11
143.353
 21
-25.7758
  0
LINE
  8
0
 10
143.353
 20
-25.7758
 11
143.001
 21
-25.8941
  0
LINE
  8
0
 10
143.001
 20
-25.8941
 11
142.621
 21
-25.9651
  0
LINE
  8
0
 10
142.621
 20
-25.9651
 11
142.213
 21
-25.9888
  0
LINE
  8
0
 10
142.213
 20
-25.9888
 11
141.802
 21
-25.9657
  0
LINE
  8
0
 10
130.987
 20
-27.5215
 11
131.574
 21
-27.4286
  0
LINE
  8
0
 10
131.574
 20
-27.4286
 11
132.122
 21
-27.2737
  0
LINE
  8
0
 10
132.122
 20
-27.2737
 11
132.63
 21
-27.0569
  0
LINE
  8
0
 10
132.63
 20
-27.0569
 11
133.099
 21
-26.7781
  0
LINE
  8
0
 10
133.099
 20
-26.7781
 11
133.528
 21
-26.4374
  0
LINE
  8
0
 10
133.528
 20
-26.4374
 11
133.918
 21
-26.0347
  0
LINE
  8
0
 10
133.918
 20
-26.0347
 11
134.269
 21
-25.5701
  0
LINE
  8
0
 10
134.269
 20
-25.5701
 11
134.579
 21
-25.0463
  0
LINE
  8
0
 10
134.579
 20
-25.0463
 11
134.848
 21
-24.4669
  0
LINE
  8
0
 10
134.848
 20
-24.4669
 11
135.076
 21
-23.8319
  0
LINE
  8
0
 10
135.076
 20
-23.8319
 11
135.262
 21
-23.1414
  0
LINE
  8
0
 10
135.262
 20
-23.1414
 11
135.406
 21
-22.3953
  0
LINE
  8
0
 10
135.406
 20
-22.3953
 11
135.51
 21
-21.5936
  0
LINE
  8
0
 10
135.51
 20
-21.5936
 11
135.572
 21
-20.7364
  0
LINE
  8
0
 10
135.572
 20
-20.7364
 11
135.593
 21
-19.8236
  0
LINE
  8
0
 10
135.593
 20
-19.8236
 11
135.573
 21
-18.8961
  0
LINE
  8
0
 10
135.573
 20
-18.8961
 11
135.514
 21
-18.0274
  0
LINE
  8
0
 10
135.514
 20
-18.0274
 11
135.415
 21
-17.2172
  0
LINE
  8
0
 10
135.415
 20
-17.2172
 11
135.277
 21
-16.4657
  0
LINE
  8
0
 10
135.277
 20
-16.4657
 11
135.1
 21
-15.7727
  0
LINE
  8
0
 10
135.1
 20
-15.7727
 11
134.883
 21
-15.1384
  0
LINE
  8
0
 10
134.883
 20
-15.1384
 11
134.627
 21
-14.5627
  0
LINE
  8
0
 10
134.627
 20
-14.5627
 11
134.332
 21
-14.0457
  0
LINE
  8
0
 10
134.332
 20
-14.0457
 11
133.995
 21
-13.5884
  0
LINE
  8
0
 10
133.995
 20
-13.5884
 11
133.615
 21
-13.1921
  0
LINE
  8
0
 10
133.615
 20
-13.1921
 11
133.192
 21
-12.8568
  0
LINE
  8
0
 10
133.192
 20
-12.8568
 11
132.725
 21
-12.5824
  0
LINE
  8
0
 10
132.725
 20
-12.5824
 11
132.215
 21
-12.369
  0
LINE
  8
0
 10
132.215
 20
-12.369
 11
131.662
 21
-12.2166
  0
LINE
  8
0
 10
131.662
 20
-12.2166
 11
131.065
 21
-12.1251
  0
LINE
  8
0
 10
131.065
 20
-12.1251
 11
130.425
 21
-12.0946
  0
LINE
  8
0
 10
130.425
 20
-12.0946
 11
129.767
 21
-12.1248
  0
LINE
  8
0
 10
129.767
 20
-12.1248
 11
129.155
 21
-12.2153
  0
LINE
  8
0
 10
129.155
 20
-12.2153
 11
128.588
 21
-12.3661
  0
LINE
  8
0
 10
128.588
 20
-12.3661
 11
128.068
 21
-12.5773
  0
LINE
  8
0
 10
128.068
 20
-12.5773
 11
127.592
 21
-12.8488
  0
LINE
  8
0
 10
127.592
 20
-12.8488
 11
127.163
 21
-13.1806
  0
LINE
  8
0
 10
127.163
 20
-13.1806
 11
126.779
 21
-13.5728
  0
LINE
  8
0
 10
126.779
 20
-13.5728
 11
126.441
 21
-14.0253
  0
LINE
  8
0
 10
126.441
 20
-14.0253
 11
126.146
 21
-14.5379
  0
LINE
  8
0
 10
126.146
 20
-14.5379
 11
125.89
 21
-15.1111
  0
LINE
  8
0
 10
125.89
 20
-15.1111
 11
125.674
 21
-15.7449
  0
LINE
  8
0
 10
125.674
 20
-15.7449
 11
125.497
 21
-16.4394
  0
LINE
  8
0
 10
125.497
 20
-16.4394
 11
125.359
 21
-17.1945
  0
LINE
  8
0
 10
125.359
 20
-17.1945
 11
125.261
 21
-18.0102
  0
LINE
  8
0
 10
125.261
 20
-18.0102
 11
125.201
 21
-18.8866
  0
LINE
  8
0
 10
125.201
 20
-18.8866
 11
125.182
 21
-19.8236
  0
LINE
  8
0
 10
125.182
 20
-19.8236
 11
125.202
 21
-20.7414
  0
LINE
  8
0
 10
125.202
 20
-20.7414
 11
125.263
 21
-21.6026
  0
LINE
  8
0
 10
125.263
 20
-21.6026
 11
125.364
 21
-22.4072
  0
LINE
  8
0
 10
125.364
 20
-22.4072
 11
125.506
 21
-23.1552
  0
LINE
  8
0
 10
125.506
 20
-23.1552
 11
125.688
 21
-23.8465
  0
LINE
  8
0
 10
125.688
 20
-23.8465
 11
125.911
 21
-24.4813
  0
LINE
  8
0
 10
125.911
 20
-24.4813
 11
126.175
 21
-25.0595
  0
LINE
  8
0
 10
126.175
 20
-25.0595
 11
126.479
 21
-25.581
  0
LINE
  8
0
 10
126.479
 20
-25.581
 11
126.823
 21
-26.0431
  0
LINE
  8
0
 10
126.823
 20
-26.0431
 11
127.208
 21
-26.4435
  0
LINE
  8
0
 10
127.208
 20
-26.4435
 11
127.633
 21
-26.7824
  0
LINE
  8
0
 10
127.633
 20
-26.7824
 11
128.098
 21
-27.0596
  0
LINE
  8
0
 10
128.098
 20
-27.0596
 11
128.603
 21
-27.2753
  0
LINE
  8
0
 10
128.603
 20
-27.2753
 11
129.149
 21
-27.4292
  0
LINE
  8
0
 10
129.149
 20
-27.4292
 11
129.734
 21
-27.5217
  0
LINE
  8
0
 10
129.734
 20
-27.5217
 11
130.361
 21
-27.5525
  0
LINE
  8
0
 10
130.361
 20
-27.5525
 11
130.987
 21
-27.5215
  0
LINE
  8
0
 10
129.971
 20
-25.9657
 11
129.589
 21
-25.8962
  0
LINE
  8
0
 10
129.589
 20
-25.8962
 11
129.236
 21
-25.7804
  0
LINE
  8
0
 10
129.236
 20
-25.7804
 11
128.911
 21
-25.6183
  0
LINE
  8
0
 10
128.911
 20
-25.6183
 11
128.614
 21
-25.4099
  0
LINE
  8
0
 10
128.614
 20
-25.4099
 11
128.347
 21
-25.1551
  0
LINE
  8
0
 10
128.347
 20
-25.1551
 11
128.108
 21
-24.8541
  0
LINE
  8
0
 10
128.108
 20
-24.8541
 11
127.898
 21
-24.5067
  0
LINE
  8
0
 10
127.898
 20
-24.5067
 11
127.715
 21
-24.109
  0
LINE
  8
0
 10
127.715
 20
-24.109
 11
127.556
 21
-23.6576
  0
LINE
  8
0
 10
127.556
 20
-23.6576
 11
127.422
 21
-23.1526
  0
LINE
  8
0
 10
127.422
 20
-23.1526
 11
127.312
 21
-22.5941
  0
LINE
  8
0
 10
127.312
 20
-22.5941
 11
127.227
 21
-21.9819
  0
LINE
  8
0
 10
127.227
 20
-21.9819
 11
127.166
 21
-21.316
  0
LINE
  8
0
 10
127.166
 20
-21.316
 11
127.129
 21
-20.5966
  0
LINE
  8
0
 10
127.129
 20
-20.5966
 11
127.117
 21
-19.8236
  0
LINE
  8
0
 10
127.117
 20
-19.8236
 11
127.129
 21
-19.0284
  0
LINE
  8
0
 10
127.129
 20
-19.0284
 11
127.165
 21
-18.2913
  0
LINE
  8
0
 10
127.165
 20
-18.2913
 11
127.225
 21
-17.6122
  0
LINE
  8
0
 10
127.225
 20
-17.6122
 11
127.31
 21
-16.9911
  0
LINE
  8
0
 10
127.31
 20
-16.9911
 11
127.418
 21
-16.428
  0
LINE
  8
0
 10
127.418
 20
-16.428
 11
127.55
 21
-15.923
  0
LINE
  8
0
 10
127.55
 20
-15.923
 11
127.707
 21
-15.476
  0
LINE
  8
0
 10
127.707
 20
-15.476
 11
127.887
 21
-15.0871
  0
LINE
  8
0
 10
127.887
 20
-15.0871
 11
128.096
 21
-14.7496
  0
LINE
  8
0
 10
128.096
 20
-14.7496
 11
128.335
 21
-14.4572
  0
LINE
  8
0
 10
128.335
 20
-14.4572
 11
128.606
 21
-14.2097
  0
LINE
  8
0
 10
128.606
 20
-14.2097
 11
128.907
 21
-14.0072
  0
LINE
  8
0
 10
128.907
 20
-14.0072
 11
129.24
 21
-13.8498
  0
LINE
  8
0
 10
129.24
 20
-13.8498
 11
129.604
 21
-13.7373
  0
LINE
  8
0
 10
129.604
 20
-13.7373
 11
129.999
 21
-13.6698
  0
LINE
  8
0
 10
129.999
 20
-13.6698
 11
130.425
 21
-13.6473
  0
LINE
  8
0
 10
130.425
 20
-13.6473
 11
130.84
 21
-13.6702
  0
LINE
  8
0
 10
130.84
 20
-13.6702
 11
131.225
 21
-13.7387
  0
LINE
  8
0
 10
131.225
 20
-13.7387
 11
131.58
 21
-13.8529
  0
LINE
  8
0
 10
131.58
 20
-13.8529
 11
131.904
 21
-14.0128
  0
LINE
  8
0
 10
131.904
 20
-14.0128
 11
132.198
 21
-14.2183
  0
LINE
  8
0
 10
132.198
 20
-14.2183
 11
132.461
 21
-14.4695
  0
LINE
  8
0
 10
132.461
 20
-14.4695
 11
132.694
 21
-14.7664
  0
LINE
  8
0
 10
132.694
 20
-14.7664
 11
132.897
 21
-15.109
  0
LINE
  8
0
 10
132.897
 20
-15.109
 11
133.072
 21
-15.5025
  0
LINE
  8
0
 10
133.072
 20
-15.5025
 11
133.225
 21
-15.9518
  0
LINE
  8
0
 10
133.225
 20
-15.9518
 11
133.353
 21
-16.4572
  0
LINE
  8
0
 10
133.353
 20
-16.4572
 11
133.459
 21
-17.0185
  0
LINE
  8
0
 10
133.459
 20
-17.0185
 11
133.541
 21
-17.6358
  0
LINE
  8
0
 10
133.541
 20
-17.6358
 11
133.599
 21
-18.3091
  0
LINE
  8
0
 10
133.599
 20
-18.3091
 11
133.635
 21
-19.0384
  0
LINE
  8
0
 10
133.635
 20
-19.0384
 11
133.646
 21
-19.8236
  0
LINE
  8
0
 10
133.646
 20
-19.8236
 11
133.634
 21
-20.582
  0
LINE
  8
0
 10
133.634
 20
-20.582
 11
133.597
 21
-21.2899
  0
LINE
  8
0
 10
133.597
 20
-21.2899
 11
133.536
 21
-21.9471
  0
LINE
  8
0
 10
133.536
 20
-21.9471
 11
133.449
 21
-22.5537
  0
LINE
  8
0
 10
133.449
 20
-22.5537
 11
133.339
 21
-23.1096
  0
LINE
  8
0
 10
133.339
 20
-23.1096
 11
133.203
 21
-23.615
  0
LINE
  8
0
 10
133.203
 20
-23.615
 11
133.044
 21
-24.0697
  0
LINE
  8
0
 10
133.044
 20
-24.0697
 11
132.859
 21
-24.4738
  0
LINE
  8
0
 10
132.859
 20
-24.4738
 11
132.648
 21
-24.8289
  0
LINE
  8
0
 10
132.648
 20
-24.8289
 11
132.41
 21
-25.1366
  0
LINE
  8
0
 10
132.41
 20
-25.1366
 11
132.142
 21
-25.397
  0
LINE
  8
0
 10
132.142
 20
-25.397
 11
131.847
 21
-25.61
  0
LINE
  8
0
 10
131.847
 20
-25.61
 11
131.523
 21
-25.7758
  0
LINE
  8
0
 10
131.523
 20
-25.7758
 11
131.171
 21
-25.8941
  0
LINE
  8
0
 10
131.171
 20
-25.8941
 11
130.791
 21
-25.9651
  0
LINE
  8
0
 10
130.791
 20
-25.9651
 11
130.383
 21
-25.9888
  0
LINE
  8
0
 10
130.383
 20
-25.9888
 11
129.971
 21
-25.9657
  0
LINE
  8
0
 10
119.167
 20
-27.5346
 11
119.726
 21
-27.4808
  0
LINE
  8
0
 10
119.726
 20
-27.4808
 11
120.249
 21
-27.3913
  0
LINE
  8
0
 10
120.249
 20
-27.3913
 11
120.737
 21
-27.2658
  0
LINE
  8
0
 10
120.737
 20
-27.2658
 11
121.191
 21
-27.1046
  0
LINE
  8
0
 10
121.191
 20
-27.1046
 11
121.608
 21
-26.9076
  0
LINE
  8
0
 10
121.608
 20
-26.9076
 11
121.991
 21
-26.6747
  0
LINE
  8
0
 10
121.991
 20
-26.6747
 11
122.338
 21
-26.406
  0
LINE
  8
0
 10
122.338
 20
-26.406
 11
122.648
 21
-26.1043
  0
LINE
  8
0
 10
122.648
 20
-26.1043
 11
122.915
 21
-25.7731
  0
LINE
  8
0
 10
122.915
 20
-25.7731
 11
123.142
 21
-25.4124
  0
LINE
  8
0
 10
123.142
 20
-25.4124
 11
123.328
 21
-25.0223
  0
LINE
  8
0
 10
123.328
 20
-25.0223
 11
123.472
 21
-24.6027
  0
LINE
  8
0
 10
123.472
 20
-24.6027
 11
123.575
 21
-24.1537
  0
LINE
  8
0
 10
123.575
 20
-24.1537
 11
123.637
 21
-23.6752
  0
LINE
  8
0
 10
123.637
 20
-23.6752
 11
123.657
 21
-23.1673
  0
LINE
  8
0
 10
123.657
 20
-23.1673
 11
123.643
 21
-22.8131
  0
LINE
  8
0
 10
123.643
 20
-22.8131
 11
123.599
 21
-22.4744
  0
LINE
  8
0
 10
123.599
 20
-22.4744
 11
123.526
 21
-22.1511
  0
LINE
  8
0
 10
123.526
 20
-22.1511
 11
123.423
 21
-21.8432
  0
LINE
  8
0
 10
123.423
 20
-21.8432
 11
123.292
 21
-21.5508
  0
LINE
  8
0
 10
123.292
 20
-21.5508
 11
123.131
 21
-21.2738
  0
LINE
  8
0
 10
123.131
 20
-21.2738
 11
122.941
 21
-21.0123
  0
LINE
  8
0
 10
122.941
 20
-21.0123
 11
122.721
 21
-20.7661
  0
LINE
  8
0
 10
122.721
 20
-20.7661
 11
122.475
 21
-20.5394
  0
LINE
  8
0
 10
122.475
 20
-20.5394
 11
122.206
 21
-20.3368
  0
LINE
  8
0
 10
122.206
 20
-20.3368
 11
121.914
 21
-20.1583
  0
LINE
  8
0
 10
121.914
 20
-20.1583
 11
121.599
 21
-20.0039
  0
LINE
  8
0
 10
121.599
 20
-20.0039
 11
121.26
 21
-19.8737
  0
LINE
  8
0
 10
121.26
 20
-19.8737
 11
120.898
 21
-19.7675
  0
LINE
  8
0
 10
120.898
 20
-19.7675
 11
120.513
 21
-19.6854
  0
LINE
  8
0
 10
120.513
 20
-19.6854
 11
120.105
 21
-19.6275
  0
LINE
  8
0
 10
120.105
 20
-19.6275
 11
120.105
 21
-19.5852
  0
LINE
  8
0
 10
120.105
 20
-19.5852
 11
120.476
 21
-19.4966
  0
LINE
  8
0
 10
120.476
 20
-19.4966
 11
120.825
 21
-19.39
  0
LINE
  8
0
 10
120.825
 20
-19.39
 11
121.151
 21
-19.2654
  0
LINE
  8
0
 10
121.151
 20
-19.2654
 11
121.454
 21
-19.1229
  0
LINE
  8
0
 10
121.454
 20
-19.1229
 11
121.734
 21
-18.9624
  0
LINE
  8
0
 10
121.734
 20
-18.9624
 11
121.992
 21
-18.7838
  0
LINE
  8
0
 10
121.992
 20
-18.7838
 11
122.227
 21
-18.5873
  0
LINE
  8
0
 10
122.227
 20
-18.5873
 11
122.439
 21
-18.3728
  0
LINE
  8
0
 10
122.439
 20
-18.3728
 11
122.627
 21
-18.1406
  0
LINE
  8
0
 10
122.627
 20
-18.1406
 11
122.79
 21
-17.8916
  0
LINE
  8
0
 10
122.79
 20
-17.8916
 11
122.928
 21
-17.6259
  0
LINE
  8
0
 10
122.928
 20
-17.6259
 11
123.041
 21
-17.3436
  0
LINE
  8
0
 10
123.041
 20
-17.3436
 11
123.129
 21
-17.0445
  0
LINE
  8
0
 10
123.129
 20
-17.0445
 11
123.192
 21
-16.7287
  0
LINE
  8
0
 10
123.192
 20
-16.7287
 11
123.229
 21
-16.3961
  0
LINE
  8
0
 10
123.229
 20
-16.3961
 11
123.242
 21
-16.0469
  0
LINE
  8
0
 10
123.242
 20
-16.0469
 11
123.222
 21
-15.5936
  0
LINE
  8
0
 10
123.222
 20
-15.5936
 11
123.164
 21
-15.1659
  0
LINE
  8
0
 10
123.164
 20
-15.1659
 11
123.066
 21
-14.7639
  0
LINE
  8
0
 10
123.066
 20
-14.7639
 11
122.929
 21
-14.3876
  0
LINE
  8
0
 10
122.929
 20
-14.3876
 11
122.753
 21
-14.037
  0
LINE
  8
0
 10
122.753
 20
-14.037
 11
122.539
 21
-13.712
  0
LINE
  8
0
 10
122.539
 20
-13.712
 11
122.285
 21
-13.4127
  0
LINE
  8
0
 10
122.285
 20
-13.4127
 11
121.992
 21
-13.1392
  0
LINE
  8
0
 10
121.992
 20
-13.1392
 11
121.664
 21
-12.8944
  0
LINE
  8
0
 10
121.664
 20
-12.8944
 11
121.305
 21
-12.6822
  0
LINE
  8
0
 10
121.305
 20
-12.6822
 11
120.914
 21
-12.5027
  0
LINE
  8
0
 10
120.914
 20
-12.5027
 11
120.492
 21
-12.3558
  0
LINE
  8
0
 10
120.492
 20
-12.3558
 11
120.038
 21
-12.2415
  0
LINE
  8
0
 10
120.038
 20
-12.2415
 11
119.553
 21
-12.1599
  0
LINE
  8
0
 10
119.553
 20
-12.1599
 11
119.036
 21
-12.1109
  0
LINE
  8
0
 10
119.036
 20
-12.1109
 11
118.488
 21
-12.0946
  0
LINE
  8
0
 10
118.488
 20
-12.0946
 11
117.984
 21
-12.1107
  0
LINE
  8
0
 10
117.984
 20
-12.1107
 11
117.503
 21
-12.1591
  0
LINE
  8
0
 10
117.503
 20
-12.1591
 11
117.046
 21
-12.2397
  0
LINE
  8
0
 10
117.046
 20
-12.2397
 11
116.612
 21
-12.3526
  0
LINE
  8
0
 10
116.612
 20
-12.3526
 11
116.202
 21
-12.4977
  0
LINE
  8
0
 10
116.202
 20
-12.4977
 11
115.815
 21
-12.6751
  0
LINE
  8
0
 10
115.815
 20
-12.6751
 11
115.451
 21
-12.8847
  0
LINE
  8
0
 10
115.451
 20
-12.8847
 11
115.111
 21
-13.1266
  0
LINE
  8
0
 10
115.111
 20
-13.1266
 11
114.8
 21
-13.3969
  0
LINE
  8
0
 10
114.8
 20
-13.3969
 11
114.524
 21
-13.6924
  0
LINE
  8
0
 10
114.524
 20
-13.6924
 11
114.281
 21
-14.0132
  0
LINE
  8
0
 10
114.281
 20
-14.0132
 11
114.073
 21
-14.3593
  0
LINE
  8
0
 10
114.073
 20
-14.3593
 11
113.9
 21
-14.7308
  0
LINE
  8
0
 10
113.9
 20
-14.7308
 11
113.761
 21
-15.1275
  0
LINE
  8
0
 10
113.761
 20
-15.1275
 11
113.656
 21
-15.5495
  0
LINE
  8
0
 10
113.656
 20
-15.5495
 11
113.585
 21
-15.9967
  0
LINE
  8
0
 10
113.585
 20
-15.9967
 11
115.51
 21
-16.1457
  0
LINE
  8
0
 10
115.51
 20
-16.1457
 11
115.552
 21
-15.8592
  0
LINE
  8
0
 10
115.552
 20
-15.8592
 11
115.614
 21
-15.5893
  0
LINE
  8
0
 10
115.614
 20
-15.5893
 11
115.697
 21
-15.3359
  0
LINE
  8
0
 10
115.697
 20
-15.3359
 11
115.8
 21
-15.0992
  0
LINE
  8
0
 10
115.8
 20
-15.0992
 11
115.924
 21
-14.8791
  0
LINE
  8
0
 10
115.924
 20
-14.8791
 11
116.068
 21
-14.6757
  0
LINE
  8
0
 10
116.068
 20
-14.6757
 11
116.233
 21
-14.4888
  0
LINE
  8
0
 10
116.233
 20
-14.4888
 11
116.418
 21
-14.3186
  0
LINE
  8
0
 10
116.418
 20
-14.3186
 11
116.621
 21
-14.1664
  0
LINE
  8
0
 10
116.621
 20
-14.1664
 11
116.839
 21
-14.0345
  0
LINE
  8
0
 10
116.839
 20
-14.0345
 11
117.073
 21
-13.9229
  0
LINE
  8
0
 10
117.073
 20
-13.9229
 11
117.321
 21
-13.8316
  0
LINE
  8
0
 10
117.321
 20
-13.8316
 11
117.585
 21
-13.7606
  0
LINE
  8
0
 10
117.585
 20
-13.7606
 11
117.863
 21
-13.7099
  0
LINE
  8
0
 10
117.863
 20
-13.7099
 11
118.157
 21
-13.6794
  0
LINE
  8
0
 10
118.157
 20
-13.6794
 11
118.466
 21
-13.6693
  0
LINE
  8
0
 10
118.466
 20
-13.6693
 11
118.804
 21
-13.6801
  0
LINE
  8
0
 10
118.804
 20
-13.6801
 11
119.12
 21
-13.7126
  0
LINE
  8
0
 10
119.12
 20
-13.7126
 11
119.415
 21
-13.7668
  0
LINE
  8
0
 10
119.415
 20
-13.7668
 11
119.689
 21
-13.8426
  0
LINE
  8
0
 10
119.689
 20
-13.8426
 11
119.941
 21
-13.9401
  0
LINE
  8
0
 10
119.941
 20
-13.9401
 11
120.171
 21
-14.0592
  0
LINE
  8
0
 10
120.171
 20
-14.0592
 11
120.38
 21
-14.2
  0
LINE
  8
0
 10
120.38
 20
-14.2
 11
120.568
 21
-14.3625
  0
LINE
  8
0
 10
120.568
 20
-14.3625
 11
120.733
 21
-14.5433
  0
LINE
  8
0
 10
120.733
 20
-14.5433
 11
120.877
 21
-14.7398
  0
LINE
  8
0
 10
120.877
 20
-14.7398
 11
120.999
 21
-14.952
  0
LINE
  8
0
 10
120.999
 20
-14.952
 11
121.098
 21
-15.18
  0
LINE
  8
0
 10
121.098
 20
-15.18
 11
121.176
 21
-15.4237
  0
LINE
  8
0
 10
121.176
 20
-15.4237
 11
121.231
 21
-15.6832
  0
LINE
  8
0
 10
121.231
 20
-15.6832
 11
121.264
 21
-15.9583
  0
LINE
  8
0
 10
121.264
 20
-15.9583
 11
121.275
 21
-16.2492
  0
LINE
  8
0
 10
121.275
 20
-16.2492
 11
121.261
 21
-16.5426
  0
LINE
  8
0
 10
121.261
 20
-16.5426
 11
121.221
 21
-16.8195
  0
LINE
  8
0
 10
121.221
 20
-16.8195
 11
121.153
 21
-17.0801
  0
LINE
  8
0
 10
121.153
 20
-17.0801
 11
121.058
 21
-17.3244
  0
LINE
  8
0
 10
121.058
 20
-17.3244
 11
120.936
 21
-17.5522
  0
LINE
  8
0
 10
120.936
 20
-17.5522
 11
120.787
 21
-17.7637
  0
LINE
  8
0
 10
120.787
 20
-17.7637
 11
120.611
 21
-17.9588
  0
LINE
  8
0
 10
120.611
 20
-17.9588
 11
120.408
 21
-18.1376
  0
LINE
  8
0
 10
120.408
 20
-18.1376
 11
120.18
 21
-18.2975
  0
LINE
  8
0
 10
120.18
 20
-18.2975
 11
119.93
 21
-18.4361
  0
LINE
  8
0
 10
119.93
 20
-18.4361
 11
119.658
 21
-18.5533
  0
LINE
  8
0
 10
119.658
 20
-18.5533
 11
119.364
 21
-18.6493
  0
LINE
  8
0
 10
119.364
 20
-18.6493
 11
119.048
 21
-18.7239
  0
LINE
  8
0
 10
119.048
 20
-18.7239
 11
118.71
 21
-18.7772
  0
LINE
  8
0
 10
118.71
 20
-18.7772
 11
118.35
 21
-18.8091
  0
LINE
  8
0
 10
118.35
 20
-18.8091
 11
117.967
 21
-18.8198
  0
LINE
  8
0
 10
117.967
 20
-18.8198
 11
116.924
 21
-18.8198
  0
LINE
  8
0
 10
116.924
 20
-18.8198
 11
116.924
 21
-20.4791
  0
LINE
  8
0
 10
116.924
 20
-20.4791
 11
118.01
 21
-20.4791
  0
LINE
  8
0
 10
118.01
 20
-20.4791
 11
118.44
 21
-20.49
  0
LINE
  8
0
 10
118.44
 20
-20.49
 11
118.845
 21
-20.5225
  0
LINE
  8
0
 10
118.845
 20
-20.5225
 11
119.224
 21
-20.5768
  0
LINE
  8
0
 10
119.224
 20
-20.5768
 11
119.576
 21
-20.6528
  0
LINE
  8
0
 10
119.576
 20
-20.6528
 11
119.903
 21
-20.7505
  0
LINE
  8
0
 10
119.903
 20
-20.7505
 11
120.203
 21
-20.8699
  0
LINE
  8
0
 10
120.203
 20
-20.8699
 11
120.478
 21
-21.0111
  0
LINE
  8
0
 10
120.478
 20
-21.0111
 11
120.726
 21
-21.1739
  0
LINE
  8
0
 10
120.726
 20
-21.1739
 11
120.947
 21
-21.3557
  0
LINE
  8
0
 10
120.947
 20
-21.3557
 11
121.138
 21
-21.5546
  0
LINE
  8
0
 10
121.138
 20
-21.5546
 11
121.3
 21
-21.7706
  0
LINE
  8
0
 10
121.3
 20
-21.7706
 11
121.432
 21
-22.0036
  0
LINE
  8
0
 10
121.432
 20
-22.0036
 11
121.535
 21
-22.2536
  0
LINE
  8
0
 10
121.535
 20
-22.2536
 11
121.608
 21
-22.5207
  0
LINE
  8
0
 10
121.608
 20
-22.5207
 11
121.652
 21
-22.8049
  0
LINE
  8
0
 10
121.652
 20
-22.8049
 11
121.667
 21
-23.1062
  0
LINE
  8
0
 10
121.667
 20
-23.1062
 11
121.654
 21
-23.4501
  0
LINE
  8
0
 10
121.654
 20
-23.4501
 11
121.616
 21
-23.7722
  0
LINE
  8
0
 10
121.616
 20
-23.7722
 11
121.551
 21
-24.0725
  0
LINE
  8
0
 10
121.551
 20
-24.0725
 11
121.461
 21
-24.351
  0
LINE
  8
0
 10
121.461
 20
-24.351
 11
121.345
 21
-24.6077
  0
LINE
  8
0
 10
121.345
 20
-24.6077
 11
121.203
 21
-24.8426
  0
LINE
  8
0
 10
121.203
 20
-24.8426
 11
121.036
 21
-25.0557
  0
LINE
  8
0
 10
121.036
 20
-25.0557
 11
120.842
 21
-25.247
  0
LINE
  8
0
 10
120.842
 20
-25.247
 11
120.627
 21
-25.4161
  0
LINE
  8
0
 10
120.627
 20
-25.4161
 11
120.392
 21
-25.5626
  0
LINE
  8
0
 10
120.392
 20
-25.5626
 11
120.137
 21
-25.6866
  0
LINE
  8
0
 10
120.137
 20
-25.6866
 11
119.863
 21
-25.7881
  0
LINE
  8
0
 10
119.863
 20
-25.7881
 11
119.57
 21
-25.867
  0
LINE
  8
0
 10
119.57
 20
-25.867
 11
119.257
 21
-25.9233
  0
LINE
  8
0
 10
119.257
 20
-25.9233
 11
118.924
 21
-25.9572
  0
LINE
  8
0
 10
118.924
 20
-25.9572
 11
118.573
 21
-25.9684
  0
LINE
  8
0
 10
118.573
 20
-25.9684
 11
117.891
 21
-25.9268
  0
LINE
  8
0
 10
117.891
 20
-25.9268
 11
117.288
 21
-25.8022
  0
LINE
  8
0
 10
117.288
 20
-25.8022
 11
116.762
 21
-25.5944
  0
LINE
  8
0
 10
116.762
 20
-25.5944
 11
116.315
 21
-25.3034
  0
LINE
  8
0
 10
116.315
 20
-25.3034
 11
115.946
 21
-24.9294
  0
LINE
  8
0
 10
115.946
 20
-24.9294
 11
115.655
 21
-24.4722
  0
LINE
  8
0
 10
115.655
 20
-24.4722
 11
115.442
 21
-23.9319
  0
LINE
  8
0
 10
115.442
 20
-23.9319
 11
115.307
 21
-23.3085
  0
LINE
  8
0
 10
115.307
 20
-23.3085
 11
113.33
 21
-23.4888
  0
LINE
  8
0
 10
113.33
 20
-23.4888
 11
113.411
 21
-23.9761
  0
LINE
  8
0
 10
113.411
 20
-23.9761
 11
113.526
 21
-24.4327
  0
LINE
  8
0
 10
113.526
 20
-24.4327
 11
113.676
 21
-24.8585
  0
LINE
  8
0
 10
113.676
 20
-24.8585
 11
113.86
 21
-25.2536
  0
LINE
  8
0
 10
113.86
 20
-25.2536
 11
114.079
 21
-25.618
  0
LINE
  8
0
 10
114.079
 20
-25.618
 11
114.332
 21
-25.9516
  0
LINE
  8
0
 10
114.332
 20
-25.9516
 11
114.619
 21
-26.2546
  0
LINE
  8
0
 10
114.619
 20
-26.2546
 11
114.94
 21
-26.5268
  0
LINE
  8
0
 10
114.94
 20
-26.5268
 11
115.294
 21
-26.7672
  0
LINE
  8
0
 10
115.294
 20
-26.7672
 11
115.676
 21
-26.9755
  0
LINE
  8
0
 10
115.676
 20
-26.9755
 11
116.087
 21
-27.1518
  0
LINE
  8
0
 10
116.087
 20
-27.1518
 11
116.527
 21
-27.2961
  0
LINE
  8
0
 10
116.527
 20
-27.2961
 11
116.995
 21
-27.4082
  0
LINE
  8
0
 10
116.995
 20
-27.4082
 11
117.492
 21
-27.4884
  0
LINE
  8
0
 10
117.492
 20
-27.4884
 11
118.018
 21
-27.5364
  0
LINE
  8
0
 10
118.018
 20
-27.5364
 11
118.573
 21
-27.5525
  0
LINE
  8
0
 10
118.573
 20
-27.5525
 11
119.167
 21
-27.5346
  0
LINE
  8
0
 10
157.315
 20
-20.6689
 11
157.326
 21
-20.2543
  0
LINE
  8
0
 10
157.326
 20
-20.2543
 11
157.36
 21
-19.8638
  0
LINE
  8
0
 10
157.36
 20
-19.8638
 11
157.415
 21
-19.4972
  0
LINE
  8
0
 10
157.415
 20
-19.4972
 11
157.493
 21
-19.1547
  0
LINE
  8
0
 10
157.493
 20
-19.1547
 11
157.594
 21
-18.8361
  0
LINE
  8
0
 10
157.594
 20
-18.8361
 11
157.716
 21
-18.5416
  0
LINE
  8
0
 10
157.716
 20
-18.5416
 11
157.861
 21
-18.2711
  0
LINE
  8
0
 10
157.861
 20
-18.2711
 11
158.027
 21
-18.0246
  0
LINE
  8
0
 10
158.027
 20
-18.0246
 11
158.214
 21
-17.8048
  0
LINE
  8
0
 10
158.214
 20
-17.8048
 11
158.416
 21
-17.6143
  0
LINE
  8
0
 10
158.416
 20
-17.6143
 11
158.634
 21
-17.4531
  0
LINE
  8
0
 10
158.634
 20
-17.4531
 11
158.868
 21
-17.3212
  0
LINE
  8
0
 10
158.868
 20
-17.3212
 11
159.118
 21
-17.2187
  0
LINE
  8
0
 10
159.118
 20
-17.2187
 11
159.384
 21
-17.1454
  0
LINE
  8
0
 10
159.384
 20
-17.1454
 11
159.665
 21
-17.1014
  0
LINE
  8
0
 10
159.665
 20
-17.1014
 11
159.963
 21
-17.0867
  0
LINE
  8
0
 10
159.963
 20
-17.0867
 11
160.249
 21
-17.0968
  0
LINE
  8
0
 10
160.249
 20
-17.0968
 11
160.513
 21
-17.1268
  0
LINE
  8
0
 10
160.513
 20
-17.1268
 11
160.753
 21
-17.1768
  0
LINE
  8
0
 10
160.753
 20
-17.1768
 11
160.971
 21
-17.2467
  0
LINE
  8
0
 10
160.971
 20
-17.2467
 11
161.165
 21
-17.3367
  0
LINE
  8
0
 10
161.165
 20
-17.3367
 11
161.337
 21
-17.4467
  0
LINE
  8
0
 10
161.337
 20
-17.4467
 11
161.486
 21
-17.5767
  0
LINE
  8
0
 10
161.486
 20
-17.5767
 11
161.611
 21
-17.7267
  0
LINE
  8
0
 10
161.611
 20
-17.7267
 11
161.718
 21
-17.9028
  0
LINE
  8
0
 10
161.718
 20
-17.9028
 11
161.811
 21
-18.1112
  0
LINE
  8
0
 10
161.811
 20
-18.1112
 11
161.89
 21
-18.3519
  0
LINE
  8
0
 10
161.89
 20
-18.3519
 11
161.955
 21
-18.6249
  0
LINE
  8
0
 10
161.955
 20
-18.6249
 11
162.005
 21
-18.9303
  0
LINE
  8
0
 10
162.005
 20
-18.9303
 11
162.04
 21
-19.2679
  0
LINE
  8
0
 10
162.04
 20
-19.2679
 11
162.062
 21
-19.6378
  0
LINE
  8
0
 10
162.062
 20
-19.6378
 11
162.069
 21
-20.04
  0
LINE
  8
0
 10
162.069
 20
-20.04
 11
162.069
 21
-27.3517
  0
LINE
  8
0
 10
162.069
 20
-27.3517
 11
163.962
 21
-27.3517
  0
LINE
  8
0
 10
163.962
 20
-27.3517
 11
163.962
 21
-20.6689
  0
LINE
  8
0
 10
163.962
 20
-20.6689
 11
163.973
 21
-20.2518
  0
LINE
  8
0
 10
163.973
 20
-20.2518
 11
164.006
 21
-19.8593
  0
LINE
  8
0
 10
164.006
 20
-19.8593
 11
164.06
 21
-19.4914
  0
LINE
  8
0
 10
164.06
 20
-19.4914
 11
164.136
 21
-19.148
  0
LINE
  8
0
 10
164.136
 20
-19.148
 11
164.234
 21
-18.8291
  0
LINE
  8
0
 10
164.234
 20
-18.8291
 11
164.354
 21
-18.5349
  0
LINE
  8
0
 10
164.354
 20
-18.5349
 11
164.495
 21
-18.2651
  0
LINE
  8
0
 10
164.495
 20
-18.2651
 11
164.658
 21
-18.0199
  0
LINE
  8
0
 10
164.658
 20
-18.0199
 11
164.841
 21
-17.8012
  0
LINE
  8
0
 10
164.841
 20
-17.8012
 11
165.042
 21
-17.6117
  0
LINE
  8
0
 10
165.042
 20
-17.6117
 11
165.259
 21
-17.4513
  0
LINE
  8
0
 10
165.259
 20
-17.4513
 11
165.494
 21
-17.3201
  0
LINE
  8
0
 10
165.494
 20
-17.3201
 11
165.747
 21
-17.218
  0
LINE
  8
0
 10
165.747
 20
-17.218
 11
166.017
 21
-17.1451
  0
LINE
  8
0
 10
166.017
 20
-17.1451
 11
166.305
 21
-17.1013
  0
LINE
  8
0
 10
166.305
 20
-17.1013
 11
166.61
 21
-17.0867
  0
LINE
  8
0
 10
166.61
 20
-17.0867
 11
166.896
 21
-17.0968
  0
LINE
  8
0
 10
166.896
 20
-17.0968
 11
167.16
 21
-17.1268
  0
LINE
  8
0
 10
167.16
 20
-17.1268
 11
167.4
 21
-17.1768
  0
LINE
  8
0
 10
167.4
 20
-17.1768
 11
167.618
 21
-17.2467
  0
LINE
  8
0
 10
167.618
 20
-17.2467
 11
167.812
 21
-17.3367
  0
LINE
  8
0
 10
167.812
 20
-17.3367
 11
167.984
 21
-17.4467
  0
LINE
  8
0
 10
167.984
 20
-17.4467
 11
168.132
 21
-17.5767
  0
LINE
  8
0
 10
168.132
 20
-17.5767
 11
168.258
 21
-17.7267
  0
LINE
  8
0
 10
168.258
 20
-17.7267
 11
168.365
 21
-17.9028
  0
LINE
  8
0
 10
168.365
 20
-17.9028
 11
168.458
 21
-18.1112
  0
LINE
  8
0
 10
168.458
 20
-18.1112
 11
168.537
 21
-18.3519
  0
LINE
  8
0
 10
168.537
 20
-18.3519
 11
168.601
 21
-18.6249
  0
LINE
  8
0
 10
168.601
 20
-18.6249
 11
168.651
 21
-18.9303
  0
LINE
  8
0
 10
168.651
 20
-18.9303
 11
168.687
 21
-19.2679
  0
LINE
  8
0
 10
168.687
 20
-19.2679
 11
168.709
 21
-19.6378
  0
LINE
  8
0
 10
168.709
 20
-19.6378
 11
168.716
 21
-20.04
  0
LINE
  8
0
 10
168.716
 20
-20.04
 11
168.716
 21
-27.3517
  0
LINE
  8
0
 10
168.716
 20
-27.3517
 11
170.609
 21
-27.3517
  0
LINE
  8
0
 10
170.609
 20
-27.3517
 11
170.609
 21
-19.6683
  0
LINE
  8
0
 10
170.609
 20
-19.6683
 11
170.596
 21
-19.1462
  0
LINE
  8
0
 10
170.596
 20
-19.1462
 11
170.559
 21
-18.6622
  0
LINE
  8
0
 10
170.559
 20
-18.6622
 11
170.497
 21
-18.2162
  0
LINE
  8
0
 10
170.497
 20
-18.2162
 11
170.411
 21
-17.8082
  0
LINE
  8
0
 10
170.411
 20
-17.8082
 11
170.299
 21
-17.4383
  0
LINE
  8
0
 10
170.299
 20
-17.4383
 11
170.163
 21
-17.1064
  0
LINE
  8
0
 10
170.163
 20
-17.1064
 11
170.002
 21
-16.8125
  0
LINE
  8
0
 10
170.002
 20
-16.8125
 11
169.817
 21
-16.5566
  0
LINE
  8
0
 10
169.817
 20
-16.5566
 11
169.604
 21
-16.3342
  0
LINE
  8
0
 10
169.604
 20
-16.3342
 11
169.361
 21
-16.1415
  0
LINE
  8
0
 10
169.361
 20
-16.1415
 11
169.089
 21
-15.9784
  0
LINE
  8
0
 10
169.089
 20
-15.9784
 11
168.787
 21
-15.845
  0
LINE
  8
0
 10
168.787
 20
-15.845
 11
168.455
 21
-15.7412
  0
LINE
  8
0
 10
168.455
 20
-15.7412
 11
168.093
 21
-15.6671
  0
LINE
  8
0
 10
168.093
 20
-15.6671
 11
167.702
 21
-15.6226
  0
LINE
  8
0
 10
167.702
 20
-15.6226
 11
167.281
 21
-15.6078
  0
LINE
  8
0
 10
167.281
 20
-15.6078
 11
166.986
 21
-15.6158
  0
LINE
  8
0
 10
166.986
 20
-15.6158
 11
166.702
 21
-15.6397
  0
LINE
  8
0
 10
166.702
 20
-15.6397
 11
166.429
 21
-15.6797
  0
LINE
  8
0
 10
166.429
 20
-15.6797
 11
166.167
 21
-15.7356
  0
LINE
  8
0
 10
166.167
 20
-15.7356
 11
165.917
 21
-15.8075
  0
LINE
  8
0
 10
165.917
 20
-15.8075
 11
165.678
 21
-15.8954
  0
LINE
  8
0
 10
165.678
 20
-15.8954
 11
165.449
 21
-15.9992
  0
LINE
  8
0
 10
165.449
 20
-15.9992
 11
165.232
 21
-16.1191
  0
LINE
  8
0
 10
165.232
 20
-16.1191
 11
165.025
 21
-16.2571
  0
LINE
  8
0
 10
165.025
 20
-16.2571
 11
164.825
 21
-16.4154
  0
LINE
  8
0
 10
164.825
 20
-16.4154
 11
164.634
 21
-16.5941
  0
LINE
  8
0
 10
164.634
 20
-16.5941
 11
164.449
 21
-16.7931
  0
LINE
  8
0
 10
164.449
 20
-16.7931
 11
164.273
 21
-17.0124
  0
LINE
  8
0
 10
164.273
 20
-17.0124
 11
164.105
 21
-17.2521
  0
LINE
  8
0
 10
164.105
 20
-17.2521
 11
163.944
 21
-17.5121
  0
LINE
  8
0
 10
163.944
 20
-17.5121
 11
163.791
 21
-17.7925
  0
LINE
  8
0
 10
163.791
 20
-17.7925
 11
163.76
 21
-17.7925
  0
LINE
  8
0
 10
163.76
 20
-17.7925
 11
163.678
 21
-17.5171
  0
LINE
  8
0
 10
163.678
 20
-17.5171
 11
163.582
 21
-17.261
  0
LINE
  8
0
 10
163.582
 20
-17.261
 11
163.471
 21
-17.0243
  0
LINE
  8
0
 10
163.471
 20
-17.0243
 11
163.346
 21
-16.8068
  0
LINE
  8
0
 10
163.346
 20
-16.8068
 11
163.207
 21
-16.6086
  0
LINE
  8
0
 10
163.207
 20
-16.6086
 11
163.053
 21
-16.4298
  0
LINE
  8
0
 10
163.053
 20
-16.4298
 11
162.884
 21
-16.2703
  0
LINE
  8
0
 10
162.884
 20
-16.2703
 11
162.701
 21
-16.13
  0
LINE
  8
0
 10
162.701
 20
-16.13
 11
162.503
 21
-16.0077
  0
LINE
  8
0
 10
162.503
 20
-16.0077
 11
162.287
 21
-15.9016
  0
LINE
  8
0
 10
162.287
 20
-15.9016
 11
162.055
 21
-15.8118
  0
LINE
  8
0
 10
162.055
 20
-15.8118
 11
161.805
 21
-15.7384
  0
LINE
  8
0
 10
161.805
 20
-15.7384
 11
161.538
 21
-15.6812
  0
LINE
  8
0
 10
161.538
 20
-15.6812
 11
161.254
 21
-15.6404
  0
LINE
  8
0
 10
161.254
 20
-15.6404
 11
160.952
 21
-15.6159
  0
LINE
  8
0
 10
160.952
 20
-15.6159
 11
160.634
 21
-15.6078
  0
LINE
  8
0
 10
160.634
 20
-15.6078
 11
160.352
 21
-15.6153
  0
LINE
  8
0
 10
160.352
 20
-15.6153
 11
160.081
 21
-15.6378
  0
LINE
  8
0
 10
160.081
 20
-15.6378
 11
159.821
 21
-15.6753
  0
LINE
  8
0
 10
159.821
 20
-15.6753
 11
159.572
 21
-15.7278
  0
LINE
  8
0
 10
159.572
 20
-15.7278
 11
159.334
 21
-15.7953
  0
LINE
  8
0
 10
159.334
 20
-15.7953
 11
159.107
 21
-15.8777
  0
LINE
  8
0
 10
159.107
 20
-15.8777
 11
158.891
 21
-15.9752
  0
LINE
  8
0
 10
158.891
 20
-15.9752
 11
158.686
 21
-16.0877
  0
LINE
  8
0
 10
158.686
 20
-16.0877
 11
158.49
 21
-16.2193
  0
LINE
  8
0
 10
158.49
 20
-16.2193
 11
158.299
 21
-16.3742
  0
LINE
  8
0
 10
158.299
 20
-16.3742
 11
158.114
 21
-16.5524
  0
LINE
  8
0
 10
158.114
 20
-16.5524
 11
157.934
 21
-16.7539
  0
LINE
  8
0
 10
157.934
 20
-16.7539
 11
157.761
 21
-16.9786
  0
LINE
  8
0
 10
157.761
 20
-16.9786
 11
157.592
 21
-17.2266
  0
LINE
  8
0
 10
157.592
 20
-17.2266
 11
157.43
 21
-17.4979
  0
LINE
  8
0
 10
157.43
 20
-17.4979
 11
157.273
 21
-17.7925
  0
LINE
  8
0
 10
157.273
 20
-17.7925
 11
157.242
 21
-17.7925
  0
LINE
  8
0
 10
157.242
 20
-17.7925
 11
157.236
 21
-17.5892
  0
LINE
  8
0
 10
157.236
 20
-17.5892
 11
157.231
 21
-17.4029
  0
LINE
  8
0
 10
157.231
 20
-17.4029
 11
157.226
 21
-17.2334
  0
LINE
  8
0
 10
157.226
 20
-17.2334
 11
157.221
 21
-17.0809
  0
LINE
  8
0
 10
157.221
 20
-17.0809
 11
157.217
 21
-16.9452
  0
LINE
  8
0
 10
157.217
 20
-16.9452
 11
157.212
 21
-16.8265
  0
LINE
  8
0
 10
157.212
 20
-16.8265
 11
157.208
 21
-16.7247
  0
LINE
  8
0
 10
157.208
 20
-16.7247
 11
157.204
 21
-16.6398
  0
LINE
  8
0
 10
157.204
 20
-16.6398
 11
157.193
 21
-16.4203
  0
LINE
  8
0
 10
157.193
 20
-16.4203
 11
157.186
 21
-16.285
  0
LINE
  8
0
 10
157.186
 20
-16.285
 11
157.18
 21
-16.1586
  0
LINE
  8
0
 10
157.18
 20
-16.1586
 11
157.177
 21
-16.0987
  0
LINE
  8
0
 10
157.177
 20
-16.0987
 11
157.175
 21
-16.0424
  0
LINE
  8
0
 10
157.175
 20
-16.0424
 11
157.172
 21
-15.9917
  0
LINE
  8
0
 10
157.172
 20
-15.9917
 11
157.169
 21
-15.9469
  0
LINE
  8
0
 10
157.169
 20
-15.9469
 11
157.166
 21
-15.9077
  0
LINE
  8
0
 10
157.166
 20
-15.9077
 11
157.164
 21
-15.8743
  0
LINE
  8
0
 10
157.164
 20
-15.8743
 11
157.161
 21
-15.8467
  0
LINE
  8
0
 10
157.161
 20
-15.8467
 11
157.158
 21
-15.8247
  0
LINE
  8
0
 10
157.158
 20
-15.8247
 11
157.155
 21
-15.8085
  0
LINE
  8
0
 10
157.155
 20
-15.8085
 11
155.347
 21
-15.8085
  0
LINE
  8
0
 10
155.347
 20
-15.8085
 11
155.362
 21
-15.9451
  0
LINE
  8
0
 10
155.362
 20
-15.9451
 11
155.375
 21
-16.1307
  0
LINE
  8
0
 10
155.375
 20
-16.1307
 11
155.386
 21
-16.3653
  0
LINE
  8
0
 10
155.386
 20
-16.3653
 11
155.395
 21
-16.6488
  0
LINE
  8
0
 10
155.395
 20
-16.6488
 11
155.402
 21
-16.9813
  0
LINE
  8
0
 10
155.402
 20
-16.9813
 11
155.407
 21
-17.3627
  0
LINE
  8
0
 10
155.407
 20
-17.3627
 11
155.41
 21
-17.7931
  0
LINE
  8
0
 10
155.41
 20
-17.7931
 11
155.411
 21
-18.2725
  0
LINE
  8
0
 10
155.411
 20
-18.2725
 11
155.411
 21
-27.3517
  0
LINE
  8
0
 10
155.411
 20
-27.3517
 11
157.315
 21
-27.3517
  0
LINE
  8
0
 10
157.315
 20
-27.3517
 11
157.315
 21
-20.6689
  0
LINE
  8
0
 10
175.036
 20
-20.6689
 11
175.047
 21
-20.2543
  0
LINE
  8
0
 10
175.047
 20
-20.2543
 11
175.081
 21
-19.8638
  0
LINE
  8
0
 10
175.081
 20
-19.8638
 11
175.136
 21
-19.4972
  0
LINE
  8
0
 10
175.136
 20
-19.4972
 11
175.214
 21
-19.1547
  0
LINE
  8
0
 10
175.214
 20
-19.1547
 11
175.314
 21
-18.8361
  0
LINE
  8
0
 10
175.314
 20
-18.8361
 11
175.437
 21
-18.5416
  0
LINE
  8
0
 10
175.437
 20
-18.5416
 11
175.581
 21
-18.2711
  0
LINE
  8
0
 10
175.581
 20
-18.2711
 11
175.748
 21
-18.0246
  0
LINE
  8
0
 10
175.748
 20
-18.0246
 11
175.935
 21
-17.8048
  0
LINE
  8
0
 10
175.935
 20
-17.8048
 11
176.137
 21
-17.6143
  0
LINE
  8
0
 10
176.137
 20
-17.6143
 11
176.355
 21
-17.4531
  0
LINE
  8
0
 10
176.355
 20
-17.4531
 11
176.589
 21
-17.3212
  0
LINE
  8
0
 10
176.589
 20
-17.3212
 11
176.839
 21
-17.2187
  0
LINE
  8
0
 10
176.839
 20
-17.2187
 11
177.104
 21
-17.1454
  0
LINE
  8
0
 10
177.104
 20
-17.1454
 11
177.386
 21
-17.1014
  0
LINE
  8
0
 10
177.386
 20
-17.1014
 11
177.684
 21
-17.0867
  0
LINE
  8
0
 10
177.684
 20
-17.0867
 11
177.97
 21
-17.0968
  0
LINE
  8
0
 10
177.97
 20
-17.0968
 11
178.234
 21
-17.1268
  0
LINE
  8
0
 10
178.234
 20
-17.1268
 11
178.474
 21
-17.1768
  0
LINE
  8
0
 10
178.474
 20
-17.1768
 11
178.692
 21
-17.2467
  0
LINE
  8
0
 10
178.692
 20
-17.2467
 11
178.886
 21
-17.3367
  0
LINE
  8
0
 10
178.886
 20
-17.3367
 11
179.058
 21
-17.4467
  0
LINE
  8
0
 10
179.058
 20
-17.4467
 11
179.206
 21
-17.5767
  0
LINE
  8
0
 10
179.206
 20
-17.5767
 11
179.332
 21
-17.7267
  0
LINE
  8
0
 10
179.332
 20
-17.7267
 11
179.439
 21
-17.9028
  0
LINE
  8
0
 10
179.439
 20
-17.9028
 11
179.532
 21
-18.1112
  0
LINE
  8
0
 10
179.532
 20
-18.1112
 11
179.611
 21
-18.3519
  0
LINE
  8
0
 10
179.611
 20
-18.3519
 11
179.675
 21
-18.6249
  0
LINE
  8
0
 10
179.675
 20
-18.6249
 11
179.725
 21
-18.9303
  0
LINE
  8
0
 10
179.725
 20
-18.9303
 11
179.761
 21
-19.2679
  0
LINE
  8
0
 10
179.761
 20
-19.2679
 11
179.783
 21
-19.6378
  0
LINE
  8
0
 10
179.783
 20
-19.6378
 11
179.79
 21
-20.04
  0
LINE
  8
0
 10
179.79
 20
-20.04
 11
179.79
 21
-27.3517
  0
LINE
  8
0
 10
179.79
 20
-27.3517
 11
181.683
 21
-27.3517
  0
LINE
  8
0
 10
181.683
 20
-27.3517
 11
181.683
 21
-20.6689
  0
LINE
  8
0
 10
181.683
 20
-20.6689
 11
181.694
 21
-20.2518
  0
LINE
  8
0
 10
181.694
 20
-20.2518
 11
181.726
 21
-19.8593
  0
LINE
  8
0
 10
181.726
 20
-19.8593
 11
181.781
 21
-19.4914
  0
LINE
  8
0
 10
181.781
 20
-19.4914
 11
181.857
 21
-19.148
  0
LINE
  8
0
 10
181.857
 20
-19.148
 11
181.955
 21
-18.8291
  0
LINE
  8
0
 10
181.955
 20
-18.8291
 11
182.075
 21
-18.5349
  0
LINE
  8
0
 10
182.075
 20
-18.5349
 11
182.216
 21
-18.2651
  0
LINE
  8
0
 10
182.216
 20
-18.2651
 11
182.379
 21
-18.0199
  0
LINE
  8
0
 10
182.379
 20
-18.0199
 11
182.562
 21
-17.8012
  0
LINE
  8
0
 10
182.562
 20
-17.8012
 11
182.762
 21
-17.6117
  0
LINE
  8
0
 10
182.762
 20
-17.6117
 11
182.98
 21
-17.4513
  0
LINE
  8
0
 10
182.98
 20
-17.4513
 11
183.215
 21
-17.3201
  0
LINE
  8
0
 10
183.215
 20
-17.3201
 11
183.468
 21
-17.218
  0
LINE
  8
0
 10
183.468
 20
-17.218
 11
183.738
 21
-17.1451
  0
LINE
  8
0
 10
183.738
 20
-17.1451
 11
184.025
 21
-17.1013
  0
LINE
  8
0
 10
184.025
 20
-17.1013
 11
184.33
 21
-17.0867
  0
LINE
  8
0
 10
184.33
 20
-17.0867
 11
184.617
 21
-17.0968
  0
LINE
  8
0
 10
184.617
 20
-17.0968
 11
184.88
 21
-17.1268
  0
LINE
  8
0
 10
184.88
 20
-17.1268
 11
185.121
 21
-17.1768
  0
LINE
  8
0
 10
185.121
 20
-17.1768
 11
185.338
 21
-17.2467
  0
LINE
  8
0
 10
185.338
 20
-17.2467
 11
185.533
 21
-17.3367
  0
LINE
  8
0
 10
185.533
 20
-17.3367
 11
185.704
 21
-17.4467
  0
LINE
  8
0
 10
185.704
 20
-17.4467
 11
185.853
 21
-17.5767
  0
LINE
  8
0
 10
185.853
 20
-17.5767
 11
185.979
 21
-17.7267
  0
LINE
  8
0
 10
185.979
 20
-17.7267
 11
186.086
 21
-17.9028
  0
LINE
  8
0
 10
186.086
 20
-17.9028
 11
186.179
 21
-18.1112
  0
LINE
  8
0
 10
186.179
 20
-18.1112
 11
186.258
 21
-18.3519
  0
LINE
  8
0
 10
186.258
 20
-18.3519
 11
186.322
 21
-18.6249
  0
LINE
  8
0
 10
186.322
 20
-18.6249
 11
186.372
 21
-18.9303
  0
LINE
  8
0
 10
186.372
 20
-18.9303
 11
186.408
 21
-19.2679
  0
LINE
  8
0
 10
186.408
 20
-19.2679
 11
186.429
 21
-19.6378
  0
LINE
  8
0
 10
186.429
 20
-19.6378
 11
186.437
 21
-20.04
  0
LINE
  8
0
 10
186.437
 20
-20.04
 11
186.437
 21
-27.3517
  0
LINE
  8
0
 10
186.437
 20
-27.3517
 11
188.33
 21
-27.3517
  0
LINE
  8
0
 10
188.33
 20
-27.3517
 11
188.33
 21
-19.6683
  0
LINE
  8
0
 10
188.33
 20
-19.6683
 11
188.317
 21
-19.1462
  0
LINE
  8
0
 10
188.317
 20
-19.1462
 11
188.28
 21
-18.6622
  0
LINE
  8
0
 10
188.28
 20
-18.6622
 11
188.218
 21
-18.2162
  0
LINE
  8
0
 10
188.218
 20
-18.2162
 11
188.132
 21
-17.8082
  0
LINE
  8
0
 10
188.132
 20
-17.8082
 11
188.02
 21
-17.4383
  0
LINE
  8
0
 10
188.02
 20
-17.4383
 11
187.884
 21
-17.1064
  0
LINE
  8
0
 10
187.884
 20
-17.1064
 11
187.723
 21
-16.8125
  0
LINE
  8
0
 10
187.723
 20
-16.8125
 11
187.538
 21
-16.5566
  0
LINE
  8
0
 10
187.538
 20
-16.5566
 11
187.325
 21
-16.3342
  0
LINE
  8
0
 10
187.325
 20
-16.3342
 11
187.082
 21
-16.1415
  0
LINE
  8
0
 10
187.082
 20
-16.1415
 11
186.81
 21
-15.9784
  0
LINE
  8
0
 10
186.81
 20
-15.9784
 11
186.508
 21
-15.845
  0
LINE
  8
0
 10
186.508
 20
-15.845
 11
186.176
 21
-15.7412
  0
LINE
  8
0
 10
186.176
 20
-15.7412
 11
185.814
 21
-15.6671
  0
LINE
  8
0
 10
185.814
 20
-15.6671
 11
185.423
 21
-15.6226
  0
LINE
  8
0
 10
185.423
 20
-15.6226
 11
185.002
 21
-15.6078
  0
LINE
  8
0
 10
185.002
 20
-15.6078
 11
184.706
 21
-15.6158
  0
LINE
  8
0
 10
184.706
 20
-15.6158
 11
184.422
 21
-15.6397
  0
LINE
  8
0
 10
184.422
 20
-15.6397
 11
184.15
 21
-15.6797
  0
LINE
  8
0
 10
184.15
 20
-15.6797
 11
183.888
 21
-15.7356
  0
LINE
  8
0
 10
183.888
 20
-15.7356
 11
183.638
 21
-15.8075
  0
LINE
  8
0
 10
183.638
 20
-15.8075
 11
183.398
 21
-15.8954
  0
LINE
  8
0
 10
183.398
 20
-15.8954
 11
183.17
 21
-15.9992
  0
LINE
  8
0
 10
183.17
 20
-15.9992
 11
182.953
 21
-16.1191
  0
LINE
  8
0
 10
182.953
 20
-16.1191
 11
182.746
 21
-16.2571
  0
LINE
  8
0
 10
182.746
 20
-16.2571
 11
182.546
 21
-16.4154
  0
LINE
  8
0
 10
182.546
 20
-16.4154
 11
182.354
 21
-16.5941
  0
LINE
  8
0
 10
182.354
 20
-16.5941
 11
182.17
 21
-16.7931
  0
LINE
  8
0
 10
182.17
 20
-16.7931
 11
181.994
 21
-17.0124
  0
LINE
  8
0
 10
181.994
 20
-17.0124
 11
181.826
 21
-17.2521
  0
LINE
  8
0
 10
181.826
 20
-17.2521
 11
181.665
 21
-17.5121
  0
LINE
  8
0
 10
181.665
 20
-17.5121
 11
181.512
 21
-17.7925
  0
LINE
  8
0
 10
181.512
 20
-17.7925
 11
181.481
 21
-17.7925
  0
LINE
  8
0
 10
181.481
 20
-17.7925
 11
181.399
 21
-17.5171
  0
LINE
  8
0
 10
181.399
 20
-17.5171
 11
181.303
 21
-17.261
  0
LINE
  8
0
 10
181.303
 20
-17.261
 11
181.192
 21
-17.0243
  0
LINE
  8
0
 10
181.192
 20
-17.0243
 11
181.067
 21
-16.8068
  0
LINE
  8
0
 10
181.067
 20
-16.8068
 11
180.927
 21
-16.6086
  0
LINE
  8
0
 10
180.927
 20
-16.6086
 11
180.773
 21
-16.4298
  0
LINE
  8
0
 10
180.773
 20
-16.4298
 11
180.605
 21
-16.2703
  0
LINE
  8
0
 10
180.605
 20
-16.2703
 11
180.422
 21
-16.13
  0
LINE
  8
0
 10
180.422
 20
-16.13
 11
180.224
 21
-16.0077
  0
LINE
  8
0
 10
180.224
 20
-16.0077
 11
180.008
 21
-15.9016
  0
LINE
  8
0
 10
180.008
 20
-15.9016
 11
179.775
 21
-15.8118
  0
LINE
  8
0
 10
179.775
 20
-15.8118
 11
179.526
 21
-15.7384
  0
LINE
  8
0
 10
179.526
 20
-15.7384
 11
179.259
 21
-15.6812
  0
LINE
  8
0
 10
179.259
 20
-15.6812
 11
178.974
 21
-15.6404
  0
LINE
  8
0
 10
178.974
 20
-15.6404
 11
178.673
 21
-15.6159
  0
LINE
  8
0
 10
178.673
 20
-15.6159
 11
178.355
 21
-15.6078
  0
LINE
  8
0
 10
178.355
 20
-15.6078
 11
178.073
 21
-15.6153
  0
LINE
  8
0
 10
178.073
 20
-15.6153
 11
177.802
 21
-15.6378
  0
LINE
  8
0
 10
177.802
 20
-15.6378
 11
177.542
 21
-15.6753
  0
LINE
  8
0
 10
177.542
 20
-15.6753
 11
177.293
 21
-15.7278
  0
LINE
  8
0
 10
177.293
 20
-15.7278
 11
177.055
 21
-15.7953
  0
LINE
  8
0
 10
177.055
 20
-15.7953
 11
176.828
 21
-15.8777
  0
LINE
  8
0
 10
176.828
 20
-15.8777
 11
176.612
 21
-15.9752
  0
LINE
  8
0
 10
176.612
 20
-15.9752
 11
176.407
 21
-16.0877
  0
LINE
  8
0
 10
176.407
 20
-16.0877
 11
176.211
 21
-16.2193
  0
LINE
  8
0
 10
176.211
 20
-16.2193
 11
176.02
 21
-16.3742
  0
LINE
  8
0
 10
176.02
 20
-16.3742
 11
175.835
 21
-16.5524
  0
LINE
  8
0
 10
175.835
 20
-16.5524
 11
175.655
 21
-16.7539
  0
LINE
  8
0
 10
175.655
 20
-16.7539
 11
175.481
 21
-16.9786
  0
LINE
  8
0
 10
175.481
 20
-16.9786
 11
175.313
 21
-17.2266
  0
LINE
  8
0
 10
175.313
 20
-17.2266
 11
175.151
 21
-17.4979
  0
LINE
  8
0
 10
175.151
 20
-17.4979
 11
174.994
 21
-17.7925
  0
LINE
  8
0
 10
174.994
 20
-17.7925
 11
174.962
 21
-17.7925
  0
LINE
  8
0
 10
174.962
 20
-17.7925
 11
174.957
 21
-17.5892
  0
LINE
  8
0
 10
174.957
 20
-17.5892
 11
174.952
 21
-17.4029
  0
LINE
  8
0
 10
174.952
 20
-17.4029
 11
174.947
 21
-17.2334
  0
LINE
  8
0
 10
174.947
 20
-17.2334
 11
174.942
 21
-17.0809
  0
LINE
  8
0
 10
174.942
 20
-17.0809
 11
174.937
 21
-16.9452
  0
LINE
  8
0
 10
174.937
 20
-16.9452
 11
174.933
 21
-16.8265
  0
LINE
  8
0
 10
174.933
 20
-16.8265
 11
174.929
 21
-16.7247
  0
LINE
  8
0
 10
174.929
 20
-16.7247
 11
174.925
 21
-16.6398
  0
LINE
  8
0
 10
174.925
 20
-16.6398
 11
174.914
 21
-16.4203
  0
LINE
  8
0
 10
174.914
 20
-16.4203
 11
174.907
 21
-16.285
  0
LINE
  8
0
 10
174.907
 20
-16.285
 11
174.901
 21
-16.1586
  0
LINE
  8
0
 10
174.901
 20
-16.1586
 11
174.898
 21
-16.0987
  0
LINE
  8
0
 10
174.898
 20
-16.0987
 11
174.895
 21
-16.0424
  0
LINE
  8
0
 10
174.895
 20
-16.0424
 11
174.893
 21
-15.9917
  0
LINE
  8
0
 10
174.893
 20
-15.9917
 11
174.89
 21
-15.9469
  0
LINE
  8
0
 10
174.89
 20
-15.9469
 11
174.887
 21
-15.9077
  0
LINE
  8
0
 10
174.887
 20
-15.9077
 11
174.884
 21
-15.8743
  0
LINE
  8
0
 10
174.884
 20
-15.8743
 11
174.882
 21
-15.8467
  0
LINE
  8
0
 10
174.882
 20
-15.8467
 11
174.879
 21
-15.8247
  0
LINE
  8
0
 10
174.879
 20
-15.8247
 11
174.876
 21
-15.8085
  0
LINE
  8
0
 10
174.876
 20
-15.8085
 11
173.068
 21
-15.8085
  0
LINE
  8
0
 10
173.068
 20
-15.8085
 11
173.083
 21
-15.9451
  0
LINE
  8
0
 10
173.083
 20
-15.9451
 11
173.096
 21
-16.1307
  0
LINE
  8
0
 10
173.096
 20
-16.1307
 11
173.107
 21
-16.3653
  0
LINE
  8
0
 10
173.107
 20
-16.3653
 11
173.116
 21
-16.6488
  0
LINE
  8
0
 10
173.116
 20
-16.6488
 11
173.123
 21
-16.9813
  0
LINE
  8
0
 10
173.123
 20
-16.9813
 11
173.128
 21
-17.3627
  0
LINE
  8
0
 10
173.128
 20
-17.3627
 11
173.131
 21
-17.7931
  0
LINE
  8
0
 10
173.131
 20
-17.7931
 11
173.132
 21
-18.2725
  0
LINE
  8
0
 10
173.132
 20
-18.2725
 11
173.132
 21
-27.3517
  0
LINE
  8
0
 10
173.132
 20
-27.3517
 11
175.036
 21
-27.3517
  0
LINE
  8
0
 10
175.036
 20
-27.3517
 11
175.036
 21
-20.6689
  0
ENDSEC
  0
SECTION
  2
OBJECTS
  0
DICTIONARY
  0
ENDSEC
  0
EOF
